<?xml version="1.0" encoding="utf-8"?>
<!-- Generator: Adobe Illustrator 23.1.1, SVG Export Plug-In . SVG Version: 6.00 Build 0)  -->
<svg version="1.1" id="Layer_1" xmlns="http://www.w3.org/2000/svg" xmlns:xlink="http://www.w3.org/1999/xlink" x="0px" y="0px"
	 viewBox="0 0 60 60" style="enable-background:new 0 0 60 60;" xml:space="preserve">
<style type="text/css">
	.st0{fill:#306EB3;}
</style>
<title>icon-encrypt-password-green-16h-proximax-sirius-wallet</title>
<g>
	<path class="st0" d="M30,0C13.4,0,0,13.4,0,30s13.4,30,30,30s30-13.4,30-30S46.6,0,30,0z M30,58.1C14.5,58.1,1.9,45.5,1.9,30
		S14.5,1.9,30,1.9c15.5,0,28.1,12.6,28.1,28.1C58.1,45.5,45.5,58.1,30,58.1z"/>
</g>
<g>
	<path class="st0" d="M25.5,35.8l-2.1,1.1l2.1,1.1l-0.7,1.2l-2-1.3l0.1,2.4h-1.4l0.1-2.4l-2,1.3L18.9,38l2.1-1.1l-2.1-1.1l0.7-1.2
		l2,1.3l-0.1-2.4h1.4l-0.1,2.4l2-1.3L25.5,35.8z M32.4,34.6l-2,1.3l0.1-2.4h-1.4l0.1,2.4l-2-1.3l-0.7,1.2l2.1,1.1L26.6,38l0.7,1.2
		l2-1.3l-0.1,2.4h1.4l-0.1-2.4l2,1.3l0.7-1.2L31,36.9l2.1-1.1L32.4,34.6z M40,34.6l-2,1.3l0.1-2.4h-1.4l0.1,2.4l-2-1.3l-0.7,1.2
		l2.1,1.1L34.2,38l0.7,1.2l2-1.3l-0.1,2.4h1.4L38,37.9l2,1.3l0.7-1.2l-2.1-1.1l2.1-1.1L40,34.6z M47.9,33.5v6.8c0,3.7-3,6.7-6.8,6.8
		H18.6c-3.7,0-6.7-3-6.8-6.8v-6.8c0-2.8,1.8-5.4,4.5-6.3v-4.9c0-3.9,2.8-11.3,13.5-11.3s13.5,7.4,13.5,11.3v4.9
		C46,28.1,47.8,30.7,47.9,33.5z M20.9,26.8h18v-4.5c0-0.7-0.4-6.8-9-6.8c-8.9,0-9,6.5-9,6.8V26.8z M43.4,33.5c0-1.2-1-2.2-2.2-2.2
		H18.6c-1.2,0-2.2,1-2.3,2.2v6.8c0,1.2,1,2.2,2.3,2.2h22.5c1.2,0,2.2-1,2.2-2.2L43.4,33.5z"/>
</g>
</svg>
