<svg id="Layer_1" data-name="Layer 1" xmlns="http://www.w3.org/2000/svg" viewBox="0 0 16 16"><defs><style>.cls-1{fill:#666;}.cls-2{fill:#fff;}</style></defs><title>icon-doc-type-jpg-16h-proximax-sirius-wallet</title><path class="cls-1" d="M14,1H4A2,2,0,0,0,2,3V6H3V3A1,1,0,0,1,4,2H14a1,1,0,0,1,1,1V7H1A1,1,0,0,0,0,8v5a1,1,0,0,0,1,1H2a2,2,0,0,0,2,2H14a2,2,0,0,0,2-2V3A2,2,0,0,0,14,1Zm0,14H4a1,1,0,0,1-1-1H15A1,1,0,0,1,14,15ZM6,4,8,6H4Zm8,2H8a3,3,0,0,1,6,0Z"/><path class="cls-2" d="M3.46,11.9l.31-.54a.78.78,0,0,0,.53.24.5.5,0,0,0,.52-.54V8.83h.71v2.24a1.07,1.07,0,0,1-1.18,1.16A1.22,1.22,0,0,1,3.46,11.9Z"/><path class="cls-2" d="M6.18,12.17V8.83H7.75a1.08,1.08,0,1,1,0,2.15H6.9v1.19Zm2-2.26a.45.45,0,0,0-.49-.46H6.9v.91h.75A.45.45,0,0,0,8.14,9.91Z"/><path class="cls-2" d="M9.14,10.5a1.7,1.7,0,0,1,1.78-1.73,1.55,1.55,0,0,1,1.38.75l-.59.32a.93.93,0,0,0-.79-.44,1,1,0,0,0-1,1.1,1,1,0,0,0,1,1.1,1.08,1.08,0,0,0,.71-.26v-.4h-.88v-.62h1.59V11.6a1.84,1.84,0,0,1-1.42.63A1.71,1.71,0,0,1,9.14,10.5Z"/></svg>