<svg id="Layer_1" data-name="Layer 1" xmlns="http://www.w3.org/2000/svg" viewBox="0 0 16 16"><defs><style>.cls-1{fill:#666;}.cls-2{fill:#fff;}</style></defs><title>icon-doc-type-odt-16h-proximax-sirius-wallet</title><path class="cls-1" d="M11,4H5V3h6ZM5,6h5V5H5ZM16,4V14a2,2,0,0,1-2,2H6a2,2,0,0,1-2-2H1a1,1,0,0,1-1-1V8A1,1,0,0,1,1,7H15V4a1,1,0,0,0-1-1V6H13V2a1,1,0,0,0-1-1H4A1,1,0,0,0,3,2V6H2V2A2,2,0,0,1,4,0h8a2,2,0,0,1,2,2A2,2,0,0,1,16,4ZM15,14H5a1,1,0,0,0,1,1h8A1,1,0,0,0,15,14Z"/><path class="cls-2" d="M3.07,10.5A1.67,1.67,0,0,1,4.81,8.77a1.73,1.73,0,1,1,0,3.46A1.67,1.67,0,0,1,3.07,10.5Zm2.76,0a1,1,0,0,0-1-1.1,1,1,0,0,0-1,1.1,1,1,0,0,0,1,1.1A1,1,0,0,0,5.83,10.5Z"/><path class="cls-2" d="M7.05,12.17V8.83H8.37a1.67,1.67,0,1,1,0,3.34ZM9.42,10.5A1,1,0,0,0,8.37,9.45H7.76v2.09h.61A1,1,0,0,0,9.42,10.5Z"/><path class="cls-2" d="M11.29,12.17V9.45h-1V8.83H13v.62H12v2.72Z"/></svg>