<?xml version="1.0" encoding="utf-8"?>
<!-- Generator: Adobe Illustrator 23.1.1, SVG Export Plug-In . SVG Version: 6.00 Build 0)  -->
<svg version="1.1" id="Layer_1" xmlns="http://www.w3.org/2000/svg" xmlns:xlink="http://www.w3.org/1999/xlink" x="0px" y="0px"
	 viewBox="0 0 50 50" style="enable-background:new 0 0 50 50;" xml:space="preserve">
<style type="text/css">
	.st0{fill:#FFFFFF;}
</style>
<title>icon-wallet-import-white-proximax-sirius-wallet</title>
<g>
	<path class="st0" d="M25,0C11.2,0,0,11.2,0,25s11.2,25,25,25c13.8,0,25-11.2,25-25S38.8,0,25,0z M25,48.4
		C12.1,48.4,1.6,37.9,1.6,25C1.6,12.1,12.1,1.6,25,1.6S48.4,12.1,48.4,25C48.4,37.9,37.9,48.4,25,48.4z M31.4,30.7h5.9v4.4
		c0,0.9-0.7,1.6-1.6,1.6H24.6c0.6-0.2,1.1-0.6,1.4-1.2c0.1-0.3,0.2-0.6,0.2-1c0-0.5-0.2-1.1-0.5-1.5l-4.4-5.3
		c-0.4-0.5-1.1-0.9-1.8-0.9c-0.7,0-1.3,0.3-1.8,0.8l-4.4,5.4c-0.6,0.7-0.7,1.6-0.3,2.4c0.3,0.6,0.8,1,1.4,1.2h-1.7
		c-0.9,0-1.6-0.7-1.6-1.6V19.6v-1.8v-0.2c0-0.1,0-0.6,0.1-0.7c0.1-0.2,0.2-0.3,0.3-0.5c0.3-0.4,0.7-0.5,1.2-0.5h0.9h0.3h1.5h1.2
		L14,17.4c-1.5,1-0.8,2-0.3,2h21.5c0.4,0,0.6-0.4,0.5-0.7l-1.1-2.5h0.2h0.5h0.4c0.9,0,1.6,0.7,1.6,1.6v4.3H37h-0.5H36h-4.6
		c-0.1,0-0.2,0-0.3,0c-0.6,0.1-1.2,0.4-1.6,0.8c-0.5,0.5-0.8,1.1-0.8,1.9v1.1v0.5v0.5V28C28.7,29.5,29.9,30.7,31.4,30.7z M15.6,17.5
		l13.9-7.3c0.7-0.4,1.6-0.1,2,0.7l2.8,6.8c0.1,0.3-0.1,0.6-0.4,0.6H15.8C15.4,18.2,15.2,17.7,15.6,17.5z M37.9,23.1
		C37.7,23,37.5,23,37.4,23h0h0h-0.5H35h-3.7c-0.9,0-1.6,0.7-1.6,1.6v0.8v0.5v0.5V28c0,0.9,0.7,1.6,1.6,1.6h5.9h0
		c0.2,0,0.3,0,0.5-0.1c0.2-0.1,0.4-0.2,0.5-0.3c0.3-0.3,0.5-0.7,0.5-1.2v-3.5c0-0.5-0.2-0.9-0.5-1.2C38.2,23.3,38.1,23.2,37.9,23.1z
		 M34.6,26.6c0,0.4-0.3,0.8-0.8,0.8h-0.5c-0.4,0-0.8-0.4-0.8-0.8v-0.5c0-0.2,0.1-0.5,0.3-0.6c0.1-0.1,0.3-0.2,0.5-0.2h0.1h0.4
		c0.4,0,0.8,0.4,0.8,0.8V26.6z M24.6,34.8c-0.1,0.3-0.5,0.5-0.8,0.5h-2.6v6.2c0,0.5-0.4,0.9-0.9,0.9h-1.7c-0.5,0-0.9-0.4-0.9-0.9
		v-6.2h-2.6c-0.3,0-0.6-0.2-0.8-0.5c-0.1-0.3-0.1-0.7,0.1-0.9l4.4-5.4c0.2-0.2,0.4-0.3,0.7-0.3c0.3,0,0.5,0.1,0.7,0.3l4.4,5.4
		c0.1,0.2,0.2,0.4,0.2,0.6C24.7,34.6,24.7,34.7,24.6,34.8z"/>
</g>
</svg>
