<svg id="Layer_1" data-name="Layer 1" xmlns="http://www.w3.org/2000/svg" viewBox="0 0 38 28"><defs><style>.cls-1{fill:#666;}</style></defs><title>icon-upload-gray-28h-proximax-sirius-wallet</title><path class="cls-1" d="M36.35,15.62a7.53,7.53,0,0,0-4.23-2.69,4.92,4.92,0,0,0,.81-2.75,4.93,4.93,0,0,0-1.48-3.6,4.89,4.89,0,0,0-3.58-1.49,4.84,4.84,0,0,0-3.29,1.23A10.15,10.15,0,0,0,15.2,0,9.7,9.7,0,0,0,8,3a9.84,9.84,0,0,0-3,7.2c0,.17,0,.46,0,.86A8.91,8.91,0,0,0,0,19.09a8.61,8.61,0,0,0,2.6,6.29A8.52,8.52,0,0,0,8.87,28H30.4a7.3,7.3,0,0,0,5.37-2.24A7.35,7.35,0,0,0,38,20.36,7.43,7.43,0,0,0,36.35,15.62Zm-11.21-.54a.58.58,0,0,1-.44.19H20.27v7a.65.65,0,0,1-.19.45.61.61,0,0,1-.45.19h-3.8a.58.58,0,0,1-.44-.19.61.61,0,0,1-.19-.45v-7H10.77a.62.62,0,0,1-.46-.18.61.61,0,0,1-.18-.45.77.77,0,0,1,.2-.48l7-7A.61.61,0,0,1,17.73,7a.62.62,0,0,1,.46.18l7,7a.62.62,0,0,1,.18.46A.58.58,0,0,1,25.14,15.08Z"/></svg>