<svg id="Layer_1" data-name="Layer 1" xmlns="http://www.w3.org/2000/svg" viewBox="0 0 16 16"><defs><style>.cls-1{fill:#666;}.cls-2{fill:#fff;}</style></defs><title>icon-doc-type-pptx-16h-proximax-sirius-wallet</title><path class="cls-1" d="M14,2a2,2,0,0,0-2-2H4A2,2,0,0,0,2,2V6H3V2A1,1,0,0,1,4,1h8a1,1,0,0,1,1,1V6h1V3a1,1,0,0,1,1,1V7H1A1,1,0,0,0,0,8v5a1,1,0,0,0,1,1H4a2,2,0,0,0,2,2h8a2,2,0,0,0,2-2V4A2,2,0,0,0,14,2Zm0,13H6a1,1,0,0,1-1-1H15A1,1,0,0,1,14,15ZM7,4H4V3H7ZM4,5H7V6H4Zm6-2V5l1.78-.89A1.92,1.92,0,0,1,12,5a2,2,0,0,1-.28,1H8.28A2,2,0,0,1,10,3Z"/><path class="cls-2" d="M2.08,12.17V8.83H3.65a1.08,1.08,0,1,1,0,2.15H2.8v1.19ZM4,9.91a.45.45,0,0,0-.49-.46H2.8v.91h.75A.45.45,0,0,0,4,9.91Z"/><path class="cls-2" d="M5.21,12.17V8.83H6.77a1.08,1.08,0,1,1,0,2.15H5.92v1.19Zm2-2.26a.45.45,0,0,0-.49-.46H5.92v.91h.75A.45.45,0,0,0,7.16,9.91Z"/><path class="cls-2" d="M9.1,12.17V9.45h-1V8.83h2.66v.62h-1v2.72Z"/><path class="cls-2" d="M13.41,12.17,12.58,11l-.84,1.22h-.85l1.21-1.71L11,8.83h.85L12.58,10l.75-1.14h.86l-1.14,1.62,1.21,1.72Z"/></svg>