<svg id="Layer_1" data-name="Layer 1" xmlns="http://www.w3.org/2000/svg" viewBox="0 0 16 16"><defs><style>.cls-1{fill:#666;}.cls-2{fill:#fff;}</style></defs><title>icon-doc-type-tar-16h-proximax-sirius-wallet</title><path class="cls-1" d="M9,0,2,2v.8H2l0,3.2h1L3,3.17l5.48,2V6h1V5.16l5.5-2V7H1A1,1,0,0,0,0,8v5a1,1,0,0,0,1,1H4.45l4.62,2,4.62-2H15a1,1,0,0,0,1-1h0V2ZM9,4.26,4,2.48,9,1l5.05,1.44ZM7,14H8.5v.66Zm2.53.72V14h1.67Z"/><path class="cls-2" d="M4.49,12.17V9.45h-1V8.83H6.18v.62h-1v2.72Z"/><path class="cls-2" d="M8.61,12.17l-.2-.57H7l-.21.57H6L7.24,8.83h.89l1.29,3.34ZM7.69,9.54,7.17,11h1Z"/><path class="cls-2" d="M11.61,12.17,11,11h-.52v1.19H9.73V8.83h1.56a1,1,0,0,1,1.12,1.08,1,1,0,0,1-.73,1l.75,1.27Zm.07-2.26a.45.45,0,0,0-.5-.46h-.74v.91h.74A.46.46,0,0,0,11.68,9.91Z"/></svg>