<svg id="Layer_1" data-name="Layer 1" xmlns="http://www.w3.org/2000/svg" viewBox="0 0 16 16"><defs><style>.cls-1{fill:#666;}.cls-2{fill:#fff;}</style></defs><title>icon-doc-type-pdf-16h-proximax-sirius-wallet</title><path class="cls-1" d="M11,4H5V3h6ZM5,6h5V5H5ZM16,4V14a2,2,0,0,1-2,2H6a2,2,0,0,1-2-2H1a1,1,0,0,1-1-1V8A1,1,0,0,1,1,7H15V4a1,1,0,0,0-1-1V6H13V2a1,1,0,0,0-1-1H4A1,1,0,0,0,3,2V6H2V2A2,2,0,0,1,4,0h8a2,2,0,0,1,2,2A2,2,0,0,1,16,4ZM15,14H5a1,1,0,0,0,1,1h8A1,1,0,0,0,15,14Z"/><path class="cls-2" d="M3.55,12.17V8.83H5.11a1.08,1.08,0,1,1,0,2.15H4.26v1.19Zm2-2.26A.45.45,0,0,0,5,9.45H4.26v.91H5A.45.45,0,0,0,5.5,9.91Z"/><path class="cls-2" d="M6.67,12.17V8.83H8a1.67,1.67,0,1,1,0,3.34ZM9,10.5A1,1,0,0,0,8,9.45h-.6v2.09H8A1,1,0,0,0,9,10.5Z"/><path class="cls-2" d="M10.26,12.17V8.83h2.36v.62H11v.71h1.61v.63H11v1.38Z"/></svg>