<svg id="Layer_1" data-name="Layer 1" xmlns="http://www.w3.org/2000/svg" viewBox="0 0 16 16"><defs><style>.cls-1{fill:#666;}.cls-2{fill:#fff;}</style></defs><title>icon-doc-type-gif-16h-proximax-sirius-wallet</title><path class="cls-1" d="M14,1H4A2,2,0,0,0,2,3V6H3V3A1,1,0,0,1,4,2H14a1,1,0,0,1,1,1V7H1A1,1,0,0,0,0,8v5a1,1,0,0,0,1,1H2a2,2,0,0,0,2,2H14a2,2,0,0,0,2-2V3A2,2,0,0,0,14,1Zm0,14H4a1,1,0,0,1-1-1H15A1,1,0,0,1,14,15ZM6,4,8,6H4Zm8,2H8a3,3,0,0,1,6,0Z"/><path class="cls-2" d="M4.26,10.5A1.69,1.69,0,0,1,6,8.77a1.56,1.56,0,0,1,1.38.75l-.59.32A.94.94,0,0,0,6,9.4a1,1,0,0,0-1,1.1,1,1,0,0,0,1,1.1,1.12,1.12,0,0,0,.71-.26v-.4H5.86v-.62h1.6V11.6A1.86,1.86,0,0,1,6,12.23,1.7,1.7,0,0,1,4.26,10.5Z"/><path class="cls-2" d="M8,12.17V8.83h.71v3.34Z"/><path class="cls-2" d="M9.39,12.17V8.83h2.36v.62H10.1v.71h1.61v.63H10.1v1.38Z"/></svg>