<?xml version="1.0" encoding="utf-8"?>
<!-- Generator: Adobe Illustrator 23.1.1, SVG Export Plug-In . SVG Version: 6.00 Build 0)  -->
<svg version="1.1" id="Layer_1" xmlns="http://www.w3.org/2000/svg" xmlns:xlink="http://www.w3.org/1999/xlink" x="0px" y="0px"
	 viewBox="0 0 60 60" style="enable-background:new 0 0 60 60;" xml:space="preserve">
<style type="text/css">
	.st0{fill:#306EB3;}
</style>
<title>icon-messenger-green-16h-proximax-sirius-wallet</title>
<g>
	<path class="st0" d="M26.3,17.4c-8.2,0-14.8,5.4-14.8,12.1c0.1,3.3,1.6,6.4,4.2,8.4c-0.1,2.2-0.6,5-2.1,6.4c2.9,0,5.9-1.9,7.8-3.5
		c1.6,0.5,3.3,0.7,5,0.7c8.2,0,14.8-5.4,14.8-12.1S34.5,17.4,26.3,17.4z"/>
</g>
<g>
	<path class="st0" d="M45.6,30.9c1.2-1.8,1.9-3.9,1.9-6c0-6.7-6.5-12.1-14.6-12.1c-3.3,0-6.6,0.9-9.3,2.8c1.2-0.2,2.5-0.4,3.7-0.4
		C36,15.2,43,21.1,43,28.5c0,2.9-1.1,5.6-3,7.8c1.8,1.5,4.8,3.5,7.6,3.5C45.7,37.7,45.5,33,45.6,30.9z"/>
</g>
<g>
	<path class="st0" d="M30,0C13.4,0,0,13.4,0,30s13.4,30,30,30s30-13.4,30-30S46.6,0,30,0z M30,58.1C14.5,58.1,1.9,45.5,1.9,30
		S14.5,1.9,30,1.9S58.1,14.5,58.1,30c0,0,0,0,0,0C58.1,45.5,45.5,58.1,30,58.1z"/>
</g>
</svg>
