<svg id="Layer_1" data-name="Layer 1" xmlns="http://www.w3.org/2000/svg" viewBox="0 0 40 40"><defs><style>.cls-1{fill:#fff;}</style></defs><title>icon-copy-edit-white</title><rect class="cls-1" x="14.07" y="11.09" width="21.85" height="7.05" transform="translate(-3.01 21.95) rotate(-45)"/><polygon class="cls-1" points="12.26 27.35 17.76 25.82 13.78 21.84 12.26 27.35"/><path class="cls-1" d="M37.83,6.76a2.65,2.65,0,0,0,0-3.74L36.59,1.77a2.65,2.65,0,0,0-3.74,0L31.72,2.9l5,5Z"/><path class="cls-1" d="M36.68,20.54a1.62,1.62,0,0,0-1.62,1.63V34.65A1.09,1.09,0,0,1,34,35.74H5.75a1.09,1.09,0,0,1-1.09-1.09V6.44a1.09,1.09,0,0,1,1.09-1.1H18.23a1.63,1.63,0,1,0,0-3.25H5.75A4.35,4.35,0,0,0,1.4,6.44V34.65A4.35,4.35,0,0,0,5.75,39H34a4.35,4.35,0,0,0,4.35-4.35V22.17A1.63,1.63,0,0,0,36.68,20.54Z"/></svg>