<?xml version="1.0" encoding="utf-8"?>
<!-- Generator: Adobe Illustrator 23.0.1, SVG Export Plug-In . SVG Version: 6.00 Build 0)  -->
<svg version="1.1" id="Layer_1" xmlns="http://www.w3.org/2000/svg" xmlns:xlink="http://www.w3.org/1999/xlink" x="0px" y="0px"
	 viewBox="0 0 841.89 595.28" style="enable-background:new 0 0 841.89 595.28;" xml:space="preserve">
<style type="text/css">
	.st0{fill-rule:evenodd;clip-rule:evenodd;fill:#F06623;}
	.st1{fill-rule:evenodd;clip-rule:evenodd;fill:#79B6E3;}
	.st2{fill-rule:evenodd;clip-rule:evenodd;fill:#1FB4AC;}
	.st3{fill-rule:evenodd;clip-rule:evenodd;fill:#F3A91D;}
	.st4{fill:#121212;}
	.st5{fill:#F06623;}
	.st6{fill:#F3A91D;}
	.st7{fill:#1FB4AC;}
	.st8{fill:#79B6E3;}
	.st9{fill:#CE5027;}
	.st10{fill:#C7872B;}
	.st11{fill:#009F91;}
	.st12{fill:#498FBF;}
	.st13{fill:#FFFFFF;}
	.st14{fill:#636466;}
	.st15{fill:#7B7C7F;}
	.st16{fill:#939598;}
	.st17{opacity:0.4;}
	.st18{fill:#221F1F;}
	.st19{fill:#1A1A1A;}
	.st20{fill-rule:evenodd;clip-rule:evenodd;fill:#636466;}
	.st21{fill-rule:evenodd;clip-rule:evenodd;fill:#A7A9AC;}
	.st22{fill-rule:evenodd;clip-rule:evenodd;fill:#939598;}
	.st23{fill-rule:evenodd;clip-rule:evenodd;fill:#7B7C7F;}
</style>
<g>
	<path class="st0" d="M483.19,114.2c70.18-19.98,99.98-14.84,154.74-9.13C565,70.69,485.33,51.89,404.56,51.89
		c-12.02,0-24.03,0.43-35.98,1.24c17.7,9.78,34.95,22.63,48.47,36.41c8.34,8.51,25.47,28.45,37.2,30.48
		C463.19,121.58,476.38,116.14,483.19,114.2"/>
	<path class="st1" d="M570.25,401.23c-6.09-27.03-14.15-53.88-22.49-79.68c-4.35-13.47-9.12-26.78-13.83-40.13
		c-4.6-13.07-9.68-25.95-14.95-38.77c-23.42-54.91-21-55.18,21.83-79.9c29.07-14.8,74.78-35.75,107.51-34.12
		c1.14,0.06,2.27,0.14,3.4,0.23C651.62,227.07,622.47,321.44,570.25,401.23"/>
	<path class="st2" d="M209.88,350.7c27.82-21.92,58.95-42.82,81.59-57.14c30.94-19.59,70.37-39.91,93.37-50.81
		c9.93-4.71,23.19-11.34,32.77-12.07c3.97-0.3,7.67,0.02,10.18,1.1c10.29,4.34,27.51,32.11,27.51,32.11l0.2,0.29
		c3.07,4.47,5.85,9.17,9.06,13.54c3.4,4.65,6.55,9.97,9.56,14.89c4.54,7.4,8.99,14.85,13.4,22.32
		c7.14,12.07,14.91,24.74,21.33,37.17c10.66,20.68,25.59,50.03,38.38,81.4c-36.86,47.6-82.53,88.81-135.58,120.96l-7.09,4.29
		l-7.09-4.29C315.61,504.85,251.26,433.62,209.88,350.7"/>
	<path class="st3" d="M317.01,59.23c2.58,2.81,5,5.6,7.21,8.25c4.92,5.89,9.67,12.08,14.28,18.23c4.9,6.52,11.53,14.56,15.46,21.67
		c6.53,11.84,20.37,29.69,24.48,40.64c0,0,2.6,6.3,1.57,10.64c-1.07,4.51-5.13,7.43-5.13,7.43c-5.33,4.38-7.94,5.76-12.47,9.07
		c-19.98,14.61-39.05,30.22-58.42,45.6c-21.66,17.2-43.19,37.47-63.06,56.76c-13.69,13.28-29.16,29.23-43.56,46.09
		c-27.02-63.34-41.07-132.55-39.88-203.6l0.14-8.41l7.56-3.67C213.33,84.58,264.48,68.03,317.01,59.23"/>
</g>
</svg>
