<svg id="Layer_1" data-name="Layer 1" xmlns="http://www.w3.org/2000/svg" viewBox="0 0 16 16"><defs><style>.cls-1{fill:#7bafb5;}</style></defs><title>icon-mosaics-light-green</title><path class="cls-1" d="M15.14,3.11,8.15,0a.52.52,0,0,0-.4,0l-7,3.11a.5.5,0,0,0,0,.91l7,3.07a.52.52,0,0,0,.21,0,.71.71,0,0,0,.2,0l7-3.11A.5.5,0,0,0,15.14,3.11ZM8,6.4,1.59,3.6,8,.77l6.37,2.8ZM7.64,8.23l0,7.27A.5.5,0,0,1,7,16L.32,13.13a.51.51,0,0,1-.3-.46L0,5.4a.5.5,0,0,1,.7-.46L7.34,7.77A.51.51,0,0,1,7.64,8.23ZM16,5.36a.49.49,0,0,0-.5-.49.51.51,0,0,0-.2,0L8.66,7.77a.49.49,0,0,0-.3.46V15.5a.5.5,0,0,0,.5.5.46.46,0,0,0,.2-.05l6.63-2.86a.5.5,0,0,0,.3-.45ZM9.12,15.12V8.39l6.12-2.65,0,6.73Z"/></svg>