<svg id="Layer_1" data-name="Layer 1" xmlns="http://www.w3.org/2000/svg" viewBox="0 0 16 16"><defs><style>.cls-1{fill:#666;}.cls-2{fill:#fff;}</style></defs><title>icon-doc-type-docx-16h-proximax-sirius-wallet</title><rect class="cls-1" x="5" y="3" width="6" height="1"/><rect class="cls-1" x="5" y="5" width="5" height="1"/><rect class="cls-1" y="7" width="16" height="7" rx="1"/><path class="cls-1" d="M14,2a2,2,0,0,0-2-2H4A2,2,0,0,0,2,2V6H3V2A1,1,0,0,1,4,1h8a1,1,0,0,1,1,1V6h1V3a1,1,0,0,1,1,1V14a1,1,0,0,1-1,1H6a1,1,0,0,1-1-1h7a2,2,0,0,0,1.72-1H2.28A2,2,0,0,0,4,14a2,2,0,0,0,2,2h8a2,2,0,0,0,2-2V4A2,2,0,0,0,14,2Z"/><path class="cls-2" d="M1.24,12.17V8.83H2.55a1.67,1.67,0,1,1,0,3.34ZM3.6,10.5A1,1,0,0,0,2.55,9.45H2v2.09h.6A1,1,0,0,0,3.6,10.5Z"/><path class="cls-2" d="M4.67,10.5A1.67,1.67,0,0,1,6.41,8.77,1.67,1.67,0,0,1,8.15,10.5a1.67,1.67,0,0,1-1.74,1.73A1.67,1.67,0,0,1,4.67,10.5Zm2.75,0a1,1,0,1,0-2,0,1,1,0,1,0,2,0Z"/><path class="cls-2" d="M8.49,10.5a1.7,1.7,0,0,1,1.78-1.73,1.51,1.51,0,0,1,1.39.82l-.61.3a.91.91,0,0,0-.78-.49,1,1,0,0,0-1,1.1,1,1,0,0,0,1,1.1.89.89,0,0,0,.78-.49l.61.3a1.54,1.54,0,0,1-1.39.82A1.7,1.7,0,0,1,8.49,10.5Z"/><path class="cls-2" d="M14.26,12.17,13.43,11l-.84,1.22h-.85L13,10.46,11.81,8.83h.85L13.43,10l.75-1.14H15L13.9,10.45l1.21,1.72Z"/></svg>