<svg id="Layer_1" data-name="Layer 1" xmlns="http://www.w3.org/2000/svg" viewBox="0 0 40 40"><defs><style>.cls-1{fill:#fff;}</style></defs><title>icon-voting-white</title><path class="cls-1" d="M39.49,5.07,27.83.07a.83.83,0,0,0-1,.24L23.51,4.48a.87.87,0,0,0-.16.7.83.83,0,0,0,.41.54L13.3,9.64a4.19,4.19,0,0,0-2.11,1.76L7.73,17.17a4.15,4.15,0,0,0-.16,4l.25.49H4.17a.84.84,0,0,0-.84.83V38.33H.83a.84.84,0,0,0-.83.84A.83.83,0,0,0,.83,40H29.16a.84.84,0,0,0,.84-.83.85.85,0,0,0-.84-.84h-2.5V29.82a.83.83,0,0,0-.38-.71.84.84,0,0,0-.8-.05,15,15,0,0,1-1.91.75.7.7,0,0,0-.2.08L18,33.15a5.55,5.55,0,0,1-7.48-1.69,5.56,5.56,0,0,1,1.64-7.76l.79-.5,1.54-1a.84.84,0,0,0,.36-.95,6.16,6.16,0,0,0-.87-1.72A11.66,11.66,0,0,0,17.78,17h0c.18.11.4.23.64.35a.05.05,0,0,1,0,0h0a9.29,9.29,0,0,0,2.31.78,15.41,15.41,0,0,0-2.32,3.69A55.64,55.64,0,0,0,13,25.11a3.89,3.89,0,0,0,2.09,7.16,3.94,3.94,0,0,0,2-.55l5.73-3.44c.89-.21,5.35-1.55,8.72-7A59.3,59.3,0,0,0,36.29,12l.09,0a2.46,2.46,0,0,0,1.12.27,2.54,2.54,0,0,0,1.74-.71A2.46,2.46,0,0,0,40,9.81v-4A.83.83,0,0,0,39.49,5.07Z"/></svg>