<?xml version="1.0" encoding="utf-8"?>
<!-- Generator: Adobe Illustrator 24.1.0, SVG Export Plug-In . SVG Version: 6.00 Build 0)  -->
<svg version="1.1" id="Layer_1" xmlns="http://www.w3.org/2000/svg" xmlns:xlink="http://www.w3.org/1999/xlink" x="0px" y="0px"
	 viewBox="0 0 80 80" style="enable-background:new 0 0 80 80;" xml:space="preserve">
<style type="text/css">
	.st0{fill:#F3F3F3;}
	.st1{fill:#7D1416;}
	.st2{fill:#400000;}
	.st3{fill:#CBCBCB;}
	.st4{fill:#EAAA3B;}
	.st5{fill:#FFFFFF;}
	.st6{fill:none;}
</style>
<circle cx="40.4" cy="40.4" r="39.6"/>
<circle class="st0" cx="39.6" cy="39.6" r="39.6"/>
<path d="M76.1,38.9c0,20.5-16.6,37.2-37.2,37.2C18.4,76.1,1.8,59.5,1.8,39S18.4,1.8,39,1.8c0,0,0,0,0,0
	C59.5,1.8,76.1,18.4,76.1,38.9z"/>
<path class="st1" d="M76.8,39.6c0,20.5-16.7,37.2-37.2,37.2S2.4,60.1,2.4,39.6C2.4,19,19.1,2.4,39.6,2.4
	C60.1,2.4,76.8,19.1,76.8,39.6C76.8,39.6,76.8,39.6,76.8,39.6z"/>
<path class="st2" d="M69.9,22.5C60.4,5.8,39.3-0.1,22.5,9.3S-0.1,39.9,9.3,56.6c2.6,4.7,6.3,8.7,10.8,11.7
	C23.9,43.8,44.8,24.3,69.9,22.5z"/>
<path d="M62.2,38.1c-0.2-0.2-0.5-0.4-0.8-0.5c-0.2-0.1-0.5-0.1-0.8-0.1h-14c-1.3,0-2.3,1.1-2.3,2.3v5.2c0,1.3,1.1,2.3,2.3,2.3h14
	c0.6,0,1.2-0.2,1.6-0.6c0.5-0.4,0.8-1.1,0.8-1.7v-5.2C63,39.2,62.7,38.5,62.2,38.1z M51.5,42.9c0,0.6-0.5,1.2-1.2,1.2c0,0,0,0,0,0
	h-0.8c-0.7,0-1.2-0.5-1.2-1.2l0,0v-0.8c0-0.4,0.2-0.7,0.5-0.9c0.2-0.2,0.5-0.3,0.7-0.3h0.8c0.6,0,1.2,0.5,1.2,1.2c0,0,0,0,0,0V42.9z
	"/>
<path d="M28.1,30.3h27.2c0.3,0,0.6-0.3,0.6-0.6c0-0.1,0-0.2,0-0.2l-4.2-10.2c-0.5-1.1-1.7-1.6-2.8-1.1c-0.1,0-0.1,0.1-0.2,0.1
	L27.9,29.2c-0.3,0.1-0.4,0.5-0.3,0.8C27.7,30.2,27.9,30.3,28.1,30.3z"/>
<path d="M42.6,42.2v-2.4c0-2,1.5-3.8,3.5-4c0.2,0,0.3,0,0.5,0h14v-6.4c0-1.3-1.1-2.4-2.3-2.4h-1.7l1.6,3.8c0.2,0.4,0,0.9-0.4,1
	c-0.1,0-0.2,0.1-0.3,0.1H25.1c-0.8,0-1.9-1.5,0.4-3l3.8-2.1h-5.8c-0.7,0-1.4,0.3-1.8,0.8c-0.2,0.2-0.3,0.4-0.4,0.7
	c-0.1,0.4-0.1,0.7-0.1,1.1v26.2c0,1.3,1.1,2.3,2.4,2.3h34.8c1.3,0,2.3-1.1,2.3-2.3v-6.6h-14c-2.2,0-4-1.8-4-4L42.6,42.2L42.6,42.2z"
	/>
<path class="st3" d="M61.2,37.1c-0.2-0.2-0.5-0.4-0.8-0.5c-0.2-0.1-0.5-0.1-0.8-0.1h-14c-1.3,0-2.3,1.1-2.3,2.3v5.2
	c0,1.3,1.1,2.3,2.3,2.3h14c0.6,0,1.2-0.2,1.6-0.6c0.5-0.4,0.8-1.1,0.8-1.7v-5.2C62,38.2,61.7,37.5,61.2,37.1z M50.5,41.9
	c0,0.6-0.5,1.2-1.2,1.2c0,0,0,0,0,0h-0.8c-0.7,0-1.2-0.5-1.2-1.2l0,0v-0.8c0-0.4,0.2-0.7,0.5-0.9c0.2-0.2,0.5-0.3,0.7-0.3h0.8
	c0.6,0,1.2,0.5,1.2,1.2c0,0,0,0,0,0V41.9z"/>
<path class="st4" d="M27.1,29.3h27.2c0.3,0,0.6-0.3,0.6-0.6c0-0.1,0-0.2,0-0.2l-4.2-10.2c-0.5-1.1-1.7-1.6-2.8-1.1
	c-0.1,0-0.1,0.1-0.2,0.1L26.9,28.2c-0.3,0.1-0.4,0.5-0.3,0.8C26.7,29.2,26.9,29.3,27.1,29.3z"/>
<path class="st5" d="M41.6,41.2v-2.4c0-2,1.5-3.8,3.5-4c0.2,0,0.3,0,0.5,0h14v-6.4c0-1.3-1.1-2.4-2.3-2.4h-1.7l1.6,3.8
	c0.2,0.4,0,0.9-0.4,1c-0.1,0-0.2,0.1-0.3,0.1H24.1c-0.8,0-1.9-1.5,0.4-3l3.8-2.1h-5.8c-0.7,0-1.4,0.3-1.8,0.8
	c-0.2,0.2-0.3,0.4-0.4,0.7c-0.1,0.4-0.1,0.7-0.1,1.1v26.2c0,1.3,1.1,2.3,2.4,2.3h34.8c1.3,0,2.3-1.1,2.3-2.3v-6.6h-14
	c-2.2,0-4-1.8-4-4L41.6,41.2L41.6,41.2z"/>
<rect x="-181.5" y="-244" class="st6" width="1366" height="780"/>
<rect x="-345.5" y="-244" class="st6" width="1366" height="780"/>
<rect x="-422.5" y="-244" class="st6" width="1366" height="780"/>
<rect x="-268.5" y="-244" class="st6" width="1366" height="780"/>
<rect x="-265.5" y="-244" class="st6" width="1366" height="780"/>
</svg>
