<svg id="Layer_1" data-name="Layer 1" xmlns="http://www.w3.org/2000/svg" viewBox="0 0 70 80"><defs><style>.cls-1{fill:#023c42;}</style></defs><title>icon-attestation-dark-green</title><polygon class="cls-1" points="48.45 2.5 58.16 12.21 48.45 12.21 48.45 2.5"/><path class="cls-1" d="M48.58,80l-4.84-3a1.73,1.73,0,0,0-1.83,0l-4.84,3V64.49l.54,0,.64,0a2.15,2.15,0,0,1,.48,0,4.55,4.55,0,0,1,.92.65,5.14,5.14,0,0,0,3.18,1.45A5.14,5.14,0,0,0,46,65.14a4.53,4.53,0,0,1,.91-.65,2.19,2.19,0,0,1,.49,0l.64,0,.53,0Z"/><path class="cls-1" d="M50.5,57.82a6.07,6.07,0,0,0-.9,2.2,5.62,5.62,0,0,1-.32,1,2.44,2.44,0,0,1-.42,0l-.64,0c-.26,0-.53,0-.81,0a5,5,0,0,0-1.58.22,6.7,6.7,0,0,0-2,1.23,3.94,3.94,0,0,1-1,.69,4.14,4.14,0,0,1-1-.69,6.58,6.58,0,0,0-2-1.23A4.88,4.88,0,0,0,38.25,61c-.28,0-.55,0-.81,0l-.64,0a2.33,2.33,0,0,1-.42,0,4.91,4.91,0,0,1-.32-1,6.44,6.44,0,0,0-.9-2.2,6.28,6.28,0,0,0-1.82-1.52,6.08,6.08,0,0,1-.89-.64,5.86,5.86,0,0,1,.33-1.09,7,7,0,0,0,.54-2.37,6.93,6.93,0,0,0-.54-2.36,5.18,5.18,0,0,1-.33-1.09,5,5,0,0,1,.89-.64,6.41,6.41,0,0,0,1.82-1.52,6.57,6.57,0,0,0,.9-2.21,4.91,4.91,0,0,1,.32-1,2.33,2.33,0,0,1,.42,0l.64,0,.81,0a4.88,4.88,0,0,0,1.57-.22,6.21,6.21,0,0,0,2-1.23,4.91,4.91,0,0,1,1-.69,4.25,4.25,0,0,1,1,.69,6.32,6.32,0,0,0,2,1.23,5,5,0,0,0,1.58.22l.81,0,.64,0a2.44,2.44,0,0,1,.42,0,5.62,5.62,0,0,1,.32,1,6.18,6.18,0,0,0,.9,2.21,6.28,6.28,0,0,0,1.82,1.52,4.9,4.9,0,0,1,.88.64,5.08,5.08,0,0,1-.32,1.09,6.7,6.7,0,0,0-.55,2.36,6.76,6.76,0,0,0,.55,2.37,5.08,5.08,0,0,1,.32,1.09,5.45,5.45,0,0,1-.88.64A6.28,6.28,0,0,0,50.5,57.82Z"/><path class="cls-1" d="M46.72,15.65A1.72,1.72,0,0,1,45,13.93V.06H9.41V70.37H33.63V63.1a6.08,6.08,0,0,1-.91-2.22,5.36,5.36,0,0,0-.34-1,4.57,4.57,0,0,0-.88-.64,4.82,4.82,0,0,1-2.32-2.46,4.94,4.94,0,0,1,.36-3.37,4.55,4.55,0,0,0,.34-1.18A4.66,4.66,0,0,0,29.54,51a4.91,4.91,0,0,1-.36-3.36,4.89,4.89,0,0,1,2.32-2.47,4.57,4.57,0,0,0,.88-.64,5.13,5.13,0,0,0,.34-1,4.87,4.87,0,0,1,1.61-2.93,4.11,4.11,0,0,1,2.47-.68l.81,0,.64,0a1.6,1.6,0,0,0,.49-.05,5.19,5.19,0,0,0,.91-.64,5.08,5.08,0,0,1,3.18-1.45A5.08,5.08,0,0,1,46,39.27a4.42,4.42,0,0,0,.91.64,1.49,1.49,0,0,0,.49.05l.64,0,.8,0a4.14,4.14,0,0,1,2.48.68,4.87,4.87,0,0,1,1.61,2.93,4.1,4.1,0,0,0,.34,1,4.57,4.57,0,0,0,.88.64,4.93,4.93,0,0,1,2.32,2.47A5,5,0,0,1,56.12,51a4.66,4.66,0,0,0-.34,1.18,4.55,4.55,0,0,0,.34,1.18,5.06,5.06,0,0,1,.36,3.37,4.86,4.86,0,0,1-2.32,2.46,4.57,4.57,0,0,0-.88.64,4.25,4.25,0,0,0-.34,1A6.26,6.26,0,0,1,52,63.1v7.27h8.56V15.65ZM16.1,12.21H38.3a1.72,1.72,0,1,1,0,3.44H16.1a1.72,1.72,0,0,1,0-3.44ZM47.2,33.05H16.1a1.73,1.73,0,0,1,0-3.45H47.2a1.73,1.73,0,0,1,0,3.45Zm6.89,0a1.73,1.73,0,1,1,1.72-1.73A1.73,1.73,0,0,1,54.09,33.05Zm0-8.7h-38a1.73,1.73,0,0,1,0-3.45h38a1.73,1.73,0,0,1,0,3.45Z"/></svg>