<svg id="Layer_1" data-name="Layer 1" xmlns="http://www.w3.org/2000/svg" viewBox="0 0 16 16"><defs><style>.cls-1{fill:#7bafb5;}</style></defs><title>icon-transactions-light-green</title><path class="cls-1" d="M15.83,5.84l-4-4.07a.56.56,0,0,0-.81,0,.62.62,0,0,0-.16.41V3.93h-4a.58.58,0,0,0,0,1.16h4.57A.58.58,0,0,0,12,4.51V3.59l2.62,2.66L12,8.92V8a.58.58,0,0,0-.57-.58H5.14V5.67a.57.57,0,0,0-.57-.58.54.54,0,0,0-.4.17l-4,4.07a.59.59,0,0,0,0,.83l4,4.07a.54.54,0,0,0,.4.17.54.54,0,0,0,.22,0,.59.59,0,0,0,.35-.54V12.07h4a.58.58,0,0,0,0-1.16H4.57a.58.58,0,0,0-.57.58v.92L1.38,9.75,4,7.08V8a.58.58,0,0,0,.57.58h6.29v1.75a.57.57,0,0,0,.57.58.54.54,0,0,0,.4-.17l4-4.07A.59.59,0,0,0,15.83,5.84Z"/></svg>