<svg id="Layer_1" data-name="Layer 1" xmlns="http://www.w3.org/2000/svg" viewBox="0 0 60 60"><defs><style>.cls-1{fill:#2ba1b9;}</style></defs><title>icon-notarization-green-60h</title><polygon class="cls-1" points="40.09 1.83 47.38 9.12 40.09 9.12 40.09 1.83"/><path class="cls-1" d="M40.2,60l-3.64-2.28a1.3,1.3,0,0,0-1.37,0L31.56,60V48.36H32l.48,0a1.44,1.44,0,0,1,.36,0,3.36,3.36,0,0,1,.69.48,3.79,3.79,0,0,0,2.39,1.09,3.76,3.76,0,0,0,2.38-1.09,3.36,3.36,0,0,1,.69-.48,1.44,1.44,0,0,1,.36,0l.48,0h.41Z"/><path class="cls-1" d="M41.63,43.35A4.68,4.68,0,0,0,41,45a4.75,4.75,0,0,1-.24.75s-.14,0-.32,0l-.48,0-.61,0a3.5,3.5,0,0,0-1.18.17,4.94,4.94,0,0,0-1.49.92,3.56,3.56,0,0,1-.76.52,3.35,3.35,0,0,1-.77-.52,4.82,4.82,0,0,0-1.49-.92,3.5,3.5,0,0,0-1.18-.17l-.61,0-.48,0c-.18,0-.27,0-.32,0a4.75,4.75,0,0,1-.24-.75,4.5,4.5,0,0,0-.67-1.66,4.56,4.56,0,0,0-1.37-1.14,3.9,3.9,0,0,1-.66-.48,3.79,3.79,0,0,1,.24-.82,5.11,5.11,0,0,0,.41-1.77,5.17,5.17,0,0,0-.41-1.78,3.79,3.79,0,0,1-.24-.82,4.55,4.55,0,0,1,.66-.48,4.56,4.56,0,0,0,1.37-1.14,4.71,4.71,0,0,0,.67-1.65,4.43,4.43,0,0,1,.24-.75,1.73,1.73,0,0,1,.32,0h.48l.61,0a3.78,3.78,0,0,0,1.18-.16,5,5,0,0,0,1.49-.92,3.32,3.32,0,0,1,.76-.52,3,3,0,0,1,.77.52,5.14,5.14,0,0,0,1.49.92,3.78,3.78,0,0,0,1.18.16l.61,0h.48a1.73,1.73,0,0,1,.32,0,4.43,4.43,0,0,1,.24.75,4.71,4.71,0,0,0,.67,1.65A4.68,4.68,0,0,0,43,36.06a4.55,4.55,0,0,1,.66.48,3.79,3.79,0,0,1-.24.82A5.17,5.17,0,0,0,43,39.14a5.17,5.17,0,0,0,.41,1.77,3.79,3.79,0,0,1,.24.82,3.9,3.9,0,0,1-.66.48A4.68,4.68,0,0,0,41.63,43.35Z"/><path class="cls-1" d="M38.8,11.7a1.29,1.29,0,0,1-1.29-1.29V0H10.79V52.77H29V47.32a4.47,4.47,0,0,1-.68-1.67,3.25,3.25,0,0,0-.26-.77,3.43,3.43,0,0,0-.66-.48,3.63,3.63,0,0,1-1.74-1.85A3.75,3.75,0,0,1,25.9,40a3.34,3.34,0,0,0,.25-.88,3.4,3.4,0,0,0-.25-.89,3.75,3.75,0,0,1-.27-2.53,3.65,3.65,0,0,1,1.74-1.84,3.41,3.41,0,0,0,.66-.49,3.1,3.1,0,0,0,.26-.77,3.6,3.6,0,0,1,1.21-2.2,3.07,3.07,0,0,1,1.85-.51l.61,0,.48,0a1.15,1.15,0,0,0,.36,0,3.36,3.36,0,0,0,.69-.48,3.79,3.79,0,0,1,2.39-1.09,3.76,3.76,0,0,1,2.38,1.09,3.36,3.36,0,0,0,.69.48,1.21,1.21,0,0,0,.36,0l.48,0,.61,0a3.07,3.07,0,0,1,1.85.51,3.55,3.55,0,0,1,1.21,2.2,3.35,3.35,0,0,0,.26.78,3.91,3.91,0,0,0,.66.48,3.65,3.65,0,0,1,1.74,1.84,3.75,3.75,0,0,1-.27,2.53,3.4,3.4,0,0,0-.25.89,3.34,3.34,0,0,0,.25.88,3.75,3.75,0,0,1,.27,2.53,3.63,3.63,0,0,1-1.74,1.85,3.43,3.43,0,0,0-.66.48,3.25,3.25,0,0,0-.26.77,4.47,4.47,0,0,1-.68,1.67v5.45h6.43V11.7Zm-23-2.58H32.48a1.29,1.29,0,0,1,0,2.58H15.82a1.29,1.29,0,1,1,0-2.58ZM39.15,24.76H15.82a1.3,1.3,0,1,1,0-2.59H39.15a1.3,1.3,0,1,1,0,2.59Zm5.18,0a1.3,1.3,0,1,1,1.29-1.29A1.3,1.3,0,0,1,44.33,24.76Zm0-6.53H15.82a1.29,1.29,0,1,1,0-2.58H44.33a1.29,1.29,0,0,1,0,2.58Z"/></svg>