<svg id="Layer_1" data-name="Layer 1" xmlns="http://www.w3.org/2000/svg" viewBox="0 0 16 16"><defs><style>.cls-1{fill:#666;}.cls-2{fill:#fff;}</style></defs><title>icon-doc-type-odt-16h-proximax-sirius-wallet</title><rect class="cls-1" x="5" y="3" width="6" height="1"/><rect class="cls-1" x="5" y="5" width="5" height="1"/><rect class="cls-1" y="7" width="14" height="5" rx="1"/><path class="cls-1" d="M14,2a2,2,0,0,0-2-2H4A2,2,0,0,0,2,2V6H3V2A1,1,0,0,1,4,1h8a1,1,0,0,1,1,1V6h1V3a1,1,0,0,1,1,1V14a1,1,0,0,1-1,1H6a1,1,0,0,1-1-1h7a2,2,0,0,0,1.72-1H2.28A2,2,0,0,0,4,14a2,2,0,0,0,2,2h8a2,2,0,0,0,2-2V4A2,2,0,0,0,14,2Z"/><path class="cls-2" d="M3.05,9.5a1.34,1.34,0,0,1,1.4-1.38,1.38,1.38,0,1,1,0,2.76A1.34,1.34,0,0,1,3.05,9.5Zm2.21,0a.81.81,0,1,0-1.62,0,.81.81,0,1,0,1.62,0Z"/><path class="cls-2" d="M6.24,10.83V8.17h1a1.33,1.33,0,1,1,0,2.66ZM8.13,9.5a.78.78,0,0,0-.84-.83H6.81v1.66h.48A.8.8,0,0,0,8.13,9.5Z"/><path class="cls-2" d="M9.63,10.83V8.67H8.85v-.5H11v.5h-.77v2.16Z"/></svg>