<svg id="Layer_1" data-name="Layer 1" xmlns="http://www.w3.org/2000/svg" viewBox="0 0 60 60"><defs><style>.cls-1{fill:#0098ea;}</style></defs><title>icon-voting-green-60h_1</title><path class="cls-1" d="M30,0A30,30,0,1,0,60,30,30,30,0,0,0,30,0Zm0,58.12A28.12,28.12,0,1,1,58.12,30,28.15,28.15,0,0,1,30,58.12Z"/><path class="cls-1" d="M37.18,45.53h-25a.74.74,0,1,0,0,1.47h25a.74.74,0,0,0,0-1.47Z"/><path class="cls-1" d="M32.66,36.61l-4.95,3a4.21,4.21,0,0,1-6.29-4.49,4.12,4.12,0,0,1,1.86-2.68c.92-.59,1.67-1.06,2.28-1.43H16.47a2.19,2.19,0,0,0-2.19,2.19V44.43H34.85v-8.7A10.28,10.28,0,0,1,32.66,36.61Z"/><path class="cls-1" d="M43.92,22.23l-.1-.12L33,16.71l-.18,0-.16-.1a1.64,1.64,0,0,1-.33-.31L24,19.43A3.7,3.7,0,0,0,22.1,21l-3.05,5.08a3.66,3.66,0,0,0-.14,3.54l.22.43.69.15h5.45a.74.74,0,0,0,0-.49,5.93,5.93,0,0,0-.77-1.51,10.46,10.46,0,0,0,3.39-2.25h0c.16.1.35.2.57.31h0a8.53,8.53,0,0,0,2,.68,13.34,13.34,0,0,0-2,3.26,47.81,47.81,0,0,0-4.83,2.87,3.37,3.37,0,0,0-1.51,2.18,3.42,3.42,0,0,0,5.11,3.65l5.06-3a13.31,13.31,0,0,0,7.69-6.19,54.25,54.25,0,0,0,3.89-7.45Z"/><path class="cls-1" d="M47.06,15.4,36.77,11a.74.74,0,0,0-.86.21L33,14.88a.72.72,0,0,0-.14.62.71.71,0,0,0,.31.43h.13l11.08,5.54.07.11a2.28,2.28,0,0,0,.88.19,2.2,2.2,0,0,0,2.21-2.2v-3.5A.73.73,0,0,0,47.06,15.4Z"/></svg>