<svg id="Layer_1" data-name="Layer 1" xmlns="http://www.w3.org/2000/svg" viewBox="0 0 60 60"><defs><style>.cls-1{fill:#2ba1b9;}</style></defs><title>icon-swap-process-green-60h</title><path class="cls-1" d="M0,31.83V28.17a1.85,1.85,0,0,1,1.87-1.84H30v-5.5a1.83,1.83,0,0,1,1.08-1.66,1.91,1.91,0,0,1,2,.26l11.25,9.16a1.82,1.82,0,0,1,0,2.82L33.08,40.57a1.87,1.87,0,0,1-1.21.43,2,2,0,0,1-.79-.17A1.84,1.84,0,0,1,30,39.17v-5.5H1.87A1.85,1.85,0,0,1,0,31.83ZM56.25,0H3.75A3.75,3.75,0,0,0,0,3.75V22.5H7.5V7.5h45v45H7.5v-15H0V56.25A3.75,3.75,0,0,0,3.75,60h52.5A3.75,3.75,0,0,0,60,56.25V3.75A3.75,3.75,0,0,0,56.25,0Z"/></svg>