<?xml version="1.0" encoding="utf-8"?>
<!-- Generator: Adobe Illustrator 24.1.0, SVG Export Plug-In . SVG Version: 6.00 Build 0)  -->
<svg version="1.1" id="Layer_1" xmlns="http://www.w3.org/2000/svg" xmlns:xlink="http://www.w3.org/1999/xlink" x="0px" y="0px"
	 viewBox="0 0 80 80" style="enable-background:new 0 0 80 80;" xml:space="preserve">
<style type="text/css">
	.st0{fill:#F3F3F3;}
	.st1{fill:#7D1416;}
	.st2{fill:#400000;}
	.st3{fill:#FFFFFF;}
	.st4{fill:#C9C9C9;}
	.st5{fill:#E8A83B;}
	.st6{fill:#DF8D36;}
</style>
<circle cx="40.4" cy="40.4" r="39.6"/>
<circle class="st0" cx="39.6" cy="39.6" r="39.6"/>
<path d="M76.1,38.9c0,20.5-16.6,37.2-37.2,37.2C18.4,76.1,1.8,59.5,1.8,39S18.4,1.8,39,1.8c0,0,0,0,0,0
	C59.5,1.8,76.1,18.4,76.1,38.9z"/>
<path class="st1" d="M76.8,39.6c0,20.5-16.7,37.2-37.2,37.2S2.4,60.1,2.4,39.6C2.4,19,19.1,2.4,39.6,2.4
	C60.1,2.4,76.8,19.1,76.8,39.6C76.8,39.6,76.8,39.6,76.8,39.6z"/>
<path class="st2" d="M69.9,22.5C60.4,5.8,39.3-0.1,22.5,9.3S-0.1,39.9,9.3,56.6c2.6,4.7,6.3,8.7,10.8,11.7
	C23.9,43.8,44.8,24.3,69.9,22.5z"/>
<path class="st3" d="M31.6,35.3l-14.2-6.6c-0.6-0.3-1.3,0-1.6,0.6c-0.1,0.2-0.1,0.3-0.1,0.5v15.6c0,0.4,0.3,0.8,0.6,1L30.6,54
	c0.6,0.3,1.3,0.1,1.6-0.5c0.1-0.2,0.1-0.3,0.1-0.5V36.4C32.3,35.9,32,35.5,31.6,35.3z"/>
<path class="st4" d="M49.1,28.8l-14.2,6.6c-0.4,0.2-0.7,0.6-0.7,1.1V53c0,0.7,0.6,1.2,1.2,1.1c0.2,0,0.4-0.1,0.5-0.1l14.2-7.6
	c0.4-0.2,0.6-0.6,0.6-1V29.8c0-0.7-0.5-1.2-1.2-1.2C49.4,28.6,49.2,28.7,49.1,28.8z"/>
<polygon class="st5" points="19.7,18.3 19.7,18.3 19.7,18.3 "/>
<path class="st3" d="M34.8,20.7l2.7-1l-3-1.2c-0.4-0.2-0.8-0.2-1.3-0.2C33.9,19,34.4,19.8,34.8,20.7z"/>
<path class="st6" d="M22.4,18.3c0.2,1.1,0.8,2.2,1.5,3.1c1.7,1.3,3.5,2.5,5.4,3.4C27.4,20.7,24.3,18.4,22.4,18.3z"/>
<path class="st3" d="M22.8,22.4c-0.1-0.1-0.1-0.2-0.2-0.2l-5.1,2c-0.7,0.3-1,1-0.8,1.7c0.1,0.3,0.4,0.6,0.7,0.7l4.1,1.9
	c0.1-0.9,0.6-1.7,1.3-2.3c0.9-0.7,1.9-1.3,3-1.7C24.7,23.9,23.7,23.2,22.8,22.4z"/>
<path class="st6" d="M40.3,28.8c0-0.3-1.2-1.3-4.1-1.6l-0.8-0.1c-0.3,0.2-0.6,0.4-0.9,0.6c0.9,0.4,1.8,0.8,2.8,1.1
	c1,0.2,2,0.3,3,0.2L40.3,28.8z"/>
<polygon class="st5" points="30.1,28.7 30.1,28.7 30.1,28.7 "/>
<path class="st3" d="M39.4,30.5c-0.8,0-1.7-0.1-2.5-0.3c-1-0.3-2-0.7-3-1.2l-1.3-0.6C31.3,29,30,29.6,29,30.1
	c-0.4,0.2-0.1,1.1,0.2,1.9l3.5,1.6c0.4,0.2,0.8,0.2,1.1,0l6.5-3v-0.2C40,30.5,39.7,30.6,39.4,30.5z"/>
<path class="st3" d="M49,24.2l-3.4-1.4l-0.7,0.3l-0.4,0.2c1.1,0.5,1.9,1.5,2.1,2.6c0.1,0.7,0,1.5-0.5,2.1l3-1.4
	c0.7-0.3,0.9-1.1,0.6-1.8C49.6,24.5,49.3,24.3,49,24.2z"/>
<path class="st6" d="M36.4,22.3c1-0.2,1.9-0.3,2.9-0.3c1.1,0,2.3,0.2,3.3,0.5l1.7-0.7l-3.9-1.5c0,0-2,0.7-4.6,1.8
	c0.1,0.1,0.2,0.2,0.2,0.4L36.4,22.3z"/>
<path class="st5" d="M43.3,24.3c-2.1-0.9-4.4-1.1-6.7-0.6c0.1,0.7,0.1,1.4-0.2,2c2.7,0.3,5.4,1.5,5.4,3.1l3-1.5
	C44.8,27.4,46.3,25.8,43.3,24.3z"/>
<path class="st5" d="M27.4,25.4c-1.3,0.5-2.4,1.1-3.5,1.9c-0.6,0.5-0.8,1.3-0.6,2l3.8,1.7c-0.2-1,0.3-1.9,1.3-2.3
	c0.6-0.3,1.5-0.7,2.7-1.3c-0.2-0.1-0.5-0.3-0.7-0.5C29.9,26.7,28.7,26.1,27.4,25.4z"/>
<path class="st5" d="M33,20.6h0.1c-0.5-0.8-1.1-1.6-1.8-2.3c-1.6-1.7-3.7-2.8-6-3l-3.8,1.4c2.3-0.4,5.8,1.7,8.2,5.6
	C30.5,21.3,31.7,20.6,33,20.6z"/>
<circle class="st6" cx="33" cy="24.3" r="2.2"/>
<path class="st3" d="M50.3,49.6l4.7,1.7c-0.1,0.2-0.1,0.4-0.1,0.6c0,1.4,1.6,2.5,3.7,2.5s3.7-1.1,3.7-2.5s-1.6-2.5-3.7-2.5
	c-0.9,0-1.8,0.2-2.6,0.7l-5.2-1.9c-0.4-0.2-0.8,0-1,0.4C49.6,49,49.8,49.5,50.3,49.6C50.2,49.6,50.2,49.6,50.3,49.6L50.3,49.6z
	 M60.7,51.9c0,0.4-0.9,1-2.2,1s-2.2-0.6-2.2-1s0.9-1,2.2-1S60.7,51.5,60.7,51.9z"/>
<path class="st3" d="M47.2,55.8c-0.9,0-1.8,0.2-2.5,0.7l-5.3-1.9c-0.4-0.1-0.8,0.1-1,0.5c-0.1,0.4,0.1,0.8,0.5,1l4.7,1.7
	c-0.1,0.2-0.1,0.4-0.1,0.6c0,1.4,1.6,2.5,3.7,2.5s3.7-1.1,3.7-2.5S49.3,55.8,47.2,55.8z M47.2,59.2c-1.3,0-2.2-0.6-2.2-1
	s0.9-1,2.2-1s2.2,0.6,2.2,1S48.5,59.2,47.2,59.2z"/>
<path class="st5" d="M61.3,56.5c-1,0-2.1,0.3-2.9,0.9l-5.2-2l-1-2.1C52.2,53.2,52,53,51.8,53l-5.6-2c-0.4-0.1-0.8,0.1-1,0.5
	c-0.1,0.4,0.1,0.8,0.5,1l0,0l5.3,1.9l1,2c0.1,0.2,0.2,0.3,0.4,0.4l5.2,2c0,0.1,0,0.2,0,0.2c0,1.4,1.6,2.5,3.7,2.5s3.7-1,3.7-2.4
	S63.4,56.5,61.3,56.5z M61.3,60c-1.3,0-2.2-0.6-2.2-1c0.1-0.1,0.2-0.2,0.3-0.4v-0.1c0.6-0.4,1.2-0.5,1.9-0.5c1.3,0,2.2,0.6,2.2,1
	S62.6,60,61.3,60L61.3,60z"/>
</svg>
