<svg id="Layer_1" data-name="Layer 1" xmlns="http://www.w3.org/2000/svg" viewBox="0 0 100 80"><defs><style>.cls-1{fill:#023c42;}</style></defs><title>icon-directory-dark-green</title><path class="cls-1" d="M51.19,56.65v2.58a2.93,2.93,0,0,1-2.92,2.94H17.38a2.94,2.94,0,0,1-2.93-2.94V56.65a9.29,9.29,0,0,1,9.26-9.32H26.1a2.26,2.26,0,0,0,2.25-2.27,1.69,1.69,0,0,0-.51-1.22,16.2,16.2,0,0,1-3.37-5.09.84.84,0,0,1-.46.13c-1.35,0-2.92-3-2.92-5s.18-3.68,1.53-3.68a2.58,2.58,0,0,1,.36.05c.09-5.51,1.11-12.39,9.85-12.39,8.37,0,9.75,6.89,9.85,12.41a2.23,2.23,0,0,1,.5-.07c1.34,0,1.53,1.65,1.53,3.68s-1.58,5-2.92,5a.94.94,0,0,1-.57-.22,16.09,16.09,0,0,1-3.4,5.17,1.73,1.73,0,0,0-.52,1.23,2.26,2.26,0,0,0,2.25,2.26h2.39A9.28,9.28,0,0,1,51.19,56.65Zm29.47-34.9H49.75A19.1,19.1,0,0,1,51.25,28a3.73,3.73,0,0,1,1.31,1.57h28.1a2.17,2.17,0,0,0,2.16-2.18V23.93A2.16,2.16,0,0,0,80.66,21.75Zm2.16,19.89V38.18A2.16,2.16,0,0,0,80.66,36H53.09c-.61,2.33-2.12,4.77-4.21,5.42-.06.11-.13.21-.2.32v2.08h32A2.17,2.17,0,0,0,82.82,41.64Zm-2.16,8.61H58a12,12,0,0,1,1.85,6.39v1.43H80.66a2.16,2.16,0,0,0,2.16-2.18V52.43A2.17,2.17,0,0,0,80.66,50.25ZM100,13.4V66.6A13.21,13.21,0,0,1,87,80H13A13.2,13.2,0,0,1,0,66.6V13.4A13.21,13.21,0,0,1,13,0H87A13.21,13.21,0,0,1,100,13.4Zm-6.14,0A7,7,0,0,0,87,6.33H13A7,7,0,0,0,6.14,13.4V66.6A7,7,0,0,0,13,73.67H87a7,7,0,0,0,6.87-7.07Z"/></svg>