<?xml version="1.0" encoding="utf-8"?>
<!-- Generator: Adobe Illustrator 24.1.0, SVG Export Plug-In . SVG Version: 6.00 Build 0)  -->
<svg version="1.1" id="Layer_1" xmlns="http://www.w3.org/2000/svg" xmlns:xlink="http://www.w3.org/1999/xlink" x="0px" y="0px"
	 viewBox="0 0 80 80" style="enable-background:new 0 0 80 80;" xml:space="preserve">
<style type="text/css">
	.st0{fill:#FFFFFF;}
	.st1{fill:#7D1416;}
	.st2{fill:#400000;}
	.st3{fill:#EAAA3B;}
	.st4{fill:#CBCBCB;}
</style>
<circle cx="40.4" cy="40.4" r="39.6"/>
<circle class="st0" cx="39.6" cy="39.6" r="39.6"/>
<path d="M76.1,38.9c0,20.5-16.6,37.2-37.2,37.2C18.4,76.1,1.8,59.5,1.8,39S18.4,1.8,39,1.8c0,0,0,0,0,0
	C59.5,1.8,76.1,18.4,76.1,38.9z"/>
<path class="st1" d="M76.8,39.6c0,20.5-16.7,37.2-37.2,37.2S2.4,60.1,2.4,39.6C2.4,19,19.1,2.4,39.6,2.4
	C60.1,2.4,76.8,19.1,76.8,39.6C76.8,39.6,76.8,39.6,76.8,39.6z"/>
<path class="st2" d="M69.9,22.5C60.4,5.8,39.3-0.1,22.5,9.3S-0.1,39.9,9.3,56.6c2.6,4.7,6.3,8.7,10.8,11.7
	C23.9,43.8,44.8,24.3,69.9,22.5z"/>
<path d="M29.9,19.9c-3.6,0-6.5,2.9-6.5,6.4s2.9,6.5,6.4,6.5s6.5-2.9,6.5-6.4c0,0,0,0,0,0C36.3,22.7,33.5,19.9,29.9,19.9z M29.9,31
	c-2.6,0-4.8-2.1-4.8-4.8s2.1-4.8,4.8-4.8s4.8,2.1,4.8,4.8v0C34.7,28.9,32.5,31,29.9,31z"/>
<path d="M29.9,34.8c-3.6,0-6.4,2.9-6.4,6.4c0,3.6,2.9,6.4,6.4,6.4s6.4-2.9,6.4-6.4l0,0C36.3,37.7,33.5,34.8,29.9,34.8z M29.9,46
	c-2.6,0-4.8-2.1-4.8-4.8s2.1-4.8,4.8-4.8s4.8,2.1,4.8,4.8l0,0C34.6,43.9,32.5,46,29.9,46L29.9,46z"/>
<path d="M29.9,49.3c-3.6,0-6.5,2.9-6.5,6.4s2.9,6.5,6.4,6.5s6.5-2.9,6.5-6.4c0,0,0,0,0,0C36.4,52.2,33.5,49.3,29.9,49.3z M29.9,60.5
	c-2.6,0-4.8-2.1-4.8-4.8s2.1-4.8,4.8-4.8s4.8,2.1,4.8,4.8v0C34.7,58.3,32.5,60.5,29.9,60.5z"/>
<path d="M58.5,25.4l-6-3.5c-0.3-0.2-0.7-0.1-0.9,0.2c-0.1,0.1-0.1,0.2-0.1,0.3v0.8c0,0.4-0.3,0.6-0.6,0.6H39.1
	c-0.4,0-0.6,0.3-0.7,0.6v2.7c0,0.4,0.3,0.6,0.7,0.6h11.7c0.4,0,0.6,0.3,0.6,0.6v0.8c0,0.4,0.3,0.7,0.7,0.7c0.1,0,0.2,0,0.3-0.1
	l6-3.5c0.3-0.2,0.4-0.6,0.2-0.9C58.7,25.6,58.6,25.5,58.5,25.4z"/>
<path d="M58.5,40.4l-6-3.5c-0.3-0.2-0.7-0.1-0.9,0.2c-0.1,0.1-0.1,0.2-0.1,0.3v0.8c0,0.4-0.3,0.6-0.6,0.7H39.1
	c-0.4,0-0.6,0.3-0.7,0.7v2.7c0,0.4,0.3,0.6,0.7,0.7h11.7c0.4,0,0.6,0.3,0.6,0.7v0.8c0,0.4,0.3,0.7,0.7,0.7c0.1,0,0.2,0,0.3-0.1
	l6-3.5c0.3-0.2,0.4-0.6,0.2-0.9C58.7,40.6,58.6,40.5,58.5,40.4z"/>
<path d="M58.5,55.4l-6-3.5c-0.3-0.2-0.7-0.1-0.9,0.2c-0.1,0.1-0.1,0.2-0.1,0.3v0.8c0,0.4-0.3,0.6-0.6,0.7H39.1
	c-0.4,0-0.6,0.3-0.7,0.7v2.7c0,0.4,0.3,0.6,0.7,0.7h11.7c0.4,0,0.6,0.3,0.6,0.7v0.8c0,0.4,0.3,0.7,0.7,0.7c0.1,0,0.2,0,0.3-0.1
	l6-3.5c0.3-0.2,0.4-0.6,0.2-0.9C58.7,55.6,58.6,55.5,58.5,55.4z"/>
<path class="st0" d="M28.9,18.9c-3.6,0-6.5,2.9-6.5,6.4s2.9,6.5,6.4,6.5s6.5-2.9,6.5-6.4c0,0,0,0,0,0C35.3,21.7,32.5,18.9,28.9,18.9
	z M28.9,30c-2.6,0-4.8-2.1-4.8-4.8s2.1-4.8,4.8-4.8s4.8,2.1,4.8,4.8v0C33.7,27.9,31.5,30,28.9,30z"/>
<circle class="st3" cx="28.9" cy="25.3" r="3.6"/>
<path class="st0" d="M28.9,33.8c-3.6,0-6.4,2.9-6.4,6.4c0,3.6,2.9,6.4,6.4,6.4s6.4-2.9,6.4-6.4l0,0C35.3,36.7,32.5,33.8,28.9,33.8z
	 M28.9,45c-2.6,0-4.8-2.1-4.8-4.8s2.1-4.8,4.8-4.8s4.8,2.1,4.8,4.8l0,0C33.6,42.9,31.5,45,28.9,45L28.9,45z"/>
<path class="st0" d="M28.9,48.3c-3.6,0-6.5,2.9-6.5,6.4s2.9,6.5,6.4,6.5s6.5-2.9,6.5-6.4c0,0,0,0,0,0C35.4,51.2,32.5,48.3,28.9,48.3
	z M28.9,59.5c-2.6,0-4.8-2.1-4.8-4.8s2.1-4.8,4.8-4.8s4.8,2.1,4.8,4.8v0C33.7,57.3,31.5,59.5,28.9,59.5z"/>
<polygon class="st4" points="29.9,51.7 28,51.7 28,53.8 25.9,53.8 25.9,55.7 28,55.7 28,57.8 29.9,57.8 29.9,55.7 32,55.7 32,53.8 
	29.9,53.8 "/>
<polygon class="st4" points="29.9,37.4 28,37.4 28,39.5 25.9,39.5 25.9,41.4 28,41.4 28,43.5 29.9,43.5 29.9,41.4 32,41.4 32,39.5 
	29.9,39.5 "/>
<path class="st3" d="M57.5,24.4l-6-3.5c-0.3-0.2-0.7-0.1-0.9,0.2c-0.1,0.1-0.1,0.2-0.1,0.3v0.8c0,0.4-0.3,0.6-0.6,0.6H38.1
	c-0.4,0-0.6,0.3-0.7,0.6v2.7c0,0.4,0.3,0.6,0.7,0.6h11.7c0.4,0,0.6,0.3,0.6,0.6v0.8c0,0.4,0.3,0.7,0.7,0.7c0.1,0,0.2,0,0.3-0.1
	l6-3.5c0.3-0.2,0.4-0.6,0.2-0.9C57.7,24.6,57.6,24.5,57.5,24.4z"/>
<path class="st4" d="M57.5,39.4l-6-3.5c-0.3-0.2-0.7-0.1-0.9,0.2c-0.1,0.1-0.1,0.2-0.1,0.3v0.8c0,0.4-0.3,0.6-0.6,0.7H38.1
	c-0.4,0-0.6,0.3-0.7,0.7v2.7c0,0.4,0.3,0.6,0.7,0.7h11.7c0.4,0,0.6,0.3,0.6,0.7v0.8c0,0.4,0.3,0.7,0.7,0.7c0.1,0,0.2,0,0.3-0.1
	l6-3.5c0.3-0.2,0.4-0.6,0.2-0.9C57.7,39.6,57.6,39.5,57.5,39.4z"/>
<path class="st4" d="M57.5,54.4l-6-3.5c-0.3-0.2-0.7-0.1-0.9,0.2c-0.1,0.1-0.1,0.2-0.1,0.3v0.8c0,0.4-0.3,0.6-0.6,0.7H38.1
	c-0.4,0-0.6,0.3-0.7,0.7v2.7c0,0.4,0.3,0.6,0.7,0.7h11.7c0.4,0,0.6,0.3,0.6,0.7v0.8c0,0.4,0.3,0.7,0.7,0.7c0.1,0,0.2,0,0.3-0.1
	l6-3.5c0.3-0.2,0.4-0.6,0.2-0.9C57.7,54.6,57.6,54.5,57.5,54.4z"/>
</svg>
