<svg id="Layer_1" data-name="Layer 1" xmlns="http://www.w3.org/2000/svg" viewBox="0 0 16 16"><defs><style>.cls-1{fill:#fff;}</style></defs><title>icon-amount-white</title><path class="cls-1" d="M13.19,5a1.84,1.84,0,0,0,.05-.41V4.13c0-.89-.67-1.7-1.87-2.29A9.82,9.82,0,0,0,7.21,1a9.82,9.82,0,0,0-4.16.84c-1.2.59-1.86,1.4-1.86,2.29v.45c0,.87.64,1.67,1.81,2.26a2.08,2.08,0,0,0,0,.41v.08A2.71,2.71,0,0,0,1.19,9.57V10a2.19,2.19,0,0,0,.86,1.65,2,2,0,0,0-.11.63v.45c0,.89.66,1.7,1.87,2.29A9.74,9.74,0,0,0,8,15.87,9.79,9.79,0,0,0,12.12,15c1.2-.59,1.87-1.4,1.87-2.29v-.45a2.18,2.18,0,0,0-.87-1.64,1.77,1.77,0,0,0,.12-.64V9.93A2.7,2.7,0,0,0,15,7.7V7.25C15,6.38,14.36,5.58,13.19,5ZM2,3.75A2.63,2.63,0,0,1,3.39,2.53a9,9,0,0,1,3.82-.76A9,9,0,0,1,11,2.53a2.63,2.63,0,0,1,1.36,1.22c-.61,1.08-2.75,1.86-5.18,1.86S2.64,4.83,2,3.75ZM2,9.19a2.21,2.21,0,0,1,1-1A3.12,3.12,0,0,0,4.82,10,9.64,9.64,0,0,0,9,10.83h.45a10.43,10.43,0,0,1-2.22.23C4.79,11.05,2.64,10.27,2,9.19Zm11.11,2.73C12.53,13,10.39,13.77,8,13.77A7.36,7.36,0,0,1,3.1,12.32a9.78,9.78,0,0,0,4.11.82,9.67,9.67,0,0,0,4.16-.84,4,4,0,0,0,1.34-1A1.56,1.56,0,0,1,13.14,11.92ZM9,8.73A7.38,7.38,0,0,1,4.1,7.27a10.92,10.92,0,0,0,3.11.44,9.67,9.67,0,0,0,4.16-.85,3.9,3.9,0,0,0,1.49-1.17,2.56,2.56,0,0,1,1.3,1.19C13.54,8,11.4,8.73,9,8.73Z"/></svg>