<svg id="Layer_1" data-name="Layer 1" xmlns="http://www.w3.org/2000/svg" viewBox="0 0 80 80"><defs><style>.cls-1{fill:#023c42;}</style></defs><title>icon-mosaics-dark-green</title><path class="cls-1" d="M75.7,15.56,40.76.21a2.54,2.54,0,0,0-1-.21,2.36,2.36,0,0,0-1,.22L3.87,15.73a2.49,2.49,0,0,0,0,4.55L38.82,35.64a2.54,2.54,0,0,0,1,.21,2.6,2.6,0,0,0,1-.22L75.71,20.11A2.49,2.49,0,0,0,75.7,15.56ZM39.82,32,8,18,39.76,3.85l31.85,14ZM38.2,41.14l.09,36.36a2.5,2.5,0,0,1-3.48,2.3L1.6,65.65A2.48,2.48,0,0,1,.09,63.36L0,27a2.5,2.5,0,0,1,3.48-2.3L36.69,38.86A2.49,2.49,0,0,1,38.2,41.14ZM79.91,26.82a2.49,2.49,0,0,0-2.5-2.49,2.52,2.52,0,0,0-1,.21L43.28,38.84a2.51,2.51,0,0,0-1.5,2.29l.08,36.36A2.51,2.51,0,0,0,44.37,80a2.47,2.47,0,0,0,1-.21l33.14-14.3A2.5,2.5,0,0,0,80,63.18ZM45.61,75.59,45.53,42,76.17,28.72l.08,33.65Z"/></svg>