<svg id="Layer_1" data-name="Layer 1" xmlns="http://www.w3.org/2000/svg" viewBox="0 0 60 60"><defs><style>.cls-1{fill:#0098ea;}</style></defs><title>icon-wallet-name-green-16h-proximax-sirius-wallet copy</title><path class="cls-1" d="M30,0A30,30,0,1,0,60,30,30,30,0,0,0,30,0Zm0,58.12A28.12,28.12,0,1,1,58.13,30,28.15,28.15,0,0,1,30,58.12ZM40,12.61a5.5,5.5,0,0,0-7.78,0L15.89,29a1.35,1.35,0,0,0,0,1.93l1.91,1.91-5.05,5a1.36,1.36,0,0,0,0,1.95l5.95,5.88a1.35,1.35,0,0,0,1,.39,1.32,1.32,0,0,0,1-.4l5-5,1.84,1.84a1.37,1.37,0,0,0,1,.4h0a1.41,1.41,0,0,0,1-.4L40.86,30.9a1.36,1.36,0,0,0,0-1.93,1.38,1.38,0,0,0-1.94,0L28.42,39.55,26.48,37.6l3-3a2.34,2.34,0,0,0,.38,0,2.39,2.39,0,1,0-2.39-2.39,2.31,2.31,0,0,0,.05.46l-3,3-2-2,6-6h6.14a1.34,1.34,0,0,0,1-.41l2.59-2.64a2.39,2.39,0,1,0-1.93-2.35,2.34,2.34,0,0,0,0,.38L34.06,25H27.93a1.33,1.33,0,0,0-1,.4l-6.4,6.35-1.78-1.79L34.16,14.54a2.76,2.76,0,0,1,3.91,0l5.74,5.74a2.73,2.73,0,0,1,0,3.85,1.37,1.37,0,0,0,1.94,1.93,5.46,5.46,0,0,0,0-7.72ZM19.73,34.73h0l3.94,4-4,4-4-4Z"/></svg>