<?xml version="1.0" encoding="utf-8"?>
<!-- Generator: Adobe Illustrator 24.1.0, SVG Export Plug-In . SVG Version: 6.00 Build 0)  -->
<svg version="1.1" id="Layer_1" xmlns="http://www.w3.org/2000/svg" xmlns:xlink="http://www.w3.org/1999/xlink" x="0px" y="0px"
	 viewBox="0 0 80 80" style="enable-background:new 0 0 80 80;" xml:space="preserve">
<style type="text/css">
	.st0{fill:#FFFFFF;}
	.st1{fill:#7D1416;}
	.st2{fill:#400000;}
	.st3{fill:#EAAA3B;}
	.st4{fill:#CBCBCB;}
</style>
<circle cx="40.4" cy="40.4" r="39.6"/>
<circle class="st0" cx="39.6" cy="39.6" r="39.6"/>
<path d="M76.1,38.9c0,20.5-16.6,37.2-37.2,37.2C18.4,76.1,1.8,59.5,1.8,39S18.4,1.8,39,1.8c0,0,0,0,0,0
	C59.5,1.8,76.1,18.4,76.1,38.9z"/>
<path class="st1" d="M76.8,39.6c0,20.5-16.7,37.2-37.2,37.2S2.4,60.1,2.4,39.6C2.4,19,19.1,2.4,39.6,2.4
	C60.1,2.4,76.8,19.1,76.8,39.6C76.8,39.6,76.8,39.6,76.8,39.6z"/>
<path class="st2" d="M69.9,22.5C60.4,5.8,39.3-0.1,22.5,9.3S-0.1,39.9,9.3,56.6c2.6,4.7,6.3,8.7,10.8,11.7
	C23.9,43.8,44.8,24.3,69.9,22.5z"/>
<path d="M25.2,42h20.5c1.5,0,2.8,1.2,2.8,2.8l0,0V59l0,0h-26l0,0V44.8C22.5,43.2,23.7,42,25.2,42z"/>
<path d="M51.4,60.4H19.8c-0.5,0-0.9,0.4-0.9,0.9s0.4,0.9,0.9,0.9h31.6c0.5-0.1,0.9-0.5,0.8-1C52.2,60.8,51.8,60.5,51.4,60.4
	L51.4,60.4z"/>
<path class="st3" d="M24.2,41h20.5c1.5,0,2.8,1.2,2.8,2.8l0,0V58l0,0h-26l0,0V43.8C21.5,42.2,22.7,41,24.2,41z"/>
<path class="st4" d="M50.4,59.4H18.8c-0.5,0-0.9,0.4-0.9,0.9s0.4,0.9,0.9,0.9h31.6c0.5-0.1,0.9-0.5,0.8-1
	C51.2,59.8,50.8,59.5,50.4,59.4L50.4,59.4z"/>
<path d="M29.5,41h6.9c0.1-0.2,0.1-0.4,0-0.6c-0.2-0.7-0.6-1.3-1-1.9c1.6-0.7,3.1-1.6,4.3-2.8l0,0c0.2,0.1,0.5,0.2,0.7,0.4l0,0l0,0
	c0.8,0.4,1.7,0.7,2.6,0.9c-1,1.3-1.8,2.6-2.5,4.1c-2.1,1.1-4.1,2.3-6.1,3.6c-2,1.3-2.7,3.9-1.4,6c1.3,2,3.9,2.7,6,1.4l0,0l6.4-3.8
	c1-0.2,6-1.7,9.7-7.8c2.1-3.3,3.8-6.8,5.3-10.4h0.1c0.4,0.2,0.8,0.3,1.2,0.3c0.7,0,1.4-0.3,1.9-0.8c0.5-0.5,0.8-1.2,0.8-2v-4.3
	c0-0.4-0.2-0.7-0.6-0.9l-13-5.6c-0.4-0.2-0.8-0.1-1.1,0.3l-3.7,4.6c-0.3,0.4-0.2,1,0.1,1.3c0,0,0.1,0.1,0.1,0.1l-11.7,4.4
	c-1,0.4-1.8,1.1-2.4,2l-3.9,6.4c-0.8,1.4-0.9,3-0.2,4.5l0.3,0.5L29.5,41z"/>
<path class="st0" d="M59.5,29l-14-7h-0.2l0.1,0.1l-11.7,4.4c-1,0.4-1.8,1.1-2.4,2l-3.9,6.4c-0.8,1.4-0.9,3-0.2,4.5l0.3,0.5l0.9,0.2
	h6.9c0.1-0.2,0.1-0.4,0-0.6c-0.2-0.7-0.6-1.3-1-1.9c1.6-0.7,3.1-1.6,4.3-2.8l0,0c0.2,0.1,0.5,0.2,0.7,0.4l0,0l0,0
	c0.8,0.4,1.7,0.7,2.6,0.9c-1,1.3-1.8,2.6-2.5,4.1c-2.1,1.1-4.1,2.3-6.1,3.6c-2,1.3-2.7,3.9-1.4,6c1.3,2,3.9,2.7,6,1.4l6.4-3.8
	c1-0.2,6-1.7,9.7-7.8c2.1-3.3,3.8-6.8,5.3-10.4H59.5l0.1,0L59.5,29z"/>
<path d="M62.9,22.3l-13-5.6c-0.4-0.2-0.8-0.1-1.1,0.3l-3.7,4.6c-0.2,0.2-0.2,0.5-0.2,0.8c0.1,0.2,0.2,0.4,0.4,0.5h0.2l14,7l0.1,0.1
	c0.4,0.2,0.7,0.2,1.1,0.2c0.7,0,1.4-0.3,1.9-0.8c0.5-0.5,0.8-1.2,0.8-2v-4.4C63.5,22.8,63.2,22.5,62.9,22.3z"/>
<path class="st4" d="M62.9,21.3l-13-5.6c-0.4-0.2-0.8-0.1-1.1,0.3l-3.7,4.6c-0.2,0.2-0.2,0.5-0.2,0.8c0.1,0.2,0.2,0.4,0.4,0.5h0.2
	l14,7l0.1,0.1c0.4,0.2,0.7,0.2,1.1,0.2c0.7,0,1.4-0.3,1.9-0.8c0.5-0.5,0.8-1.2,0.8-2v-4.4C63.5,21.8,63.2,21.5,62.9,21.3z"/>
</svg>
