<?xml version="1.0" encoding="utf-8"?>
<!-- Generator: Adobe Illustrator 24.1.0, SVG Export Plug-In . SVG Version: 6.00 Build 0)  -->
<svg version="1.1" id="Layer_1" xmlns="http://www.w3.org/2000/svg" xmlns:xlink="http://www.w3.org/1999/xlink" x="0px" y="0px"
	 viewBox="0 0 60 60" style="enable-background:new 0 0 60 60;" xml:space="preserve">
<style type="text/css">
	.st0{fill:#7D1416;}
</style>
<path class="st0" d="M30,0C13.4,0,0,13.4,0,30s13.4,30,30,30s30-13.4,30-30S46.6,0,30,0z M30,58.1C14.5,58.1,1.9,45.5,1.9,30
	S14.5,1.9,30,1.9c15.5,0,28.1,12.6,28.1,28.1C58.1,45.5,45.5,58.1,30,58.1z"/>
<path class="st0" d="M19.9,46.3c0,1,0.8,1.7,1.8,1.8h16.5c1,0,1.7-0.8,1.8-1.8l1.3-25.7H18.7L19.9,46.3z M33.6,27
	c0-0.4,0.3-0.7,0.7-0.7l0,0h1.2c0.4,0,0.7,0.3,0.7,0.7v0v14.7c0,0.4-0.3,0.7-0.7,0.7h-1.2c-0.4,0-0.7-0.3-0.7-0.7c0,0,0,0,0,0
	L33.6,27z M28.6,27c0-0.4,0.3-0.7,0.7-0.7h1.1c0.4,0,0.7,0.3,0.7,0.7v14.7c0,0.4-0.3,0.7-0.7,0.7l0,0h-1.1c-0.4,0-0.7-0.3-0.7-0.7
	l0,0L28.6,27z M23.6,27c0-0.4,0.3-0.7,0.7-0.7c0,0,0,0,0,0h1.1c0.4,0,0.7,0.3,0.7,0.7l0,0v14.7c0,0.4-0.3,0.7-0.7,0.7l0,0h-1.1
	c-0.4,0-0.7-0.3-0.7-0.7l0,0L23.6,27L23.6,27z M43.2,15.2v3.7H16.6v-3.8c0-0.6,0.5-1.1,1.1-1.1h7.7v-1.6c0-0.2,0.1-0.4,0.4-0.4h8.2
	c0.2,0,0.4,0.1,0.5,0.3V14h7.7C42.7,14,43.2,14.5,43.2,15.2C43.2,15.2,43.2,15.2,43.2,15.2L43.2,15.2z"/>
</svg>
