<svg id="Layer_1" data-name="Layer 1" xmlns="http://www.w3.org/2000/svg" viewBox="0 0 50 50"><defs><style>.cls-1{fill:#fff;}</style></defs><title>icon-private-key-white</title><path class="cls-1" d="M47.72,10.49,39.51,2.3a7.85,7.85,0,0,0-11.11,0L5.06,25.64a2,2,0,0,0,0,2.76L7.8,31.13.58,38.26A2,2,0,0,0,.58,41l8.5,8.4a2,2,0,0,0,2.75,0L19,42.3l2.63,2.63A2,2,0,0,0,23,45.5h0a1.93,1.93,0,0,0,1.38-.58l16.4-16.49A2,2,0,1,0,38,25.68L23,40.78,20.19,38l4.26-4.26a3.42,3.42,0,1,0-2.87-3.38,3.51,3.51,0,0,0,.07.66l-4.22,4.21-2.91-2.91,8.55-8.5h8.77a2,2,0,0,0,1.39-.58l3.71-3.78a3.7,3.7,0,0,0,.66.07,3.42,3.42,0,1,0-3.42-3.42,3.29,3.29,0,0,0,0,.54L31,19.93H22.27a2,2,0,0,0-1.38.56l-9.13,9.08L9.21,27l22-22a4,4,0,0,1,5.59,0L45,13.25a3.91,3.91,0,0,1,0,5.51,1.95,1.95,0,1,0,2.76,2.75A7.8,7.8,0,0,0,47.72,10.49ZM10.56,33.9h0l5.63,5.63-5.76,5.75L4.73,39.65Z"/></svg>