<svg id="Layer_1" data-name="Layer 1" xmlns="http://www.w3.org/2000/svg" viewBox="0 0 60 60"><defs><style>.cls-1{fill:#fff;}.cls-2{fill:none;}</style></defs><title>icon-swap-process-white</title><path class="cls-1" d="M15,30.92V29.08a.93.93,0,0,1,.94-.91H30V25.42a.91.91,0,0,1,.54-.83,1,1,0,0,1,1,.12l5.62,4.59a.89.89,0,0,1,0,1.4l-5.62,4.59a1,1,0,0,1-.6.21.93.93,0,0,1-.4-.09.91.91,0,0,1-.54-.83V31.83H15.94A.93.93,0,0,1,15,30.92ZM43.12,15H16.88A1.88,1.88,0,0,0,15,16.88v9.37h3.75v-7.5h22.5v22.5H18.75v-7.5H15v9.37A1.88,1.88,0,0,0,16.88,45H43.12A1.88,1.88,0,0,0,45,43.12V16.88A1.88,1.88,0,0,0,43.12,15ZM60,30A30,30,0,1,1,30,0,30,30,0,0,1,60,30Zm-1.88,0A28.12,28.12,0,1,0,30,58.12,28.15,28.15,0,0,0,58.12,30Z"/><rect class="cls-2" x="-158" y="-347" width="1366" height="780"/></svg>