<svg id="Layer_1" data-name="Layer 1" xmlns="http://www.w3.org/2000/svg" viewBox="0 0 50 50"><defs><style>.cls-1{fill:#fff;}</style></defs><title>icon-wallet-import-white</title><path class="cls-1" d="M47.84,20.74V10.91a4.31,4.31,0,0,0-4.33-4.27H40.59l-3-5.32a2.61,2.61,0,0,0-3.51-1h0L22.57,6.64H9.73a4.3,4.3,0,0,0-4.32,4.27V30.85a9.26,9.26,0,0,1,1.72-.53V10.91a2.6,2.6,0,0,1,2.6-2.57h9.73l-4.15,2.29h-5a.85.85,0,0,0-.78.93.86.86,0,0,0,.78.77H46.11v8.41H39.79A5.3,5.3,0,0,0,34.46,26v.37a5.31,5.31,0,0,0,5.33,5.28h6.32v8.61a2.59,2.59,0,0,1-2.6,2.56H20a10.47,10.47,0,0,1-.51,1.71h24a4.31,4.31,0,0,0,4.33-4.28V31.63H50V20.74Zm-29-10.12,16-8.81a.87.87,0,0,1,1.17.33l4.77,8.48Zm24,0L41.56,8.35h1.95a2.59,2.59,0,0,1,2.57,2.28Zm5.44,19.3H39.79a3.57,3.57,0,0,1-3.6-3.55V26a3.59,3.59,0,0,1,3.6-3.56h8.49Zm-5.85-3.67h0a1.92,1.92,0,1,1-1.9-1.9A1.91,1.91,0,0,1,42.43,26.27Zm-33,5.12A9.31,9.31,0,1,0,9.46,50a9.31,9.31,0,1,0,0-18.62Zm2.62,9.88v3.06H6.84V41.26H4.73l4.73-5,4.73,5Z"/></svg>