<svg id="Layer_1" data-name="Layer 1" xmlns="http://www.w3.org/2000/svg" viewBox="0 0 88 88"><defs><style>.cls-1{fill:#9ab1b3;}</style></defs><title>icon-qr-code</title><path class="cls-1" d="M10.63,12.14V36a1.72,1.72,0,0,0,1.72,1.73H36.22A1.72,1.72,0,0,0,37.94,36V31.48a1.73,1.73,0,1,0-3.45,0v2.8H14.08V13.86H34.49V18a1.73,1.73,0,0,0,3.45,0V12.14a1.72,1.72,0,0,0-1.72-1.73H12.35A1.72,1.72,0,0,0,10.63,12.14Z"/><path class="cls-1" d="M20.71,18.76A1.73,1.73,0,0,0,19,20.49v7.16a1.73,1.73,0,0,0,1.73,1.73h7.16a1.73,1.73,0,0,0,1.72-1.73V20.49a1.73,1.73,0,0,0-1.72-1.73Zm5.43,7.16H22.43v-3.7h3.71Z"/><path class="cls-1" d="M36.22,50.05H12.35a1.72,1.72,0,0,0-1.72,1.73V75.64a1.72,1.72,0,0,0,1.72,1.73H36.22a1.72,1.72,0,0,0,1.72-1.73V51.78A1.72,1.72,0,0,0,36.22,50.05ZM34.49,73.92H14.08V53.5H34.49Z"/><path class="cls-1" d="M52.11,37.73H76A1.72,1.72,0,0,0,77.7,36V12.14A1.72,1.72,0,0,0,76,10.41H52.11a1.72,1.72,0,0,0-1.72,1.73V36A1.72,1.72,0,0,0,52.11,37.73Zm1.73-23.87H74.25V34.28H53.84Z"/><path class="cls-1" d="M77.7,75.64V51.78A1.72,1.72,0,0,0,76,50.05H52.11a1.72,1.72,0,0,0-1.72,1.73V75.64a1.72,1.72,0,0,0,1.72,1.73H76A1.72,1.72,0,0,0,77.7,75.64Zm-3.45-1.72H53.84V53.5H74.25Z"/><path class="cls-1" d="M76,45.72a1.73,1.73,0,0,0,0-3.45H45.72V12a1.73,1.73,0,1,0-3.45,0V42.27H19.37a1.73,1.73,0,1,0,0,3.45h22.9V75.64a1.73,1.73,0,1,0,3.45,0V45.72Z"/><path class="cls-1" d="M20.71,69.14h7.16a1.72,1.72,0,0,0,1.72-1.72V60.26a1.72,1.72,0,0,0-1.72-1.73H20.71A1.72,1.72,0,0,0,19,60.26v7.16A1.72,1.72,0,0,0,20.71,69.14ZM22.43,62h3.71v3.71H22.43Z"/><path class="cls-1" d="M67.62,18.76H60.47a1.73,1.73,0,0,0-1.73,1.73v7.16a1.73,1.73,0,0,0,1.73,1.73h7.15a1.73,1.73,0,0,0,1.73-1.73V20.49A1.73,1.73,0,0,0,67.62,18.76ZM65.9,25.92H62.19v-3.7H65.9Z"/><path class="cls-1" d="M60.47,69.14h7.15a1.72,1.72,0,0,0,1.73-1.72V60.26a1.72,1.72,0,0,0-1.73-1.73H60.47a1.72,1.72,0,0,0-1.73,1.73v7.16A1.72,1.72,0,0,0,60.47,69.14ZM62.19,62H65.9v3.71H62.19Z"/><path class="cls-1" d="M12,42.28l-.09,0a1.73,1.73,0,0,0,.79,3.36l.1,0a1.72,1.72,0,1,0-.8-3.35Z"/><path class="cls-1" d="M35.87,23l-.09,0a1.72,1.72,0,0,0,.39,3.4,1.87,1.87,0,0,0,.4,0l.09,0A1.73,1.73,0,0,0,35.87,23Z"/><path class="cls-1" d="M1.73,14.13a1.72,1.72,0,0,0,1.72-1.72v-9h8.63a1.73,1.73,0,1,0,0-3.45H1.73A1.72,1.72,0,0,0,0,1.73V12.41A1.72,1.72,0,0,0,1.73,14.13Z"/><path class="cls-1" d="M86.27,0H75.92a1.73,1.73,0,1,0,0,3.45h8.63v9a1.73,1.73,0,0,0,3.45,0V1.73A1.72,1.72,0,0,0,86.27,0Z"/><path class="cls-1" d="M12.08,84.47H3.45v-9a1.73,1.73,0,1,0-3.45,0V86.2a1.73,1.73,0,0,0,1.73,1.73H12.08a1.73,1.73,0,0,0,0-3.46Z"/><path class="cls-1" d="M86.27,73.79a1.73,1.73,0,0,0-1.72,1.73v9H75.92a1.73,1.73,0,0,0,0,3.46H86.27A1.73,1.73,0,0,0,88,86.2V75.52A1.73,1.73,0,0,0,86.27,73.79Z"/></svg>