<svg id="Layer_1" data-name="Layer 1" xmlns="http://www.w3.org/2000/svg" viewBox="0 0 60 60"><defs><style>.cls-1{fill:#2f98e3;}</style></defs><title>icon-nodes-blue-60h</title><path class="cls-1" d="M30,0A30,30,0,1,0,60,30,30,30,0,0,0,30,0Zm0,58.12A28.12,28.12,0,1,1,58.12,30,28.15,28.15,0,0,1,30,58.12ZM43.88,13.6H16.12a2.55,2.55,0,0,0-2.52,2.57v6.54a2.55,2.55,0,0,0,.46,1.45H45.94a2.55,2.55,0,0,0,.46-1.45V16.17A2.55,2.55,0,0,0,43.88,13.6ZM19.34,21.94a2.5,2.5,0,1,1,2.46-2.5A2.49,2.49,0,0,1,19.34,21.94Zm12.85-2.78a.56.56,0,1,1,.54-.55A.55.55,0,0,1,32.19,19.16Zm1.09,1.67a.56.56,0,1,1,.55-.56A.56.56,0,0,1,33.28,20.83Zm1.09-1.67a.56.56,0,0,1,0-1.11.56.56,0,0,1,0,1.11Zm1.1,1.67a.56.56,0,1,1,.54-.56A.55.55,0,0,1,35.47,20.83Zm1.09-1.67a.56.56,0,0,1,0-1.11.56.56,0,0,1,0,1.11Zm1.09,1.67a.56.56,0,1,1,.55-.56A.56.56,0,0,1,37.65,20.83Zm1.09-1.67a.56.56,0,1,1,.55-.55A.55.55,0,0,1,38.74,19.16Zm1.1,1.67a.56.56,0,0,1,0-1.11.56.56,0,0,1,0,1.11Zm1.09-1.67a.56.56,0,1,1,.55-.55A.55.55,0,0,1,40.93,19.16ZM42,20.83a.56.56,0,0,1,0-1.11.56.56,0,0,1,0,1.11Zm-28,4.45a2.55,2.55,0,0,0-.46,1.45v6.54a2.55,2.55,0,0,0,.46,1.45H45.94a2.55,2.55,0,0,0,.46-1.45V26.73a2.55,2.55,0,0,0-.46-1.45Zm5.28,7.22A2.5,2.5,0,1,1,21.8,30,2.49,2.49,0,0,1,19.34,32.5Zm12.85-2.78a.56.56,0,1,1,.54-.55A.55.55,0,0,1,32.19,29.72Zm1.09,1.67a.56.56,0,1,1,.55-.56A.56.56,0,0,1,33.28,31.39Zm1.09-1.67a.56.56,0,0,1,0-1.11.56.56,0,0,1,0,1.11Zm1.1,1.67a.56.56,0,1,1,.54-.56A.55.55,0,0,1,35.47,31.39Zm1.09-1.67a.56.56,0,0,1,0-1.11.56.56,0,0,1,0,1.11Zm1.09,1.67a.56.56,0,1,1,.55-.56A.56.56,0,0,1,37.65,31.39Zm1.09-1.67a.56.56,0,1,1,.55-.55A.55.55,0,0,1,38.74,29.72Zm1.1,1.67a.56.56,0,0,1,0-1.11.56.56,0,0,1,0,1.11Zm1.09-1.67a.56.56,0,1,1,.55-.55A.55.55,0,0,1,40.93,29.72ZM42,31.39a.56.56,0,0,1,0-1.11.56.56,0,0,1,0,1.11Zm-28,4.45a2.54,2.54,0,0,0-.46,1.44v6.55a2.55,2.55,0,0,0,2.52,2.57H43.88a2.54,2.54,0,0,0,2.51-2.57V37.28a2.54,2.54,0,0,0-.45-1.44Zm5.28,7.22a2.5,2.5,0,1,1,2.46-2.5A2.49,2.49,0,0,1,19.34,43.06Zm12.85-2.78a.56.56,0,1,1,.54-.55A.55.55,0,0,1,32.19,40.28ZM33.28,42a.56.56,0,1,1,.55-.56A.56.56,0,0,1,33.28,42Zm1.09-1.67a.56.56,0,0,1,0-1.11.56.56,0,0,1,0,1.11ZM35.47,42a.56.56,0,1,1,.54-.56A.55.55,0,0,1,35.47,42Zm1.09-1.67a.56.56,0,0,1,0-1.11.56.56,0,0,1,0,1.11ZM37.65,42a.56.56,0,1,1,.55-.56A.56.56,0,0,1,37.65,42Zm1.09-1.67a.56.56,0,1,1,.55-.55A.55.55,0,0,1,38.74,40.28ZM39.84,42a.56.56,0,0,1,0-1.11.56.56,0,0,1,0,1.11Zm1.09-1.67a.56.56,0,1,1,.55-.55A.55.55,0,0,1,40.93,40.28ZM42,42a.56.56,0,0,1,0-1.11A.56.56,0,0,1,42,42Z"/></svg>