<?xml version="1.0" encoding="utf-8"?>
<!-- Generator: Adobe Illustrator 23.1.1, SVG Export Plug-In . SVG Version: 6.00 Build 0)  -->
<svg version="1.1" id="Layer_1" xmlns="http://www.w3.org/2000/svg" xmlns:xlink="http://www.w3.org/1999/xlink" x="0px" y="0px"
	 viewBox="0 0 60 60" style="enable-background:new 0 0 60 60;" xml:space="preserve">
<style type="text/css">
	.st0{fill:#306EB5;}
</style>
<title>icon-storage-green-16h-proximax-sirius-wallet</title>
<path class="st0" d="M30,0C13.4,0,0,13.4,0,30s13.4,30,30,30s30-13.4,30-30S46.6,0,30,0z M30,58.2C14.4,58.2,1.8,45.5,1.8,30
	S14.4,1.8,30,1.8S58.2,14.4,58.2,30c0,0,0,0,0,0C58.2,45.6,45.6,58.2,30,58.2z"/>
<rect x="30" y="14.2" class="st0" width="4.9" height="3.3"/>
<path class="st0" d="M47.5,35.5H30v3.3h17.5c0.4,0,0.8-0.3,0.9-0.7v-1.8C48.3,35.8,47.9,35.5,47.5,35.5z"/>
<path class="st0" d="M47.5,41H30v3.3h17.5c0.4,0,0.8-0.3,0.9-0.7v-1.8C48.3,41.3,47.9,41,47.5,41z"/>
<path class="st0" d="M47.5,19.1H30v3.3h17.5c0.4,0,0.8-0.3,0.9-0.7v-1.8C48.3,19.4,47.9,19.1,47.5,19.1z"/>
<path class="st0" d="M47.5,30H30v3.3h17.5c0.4,0,0.8-0.3,0.9-0.7v-1.8C48.3,30.3,47.9,30,47.5,30z"/>
<path class="st0" d="M47.5,24.6H30v3.3h17.5c0.4,0,0.8-0.3,0.9-0.7v-1.8C48.3,24.9,47.9,24.6,47.5,24.6z"/>
<path class="st0" d="M29.5,14.7V17h-3.9v-2.3L29.5,14.7 M30,14.2h-4.9v3.3H30V14.2z"/>
<path class="st0" d="M29.5,25.1v2.3H12.4c-0.1,0-0.3-0.1-0.3-0.2v-1.8c0-0.1,0.1-0.3,0.3-0.3c0,0,0,0,0,0H29.5 M30,24.6H12.4
	c-0.4,0-0.8,0.3-0.8,0.7c0,0,0,0,0,0l0,0v1.8l0,0c0,0.4,0.3,0.7,0.8,0.7H30V24.6z"/>
<path class="st0" d="M29.5,30.5v2.3H12.4c-0.1,0-0.3-0.1-0.3-0.2c0,0,0,0,0,0v-1.8c0-0.1,0.1-0.2,0.3-0.2H29.5 M30,30H12.4
	c-0.4,0-0.7,0.3-0.8,0.7l0,0v1.8l0,0c0,0.4,0.3,0.7,0.8,0.7H30V30z"/>
<path class="st0" d="M29.5,19.6v2.3H12.4c-0.1,0-0.3-0.1-0.3-0.2c0,0,0,0,0,0v-1.8c0-0.1,0.1-0.2,0.3-0.2H29.5 M30,19.1H12.4
	c-0.4,0-0.7,0.3-0.8,0.7l0,0v1.8l0,0c0,0.4,0.3,0.7,0.8,0.7H30V19.1z"/>
<path class="st0" d="M29.5,36v2.3H12.4c-0.1,0-0.3-0.1-0.3-0.2c0,0,0,0,0,0v-1.8c0-0.1,0.1-0.2,0.3-0.2H29.5 M30,35.5H12.4
	c-0.4,0-0.7,0.3-0.8,0.7l0,0V38l0,0c0,0.4,0.3,0.7,0.8,0.7H30V35.5z"/>
<path class="st0" d="M29.5,41.5v2.3H12.4c-0.1,0-0.3-0.1-0.3-0.2c0,0,0,0,0,0v-1.8c0-0.1,0.1-0.2,0.3-0.2H29.5 M30,41H12.4
	c-0.4,0-0.7,0.3-0.8,0.7l0,0v1.8l0,0c0,0.4,0.3,0.7,0.8,0.7H30V41z"/>
</svg>
