<svg id="Layer_1" data-name="Layer 1" xmlns="http://www.w3.org/2000/svg" viewBox="0 0 18.67 16"><defs><style>.cls-1{fill:#2ba1b9;}</style></defs><title>icon-account-green-16h-proximax-sirius-wallet</title><path class="cls-1" d="M9.36,0A9.14,9.14,0,0,0,0,8.89,9,9,0,0,0,3.28,16a2.32,2.32,0,0,1,.44-.31l2.74-1.47a1.1,1.1,0,0,0,.59-1v-1.1A6,6,0,0,1,5.93,9.85a.9.9,0,0,1-.42-.76V7.88a.9.9,0,0,1,.3-.67V5.46S5.45,2.73,9.2,2.73s3.39,2.73,3.39,2.73V7.21a.9.9,0,0,1,.3.67V9.09a.9.9,0,0,1-.65.86,6.58,6.58,0,0,1-.92,1.81l-.27.36v1.13a1.11,1.11,0,0,0,.62,1l2.94,1.44a3.08,3.08,0,0,1,.48.32A9,9,0,0,0,18.4,9.2,9.12,9.12,0,0,0,9.36,0Z"/></svg>