<svg id="Layer_1" data-name="Layer 1" xmlns="http://www.w3.org/2000/svg" viewBox="0 0 17.6 16"><defs><style>.cls-1{fill:#2ba1b9;}</style></defs><title>icon-namespaces-green-16h-proximax-sirius-wallet</title><path class="cls-1" d="M11.73,10.18V5.09H6.23V0H0V16H17.6V10.18ZM5.5,15.27H.73V10.91H5.5Zm0-5.09H.73V5.82H5.5Zm0-5.09H.73V.73H5.5ZM11,15.27H6.23V10.91H11Zm0-5.09H6.23V5.82H11Zm5.87,5.09H11.73V10.91h5.14ZM1.1,4.36V1.45a.36.36,0,0,1,.37-.36h3.3a.37.37,0,0,1,0,.73H1.83V4.36a.37.37,0,1,1-.73,0Zm0,5.09V6.55a.36.36,0,0,1,.37-.37h3.3a.37.37,0,0,1,0,.73H1.83V9.45a.37.37,0,1,1-.73,0Zm0,5.1V11.64a.37.37,0,0,1,.37-.37h3.3a.37.37,0,0,1,.36.37.36.36,0,0,1-.36.36H1.83v2.55a.37.37,0,0,1-.73,0Zm5.5-5.1V6.55A.36.36,0,0,1,7,6.18h3.3a.37.37,0,0,1,0,.73H7.33V9.45a.37.37,0,1,1-.73,0Zm0,5.1V11.64A.37.37,0,0,1,7,11.27h3.3a.37.37,0,0,1,.36.37.36.36,0,0,1-.36.36H7.33v2.55a.37.37,0,0,1-.73,0Zm5.5,0V11.64a.37.37,0,0,1,.37-.37h3.66a.37.37,0,0,1,.37.37.36.36,0,0,1-.37.36h-3.3v2.55a.37.37,0,0,1-.73,0Z"/></svg>