<svg id="Layer_1" data-name="Layer 1" xmlns="http://www.w3.org/2000/svg" viewBox="0 0 50 40"><defs><style>.cls-1{fill:#fff;}</style></defs><title>icon-directory-white</title><path class="cls-1" d="M25.6,28.32v1.3a1.47,1.47,0,0,1-1.46,1.47H8.69a1.46,1.46,0,0,1-1.46-1.47v-1.3a4.65,4.65,0,0,1,4.63-4.66h1.19a1.13,1.13,0,0,0,1.13-1.13.87.87,0,0,0-.26-.61,8,8,0,0,1-1.68-2.54.5.5,0,0,1-.24.06c-.67,0-1.46-1.49-1.46-2.51s.1-1.84.77-1.84l.18,0c0-2.75.56-6.19,4.92-6.19,4.19,0,4.88,3.44,4.93,6.2l.25,0c.67,0,.77.82.77,1.84s-.8,2.51-1.47,2.51a.45.45,0,0,1-.28-.11,8.1,8.1,0,0,1-1.7,2.58.87.87,0,0,0-.26.62,1.13,1.13,0,0,0,1.12,1.13H21A4.65,4.65,0,0,1,25.6,28.32ZM40.33,10.87H24.87A9.51,9.51,0,0,1,25.63,14a2,2,0,0,1,.65.78h14a1.08,1.08,0,0,0,1.08-1.09V12A1.08,1.08,0,0,0,40.33,10.87Zm1.08,10V19.09A1.08,1.08,0,0,0,40.33,18H26.54a3.78,3.78,0,0,1-2.1,2.71c0,.06-.07.1-.1.16v1h16A1.08,1.08,0,0,0,41.41,20.82Zm-1.08,4.31H29a6,6,0,0,1,.92,3.19V29H40.33A1.08,1.08,0,0,0,41.41,28V26.22A1.08,1.08,0,0,0,40.33,25.13ZM50,6.7V33.3A6.6,6.6,0,0,1,43.5,40h-37A6.6,6.6,0,0,1,0,33.3V6.7A6.6,6.6,0,0,1,6.51,0h37A6.6,6.6,0,0,1,50,6.7Zm-3.07,0A3.49,3.49,0,0,0,43.5,3.16h-37A3.49,3.49,0,0,0,3.07,6.7V33.3a3.49,3.49,0,0,0,3.44,3.54h37a3.49,3.49,0,0,0,3.43-3.54Z"/></svg>