<svg id="Layer_1" data-name="Layer 1" xmlns="http://www.w3.org/2000/svg" viewBox="0 0 35 40"><defs><style>.cls-1{fill:#fff;}</style></defs><title>icon-attestation-white</title><polygon class="cls-1" points="24.23 1.28 29.09 6.14 24.23 6.14 24.23 1.28"/><path class="cls-1" d="M24.3,40.06l-2.42-1.52a.85.85,0,0,0-.92,0l-2.42,1.52V32.3h.59a.84.84,0,0,1,.24,0,2.15,2.15,0,0,1,.46.32,2.55,2.55,0,0,0,1.59.73A2.6,2.6,0,0,0,23,32.62a1.93,1.93,0,0,1,.46-.32.79.79,0,0,1,.24,0h.59Z"/><path class="cls-1" d="M25.26,29a3,3,0,0,0-.45,1.1,3,3,0,0,1-.16.5.82.82,0,0,1-.22,0h-.31l-.41,0a2.64,2.64,0,0,0-.79.11,3.27,3.27,0,0,0-1,.62,2.48,2.48,0,0,1-.51.34,2.24,2.24,0,0,1-.51-.34,3.32,3.32,0,0,0-1-.62,2.53,2.53,0,0,0-.78-.11l-.41,0H18.4a.73.73,0,0,1-.21,0,2.27,2.27,0,0,1-.16-.5,3.2,3.2,0,0,0-.45-1.1,2.93,2.93,0,0,0-.91-.76,2.52,2.52,0,0,1-.44-.32,2.66,2.66,0,0,1,.16-.55,3.35,3.35,0,0,0,.27-1.18A3.3,3.3,0,0,0,16.39,25a2.66,2.66,0,0,1-.16-.55,2.52,2.52,0,0,1,.44-.32,2.93,2.93,0,0,0,.91-.76,3.2,3.2,0,0,0,.45-1.1,2.27,2.27,0,0,1,.16-.5.73.73,0,0,1,.21,0h.32l.41,0a2.53,2.53,0,0,0,.78-.11,3.32,3.32,0,0,0,1-.62,2.1,2.1,0,0,1,.5-.34,2.15,2.15,0,0,1,.52.34,3.27,3.27,0,0,0,1,.62,2.64,2.64,0,0,0,.79.11l.41,0h.31a.82.82,0,0,1,.22,0,3,3,0,0,1,.16.5,2.48,2.48,0,0,0,1.35,1.86,2.64,2.64,0,0,1,.45.32,2.66,2.66,0,0,1-.16.55,3.3,3.3,0,0,0-.28,1.18,3.35,3.35,0,0,0,.28,1.18,2.66,2.66,0,0,1,.16.55,2.64,2.64,0,0,1-.45.32A3,3,0,0,0,25.26,29Z"/><path class="cls-1" d="M23.37,7.86A.87.87,0,0,1,22.5,7V.06H4.69V35.24H16.81V31.6a3.17,3.17,0,0,1-.45-1.11,2.31,2.31,0,0,0-.17-.51,2.28,2.28,0,0,0-.44-.32,2.4,2.4,0,0,1-1.16-1.24,2.43,2.43,0,0,1,.18-1.68,2.27,2.27,0,0,0,.17-.59,2.27,2.27,0,0,0-.17-.59,2.45,2.45,0,0,1-.18-1.69,2.41,2.41,0,0,1,1.16-1.23,2.28,2.28,0,0,0,.44-.32,2.31,2.31,0,0,0,.17-.51,2.4,2.4,0,0,1,.81-1.47A2,2,0,0,1,18.4,20h.73a.84.84,0,0,0,.24,0,2.15,2.15,0,0,0,.46-.32A2.5,2.5,0,0,1,21.42,19a2.55,2.55,0,0,1,1.59.73,1.93,1.93,0,0,0,.46.32.79.79,0,0,0,.24,0h.72a2,2,0,0,1,1.24.34,2.45,2.45,0,0,1,.81,1.47,1.88,1.88,0,0,0,.17.51,2.28,2.28,0,0,0,.44.32,2.45,2.45,0,0,1,1.16,1.23,2.51,2.51,0,0,1-.18,1.69,2.27,2.27,0,0,0-.17.59,2.27,2.27,0,0,0,.17.59,2.48,2.48,0,0,1,.18,1.68,2.44,2.44,0,0,1-1.16,1.24,2.28,2.28,0,0,0-.44.32,1.88,1.88,0,0,0-.17.51A3.2,3.2,0,0,1,26,31.6v3.64h4.29V7.86ZM8,6.14H19.15a.86.86,0,1,1,0,1.72H8A.86.86,0,0,1,8,6.14ZM23.6,16.56H8a.86.86,0,0,1,0-1.72H23.6a.86.86,0,1,1,0,1.72Zm3.45,0a.86.86,0,1,1,.86-.86A.86.86,0,0,1,27.05,16.56Zm0-4.35H8a.86.86,0,0,1,0-1.72h19a.86.86,0,0,1,0,1.72Z"/></svg>