<svg id="Layer_1" data-name="Layer 1" xmlns="http://www.w3.org/2000/svg" viewBox="0 0 16 16"><defs><style>.cls-1{fill:#2ba1b9;}</style></defs><title>icon-amount-green-16h-proximax-sirius-wallet</title><path class="cls-1" d="M12.48,4.76a1.31,1.31,0,0,0,0-.39V4c0-.84-.62-1.6-1.76-2.16A9.18,9.18,0,0,0,6.86,1a9.26,9.26,0,0,0-3.92.79C1.81,2.35,1.19,3.11,1.19,4v.42A2.56,2.56,0,0,0,2.9,6.5a1.89,1.89,0,0,0,0,.39V7A2.54,2.54,0,0,0,1.19,9.07v.42A2.06,2.06,0,0,0,2,11a1.71,1.71,0,0,0-.11.59v.42c0,.84.63,1.6,1.76,2.16A9.19,9.19,0,0,0,7.57,15a9.18,9.18,0,0,0,3.91-.79c1.13-.56,1.76-1.32,1.76-2.16v-.42a2.08,2.08,0,0,0-.82-1.55,1.71,1.71,0,0,0,.11-.59V9.41a2.54,2.54,0,0,0,1.66-2.1V6.89C14.19,6.06,13.59,5.31,12.48,4.76ZM2,3.59A2.49,2.49,0,0,1,3.26,2.44a8.52,8.52,0,0,1,3.6-.72,8.55,8.55,0,0,1,3.6.72,2.54,2.54,0,0,1,1.28,1.15c-.58,1-2.6,1.75-4.88,1.75S2.56,4.6,2,3.59ZM2,8.71a2,2,0,0,1,.93-1,3,3,0,0,0,1.7,1.7,9.18,9.18,0,0,0,3.91.79H9a9.85,9.85,0,0,1-2.09.22C4.58,10.46,2.56,9.72,2,8.71Zm10.47,2.57c-.58,1-2.6,1.74-4.88,1.74A6.92,6.92,0,0,1,3,11.66a9.17,9.17,0,0,0,3.87.78,9.17,9.17,0,0,0,3.91-.8A3.77,3.77,0,0,0,12,10.71,1.85,1.85,0,0,1,12.45,11.28Zm-3.93-3A6.89,6.89,0,0,1,3.93,6.9a10,10,0,0,0,2.93.41,9.18,9.18,0,0,0,3.91-.79,3.57,3.57,0,0,0,1.41-1.11A2.46,2.46,0,0,1,13.4,6.53C12.82,7.54,10.8,8.28,8.52,8.28Z"/></svg>