<?xml version="1.0" encoding="utf-8"?>
<!-- Generator: Adobe Illustrator 24.1.0, SVG Export Plug-In . SVG Version: 6.00 Build 0)  -->
<svg version="1.1" id="Layer_1" xmlns="http://www.w3.org/2000/svg" xmlns:xlink="http://www.w3.org/1999/xlink" x="0px" y="0px"
	 viewBox="0 0 80 80" style="enable-background:new 0 0 80 80;" xml:space="preserve">
<style type="text/css">
	.st0{fill:#FFFFFF;}
	.st1{fill:#7D1416;}
	.st2{fill:#400000;}
	.st3{fill:#CBCBCB;}
	.st4{fill:#EAAA3B;}
</style>
<circle cx="40.4" cy="40.4" r="39.6"/>
<circle class="st0" cx="39.6" cy="39.6" r="39.6"/>
<path d="M76.1,38.9c0,20.5-16.6,37.2-37.2,37.2C18.4,76.1,1.8,59.5,1.8,39S18.4,1.8,39,1.8c0,0,0,0,0,0
	C59.5,1.8,76.1,18.4,76.1,38.9z"/>
<path class="st1" d="M76.8,39.6c0,20.5-16.7,37.2-37.2,37.2S2.4,60.1,2.4,39.6C2.4,19,19.1,2.4,39.6,2.4
	C60.1,2.4,76.8,19.1,76.8,39.6C76.8,39.6,76.8,39.6,76.8,39.6z"/>
<path class="st2" d="M69.9,22.5C60.4,5.8,39.3-0.1,22.5,9.3S-0.1,39.9,9.3,56.6c2.6,4.7,6.3,8.7,10.8,11.7
	C23.9,43.8,44.8,24.3,69.9,22.5z"/>
<path class="st3" d="M60.1,24.8l-19.7-8.6C40.3,16,40.1,16,39.9,16c-0.2,0-0.4,0-0.6,0.1l-19.6,8.7c-0.7,0.3-1,1.1-0.7,1.8
	c0.1,0.3,0.4,0.6,0.7,0.7L39.3,36c0.2,0.1,0.4,0.1,0.6,0.1c0.2,0,0.4,0,0.6-0.1l19.6-8.7c0.7-0.3,1-1.1,0.7-1.8
	C60.7,25.1,60.4,24.9,60.1,24.8z"/>
<polygon points="39.9,33 22,25.1 39.9,17.2 57.8,25 "/>
<polygon class="st0" points="39.9,34 22,26.1 39.9,18.2 57.8,26 "/>
<path class="st4" d="M39,39.1v20.5c0,0.8-0.6,1.4-1.4,1.4c-0.2,0-0.4,0-0.6-0.1l-18.7-8c-0.5-0.2-0.9-0.7-0.9-1.3V31.1
	c0-0.8,0.6-1.4,1.4-1.4c0.2,0,0.4,0,0.6,0.1l18.7,8C38.7,38.1,39,38.6,39,39.1z"/>
<path class="st3" d="M62.5,31.1c0-0.8-0.6-1.4-1.4-1.4c0,0,0,0,0,0c-0.2,0-0.4,0-0.6,0.1l-18.6,8c-0.5,0.2-0.9,0.7-0.9,1.3v20.5
	c0,0.8,0.6,1.4,1.4,1.4c0.2,0,0.4,0,0.6-0.1l18.6-8c0.5-0.2,0.8-0.7,0.8-1.3L62.5,31.1z"/>
<polygon points="44.2,59.5 44.1,40.6 61.4,33.2 61.4,52.1 "/>
<polygon class="st0" points="43.2,58.5 43.1,39.6 60.4,32.2 60.4,51.1 "/>
</svg>
