<svg id="Layer_1" data-name="Layer 1" xmlns="http://www.w3.org/2000/svg" viewBox="0 0 49 40"><defs><style>.cls-1{fill:#fff;}</style></defs><title>icon-meseenger-white</title><path class="cls-1" d="M20.16,5.93c-11.07,0-20,6.85-20,15.3,0,4.15,2.16,7.92,5.67,10.67-.2,2.81-.88,6.25-2.86,8.1,3.93,0,8-2.44,10.49-4.35a25.89,25.89,0,0,0,6.75.89c11.07,0,20-6.85,20-15.31S31.23,5.93,20.16,5.93Z"/><path class="cls-1" d="M46.23,22.92a12.72,12.72,0,0,0,2.62-7.61C48.85,6.85,40,0,29.08,0A23.48,23.48,0,0,0,16.44,3.53a27.59,27.59,0,0,1,5-.47c11.76,0,21.29,7.54,21.29,16.84a14.47,14.47,0,0,1-4,9.81c2.5,1.92,6.47,4.36,10.34,4.36C46.36,31.44,46.16,25.61,46.23,22.92Z"/></svg>