<svg id="Layer_1" data-name="Layer 1" xmlns="http://www.w3.org/2000/svg" viewBox="0 0 75 60"><defs><style>.cls-1{fill:#2ba1b9;}</style></defs><title>icon-address-green-book-60h-proximax-sirius-wallet</title><path class="cls-1" d="M38.4,42.49v1.93a2.21,2.21,0,0,1-2.19,2.21H13a2.2,2.2,0,0,1-2.19-2.21V42.49a7,7,0,0,1,6.94-7h1.8a1.69,1.69,0,0,0,1.68-1.69,1.3,1.3,0,0,0-.38-.92,12.37,12.37,0,0,1-2.53-3.81.7.7,0,0,1-.35.09c-1,0-2.19-2.24-2.19-3.76S16,22.63,17,22.63a1.26,1.26,0,0,1,.27,0c.08-4.13.84-9.29,7.39-9.29,6.28,0,7.32,5.17,7.39,9.31a1.24,1.24,0,0,1,.37-.06c1,0,1.15,1.24,1.15,2.77s-1.18,3.76-2.19,3.76a.73.73,0,0,1-.42-.16,12.32,12.32,0,0,1-2.56,3.87,1.28,1.28,0,0,0-.38.92,1.69,1.69,0,0,0,1.68,1.7h1.79A7,7,0,0,1,38.4,42.49ZM60.49,16.31H37.31A14.6,14.6,0,0,1,38.44,21a2.82,2.82,0,0,1,1,1.18H60.49a1.64,1.64,0,0,0,1.63-1.64v-2.6A1.63,1.63,0,0,0,60.49,16.31Zm1.63,14.92v-2.6A1.63,1.63,0,0,0,60.49,27H39.82c-.46,1.75-1.59,3.57-3.16,4.06l-.15.25v1.55h24A1.63,1.63,0,0,0,62.12,31.23Zm-1.63,6.46h-17a9,9,0,0,1,1.38,4.79v1.07H60.49a1.63,1.63,0,0,0,1.63-1.63v-2.6A1.63,1.63,0,0,0,60.49,37.69ZM75,10.05V50a9.91,9.91,0,0,1-9.76,10H9.76A9.91,9.91,0,0,1,0,50V10.05A9.91,9.91,0,0,1,9.76,0H65.24A9.91,9.91,0,0,1,75,10.05Zm-4.61,0a5.24,5.24,0,0,0-5.15-5.31H9.76a5.24,5.24,0,0,0-5.15,5.31V50a5.24,5.24,0,0,0,5.15,5.31H65.24A5.24,5.24,0,0,0,70.39,50Z"/></svg>