<svg id="Layer_1" data-name="Layer 1" xmlns="http://www.w3.org/2000/svg" viewBox="0 0 60 60"><defs><style>.cls-1{fill:#fff;}.cls-2{fill:none;}</style></defs><title>icon-transaction-unconfirmed-white</title><path class="cls-1" d="M30,0A30,30,0,1,0,60,30,30,30,0,0,0,30,0Zm0,58.12A28.12,28.12,0,1,1,58.12,30,28.15,28.15,0,0,1,30,58.12Zm3.87-15.76a3.89,3.89,0,1,1-7.78,0A3.86,3.86,0,0,1,30,38.27,3.79,3.79,0,0,1,33.87,42.36Zm.92-25.61c0,5.84-2.67,15-3.28,17.09s-2.44,2-3.06,0c-.71-2.35-3.24-11.28-3.24-17.09C25.21,9.1,34.79,9.06,34.79,16.75Z"/><rect class="cls-2" x="-405" y="-347" width="1366" height="780"/></svg>