<svg id="Layer_1" data-name="Layer 1" xmlns="http://www.w3.org/2000/svg" viewBox="0 0 16 16"><defs><style>.cls-1{fill:#7bafb5;}</style></defs><title>icon-namespaces-light-green</title><path class="cls-1" d="M10.67,10V5.36h-5V.73H0V15.27H16V10ZM5,14.61H.67v-4H5ZM5,10H.67V6H5ZM5,5.36H.67v-4H5Zm5,9.25H5.67v-4H10ZM10,10H5.67V6H10Zm5.33,4.63H10.67v-4h4.66ZM1,4.69V2.05a.33.33,0,0,1,.33-.33h3a.33.33,0,1,1,0,.66H1.67V4.69A.33.33,0,0,1,1.33,5,.33.33,0,0,1,1,4.69ZM1,9.32V6.68a.33.33,0,0,1,.33-.33h3a.33.33,0,1,1,0,.66H1.67V9.32a.33.33,0,0,1-.34.33A.33.33,0,0,1,1,9.32ZM1,14V11.31A.33.33,0,0,1,1.33,11h3a.33.33,0,0,1,.34.33.34.34,0,0,1-.34.33H1.67V14A.34.34,0,0,1,1,14ZM6,9.32V6.68a.33.33,0,0,1,.33-.33h3a.33.33,0,1,1,0,.66H6.67V9.32a.34.34,0,0,1-.67,0ZM6,14V11.31A.33.33,0,0,1,6.33,11h3a.33.33,0,0,1,.34.33.34.34,0,0,1-.34.33H6.67V14A.34.34,0,0,1,6,14Zm5,0V11.31a.33.33,0,0,1,.33-.33h3.34a.33.33,0,0,1,.33.33.33.33,0,0,1-.33.33h-3V14A.34.34,0,0,1,11,14Z"/></svg>