<svg id="Layer_1" data-name="Layer 1" xmlns="http://www.w3.org/2000/svg" viewBox="0 0 60 60"><defs><style>.cls-1{fill:#0098ea;}</style></defs><title>icon-mosaics-green-16h-proximax-sirius-wallet</title><path class="cls-1" d="M47.77,22.06a1.17,1.17,0,0,0-.47.1L31.56,29A1.19,1.19,0,0,0,30.84,30l.05,17.27a1.18,1.18,0,0,0,1.18,1.18,1.1,1.1,0,0,0,.47-.1L48.28,41.6A1.19,1.19,0,0,0,49,40.51l0-17.27A1.18,1.18,0,0,0,47.77,22.06ZM32.66,46.41l0-16,14.55-6.28,0,16ZM29.15,30l0,17.27a1.19,1.19,0,0,1-1.66,1.09L11.76,41.68A1.18,1.18,0,0,1,11,40.6l0-17.27a1.18,1.18,0,0,1,1.65-1.09L28.43,29A1.18,1.18,0,0,1,29.15,30ZM47,17.89,30.36,10.6a1.2,1.2,0,0,0-1,0L12.84,18a1.19,1.19,0,0,0,0,2.17l16.6,7.29a1.33,1.33,0,0,0,.48.1,1.16,1.16,0,0,0,.48-.11L47,20.05A1.18,1.18,0,0,0,47,17.89Zm-17,7.81L14.79,19.05l15.09-6.72L45,19ZM30,0A30,30,0,1,0,60,30,30,30,0,0,0,30,0Zm0,58.12A28.12,28.12,0,1,1,58.12,30,28.15,28.15,0,0,1,30,58.12Z"/></svg>