<svg id="Layer_1" data-name="Layer 1" xmlns="http://www.w3.org/2000/svg" viewBox="0 0 16 16"><defs><style>.cls-1{fill:#666;}.cls-2{fill:#fff;}</style></defs><title>icon-doc-type-zip-16h-proximax-sirius-wallet</title><path class="cls-1" d="M9,0,2,2v.8H2l0,3.2h1L3,3.17l5.48,2V6h1V5.16l5.5-2v9.18L9.5,14.72V13h-1v1.66L4.66,13H2.14l6.93,3L16,13V2ZM9,4.26,4,2.48,9,1l5.05,1.44Z"/><rect class="cls-1" y="7" width="14" height="5" rx="1"/><path class="cls-2" d="M4.19,10.83v-.46l1.26-1.7H4.19v-.5h2v.45L4.93,10.33H6.22v.5Z"/><path class="cls-2" d="M6.65,10.83V8.17h.57v2.66Z"/><path class="cls-2" d="M7.75,10.83V8.17H9A.83.83,0,0,1,9.89,9,.84.84,0,0,1,9,9.89H8.32v.94ZM9.31,9a.35.35,0,0,0-.39-.36h-.6v.72h.6A.36.36,0,0,0,9.31,9Z"/></svg>