<svg id="Layer_1" data-name="Layer 1" xmlns="http://www.w3.org/2000/svg" viewBox="0 0 70 60"><defs><style>.cls-1{fill:#2ba1b9;}</style></defs><title>icon-account-green-60h-proximax-sirius-wallet</title><path class="cls-1" d="M35.09,0C16-.32.33,14.62,0,33.36A33.57,33.57,0,0,0,12.3,59.88a9,9,0,0,1,1.64-1.14l10.29-5.53a4.11,4.11,0,0,0,2.19-3.63V45.43a22.33,22.33,0,0,1-4.17-8.49,3.39,3.39,0,0,1-1.6-2.86V29.54A3.36,3.36,0,0,1,21.81,27V20.46S20.44,10.24,34.5,10.24,47.19,20.46,47.19,20.46V27a3.36,3.36,0,0,1,1.16,2.52v4.54a3.41,3.41,0,0,1-2.46,3.24,24.77,24.77,0,0,1-3.42,6.79,14.84,14.84,0,0,1-1,1.32v4.26a4.13,4.13,0,0,0,2.33,3.7l11,5.42A8.85,8.85,0,0,1,56.58,60,33.63,33.63,0,0,0,69,34.52C69.32,15.78,54.14.33,35.09,0Z"/></svg>