<svg id="Layer_1" data-name="Layer 1" xmlns="http://www.w3.org/2000/svg" viewBox="0 0 40 40"><defs><style>.cls-1{fill:#fff;}</style></defs><title>icon-docs-file-white</title><path class="cls-1" d="M14.61,28.08A1.73,1.73,0,0,1,14.3,27v-.22a1.72,1.72,0,0,1,.31-1.1,1.23,1.23,0,0,1,1.78,0,1.79,1.79,0,0,1,.31,1.11V27a1.74,1.74,0,0,1-.31,1.1,1.06,1.06,0,0,1-.88.38A1.09,1.09,0,0,1,14.61,28.08ZM36,10.08V35.74A4.23,4.23,0,0,1,31.82,40H10.28a4.23,4.23,0,0,1-4.19-4.26v-1.9h-.4A1.7,1.7,0,0,1,4,32.12V21.72A1.7,1.7,0,0,1,5.69,20h.4V4.26A4.23,4.23,0,0,1,10.28,0H26.06ZM33.44,35.74l-.06-24.63H28a2.92,2.92,0,0,1-2.9-2.95V2.59l-14.83,0A1.63,1.63,0,0,0,8.66,4.26V20H28.74a1.7,1.7,0,0,1,1.68,1.72v10.4a1.7,1.7,0,0,1-1.68,1.72H8.66v1.9a1.63,1.63,0,0,0,1.62,1.65H31.82A1.64,1.64,0,0,0,33.44,35.74ZM10.35,29.43a2.38,2.38,0,0,0,1.2-.31,2,2,0,0,0,.83-.86A2.62,2.62,0,0,0,12.67,27v-.23a2.76,2.76,0,0,0-.29-1.27,2.15,2.15,0,0,0-.83-.86,2.34,2.34,0,0,0-1.21-.31H8.77v5.11Zm3.21-1.11a2,2,0,0,0,.77.87,2.1,2.1,0,0,0,3-.88A3.2,3.2,0,0,0,17.63,27v-.23a3.05,3.05,0,0,0-.27-1.32,2,2,0,0,0-.77-.88,2.23,2.23,0,0,0-2.27,0,2,2,0,0,0-.76.88,2.93,2.93,0,0,0-.28,1.33V27A3.14,3.14,0,0,0,13.56,28.32Zm5.75-1.27v-.39a2,2,0,0,1,.27-1.17.88.88,0,0,1,.78-.37,1,1,0,0,1,.73.22,1.14,1.14,0,0,1,.27.72h1.05a1.89,1.89,0,0,0-.62-1.33,2.08,2.08,0,0,0-1.43-.48,2.11,2.11,0,0,0-1.12.3,2,2,0,0,0-.74.86,3.14,3.14,0,0,0-.26,1.3V27a2.7,2.7,0,0,0,.57,1.82,1.91,1.91,0,0,0,1.54.66A2.18,2.18,0,0,0,21.8,29a1.84,1.84,0,0,0,.61-1.3H21.35a1,1,0,0,1-.27.69,1,1,0,0,1-.73.22.89.89,0,0,1-.79-.38A2.25,2.25,0,0,1,19.31,27.05Zm6.43,1a.52.52,0,0,1-.21.43,1,1,0,0,1-.58.15c-.67,0-1-.28-1-.85H22.88a1.51,1.51,0,0,0,.26.87,1.64,1.64,0,0,0,.74.59A2.5,2.5,0,0,0,25,29.5a2.23,2.23,0,0,0,1.35-.38,1.24,1.24,0,0,0,.5-1,1.32,1.32,0,0,0-.41-1,3.12,3.12,0,0,0-1.31-.67,3.12,3.12,0,0,1-.74-.32.5.5,0,0,1-.25-.42.51.51,0,0,1,.22-.43,1,1,0,0,1,.6-.16.92.92,0,0,1,.62.2.71.71,0,0,1,.22.54H26.8a1.44,1.44,0,0,0-.24-.82,1.52,1.52,0,0,0-.66-.56,2.35,2.35,0,0,0-1-.2,2.55,2.55,0,0,0-1,.18,1.68,1.68,0,0,0-.67.51,1.27,1.27,0,0,0-.23.74A1.43,1.43,0,0,0,23.91,27a4.93,4.93,0,0,0,.87.34,2.69,2.69,0,0,1,.75.34A.55.55,0,0,1,25.74,28.09ZM10.4,25.27H9.93v3.2h.46a1,1,0,0,0,.85-.38A1.76,1.76,0,0,0,11.53,27v-.25a1.82,1.82,0,0,0-.28-1.11A1,1,0,0,0,10.4,25.27Z"/></svg>