<?xml version="1.0" encoding="utf-8"?>
<!-- Generator: Adobe Illustrator 24.1.0, SVG Export Plug-In . SVG Version: 6.00 Build 0)  -->
<svg version="1.1" id="Layer_1" xmlns="http://www.w3.org/2000/svg" xmlns:xlink="http://www.w3.org/1999/xlink" x="0px" y="0px"
	 viewBox="0 0 80 80" style="enable-background:new 0 0 80 80;" xml:space="preserve">
<style type="text/css">
	.st0{fill:#FFFFFF;}
	.st1{fill:#7D1416;}
	.st2{fill:#400000;}
	.st3{fill:#EAAA3B;}
</style>
<circle cx="40.4" cy="40.4" r="39.6"/>
<circle class="st0" cx="39.6" cy="39.6" r="39.6"/>
<path d="M76.1,38.9c0,20.5-16.6,37.2-37.2,37.2C18.4,76.1,1.8,59.5,1.8,39S18.4,1.8,39,1.8c0,0,0,0,0,0
	C59.5,1.8,76.1,18.4,76.1,38.9z"/>
<path class="st1" d="M76.8,39.6c0,20.5-16.7,37.2-37.2,37.2S2.4,60.1,2.4,39.6C2.4,19,19.1,2.4,39.6,2.4
	C60.1,2.4,76.8,19.1,76.8,39.6C76.8,39.6,76.8,39.6,76.8,39.6z"/>
<path class="st2" d="M69.9,22.5C60.4,5.8,39.3-0.1,22.5,9.3S-0.1,39.9,9.3,56.6c2.6,4.7,6.3,8.7,10.8,11.7
	C23.9,43.8,44.8,24.3,69.9,22.5z"/>
<path d="M66,33.9L52.9,20.5c-0.7-0.7-1.9-0.8-2.6,0c0,0,0,0,0,0c-0.4,0.4-0.6,0.8-0.5,1.4v5.7H36.5c-1.1,0-1.9,0.9-1.9,1.9
	c0,1.1,0.9,1.9,1.9,1.9h15c1,0,1.9-0.9,1.9-1.9v-3l8.6,8.7L53.4,44v-3c0-1-0.8-1.9-1.9-1.9c0,0,0,0,0,0H30.9v-5.8
	c0-1-0.8-1.9-1.9-1.9c0,0,0,0,0,0c-0.5,0-1,0.2-1.3,0.6L14.6,45.3c-0.7,0.8-0.7,1.9,0,2.7l13.1,13.4C28,61.8,28.5,62,29,62
	c0.2,0,0.5-0.1,0.7-0.2c0.7-0.3,1.2-1,1.2-1.8v-5.7H44c1.1,0,1.9-0.9,1.9-1.9c0-1.1-0.9-1.9-1.9-1.9H29c-1,0-1.9,0.9-1.9,1.9
	c0,0,0,0,0,0v3l-8.6-8.7l8.6-8.8v3c0,1,0.8,1.9,1.9,1.9c0,0,0,0,0,0h20.7v5.7c0,1,0.8,1.9,1.9,1.9c0.5,0,1-0.2,1.3-0.5L66,36.6
	C66.7,35.8,66.7,34.6,66,33.9z"/>
<path class="st3" d="M43,49.5H28c-1,0-1.9,0.9-1.9,1.9c0,0,0,0,0,0v3l-8.6-8.7l8.6-8.8v3c0,1,0.8,1.9,1.9,1.9c0,0,0,0,0,0h13.6
	c-0.8-1.5-1.8-2.8-3.1-3.8h-8.6v-5.7c0-1-0.8-1.9-1.9-1.9c0,0,0,0,0,0c-0.5,0-1,0.2-1.3,0.6L13.6,44.3c-0.7,0.8-0.7,1.9,0,2.7
	l13.1,13.4C27,60.8,27.5,61,28,61c0.2,0,0.5-0.1,0.7-0.2c0.7-0.3,1.2-1,1.2-1.8v-5.7H43c1.1,0,1.9-0.9,1.9-1.9
	C44.9,50.4,44.1,49.5,43,49.5z"/>
<path class="st0" d="M51.9,49L65,35.6c0.7-0.8,0.7-1.9,0-2.7L51.9,19.5c-0.7-0.7-1.9-0.8-2.6,0c0,0,0,0,0,0
	c-0.4,0.4-0.6,0.8-0.5,1.4v5.7H35.5c-1.1,0-1.9,0.9-1.9,1.9c0,1.1,0.9,1.9,1.9,1.9h15c1,0,1.9-0.9,1.9-1.9v-3l8.6,8.7L52.4,43v-3
	c0-1-0.8-1.9-1.9-1.9c0,0,0,0,0,0h-12c1.3,1.1,2.3,2.4,3.1,3.8h7.1v5.7c0,1,0.8,1.9,1.9,1.9C51.1,49.6,51.5,49.3,51.9,49z"/>
</svg>
