<svg id="Layer_1" data-name="Layer 1" xmlns="http://www.w3.org/2000/svg" viewBox="0 0 40 40"><defs><style>.cls-1{fill:#666;}</style></defs><title>icon-settings-gray copy</title><path class="cls-1" d="M20,1A19,19,0,1,0,39,20,19,19,0,0,0,20,1Zm-3,9.73a3,3,0,0,1,.58-.93,2.78,2.78,0,0,1,1-.7,3.27,3.27,0,0,1,1.32-.26,3.19,3.19,0,0,1,1.31.26,3.06,3.06,0,0,1,1,.7,3.32,3.32,0,0,1,.61.93,2.59,2.59,0,0,1,.21,1,2.89,2.89,0,0,1-.79,2,3.07,3.07,0,0,1-2.32.83,2.85,2.85,0,0,1-1.23-.26,3.27,3.27,0,0,1-1-.66,3,3,0,0,1-.63-.92,2.52,2.52,0,0,1-.23-1A2.77,2.77,0,0,1,17,10.73ZM24,30H16V26.29h1.19V19.53H16V15.85H22.6V26.29H24Z"/></svg>