<svg id="Layer_1" data-name="Layer 1" xmlns="http://www.w3.org/2000/svg" viewBox="0 0 60 60"><defs><style>.cls-1{fill:#666;}</style></defs><title>icon-qr-code</title><path class="cls-1" d="M7.25,8.28V24.57a1.17,1.17,0,0,0,1.17,1.18H24.69a1.18,1.18,0,0,0,1.18-1.18V21.48a1.18,1.18,0,1,0-2.35,0v1.91H9.6V9.46H23.52v2.83a1.18,1.18,0,1,0,2.35,0v-4A1.18,1.18,0,0,0,24.69,7.1H8.42A1.17,1.17,0,0,0,7.25,8.28Z"/><path class="cls-1" d="M14.12,12.81A1.17,1.17,0,0,0,12.94,14v4.89a1.18,1.18,0,0,0,1.18,1.18H19a1.18,1.18,0,0,0,1.18-1.18V14A1.17,1.17,0,0,0,19,12.81Zm3.7,4.88H15.29V15.16h2.53Z"/><path class="cls-1" d="M24.69,34.15H8.42a1.17,1.17,0,0,0-1.17,1.18V51.62A1.17,1.17,0,0,0,8.42,52.8H24.69a1.18,1.18,0,0,0,1.18-1.18V35.33A1.18,1.18,0,0,0,24.69,34.15ZM23.52,50.44H9.6V36.51H23.52Z"/><path class="cls-1" d="M35.53,25.75H51.8A1.18,1.18,0,0,0,53,24.57V8.28A1.18,1.18,0,0,0,51.8,7.1H35.53a1.18,1.18,0,0,0-1.18,1.18V24.57A1.18,1.18,0,0,0,35.53,25.75ZM36.71,9.46H50.63V23.39H36.71Z"/><path class="cls-1" d="M53,51.62V35.33a1.18,1.18,0,0,0-1.18-1.18H35.53a1.18,1.18,0,0,0-1.18,1.18V51.62a1.18,1.18,0,0,0,1.18,1.18H51.8A1.18,1.18,0,0,0,53,51.62Zm-2.35-1.18H36.71V36.51H50.63Z"/><path class="cls-1" d="M51.8,31.2a1.18,1.18,0,0,0,0-2.36H31.18V8.15a1.18,1.18,0,1,0-2.36,0V28.84H13.21a1.18,1.18,0,0,0,0,2.36H28.82V51.62a1.18,1.18,0,0,0,2.36,0V31.2Z"/><path class="cls-1" d="M14.12,47.18H19A1.17,1.17,0,0,0,20.18,46V41.12A1.18,1.18,0,0,0,19,39.94H14.12a1.18,1.18,0,0,0-1.18,1.18V46A1.17,1.17,0,0,0,14.12,47.18Zm1.17-4.88h2.53v2.53H15.29Z"/><path class="cls-1" d="M46.11,12.81H41.23A1.17,1.17,0,0,0,40.05,14v4.89a1.18,1.18,0,0,0,1.18,1.18h4.88a1.17,1.17,0,0,0,1.17-1.18V14A1.17,1.17,0,0,0,46.11,12.81Zm-1.18,4.88H42.4V15.16h2.53Z"/><path class="cls-1" d="M41.23,47.18h4.88A1.17,1.17,0,0,0,47.28,46V41.12a1.17,1.17,0,0,0-1.17-1.18H41.23a1.18,1.18,0,0,0-1.18,1.18V46A1.17,1.17,0,0,0,41.23,47.18ZM42.4,42.3h2.53v2.53H42.4Z"/><path class="cls-1" d="M8.18,28.85H8.12a1.18,1.18,0,0,0,.27,2.33,1.24,1.24,0,0,0,.27,0l.06,0a1.18,1.18,0,1,0-.54-2.29Z"/><path class="cls-1" d="M24.46,15.71l-.07,0a1.18,1.18,0,0,0,.27,2.32,1.24,1.24,0,0,0,.27,0H25a1.18,1.18,0,0,0-.53-2.3Z"/><path class="cls-1" d="M1.18,9.64A1.17,1.17,0,0,0,2.35,8.47V2.35H8.24A1.18,1.18,0,1,0,8.24,0H1.18A1.18,1.18,0,0,0,0,1.18V8.47A1.17,1.17,0,0,0,1.18,9.64Z"/><path class="cls-1" d="M58.82,0H51.76a1.18,1.18,0,1,0,0,2.35h5.89V8.47a1.18,1.18,0,0,0,2.35,0V1.18A1.18,1.18,0,0,0,58.82,0Z"/><path class="cls-1" d="M8.24,57.64H2.35V51.53a1.18,1.18,0,0,0-2.35,0v7.29A1.18,1.18,0,0,0,1.18,60H8.24a1.18,1.18,0,1,0,0-2.36Z"/><path class="cls-1" d="M58.82,50.36a1.17,1.17,0,0,0-1.17,1.17v6.11H51.76a1.18,1.18,0,0,0,0,2.36h7.06A1.18,1.18,0,0,0,60,58.82V51.53A1.17,1.17,0,0,0,58.82,50.36Z"/></svg>