<svg id="Layer_1" data-name="Layer 1" xmlns="http://www.w3.org/2000/svg" viewBox="0 0 18 16"><defs><style>.cls-1{fill:#2ba1b9;}</style></defs><title>icon-storage-green-16h-proximax-sirius-wallet</title><path class="cls-1" d="M17.84,7.81l-1.92-2.4,1.86-2.25a.51.51,0,0,0-.22-.81L11.16,0a.5.5,0,0,0-.58.17L9,2.26,7.37.2A.52.52,0,0,0,6.79,0L.39,2.35a.51.51,0,0,0-.22.81L2.09,5.48.17,7.8a.51.51,0,0,0,.22.81l1.77.64v3.9a.53.53,0,0,0,.34.49L8.86,16h0l.05,0h.22l.06,0h0l6.36-2.33a.52.52,0,0,0,.33-.49V9.23l1.71-.62a.57.57,0,0,0,.32-.34A.53.53,0,0,0,17.84,7.81ZM11.11,11h0l.08,0L14.88,9.6v3.2L9.55,14.75V9.37l1.08,1.39h0l.08.08h0l.07.05h0l.09,0h.2ZM3.19,9.62l.82.3,2.78,1h0l.07,0h.22l.09,0h0l.06,0,0,0a.46.46,0,0,0,.07-.07L8.52,9.35v5.4L3.19,12.8Zm3.6-8.5,1.32,1.7-5.27,2L1.42,3.07Zm9.74,1.95L15.11,4.78l-5.27-2,1.32-1.7ZM9,3.59,14.1,5.5,9,7.36,3.9,5.48ZM8.18,8.14,6.79,9.84,1.42,7.89,2.84,6.18Zm3,1.7L9.89,8.14l5.33-2,1.37,1.71Z"/></svg>