<svg id="Layer_1" data-name="Layer 1" xmlns="http://www.w3.org/2000/svg" viewBox="0 0 40 40"><defs><style>.cls-1{fill:#fff;}</style></defs><title>icon-mosaics-white</title><path class="cls-1" d="M37.85,7.78,20.38.11A1.12,1.12,0,0,0,19.87,0a1.25,1.25,0,0,0-.5.11L1.94,7.87a1.24,1.24,0,0,0,0,2.27l17.47,7.68a1.25,1.25,0,0,0,.51.1,1.24,1.24,0,0,0,.5-.1l17.44-7.76A1.25,1.25,0,0,0,37.85,7.78ZM19.91,16,4,9l15.9-7.07,15.93,7Zm-.81,4.57,0,18.18A1.25,1.25,0,0,1,17.4,39.9L.8,32.82A1.23,1.23,0,0,1,0,31.68L0,13.5a1.24,1.24,0,0,1,1.74-1.14l16.6,7.07A1.24,1.24,0,0,1,19.1,20.57ZM40,13.41a1.24,1.24,0,0,0-1.25-1.24,1.27,1.27,0,0,0-.5.1L21.64,19.42a1.25,1.25,0,0,0-.75,1.15l0,18.18A1.25,1.25,0,0,0,22.18,40a1.27,1.27,0,0,0,.5-.1l16.57-7.16A1.22,1.22,0,0,0,40,31.59ZM22.8,37.8l0-16.83,15.33-6.61,0,16.82Z"/></svg>