<?xml version="1.0" encoding="utf-8"?>
<!-- Generator: Adobe Illustrator 24.1.0, SVG Export Plug-In . SVG Version: 6.00 Build 0)  -->
<svg version="1.1" id="Layer_1" xmlns="http://www.w3.org/2000/svg" xmlns:xlink="http://www.w3.org/1999/xlink" x="0px" y="0px"
	 viewBox="0 0 80 80" style="enable-background:new 0 0 80 80;" xml:space="preserve">
<style type="text/css">
	.st0{fill:#FFFFFF;}
	.st1{fill:#7D1416;}
	.st2{fill:#400000;}
	.st3{fill:#CBCBCB;}
	.st4{fill:#EAAA3B;}
</style>
<circle cx="40.4" cy="40.4" r="39.6"/>
<circle class="st0" cx="39.6" cy="39.6" r="39.6"/>
<path d="M76.1,38.9c0,20.5-16.6,37.2-37.2,37.2C18.4,76.1,1.8,59.5,1.8,39S18.4,1.8,39,1.8c0,0,0,0,0,0
	C59.5,1.8,76.1,18.4,76.1,38.9z"/>
<path class="st1" d="M76.8,39.6c0,20.5-16.7,37.2-37.2,37.2S2.4,60.1,2.4,39.6C2.4,19,19.1,2.4,39.6,2.4
	C60.1,2.4,76.8,19.1,76.8,39.6C76.8,39.6,76.8,39.6,76.8,39.6z"/>
<path class="st2" d="M69.9,22.5C60.4,5.8,39.3-0.1,22.5,9.3S-0.1,39.9,9.3,56.6c2.6,4.7,6.3,8.7,10.8,11.7
	C23.9,43.8,44.8,24.3,69.9,22.5z"/>
<path class="st3" d="M49.7,42.3v-8.4c0-1.4-1.1-2.5-2.5-2.5l0,0h-9.5c-1.4,0-2.5-1.1-2.5-2.5l0,0v-8.4c0-1.4-1.1-2.5-2.5-2.5H21.4
	c-1.4,0-2.5,1.1-2.5,2.5v37.1c0,1.4,1.1,2.5,2.5,2.5h41.3c1.4,0,2.5-1.1,2.5-2.5V47.2c0-1.4-1.1-2.5-2.5-2.5c0,0,0,0,0,0H52.2
	C50.8,44.7,49.7,43.6,49.7,42.3z"/>
<path d="M23.4,47.6h9.5c0.8,0,1.5,0.7,1.5,1.5v8.4c0,0.8-0.7,1.5-1.5,1.5h-9.5c-0.8,0-1.5-0.7-1.5-1.5v-8.4
	C21.8,48.3,22.5,47.6,23.4,47.6z"/>
<path d="M23.4,34.3h9.5c0.8,0,1.5,0.7,1.5,1.5v8.4c0,0.8-0.7,1.5-1.5,1.5h-9.5c-0.8,0-1.5-0.7-1.5-1.5v-8.4
	C21.8,35,22.5,34.3,23.4,34.3z"/>
<path d="M23.4,20.9h9.5c0.8,0,1.5,0.7,1.5,1.5v8.4c0,0.8-0.7,1.5-1.5,1.5h-9.5c-0.8,0-1.5-0.7-1.5-1.5v-8.4
	C21.8,21.6,22.5,20.9,23.4,20.9z"/>
<path d="M37.8,47.6h9.5c0.8,0,1.5,0.7,1.5,1.5v8.4c0,0.8-0.7,1.5-1.5,1.5h-9.5c-0.8,0-1.5-0.7-1.5-1.5v-8.4
	C36.3,48.3,36.9,47.6,37.8,47.6z"/>
<path d="M37.8,34.3h9.5c0.8,0,1.5,0.7,1.5,1.5v8.4c0,0.8-0.7,1.5-1.5,1.5h-9.5c-0.8,0-1.5-0.7-1.5-1.5v-8.4
	C36.3,35,36.9,34.3,37.8,34.3z"/>
<path d="M52.2,47.6h10.4c0.8,0,1.5,0.7,1.5,1.5v8.4c0,0.8-0.7,1.5-1.5,1.5H52.2c-0.8,0-1.5-0.7-1.5-1.5v-8.4
	C50.7,48.3,51.4,47.6,52.2,47.6z"/>
<path class="st0" d="M22.4,46.6h9.5c0.8,0,1.5,0.7,1.5,1.5v8.4c0,0.8-0.7,1.5-1.5,1.5h-9.5c-0.8,0-1.5-0.7-1.5-1.5v-8.4
	C20.8,47.3,21.5,46.6,22.4,46.6z"/>
<path class="st0" d="M22.4,33.3h9.5c0.8,0,1.5,0.7,1.5,1.5v8.4c0,0.8-0.7,1.5-1.5,1.5h-9.5c-0.8,0-1.5-0.7-1.5-1.5v-8.4
	C20.8,34,21.5,33.3,22.4,33.3z"/>
<path class="st1" d="M22.4,19.9h9.5c0.8,0,1.5,0.7,1.5,1.5v8.4c0,0.8-0.7,1.5-1.5,1.5h-9.5c-0.8,0-1.5-0.7-1.5-1.5v-8.4
	C20.8,20.6,21.5,19.9,22.4,19.9z"/>
<path class="st1" d="M36.8,46.6h9.5c0.8,0,1.5,0.7,1.5,1.5v8.4c0,0.8-0.7,1.5-1.5,1.5h-9.5c-0.8,0-1.5-0.7-1.5-1.5v-8.4
	C35.3,47.3,35.9,46.6,36.8,46.6z"/>
<path class="st0" d="M36.8,33.3h9.5c0.8,0,1.5,0.7,1.5,1.5v8.4c0,0.8-0.7,1.5-1.5,1.5h-9.5c-0.8,0-1.5-0.7-1.5-1.5v-8.4
	C35.3,34,35.9,33.3,36.8,33.3z"/>
<path class="st0" d="M51.2,46.6h10.4c0.8,0,1.5,0.7,1.5,1.5v8.4c0,0.8-0.7,1.5-1.5,1.5H51.2c-0.8,0-1.5-0.7-1.5-1.5v-8.4
	C49.7,47.3,50.4,46.6,51.2,46.6z"/>
<path class="st0" d="M21.8,27.4v-5.8c0-0.4,0.3-0.7,0.7-0.7h6.6c0.4,0,0.8,0.2,0.8,0.6c0,0.4-0.2,0.8-0.6,0.8c-0.1,0-0.1,0-0.2,0
	h-5.8v5c0,0.4-0.4,0.7-0.8,0.6C22.1,28,21.8,27.7,21.8,27.4z"/>
<path class="st4" d="M21.8,40.7V35c0-0.4,0.3-0.7,0.7-0.7l0,0h6.6c0.4,0,0.7,0.3,0.7,0.7s-0.3,0.7-0.7,0.7c0,0,0,0,0,0h-5.8v5
	c0,0.4-0.4,0.7-0.8,0.6C22.1,41.3,21.8,41.1,21.8,40.7z"/>
<path class="st4" d="M21.8,54.1v-5.8c0-0.4,0.3-0.7,0.7-0.7l0,0h6.6c0.4,0,0.7,0.3,0.7,0.7S29.5,49,29.1,49c0,0,0,0,0,0h-5.8v5
	c0,0.4-0.4,0.7-0.8,0.6C22.1,54.6,21.8,54.4,21.8,54.1L21.8,54.1z"/>
<path class="st4" d="M36.2,40.7V35c0-0.4,0.3-0.7,0.7-0.7c0,0,0,0,0,0h6.5c0.4,0,0.7,0.3,0.7,0.7s-0.3,0.7-0.7,0.7c0,0,0,0,0,0h-5.8
	v5c0,0.4-0.3,0.7-0.7,0.7C36.6,41.4,36.2,41.1,36.2,40.7C36.2,40.7,36.2,40.7,36.2,40.7z"/>
<path class="st0" d="M36.2,54.1v-5.8c0-0.4,0.3-0.7,0.7-0.7c0,0,0,0,0,0h6.5c0.4,0,0.7,0.3,0.7,0.7S43.9,49,43.5,49c0,0,0,0,0,0
	h-5.8v5c0,0.4-0.3,0.7-0.7,0.7C36.6,54.8,36.3,54.5,36.2,54.1z"/>
<path class="st4" d="M50.7,53.5v-5.3c0-0.4,0.3-0.7,0.7-0.7H58c0.4,0,0.7,0.3,0.7,0.7c0,0.4-0.3,0.7-0.7,0.7h-6v4.6
	c0,0.4-0.3,0.7-0.7,0.7C51,54.2,50.7,53.9,50.7,53.5z"/>
</svg>
