<svg id="Layer_1" data-name="Layer 1" xmlns="http://www.w3.org/2000/svg" viewBox="0 0 60 60"><defs><style>.cls-1{fill:#2f98e3;}</style></defs><title>icon-namespace-mosaic-duration-01</title><path class="cls-1" d="M58.88,25.64a1.22,1.22,0,0,0-1.1-.73H54.17C51.87,11.89,40.93,2,27.81,2,13,2,1,14.56,1,30S13,58,27.81,58A26.72,26.72,0,0,0,51,44a2.61,2.61,0,0,0-.89-3.48,2.37,2.37,0,0,0-3.33.93,21.86,21.86,0,0,1-19,11.45C15.72,52.91,5.87,42.63,5.87,30S15.72,7.09,27.81,7.09c10.42,0,19.15,7.63,21.37,17.82H45.6a1.23,1.23,0,0,0-1.11.73A1.31,1.31,0,0,0,44.66,27l6.09,7.64a1.2,1.2,0,0,0,1.87,0L58.72,27A1.31,1.31,0,0,0,58.88,25.64Z"/><path class="cls-1" d="M27.81,8.36a2.49,2.49,0,0,0-2.44,2.55V26.35A4.52,4.52,0,0,0,23.55,30a4.37,4.37,0,0,0,4.26,4.46,4,4,0,0,0,1.8-.43l8.48,5.11a2.34,2.34,0,0,0,1.22.34,2.43,2.43,0,0,0,2.11-1.27,2.61,2.61,0,0,0-.9-3.48L32,29.61a4.51,4.51,0,0,0-1.79-3.25V10.91A2.49,2.49,0,0,0,27.81,8.36Zm0,23.55A1.91,1.91,0,1,1,29.64,30,1.87,1.87,0,0,1,27.81,31.91Z"/></svg>