<?xml version="1.0" encoding="utf-8"?>
<!-- Generator: Adobe Illustrator 24.1.0, SVG Export Plug-In . SVG Version: 6.00 Build 0)  -->
<svg version="1.1" id="Layer_1" xmlns="http://www.w3.org/2000/svg" xmlns:xlink="http://www.w3.org/1999/xlink" x="0px" y="0px"
	 viewBox="0 0 60 60" style="enable-background:new 0 0 60 60;" xml:space="preserve">
<style type="text/css">
	.st0{fill:#7D1416;}
</style>
<g>
	<path class="st0" d="M30,0C13.4,0,0,13.4,0,30s13.4,30,30,30s30-13.4,30-30S46.6,0,30,0z M30,58.1C14.5,58.1,1.9,45.5,1.9,30
		S14.5,1.9,30,1.9S58.1,14.5,58.1,30S45.5,58.1,30,58.1z M35.2,21.5L35.2,21.5c0,1.9-1.5,3.4-3.4,3.4H19.4c-1.9,0-3.4-1.5-3.4-3.4
		l0,0c0-1.9,1.5-3.4,3.4-3.4l0,0h12.4C33.6,18,35.2,19.5,35.2,21.5C35.2,21.4,35.2,21.4,35.2,21.5z M33.4,30.2L33.4,30.2
		c0,1.9-1.5,3.4-3.4,3.4H17.6c-1.9,0-3.4-1.5-3.4-3.4l0,0c0-1.9,1.5-3.4,3.4-3.4H30C31.9,26.7,33.4,28.3,33.4,30.2z M31.7,38.9
		L31.7,38.9c0,1.9-1.5,3.4-3.4,3.4H15.9c-1.9,0-3.4-1.5-3.4-3.4l0,0c0-1.9,1.5-3.4,3.4-3.4l0,0h12.3C30.1,35.4,31.7,37,31.7,38.9
		L31.7,38.9z M44.2,24.4v1.9l0,0v9H47c0.4,0,0.7,0.2,0.9,0.5c0.1,0.3,0.1,0.7-0.1,1L43,42.7c-0.3,0.4-0.9,0.5-1.3,0.1
		c-0.1,0-0.1-0.1-0.1-0.1l-4.7-5.8c-0.1-0.2-0.2-0.4-0.2-0.6c0-0.1,0-0.3,0.1-0.4c0.2-0.3,0.5-0.6,0.9-0.5h2.8v-1.9l0,0v-9h-2.8
		c-0.4,0-0.7-0.2-0.9-0.5c-0.1-0.3-0.1-0.7,0.1-1l4.7-5.8c0.3-0.4,0.9-0.5,1.3-0.1l0.1,0.1l4.7,5.8c0.1,0.2,0.2,0.4,0.2,0.6
		c0,0.1,0,0.3-0.1,0.4c-0.2,0.3-0.5,0.5-0.9,0.5L44.2,24.4z"/>
</g>
</svg>
