<svg id="Layer_1" data-name="Layer 1" xmlns="http://www.w3.org/2000/svg" viewBox="0 0 46 40"><defs><style>.cls-1{fill:#fff;}</style></defs><title>icon-live-stream-white</title><path class="cls-1" d="M0,25.82v6.27a1.36,1.36,0,0,0,1.35,1.37H14.91v3.81H12.67a1.37,1.37,0,0,0,0,2.73H33.33a1.37,1.37,0,0,0,0-2.73H31.09V33.46H44.65A1.36,1.36,0,0,0,46,32.09V25.82Zm29.83,4.91h-2.7V29.27a1.35,1.35,0,1,1,2.7,0Zm5.39,0h-2.7V29.27a1.35,1.35,0,1,1,2.7,0Zm5.39,0h-2.7V29.27a1.35,1.35,0,1,1,2.7,0ZM46,1.36a1.45,1.45,0,0,0-.16-.65A1,1,0,0,0,45.69.5L45.6.4a1.54,1.54,0,0,0-.19-.17,1.49,1.49,0,0,0-.36-.17,1.09,1.09,0,0,0-.26,0H1.35A1.32,1.32,0,0,0,.82.11,1.27,1.27,0,0,0,.59.23L.39.4a1.39,1.39,0,0,0-.39,1V23.09H46ZM14.32,16.92H9.78c-.49,0-1-.23-1-.7V7c0-.47.56-.68,1.12-.68S11,6.5,11,7v8h3.28c.43,0,.65.5.65,1S14.75,16.92,14.32,16.92Zm4.51-.7c0,.47-.56.7-1.12.7s-1.12-.23-1.12-.7V7c0-.47.56-.68,1.12-.68s1.12.21,1.12.68Zm9.88-8.84L26,16.25c-.15.51-.8.76-1.46.76a1.46,1.46,0,0,1-1.47-.76L20.41,7.38a1.1,1.1,0,0,1,0-.16c0-.54.82-.93,1.44-.93.36,0,.65.12.73.42l2,7.46,2-7.46c.08-.3.37-.42.73-.42.62,0,1.44.39,1.44.93A1.1,1.1,0,0,1,28.71,7.38Zm7.67,9.54H31.27c-.49,0-1-.23-1-.7V7c0-.47.49-.7,1-.7h5.11c.48,0,.68.51.68,1s-.25,1-.68,1H32.53v2.46h2.16c.43,0,.67.42.67.88s-.2.86-.67.86H32.53v2.47h3.85c.43,0,.68.47.68,1S36.86,16.92,36.38,16.92Z"/></svg>