<svg id="Layer_1" data-name="Layer 1" xmlns="http://www.w3.org/2000/svg" viewBox="0 0 60 60"><defs><style>.cls-1{fill:none;}.cls-2{fill:#2f98e3;}</style></defs><title>icon-wallet-export-blue</title><rect class="cls-1" x="-635" y="-347" width="1366" height="780"/><rect class="cls-1" x="-799" y="-347" width="1366" height="780"/><rect class="cls-1" x="-876" y="-347" width="1366" height="780"/><rect class="cls-1" x="-722" y="-347" width="1366" height="780"/><path class="cls-2" d="M30,0A30,30,0,1,0,60,30,30,30,0,0,0,30,0Zm0,58.12A28.12,28.12,0,1,1,58.12,30,28.15,28.15,0,0,1,30,58.12ZM18.73,21l16.65-8.72a1.72,1.72,0,0,1,2.37.85l3.35,8.12a.47.47,0,0,1-.44.66H19A.48.48,0,0,1,18.73,21Zm26.7,6.73a1.74,1.74,0,0,0-.61-.1H37.64a1.87,1.87,0,0,0-1.87,1.87v4.17a1.88,1.88,0,0,0,1.87,1.88h7.18a2,2,0,0,0,.61-.1,1.83,1.83,0,0,0,.66-.39,1.89,1.89,0,0,0,.61-1.39V29.47a1.87,1.87,0,0,0-.61-1.38A1.7,1.7,0,0,0,45.43,27.7Zm-3.87,4.23a.94.94,0,0,1-.94.94H40a.94.94,0,0,1-.94-.94v-.62a.93.93,0,0,1,.36-.74,1,1,0,0,1,.58-.2h.62a.94.94,0,0,1,.94.94Zm-3.92,4.91h7.13v5.23a1.87,1.87,0,0,1-1.87,1.87H32.31a2.73,2.73,0,0,0-.18-1.69,2.76,2.76,0,0,0-2.51-1.63H28.2V34.88a2.79,2.79,0,0,0-2.77-2.79H23.34a2.79,2.79,0,0,0-2.77,2.79v5.74H19.15a2.78,2.78,0,0,0-2.52,1.63,2.91,2.91,0,0,0-.25,1.16,2.33,2.33,0,0,0,.06.53H15.18a1.88,1.88,0,0,1-1.88-1.87V21.17a6.23,6.23,0,0,1,.07-.86,1.57,1.57,0,0,1,.34-.57,1.83,1.83,0,0,1,1.47-.63h4.66l-3,1.72c-1.79,1.18-1,2.39-.31,2.39H42.3a.63.63,0,0,0,.58-.87L41.62,19.3H42.9a1.87,1.87,0,0,1,1.87,1.87v5.12H37.64a2.34,2.34,0,0,0-.38,0,3.11,3.11,0,0,0-1.9.94,3.16,3.16,0,0,0-.9,2.22v4.17A3.18,3.18,0,0,0,37.64,36.84ZM30.57,43a1.1,1.1,0,0,1-.15,1.14l-5.23,6.42a1,1,0,0,1-.81.39,1,1,0,0,1-.8-.39L18.35,44.1a1.1,1.1,0,0,1-.25-.69,1.18,1.18,0,0,1,.1-.45,1,1,0,0,1,.95-.62h3.14V34.88a1.06,1.06,0,0,1,1.05-1.07h2.09a1.06,1.06,0,0,1,1.05,1.07v7.46h3.14A1.06,1.06,0,0,1,30.57,43Z"/><rect class="cls-1" x="-719" y="-347" width="1366" height="780"/></svg>