<svg id="Layer_1" data-name="Layer 1" xmlns="http://www.w3.org/2000/svg" viewBox="0 0 16 16"><defs><style>.cls-1{fill:#0098ea;}</style></defs><title>icon-prx-xpx-green-16h</title><path class="cls-1" d="M5.07,7.77c-.24.24-.52.52-.78.82A9,9,0,0,1,3.58,5V4.8l.14-.06a10,10,0,0,1,2.71-.88L6.56,4l.26.33a2.7,2.7,0,0,1,.27.39,7.36,7.36,0,0,1,.44.72.38.38,0,0,1,0,.19.31.31,0,0,1-.09.14l-.22.16c-.36.26-.7.54-1,.81S5.43,7.42,5.07,7.77Zm4.41.67c-.08-.14-.15-.27-.24-.4s-.11-.18-.17-.27-.1-.16-.16-.24h0S8.6,7,8.42,7a.55.55,0,0,0-.19,0,1.73,1.73,0,0,0-.58.22A16.31,16.31,0,0,0,6,8.06a15.29,15.29,0,0,0-1.46,1,8.89,8.89,0,0,0,3.35,3.64L8,12.8l.13-.08a8.8,8.8,0,0,0,2.42-2.16c-.23-.56-.49-1.09-.68-1.46C9.75,8.88,9.61,8.65,9.48,8.44ZM8.89,5a1.46,1.46,0,0,0,.52-.1,5.81,5.81,0,0,1,2.76-.17A9.86,9.86,0,0,0,8,3.73c-.22,0-.43,0-.64,0a3.67,3.67,0,0,1,.86.65C8.37,4.56,8.68,4.92,8.89,5ZM16,8A8,8,0,1,1,8,0,8,8,0,0,1,16,8Zm-.5,0A7.5,7.5,0,1,0,8,15.5,7.5,7.5,0,0,0,15.5,8ZM10.44,5.72c-.77.44-.81.44-.39,1.43.09.22.18.46.26.69s.17.48.25.72c.15.46.29.94.4,1.42a8.82,8.82,0,0,0,1.46-4.87h-.06A4.46,4.46,0,0,0,10.44,5.72Z"/></svg>