<svg id="Layer_1" data-name="Layer 1" xmlns="http://www.w3.org/2000/svg" viewBox="0 0 16 16"><defs><style>.cls-1{fill:#fff;}</style></defs><title>icon-type-increase-decrease-white</title><path class="cls-1" d="M10.67,11.92V13H.3a.28.28,0,1,0,0,.56H10.67v1.12A.29.29,0,0,0,11,15h3.56a.29.29,0,0,0,.29-.28V13.6h.89a.28.28,0,1,0,0-.56h-.89V11.92a.29.29,0,0,0-.29-.28H11A.29.29,0,0,0,10.67,11.92Z"/><path class="cls-1" d="M5.93,6.6V7.72H.3a.28.28,0,1,0,0,.56H5.93V9.4a.29.29,0,0,0,.29.28H9.78a.29.29,0,0,0,.29-.28V8.28H15.7a.28.28,0,1,0,0-.56H10.07V6.6a.29.29,0,0,0-.29-.28H6.22A.29.29,0,0,0,5.93,6.6Z"/><path class="cls-1" d="M1.19,1.28V2.4H.3A.28.28,0,1,0,.3,3h.89V4.08a.29.29,0,0,0,.29.28H5a.29.29,0,0,0,.29-.28V3H15.7a.28.28,0,1,0,0-.56H5.33V1.28A.29.29,0,0,0,5,1H1.48A.29.29,0,0,0,1.19,1.28Z"/></svg>