<svg id="Layer_1" data-name="Layer 1" xmlns="http://www.w3.org/2000/svg" viewBox="0 0 60 60"><defs><style>.cls-1{fill:#2f98e3;}</style></defs><title>icon-namespace-mosaic-duration-02</title><path class="cls-1" d="M1.12,34.36a1.22,1.22,0,0,0,1.1.73H5.83C8.13,48.11,19.07,58,32.19,58,47,58,59,45.44,59,30S47,2,32.19,2A26.72,26.72,0,0,0,9,16a2.61,2.61,0,0,0,.89,3.48,2.37,2.37,0,0,0,3.33-.93,21.86,21.86,0,0,1,19-11.45C44.28,7.09,54.13,17.37,54.13,30S44.28,52.91,32.19,52.91c-10.42,0-19.15-7.63-21.37-17.82H14.4a1.23,1.23,0,0,0,1.11-.73A1.31,1.31,0,0,0,15.34,33L9.25,25.36a1.2,1.2,0,0,0-1.87,0L1.28,33A1.31,1.31,0,0,0,1.12,34.36Z"/><path class="cls-1" d="M34,10.08V22.4a6.37,6.37,0,0,1,6.08,6.44,6.57,6.57,0,0,1-1.83,4.55V47.93a.88.88,0,0,1,0,.17,19.46,19.46,0,0,0-4.23-38Z"/><path class="cls-1" d="M33.83,50.48a2.49,2.49,0,0,0,2.44-2.55V32.49a4.53,4.53,0,0,0,1.83-3.65,4.37,4.37,0,0,0-4.27-4.45,4.08,4.08,0,0,0-1.8.43l-8.47-5.11a2.32,2.32,0,0,0-1.22-.35,2.42,2.42,0,0,0-2.11,1.28,2.59,2.59,0,0,0,.89,3.47l8.49,5.12a4.46,4.46,0,0,0,1.79,3.26V47.93A2.49,2.49,0,0,0,33.83,50.48Zm0-23.55A1.91,1.91,0,1,1,32,28.84,1.87,1.87,0,0,1,33.83,26.93Z"/></svg>