<svg id="Layer_1" data-name="Layer 1" xmlns="http://www.w3.org/2000/svg" viewBox="0 0 16 16"><defs><style>.cls-1{fill:#2ba1b9;}</style></defs><title>icon-duration-green-16h-proximax-sirius-wallet</title><g id="Layer_1-2" data-name="Layer 1"><path class="cls-1" d="M16,6.85a.34.34,0,0,0-.31-.19h-1a7.4,7.4,0,1,0-.87,5,.67.67,0,0,0-.24-.92.66.66,0,0,0-.92.25,6.06,6.06,0,1,1,.65-4.37h-1a.32.32,0,0,0-.3.19.34.34,0,0,0,0,.36l1.68,2a.35.35,0,0,0,.26.13.33.33,0,0,0,.26-.13l1.68-2A.34.34,0,0,0,16,6.85Z"/><path class="cls-1" d="M7.4,2.29A.67.67,0,0,0,6.72,3V7a1.17,1.17,0,0,0-.5,1A1.16,1.16,0,0,0,7.89,9.06l2.34,1.35a.6.6,0,0,0,.34.09.67.67,0,0,0,.33-1.25L8.56,7.9A1.14,1.14,0,0,0,8.07,7V3A.67.67,0,0,0,7.4,2.29Zm0,6.21A.5.5,0,1,1,7.9,8,.5.5,0,0,1,7.4,8.5Z"/></g></svg>