<svg id="Layer_1" data-name="Layer 1" xmlns="http://www.w3.org/2000/svg" viewBox="0 0 60 60"><defs><style>.cls-1{fill:#0098ea;}</style></defs><title>icon-file-green-16h-proximax-sirius-wallet</title><path class="cls-1" d="M30,0A30,30,0,1,0,60,30,30,30,0,0,0,30,0Zm0,58.12A28.12,28.12,0,1,1,58.13,30,28.15,28.15,0,0,1,30,58.12Z"/><path class="cls-1" d="M36.5,21.34h-13V19.17h13Zm-13,4.33H34.33V23.5H23.5ZM43,17a4.33,4.33,0,0,0-4.33-4.34H21.34A4.33,4.33,0,0,0,17,17v8.66h2.16V17a2.17,2.17,0,0,1,2.17-2.17H38.66A2.17,2.17,0,0,1,40.83,17v8.66H43v-6.5a2.17,2.17,0,0,1,2.17,2.17V43A2.17,2.17,0,0,1,43,45.16H25.67A2.17,2.17,0,0,1,23.5,43H38.66a4.34,4.34,0,0,0,3.73-2.16H17.61A4.34,4.34,0,0,0,21.34,43a4.33,4.33,0,0,0,4.33,4.34H43A4.34,4.34,0,0,0,47.33,43V21.34A4.33,4.33,0,0,0,43,17ZM40.83,38.66h-26a2.17,2.17,0,0,1-2.17-2.16V30a2.17,2.17,0,0,1,2.17-2.17h26A2.17,2.17,0,0,1,43,30v6.5A2.16,2.16,0,0,1,40.83,38.66ZM24,30.37H20v5.76h1.24V33.75H24V32.66H21.19V31.45H24Zm2.17,0h-1.3v5.76h1.21ZM31,35.05H28.51V30.37H27.27v5.76H31ZM36,30.37H31.8v5.76h4.09V35.05H33v-1.3h2.8V32.66H33V31.45h2.86Z"/></svg>