<svg id="Layer_1" data-name="Layer 1" xmlns="http://www.w3.org/2000/svg" viewBox="0 0 80 80"><defs><style>.cls-1{fill:#fff;}.cls-2{fill:#1e4065;}.cls-3{fill:#0c1f44;}.cls-4{fill:#23417b;}.cls-5{fill:#eaaa3b;}.cls-6{fill:#cbcbcb;}</style></defs><title>icon-streaming-full-color-80h copy</title><circle cx="40.4" cy="41.4" r="39.6"/><circle class="cls-1" cx="39.6" cy="40.6" r="39.6"/><path d="M76.14,39.94A37.18,37.18,0,1,1,39,2.77,37.18,37.18,0,0,1,76.14,39.94Z"/><path class="cls-2" d="M76.78,40.59A37.17,37.17,0,1,1,39.61,3.41,37.17,37.17,0,0,1,76.78,40.59Z"/><path class="cls-3" d="M69.87,23.51A34.75,34.75,0,1,0,20.12,69.35C23.94,44.8,44.77,25.28,69.87,23.51Z"/><path class="cls-1" d="M14.4,23.61V54H65.2V23.61a1.94,1.94,0,0,0-1.94-1.94H16.33A1.93,1.93,0,0,0,14.4,23.61Z"/><rect class="cls-4" x="16.25" y="23.67" width="47.1" height="28.47"/><circle cx="40.43" cy="38.16" r="8.89"/><circle class="cls-5" cx="39.77" cy="37.29" r="8.89"/><polygon points="36.99 43.26 36.99 33.27 45.25 38.26 36.99 43.26"/><polygon class="cls-1" points="36.33 42.39 36.33 32.4 44.59 37.4 36.33 42.39"/><path class="cls-6" d="M43.87,55.22V57H35.81V55.22H13V56.9a1.94,1.94,0,0,0,1.94,1.94H64.77a1.94,1.94,0,0,0,1.94-1.94V55.22Z"/></svg>