<svg id="Layer_1" data-name="Layer 1" xmlns="http://www.w3.org/2000/svg" viewBox="0 0 60 60"><defs><style>.cls-1{fill:#2ba1b9;}</style></defs><title>icon-cross-chain-green-60h</title><path class="cls-1" d="M29.8,41.67l-3.66-3.84a.28.28,0,0,0-.3-.06.26.26,0,0,0-.17.25l0,1.38a8.06,8.06,0,0,1-4.47-8.67l1.16.78a.27.27,0,0,0,.3,0,.28.28,0,0,0,.12-.28l-1-5.22a.27.27,0,0,0-.19-.2.25.25,0,0,0-.27.06l-3.84,3.66a.28.28,0,0,0-.07.3.27.27,0,0,0,.25.17l1.75.05a10,10,0,0,0,5.77,11.21l-1,1.45a.29.29,0,0,0,0,.31.28.28,0,0,0,.28.12l5.22-1a.28.28,0,0,0,.2-.18A.27.27,0,0,0,29.8,41.67Z"/><rect class="cls-1" x="47.76" y="46.44" width="0.48" height="0.6" transform="translate(-18.74 52.56) rotate(-49.22)"/><rect class="cls-1" x="47.14" y="47.16" width="0.48" height="0.6" transform="translate(-19.5 52.34) rotate(-49.22)"/><path class="cls-1" d="M59.13,44.3V39.7a.75.75,0,0,0-.29-.59v0h0L58.64,39,54,37.37a.72.72,0,0,0-.62-.06L48.63,39a.64.64,0,0,0-.2.11h0v0a.72.72,0,0,0-.26.44.57.57,0,0,0,0,.18V46a.76.76,0,0,0,.3.59h0a.75.75,0,0,0,.2.1l4.55,1.62h0l.21.07a.67.67,0,0,0,.24,0,.66.66,0,0,0,.37-.1h.09v0l4.55-1.61a.56.56,0,0,0,.17-.09l.05,0v-.05l.07-.07.21-.57V44.3Zm-6.25,2.36L51,46l1.86-.66Zm0-2.89-3.27,1.15V40.78l3.27,1.16Zm.72-3.14L51,39.71l2.59-.91,2.59.91Zm.76,6v-1.3L56.2,46Zm3.29-1.71-3.29-1.16V41.93l3.29-1.16Z"/><rect class="cls-1" x="41.82" y="46.22" width="0.6" height="0.48" transform="translate(-19.16 33.14) rotate(-35.55)"/><rect class="cls-1" x="42.37" y="46.99" width="0.6" height="0.48" transform="translate(-19.51 33.61) rotate(-35.54)"/><rect class="cls-1" x="42.93" y="47.77" width="0.6" height="0.48" transform="translate(-19.86 34.08) rotate(-35.55)"/><rect class="cls-1" x="46.52" y="47.88" width="0.48" height="0.6" transform="translate(-20.26 52.11) rotate(-49.22)"/><rect class="cls-1" x="45.9" y="48.6" width="0.48" height="0.6" transform="translate(-21.02 51.9) rotate(-49.22)"/><path class="cls-1" d="M45.81,59.94l4.34-1.54a.56.56,0,0,0,.17-.09l0,0v0a.82.82,0,0,0,.2-.25l0-.09h0a.67.67,0,0,0,0-.24V51.41a.72.72,0,0,0-.29-.59v0h0l-.17-.08-4.63-1.64a.75.75,0,0,0-.62-.06L40.15,50.7a.63.63,0,0,0-.2.1h0v0a.69.69,0,0,0-.26.44.57.57,0,0,0,0,.18v6.28a.75.75,0,0,0,.3.59h0a.78.78,0,0,0,.2.11l4,1.42.6.21h0l.14.05a.67.67,0,0,0,.24,0h.08Zm.07-1.6V57.05l1.84.64Zm3.29-1.7-3.29-1.16V53.63l3.29-1.16ZM44.4,58.36l-1.86-.66L44.4,57Zm0-2.89-3.27,1.16V52.49l3.27,1.16Zm.72-3.14-2.58-.91,2.59-.92,2.59.91Z"/><rect class="cls-1" x="43.48" y="48.55" width="0.6" height="0.48" transform="translate(-20.2 34.55) rotate(-35.55)"/><rect class="cls-1" x="11.3" y="13.6" width="0.49" height="0.62" transform="translate(-6.53 13.57) rotate(-49.22)"/><rect class="cls-1" x="11.94" y="12.85" width="0.49" height="0.62" transform="translate(-5.74 13.79) rotate(-49.22)"/><path class="cls-1" d="M0,16.43V21.2a.77.77,0,0,0,.31.61v0h0a.56.56,0,0,0,.17.09l4.8,1.7a.78.78,0,0,0,.65.06l4.94-1.75a.56.56,0,0,0,.2-.11h0v0a.78.78,0,0,0,.27-.46.58.58,0,0,0,0-.19V14.65a.77.77,0,0,0-.31-.61h0a.56.56,0,0,0-.2-.11L6.18,12.26h0L6,12.18a.81.81,0,0,0-.64.06H5.24v0L.52,13.94.34,14l0,0v.05a.27.27,0,0,0-.08.07L0,14.73v1.7ZM6.48,14l1.93.68-1.93.69Zm0,3,3.39-1.2v4.3L6.48,18.87Zm-.74,3.26,2.67,1-2.68.95-2.68-.95ZM5,14v1.35l-1.9-.67ZM1.54,15.77,5,17v1.91l-3.41,1.2Z"/><rect class="cls-1" x="17.34" y="13.95" width="0.62" height="0.5" transform="translate(-4.96 12.91) rotate(-35.55)"/><rect class="cls-1" x="16.76" y="13.14" width="0.62" height="0.5" transform="translate(-4.6 12.42) rotate(-35.54)"/><rect class="cls-1" x="16.19" y="12.34" width="0.62" height="0.5" transform="translate(-4.24 11.94) rotate(-35.55)"/><rect class="cls-1" x="12.59" y="12.1" width="0.49" height="0.62" transform="translate(-4.95 14.02) rotate(-49.22)"/><rect class="cls-1" x="13.23" y="11.35" width="0.49" height="0.62" transform="translate(-4.16 14.25) rotate(-49.22)"/><path class="cls-1" d="M13.82.21,9.31,1.81a.56.56,0,0,0-.17.09l-.05,0v.05a.75.75,0,0,0-.21.26l0,.1h0a.7.7,0,0,0-.05.25V9.06a.75.75,0,0,0,.31.61v0h0l.17.08,4.81,1.7a.76.76,0,0,0,.64.07L19.69,9.8a1,1,0,0,0,.21-.11h0v0a.79.79,0,0,0,.28-.45,1.37,1.37,0,0,0,0-.19V2.52a.77.77,0,0,0-.31-.62h0a.78.78,0,0,0-.2-.11L15.53.32,14.91.09h0l-.15,0a.73.73,0,0,0-.25,0h-.08Zm-.08,1.66V3.21l-1.9-.67Zm-3.4,1.77,3.4,1.2V6.75L10.34,8Zm4.93-1.79,1.94.69-1.94.68Zm0,3,3.4-1.2V7.94l-3.4-1.2ZM14.53,8.1l2.68,1L14.52,10l-2.68-.95Z"/><rect class="cls-1" x="15.61" y="11.53" width="0.62" height="0.5" transform="translate(-3.88 11.45) rotate(-35.55)"/><path class="cls-1" d="M23.88,23.54l-.5-1.44H19.44l-.5,1.44H16l3.76-10H23l3.78,10ZM21.4,16.09l-1.27,3.76h2.55Z"/><path class="cls-1" d="M31.47,46.54v-10h5.67a2.62,2.62,0,0,1,2.92,2.55,2.23,2.23,0,0,1-1.7,2.29,2.41,2.41,0,0,1,1.9,2.45,2.66,2.66,0,0,1-2.94,2.71Zm6-7a.83.83,0,0,0-.89-.83h-2.5v1.67h2.5A.83.83,0,0,0,37.44,39.54Zm.19,3.93a.89.89,0,0,0-1-.9h-2.6v1.8h2.6A.88.88,0,0,0,37.63,43.47Z"/></svg>