<svg id="Layer_1" data-name="Layer 1" xmlns="http://www.w3.org/2000/svg" viewBox="0 0 16 16"><defs><style>.cls-1{fill:#666;}.cls-2{fill:#fff;}</style></defs><title>icon-doc-type-ppt-16h-proximax-sirius-wallet</title><path class="cls-1" d="M14,2a2,2,0,0,0-2-2H4A2,2,0,0,0,2,2V6H3V2A1,1,0,0,1,4,1h8a1,1,0,0,1,1,1V6h1V3a1,1,0,0,1,1,1V7H1A1,1,0,0,0,0,8v5a1,1,0,0,0,1,1H4a2,2,0,0,0,2,2h8a2,2,0,0,0,2-2V4A2,2,0,0,0,14,2Zm0,13H6a1,1,0,0,1-1-1H15A1,1,0,0,1,14,15ZM7,4H4V3H7ZM4,5H7V6H4Zm6-2V5l1.78-.89A1.92,1.92,0,0,1,12,5a2,2,0,0,1-.28,1H8.28A2,2,0,0,1,10,3Z"/><path class="cls-2" d="M3.75,12.17V8.83H5.32a1.08,1.08,0,1,1,0,2.15H4.47v1.19Zm2-2.26a.45.45,0,0,0-.49-.46H4.47v.91h.75A.45.45,0,0,0,5.71,9.91Z"/><path class="cls-2" d="M6.88,12.17V8.83H8.44a1.08,1.08,0,1,1,0,2.15H7.59v1.19Zm2-2.26a.45.45,0,0,0-.49-.46H7.59v.91h.75A.45.45,0,0,0,8.83,9.91Z"/><path class="cls-2" d="M10.77,12.17V9.45h-1V8.83h2.66v.62h-1v2.72Z"/></svg>