<?xml version="1.0" encoding="utf-8"?>
<!-- Generator: Adobe Illustrator 24.1.0, SVG Export Plug-In . SVG Version: 6.00 Build 0)  -->
<svg version="1.1" id="Layer_1" xmlns="http://www.w3.org/2000/svg" xmlns:xlink="http://www.w3.org/1999/xlink" x="0px" y="0px"
	 viewBox="0 0 80 80" style="enable-background:new 0 0 80 80;" xml:space="preserve">
<style type="text/css">
	.st0{fill:#FFFFFF;}
	.st1{fill:#7D1416;}
	.st2{fill:#400000;}
	.st3{fill:#EAAA3B;}
</style>
<circle cx="40.4" cy="40.4" r="39.6"/>
<circle class="st0" cx="39.6" cy="39.6" r="39.6"/>
<path d="M76.1,38.9c0,20.5-16.6,37.2-37.2,37.2C18.4,76.1,1.8,59.5,1.8,39S18.4,1.8,39,1.8c0,0,0,0,0,0
	C59.5,1.8,76.1,18.4,76.1,38.9z"/>
<path class="st1" d="M76.8,39.6c0,20.5-16.7,37.2-37.2,37.2S2.4,60.1,2.4,39.6C2.4,19,19.1,2.4,39.6,2.4
	C60.1,2.4,76.8,19.1,76.8,39.6C76.8,39.6,76.8,39.6,76.8,39.6z"/>
<path class="st2" d="M69.9,22.5C60.4,5.8,39.3-0.1,22.5,9.3S-0.1,39.9,9.3,56.6c2.6,4.7,6.3,8.7,10.8,11.7
	C23.9,43.8,44.8,24.3,69.9,22.5z"/>
<path d="M21.1,42.2v-2.4c0-0.7,0.6-1.2,1.2-1.2c0,0,0,0,0,0H41v-3.7c0-0.5,0.3-0.9,0.7-1.1c0.4-0.2,0.9-0.1,1.3,0.2l7.5,6.1
	c0.5,0.4,0.6,1.2,0.2,1.7c-0.1,0.1-0.1,0.1-0.2,0.2L43,48c-0.2,0.2-0.5,0.3-0.8,0.3c-0.2,0-0.4,0-0.5-0.1C41.3,48,41,47.5,41,47.1
	v-3.7H22.3C21.7,43.4,21.1,42.9,21.1,42.2C21.1,42.2,21.1,42.2,21.1,42.2z"/>
<path d="M58.4,21.1H23.6c-1.4,0-2.5,1.1-2.5,2.5c0,0,0,0,0,0V36h5V26h29.8v29.9H26.1V46h-5v12.4c0,1.4,1.1,2.5,2.5,2.5c0,0,0,0,0,0
	h34.9c1.4,0,2.5-1.1,2.5-2.5c0,0,0,0,0,0V23.6C60.9,22.2,59.8,21.1,58.4,21.1C58.4,21.1,58.4,21.1,58.4,21.1z"/>
<path class="st3" d="M20.1,41.2v-2.4c0-0.7,0.6-1.2,1.2-1.2c0,0,0,0,0,0H40v-3.7c0-0.5,0.3-0.9,0.7-1.1c0.4-0.2,0.9-0.1,1.3,0.2
	l7.5,6.1c0.5,0.4,0.6,1.2,0.2,1.7c-0.1,0.1-0.1,0.1-0.2,0.2L42,47c-0.2,0.2-0.5,0.3-0.8,0.3c-0.2,0-0.4,0-0.5-0.1
	C40.3,47,40,46.5,40,46.1v-3.7H21.3C20.7,42.4,20.1,41.9,20.1,41.2C20.1,41.2,20.1,41.2,20.1,41.2z"/>
<path class="st0" d="M57.4,20.1H22.6c-1.4,0-2.5,1.1-2.5,2.5c0,0,0,0,0,0V35h5V25h29.8v29.9H25.1V45h-5v12.4c0,1.4,1.1,2.5,2.5,2.5
	c0,0,0,0,0,0h34.9c1.4,0,2.5-1.1,2.5-2.5c0,0,0,0,0,0V22.6C59.9,21.2,58.8,20.1,57.4,20.1C57.4,20.1,57.4,20.1,57.4,20.1z"/>
</svg>
