<?xml version="1.0" encoding="utf-8"?>
<!-- Generator: Adobe Illustrator 24.1.0, SVG Export Plug-In . SVG Version: 6.00 Build 0)  -->
<svg version="1.1" id="Layer_1" xmlns="http://www.w3.org/2000/svg" xmlns:xlink="http://www.w3.org/1999/xlink" x="0px" y="0px"
	 viewBox="0 0 60 60" style="enable-background:new 0 0 60 60;" xml:space="preserve">
<style type="text/css">
	.st0{fill:#7D1416;}
</style>
<g>
	<g>
		<path class="st0" d="M30,0C13.4,0,0,13.4,0,30s13.4,30,30,30s30-13.4,30-30S46.6,0,30,0z M30,58.1C14.5,58.1,1.9,45.5,1.9,30
			S14.5,1.9,30,1.9S58.1,14.5,58.1,30S45.5,58.1,30,58.1z"/>
	</g>
</g>
<g>
	<path class="st0" d="M35.7,38.9v2.5H13.1c-0.3,0-0.6,0.3-0.6,0.6s0.3,0.6,0.6,0.6h22.7V45c0,0.3,0.3,0.6,0.6,0.6l0,0h7.8
		c0.3,0,0.6-0.3,0.6-0.6l0,0v-2.5h1.9c0.3,0,0.6-0.3,0.6-0.6s-0.3-0.6-0.6-0.6h-1.9v-2.5c0-0.3-0.3-0.6-0.6-0.6l0,0h-7.8
		C36,38.2,35.7,38.5,35.7,38.9L35.7,38.9z"/>
</g>
<g>
	<path class="st0" d="M25.4,27.2v2.5H13.1c-0.3,0-0.6,0.3-0.6,0.6s0.3,0.6,0.6,0.6l0,0h12.3v2.5c0,0.3,0.3,0.6,0.6,0.6l0,0h7.8
		c0.3,0,0.6-0.3,0.6-0.6v-2.5h12.3c0.3,0,0.6-0.3,0.6-0.6c0-0.3-0.3-0.6-0.6-0.6l0,0H34.4v-2.5c0-0.3-0.3-0.6-0.6-0.6H26
		C25.7,26.6,25.4,26.9,25.4,27.2L25.4,27.2z"/>
</g>
<g>
	<path class="st0" d="M15,15.6V18h-1.9c-0.3,0-0.6,0.3-0.6,0.6s0.3,0.6,0.6,0.6l0,0H15v2.5c0,0.3,0.3,0.6,0.6,0.6l0,0h7.8
		c0.3,0,0.6-0.3,0.6-0.6l0,0v-2.4h22.7c0.3,0,0.6-0.3,0.6-0.6c0-0.3-0.3-0.6-0.6-0.6l0,0H24.1v-2.5c0-0.3-0.3-0.6-0.6-0.6l0,0h-7.8
		C15.3,15,15,15.3,15,15.6z"/>
</g>
</svg>
