<?xml version="1.0" encoding="utf-8"?>
<!-- Generator: Adobe Illustrator 24.1.0, SVG Export Plug-In . SVG Version: 6.00 Build 0)  -->
<svg version="1.1" id="Layer_1" xmlns="http://www.w3.org/2000/svg" xmlns:xlink="http://www.w3.org/1999/xlink" x="0px" y="0px"
	 viewBox="0 0 80 80" style="enable-background:new 0 0 80 80;" xml:space="preserve">
<style type="text/css">
	.st0{fill:#FFFFFF;}
	.st1{fill:#7D1416;}
	.st2{fill:#400000;}
	.st3{fill:#CBCBCB;}
	.st4{fill:#EAAA3B;}
</style>
<circle cx="40.4" cy="40.4" r="39.6"/>
<circle class="st0" cx="39.6" cy="39.6" r="39.6"/>
<path d="M76.1,38.9c0,20.5-16.6,37.2-37.2,37.2C18.4,76.1,1.8,59.5,1.8,39S18.4,1.8,39,1.8c0,0,0,0,0,0
	C59.5,1.8,76.1,18.4,76.1,38.9z"/>
<path class="st1" d="M76.8,39.6c0,20.5-16.7,37.2-37.2,37.2S2.4,60.1,2.4,39.6C2.4,19,19.1,2.4,39.6,2.4
	C60.1,2.4,76.8,19.1,76.8,39.6C76.8,39.6,76.8,39.6,76.8,39.6z"/>
<path class="st2" d="M69.9,22.5C60.4,5.8,39.3-0.1,22.5,9.3S-0.1,39.9,9.3,56.6c2.6,4.7,6.3,8.7,10.8,11.7
	C23.9,43.8,44.8,24.3,69.9,22.5z"/>
<path class="st0" d="M58.8,23.4H22.5c-1.7-0.1-3.2,1.2-3.3,2.9v24.1c0.1,1.7,1.6,3,3.3,2.9h36.4c1.7,0.1,3.2-1.2,3.3-2.9V26.4
	C62,24.6,60.5,23.3,58.8,23.4z"/>
<path class="st3" d="M58.1,21h-35c-3.3-0.1-6,2.5-6.1,5.8V50c0.1,3.3,2.8,5.9,6.1,5.8h35c3.3,0.1,6-2.5,6.1-5.8V26.8
	C64.2,23.5,61.4,20.9,58.1,21z M63.1,50.4c-0.1,2.3-2,4.1-4.3,4c0,0,0,0,0,0H22.5c-2.3,0.1-4.2-1.7-4.3-4c0,0,0,0,0,0V26.4
	c0.1-2.3,2-4.1,4.3-4c0,0,0,0,0,0h36.4c2.3-0.1,4.2,1.7,4.3,4c0,0,0,0,0,0L63.1,50.4z"/>
<path d="M35.1,44.1c-0.5-0.3-0.9-0.8-0.9-1.4V41c0.1-0.1,0.3-0.3,0.4-0.5c0.6-0.8,1-1.7,1.3-2.6c0.6-0.2,1-0.7,1-1.3v-1.7
	c0-0.4-0.2-0.8-0.5-1v-2.5c0,0,0.5-4-4.9-4s-4.9,4-4.9,4v2.6c-0.3,0.2-0.5,0.6-0.5,1v1.8c0,0.5,0.2,0.9,0.6,1.1
	c0.3,1.2,0.8,2.3,1.6,3.2v1.6c0,0.6-0.3,1.1-0.9,1.4l-4,2.1c-0.2,0.1-0.4,0.3-0.6,0.4c1.8,1.3,4,2.2,6.2,2.6c1.5,0.2,3.1,0.2,4.6,0
	c2.2-0.4,4.4-1.2,6.2-2.5c-0.2-0.2-0.4-0.3-0.7-0.4L35.1,44.1z"/>
<path d="M63,23.3c0.8,1,1.2,2.2,1.2,3.5V50c-0.1,3.3-2.8,5.9-6.2,5.8h-35c-1.4,0-2.8-0.5-3.9-1.3c1.2,1.5,3,2.3,4.9,2.3h35
	c3.3,0.1,6.1-2.5,6.2-5.8c0,0,0,0,0,0V27.8C65.3,26.1,64.4,24.4,63,23.3z"/>
<path class="st1" d="M56.7,30.6H39.6c0.5,1.1,0.8,2.3,0.8,3.5c0.3,0.2,0.6,0.5,0.7,0.9h15.6c0.7,0,1.2-0.5,1.2-1.2c0,0,0,0,0,0v-1.9
	C57.9,31.1,57.4,30.6,56.7,30.6z"/>
<path class="st1" d="M57.9,39.6v-1.9c0-0.7-0.5-1.2-1.2-1.2c0,0,0,0,0,0H41.5c-0.3,1.3-0.2,2.7-1.3,3c0,0.1-0.1,0.1-0.1,0.2v1.2
	h16.7C57.4,40.8,57.9,40.3,57.9,39.6L57.9,39.6z"/>
<path class="st1" d="M56.7,42.4H42.2c0.7,1.1,1,2.3,1,3.5v0.8h13.5c0.7,0,1.2-0.5,1.2-1.2c0,0,0,0,0,0v-1.9
	C57.9,42.9,57.4,42.4,56.7,42.4C56.7,42.4,56.7,42.4,56.7,42.4z"/>
<path class="st4" d="M34.1,43.1c-0.5-0.3-0.9-0.8-0.9-1.4V40c0.1-0.1,0.3-0.3,0.4-0.5c0.6-0.8,1-1.7,1.3-2.6c0.6-0.2,1-0.7,1-1.3
	v-1.7c0-0.4-0.2-0.8-0.5-1v-2.5c0,0,0.5-4-4.9-4s-4.9,4-4.9,4v2.6c-0.3,0.2-0.5,0.6-0.5,1v1.8c0,0.5,0.2,0.9,0.6,1.1
	c0.3,1.2,0.8,2.3,1.6,3.2v1.6c0,0.6-0.3,1.1-0.9,1.4l-4,2.1c-0.2,0.1-0.4,0.3-0.6,0.4c1.8,1.3,4,2.2,6.2,2.6c1.5,0.2,3.1,0.2,4.6,0
	c2.2-0.4,4.4-1.2,6.2-2.5c-0.2-0.2-0.4-0.3-0.7-0.4L34.1,43.1z"/>
</svg>
