<?xml version="1.0" encoding="utf-8"?>
<!-- Generator: Adobe Illustrator 24.1.0, SVG Export Plug-In . SVG Version: 6.00 Build 0)  -->
<svg version="1.1" id="Layer_1" xmlns="http://www.w3.org/2000/svg" xmlns:xlink="http://www.w3.org/1999/xlink" x="0px" y="0px"
	 viewBox="0 0 60 60" style="enable-background:new 0 0 60 60;" xml:space="preserve">
<style type="text/css">
	.st0{fill:#7D1416;}
</style>
<path class="st0" d="M30,0C13.4,0,0,13.4,0,30s13.4,30,30,30s30-13.4,30-30S46.6,0,30,0z M30,58.1C14.5,58.1,1.9,45.5,1.9,30
	S14.5,1.9,30,1.9S58.1,14.5,58.1,30S45.5,58.1,30,58.1z"/>
<path class="st0" d="M45.9,20.4l-5.8-5.8c-2.2-2.2-5.6-2.2-7.8,0L16,31c-0.5,0.5-0.5,1.4,0,1.9l1.9,1.9l-5.1,5
	c-0.5,0.5-0.6,1.4,0,1.9l0,0l6,5.9c0.3,0.3,0.6,0.4,1,0.4s0.7-0.1,1-0.4l5-5l1.8,1.8c0.3,0.3,0.6,0.4,1,0.4l0,0c0.4,0,0.7-0.1,1-0.4
	L41,33c0.6-0.5,0.6-1.4,0-2c-0.5-0.6-1.4-0.6-2,0L28.6,41.6L28,41.1l-7.4-7.3L18.9,32l15.4-15.5c1.1-1.1,2.8-1.1,3.9,0l5.8,5.8
	c1.1,1.1,1.1,2.8,0,3.8l0,0c-0.5,0.5-0.5,1.4,0,1.9s1.4,0.5,1.9,0C48.1,26,48.1,22.5,45.9,20.4z M19.9,36.8L19.9,36.8l4,4l-4,4l-4-4
	L19.9,36.8z M36.7,21.8c1.2,0,2.2,1,2.2,2.2s-1,2.2-2.2,2.2s-2.2-1-2.2-2.2S35.5,21.8,36.7,21.8L36.7,21.8L36.7,21.8z"/>
</svg>
