<svg id="Layer_1" data-name="Layer 1" xmlns="http://www.w3.org/2000/svg" viewBox="0 0 88 80"><defs><style>.cls-1{fill:#023c42;}</style></defs><title>icon-namespaces-dark-green</title><path class="cls-1" d="M58.67,50.91V25.45H31.17V0H0V80H88V50.91ZM27.5,76.37H3.67V54.55H27.5Zm0-25.46H3.67V29.09H27.5Zm0-25.46H3.67V3.64H27.5ZM55,76.37H31.17V54.55H55Zm0-25.46H31.17V29.09H55ZM84.33,76.37H58.67V54.55H84.33ZM5.5,21.82V7.27A1.83,1.83,0,0,1,7.33,5.45h16.5a1.82,1.82,0,1,1,0,3.64H9.17V21.82a1.84,1.84,0,0,1-3.67,0Zm0,25.45V32.73a1.82,1.82,0,0,1,1.83-1.82h16.5a1.82,1.82,0,1,1,0,3.64H9.17V47.27a1.84,1.84,0,0,1-3.67,0Zm0,25.46V58.18a1.83,1.83,0,0,1,1.83-1.82h16.5a1.82,1.82,0,1,1,0,3.64H9.17V72.73a1.84,1.84,0,0,1-3.67,0ZM33,47.27V32.73a1.82,1.82,0,0,1,1.83-1.82h16.5a1.82,1.82,0,1,1,0,3.64H36.67V47.27a1.84,1.84,0,0,1-3.67,0Zm0,25.46V58.18a1.83,1.83,0,0,1,1.83-1.82h16.5a1.82,1.82,0,1,1,0,3.64H36.67V72.73a1.84,1.84,0,0,1-3.67,0Zm27.5,0V58.18a1.83,1.83,0,0,1,1.83-1.82H80.67a1.82,1.82,0,1,1,0,3.64H64.17V72.73a1.84,1.84,0,0,1-3.67,0Z"/></svg>