<?xml version="1.0" encoding="utf-8"?>
<!-- Generator: Adobe Illustrator 24.1.0, SVG Export Plug-In . SVG Version: 6.00 Build 0)  -->
<svg version="1.1" id="Layer_1" xmlns="http://www.w3.org/2000/svg" xmlns:xlink="http://www.w3.org/1999/xlink" x="0px" y="0px"
	 viewBox="0 0 80 80" style="enable-background:new 0 0 80 80;" xml:space="preserve">
<style type="text/css">
	.st0{fill:#FFFFFF;}
	.st1{fill:#7D1416;}
	.st2{fill:#400000;}
	.st3{fill:#EAAA3B;}
</style>
<circle cx="40.4" cy="40.4" r="39.6"/>
<circle class="st0" cx="39.6" cy="39.6" r="39.6"/>
<path d="M76.1,38.9c0,20.5-16.6,37.2-37.2,37.2C18.4,76.1,1.8,59.5,1.8,39S18.4,1.8,39,1.8c0,0,0,0,0,0
	C59.5,1.8,76.1,18.4,76.1,38.9z"/>
<path class="st1" d="M76.8,39.6c0,20.5-16.7,37.2-37.2,37.2S2.4,60.1,2.4,39.6C2.4,19,19.1,2.4,39.6,2.4
	C60.1,2.4,76.8,19.1,76.8,39.6C76.8,39.6,76.8,39.6,76.8,39.6z"/>
<path class="st2" d="M69.9,22.5C60.4,5.8,39.3-0.1,22.5,9.3S-0.1,39.9,9.3,56.6c2.6,4.7,6.3,8.7,10.8,11.7
	C23.9,43.8,44.8,24.3,69.9,22.5z"/>
<path d="M44.6,19.7c10.7,0,19.4,7.1,19.4,15.9c-0.1,4.3-2.1,8.4-5.5,11.1c0.2,2.9,0.8,6.5,2.8,8.4c-3.8,0-7.7-2.5-10.1-4.5
	c-2.1,0.6-4.3,0.9-6.5,0.9c-10.7,0-19.4-7.1-19.4-15.9S33.9,19.7,44.6,19.7z"/>
<path class="st3" d="M43.6,18.7c10.7,0,19.4,7.1,19.4,15.9c-0.1,4.3-2.1,8.4-5.5,11.1c0.2,2.9,0.8,6.5,2.8,8.4
	c-3.8,0-7.7-2.5-10.1-4.5c-2.1,0.6-4.3,0.9-6.5,0.9c-10.7,0-19.4-7.1-19.4-15.9S32.9,18.7,43.6,18.7z"/>
<path d="M35.6,24.7c-10.7,0-19.4,7.1-19.4,15.9c0.1,4.3,2.1,8.4,5.5,11.1c-0.2,2.9-0.9,6.5-2.8,8.4c3.8,0,7.7-2.5,10.1-4.5
	c2.1,0.6,4.3,0.9,6.5,0.9c10.7,0,19.4-7.1,19.4-15.9S46.3,24.7,35.6,24.7z"/>
<path class="st0" d="M34.6,23.7c-10.7,0-19.4,7.1-19.4,15.9c0.1,4.3,2.1,8.4,5.5,11.1c-0.2,2.9-0.9,6.5-2.8,8.4
	c3.8,0,7.7-2.5,10.1-4.5c2.1,0.6,4.3,0.9,6.5,0.9c10.7,0,19.4-7.1,19.4-15.9S45.3,23.7,34.6,23.7z"/>
</svg>
