<svg id="Layer_1" data-name="Layer 1" xmlns="http://www.w3.org/2000/svg" viewBox="0 0 16 16"><defs><style>.cls-1{fill:#999;}</style></defs><title>icon-password-light-gray</title><path class="cls-1" d="M13.67,6h-1V4.67a4.67,4.67,0,0,0-9.34,0V6h-1A.33.33,0,0,0,2,6.33v8.34A1.34,1.34,0,0,0,3.33,16h9.34A1.34,1.34,0,0,0,14,14.67V6.33A.33.33,0,0,0,13.67,6ZM9,13a.34.34,0,0,1-.08.26.36.36,0,0,1-.25.11H7.33a.36.36,0,0,1-.25-.11A.34.34,0,0,1,7,13l.21-1.89a1.33,1.33,0,1,1,1.58,0Zm1.67-7H5.33V4.67a2.67,2.67,0,0,1,5.34,0Z"/></svg>