<svg id="Layer_1" data-name="Layer 1" xmlns="http://www.w3.org/2000/svg" viewBox="0 0 40 40"><defs><style>.cls-1{fill:#fff;}</style></defs><title>icon-services-white</title><path class="cls-1" d="M32,24c-.8,0-1.39.2-2,.2l-5.78-5.8L29,13.61l6.18-2.2L39.72,4a1.26,1.26,0,0,0,0-1.2L37.33.42a1.23,1.23,0,0,0-1.4-.2l-7.56,4.4L26,11,21.2,15.8,15.82,10c0-.6.2-1.2.2-2A8.1,8.1,0,0,0,6.06.22l3,3a3.87,3.87,0,0,1,0,5.59,3.84,3.84,0,0,1-5.58,0L.28,6A7.83,7.83,0,0,0,10,15.6l5.78,5.8-2.39,2.4a3.81,3.81,0,0,0-3.79,1L1.48,33a4.08,4.08,0,0,0-.4,5.59,3.92,3.92,0,0,0,5.78.2l8.36-8.39a3.92,3.92,0,0,0,1-3.8l2.39-2.39L24.38,30a6.8,6.8,0,0,0-.2,2,8.1,8.1,0,0,0,10,7.79l-3-3a3.95,3.95,0,1,1,5.58-5.59l3,3A8.1,8.1,0,0,0,32,24Z"/></svg>