<svg id="Layer_1" data-name="Layer 1" xmlns="http://www.w3.org/2000/svg" xmlns:xlink="http://www.w3.org/1999/xlink" viewBox="0 0 90 80"><defs><style>.cls-1{fill:url(#linear-gradient);}</style><linearGradient id="linear-gradient" x1="78.27" y1="68.09" x2="11.77" y2="1.59" gradientUnits="userSpaceOnUse"><stop offset="0" stop-color="#306eb5"/><stop offset="1" stop-color="#2ba1b9"/></linearGradient></defs><title>icon-storage-gradient-80h-proximax-sirius-wallet</title><path class="cls-1" d="M89.18,39l-9.58-12,9.3-11.27a2.56,2.56,0,0,0-1.1-4L55.81.15A2.55,2.55,0,0,0,52.92,1l-8.05,10.3L36.83,1A2.56,2.56,0,0,0,33.94.15L2,11.75a2.56,2.56,0,0,0-1.1,4L10.43,27.4.85,39A2.56,2.56,0,0,0,2,43l8.86,3.21V65.77a2.56,2.56,0,0,0,1.68,2.41L44.28,79.84l0,0,.29.08.12,0a2,2,0,0,0,.42,0,2,2,0,0,0,.43,0l.11,0,.3-.08,0,0L77.84,68.18a2.59,2.59,0,0,0,1.68-2.41V46.14L88.05,43a2.57,2.57,0,0,0,1.13-4ZM55.56,54.76h.09a2.75,2.75,0,0,0,.41-.11L74.39,48V64L47.73,73.76V46.84l5.44,7h0a2.53,2.53,0,0,0,.36.37l.11.08a2.92,2.92,0,0,0,.37.24l.07,0a2.84,2.84,0,0,0,.49.17l.1,0a3.5,3.5,0,0,0,.48.06h.06A2,2,0,0,0,55.56,54.76ZM15.94,48.11l4.11,1.49,13.89,5h0l.37.1h.12l.3,0h.12a2.71,2.71,0,0,0,.4,0l.14,0a2.69,2.69,0,0,0,.45-.16l.12-.06a2,2,0,0,0,.31-.2l.13-.09a3,3,0,0,0,.36-.35l5.8-7.12v27L15.94,64Zm18-42.5,6.61,8.47L14.19,23.89,7.12,15.33Zm48.7,9.72-7.07,8.56L49.2,14.08l6.62-8.47ZM44.87,18l25.65,9.54-25.36,9.3L19.51,27.38Zm-4,22.74L34,49.19,7.12,39.46l7.07-8.56Zm15.17,8.49-6.61-8.46,26.65-9.81,6.82,8.53Z"/></svg>