<?xml version="1.0" encoding="utf-8"?>
<!-- Generator: Adobe Illustrator 24.1.0, SVG Export Plug-In . SVG Version: 6.00 Build 0)  -->
<svg version="1.1" id="Layer_1" xmlns="http://www.w3.org/2000/svg" xmlns:xlink="http://www.w3.org/1999/xlink" x="0px" y="0px"
	 viewBox="0 0 80 80" style="enable-background:new 0 0 80 80;" xml:space="preserve">
<style type="text/css">
	.st0{fill:#F3F3F3;}
	.st1{fill:#7D1416;}
	.st2{fill:#400000;}
	.st3{fill:#FFFFFF;}
	.st4{fill:#CBCBCB;}
	.st5{fill:#EAAA3B;}
</style>
<circle cx="40.4" cy="40.4" r="39.6"/>
<circle class="st0" cx="39.6" cy="39.6" r="39.6"/>
<path d="M76.1,38.9c0,20.5-16.6,37.2-37.2,37.2C18.4,76.1,1.8,59.5,1.8,39S18.4,1.8,39,1.8c0,0,0,0,0,0
	C59.5,1.8,76.1,18.4,76.1,38.9z"/>
<path class="st1" d="M76.8,39.6c0,20.5-16.7,37.2-37.2,37.2S2.4,60.1,2.4,39.6C2.4,19,19.1,2.4,39.6,2.4
	C60.1,2.4,76.8,19.1,76.8,39.6C76.8,39.6,76.8,39.6,76.8,39.6z"/>
<path class="st2" d="M69.9,22.5C60.4,5.8,39.3-0.1,22.5,9.3S-0.1,39.9,9.3,56.6c2.6,4.7,6.3,8.7,10.8,11.7
	C23.9,43.8,44.8,24.3,69.9,22.5z"/>
<path class="st3" d="M47.5,16.8l-6.9-2.7c-0.4-0.2-0.8-0.2-1.2,0l-6.9,2.7c-0.3,0.1-0.5,0.5-0.4,0.8c0.1,0.2,0.2,0.3,0.4,0.4
	l7.3,3.4c0.2,0.1,0.4,0.1,0.5,0l7.3-3.4c0.3-0.1,0.5-0.5,0.3-0.8C47.8,17,47.7,16.9,47.5,16.8z"/>
<path class="st3" d="M39.2,22.1L32.4,19c-0.3-0.1-0.6,0-0.8,0.3c0,0.1,0,0.1,0,0.2V27c0,0.2,0.1,0.4,0.3,0.5l6.8,3.6
	c0.3,0.1,0.6,0,0.8-0.2c0-0.1,0.1-0.2,0.1-0.3v-8C39.5,22.4,39.4,22.2,39.2,22.1z"/>
<path class="st4" d="M47.5,19l-6.8,3.1c-0.2,0.1-0.3,0.3-0.3,0.5v8c0,0.3,0.3,0.6,0.6,0.6c0.1,0,0.2,0,0.3-0.1l6.8-3.6
	c0.2-0.1,0.3-0.3,0.3-0.5v-7.5c0-0.3-0.3-0.6-0.6-0.6C47.7,19,47.6,19,47.5,19z"/>
<path class="st3" d="M28.4,34.1l-6.9-2.7c-0.4-0.1-0.8-0.1-1.2,0l-6.9,2.7c-0.3,0.1-0.5,0.5-0.3,0.8c0.1,0.1,0.2,0.3,0.3,0.3
	l7.3,3.4c0.2,0.1,0.4,0.1,0.5,0l7.3-3.4c0.3-0.2,0.4-0.5,0.3-0.9C28.7,34.3,28.6,34.1,28.4,34.1z"/>
<path class="st3" d="M20.1,39.4l-6.8-3.1c-0.3-0.1-0.6,0-0.8,0.3c0,0.1-0.1,0.2-0.1,0.2v7.5c0,0.2,0.1,0.4,0.3,0.5l6.8,3.6
	c0.3,0.1,0.6,0,0.8-0.2c0-0.1,0.1-0.2,0.1-0.3v-7.9C20.4,39.7,20.3,39.5,20.1,39.4z"/>
<path class="st4" d="M28.5,36.3l-6.8,3.1c-0.2,0.1-0.3,0.3-0.3,0.5v7.9c0,0.3,0.2,0.6,0.6,0.6c0.1,0,0.2,0,0.3-0.1l6.8-3.6
	c0.2-0.1,0.3-0.3,0.3-0.5v-7.5c0-0.3-0.2-0.6-0.6-0.6C28.6,36.2,28.5,36.2,28.5,36.3z"/>
<path class="st3" d="M47.5,50.6l-6.9-2.7c-0.4-0.2-0.8-0.2-1.2,0l-6.9,2.7c-0.3,0.1-0.5,0.5-0.3,0.8c0.1,0.2,0.2,0.3,0.3,0.3
	l7.3,3.4c0.2,0.1,0.4,0.1,0.5,0l7.3-3.4c0.3-0.2,0.4-0.5,0.3-0.9C47.8,50.8,47.7,50.7,47.5,50.6z"/>
<path class="st3" d="M39.2,55.9l-6.8-3.1c-0.3-0.1-0.6,0-0.8,0.3c0,0.1,0,0.1,0,0.2v7.5c0,0.2,0.1,0.4,0.3,0.5l6.8,3.6
	c0.3,0.1,0.6,0,0.8-0.2c0-0.1,0.1-0.2,0.1-0.3v-7.9C39.5,56.2,39.4,56,39.2,55.9z"/>
<path class="st4" d="M47.5,52.8l-6.8,3.1c-0.2,0.1-0.3,0.3-0.3,0.5v7.9c0,0.3,0.3,0.6,0.6,0.6c0.1,0,0.2,0,0.3-0.1l6.8-3.6
	c0.2-0.1,0.3-0.3,0.3-0.5v-7.5c0-0.3-0.3-0.6-0.6-0.6C47.7,52.8,47.6,52.8,47.5,52.8z"/>
<path class="st3" d="M66.9,34.1L60,31.4c-0.4-0.1-0.8-0.1-1.2,0l-6.9,2.7c-0.3,0.1-0.5,0.5-0.3,0.8c0.1,0.1,0.2,0.3,0.3,0.3l7.3,3.4
	c0.2,0.1,0.4,0.1,0.5,0l7.3-3.4c0.3-0.2,0.4-0.6,0.3-0.9C67.2,34.2,67,34.1,66.9,34.1z"/>
<path class="st3" d="M58.5,39.4l-6.8-3.1c-0.3-0.1-0.6,0-0.8,0.3c0,0.1-0.1,0.2-0.1,0.2v7.5c0,0.2,0.1,0.4,0.3,0.5l6.8,3.6
	c0.3,0.1,0.6,0.1,0.8-0.2c0-0.1,0.1-0.2,0.1-0.3v-7.9C58.9,39.7,58.7,39.5,58.5,39.4z"/>
<path class="st4" d="M66.9,36.3l-6.8,3.1c-0.2,0.1-0.3,0.3-0.3,0.5v7.9c0,0.3,0.3,0.6,0.6,0.6c0.1,0,0.2,0,0.3-0.1l6.8-3.6
	c0.2-0.1,0.3-0.3,0.3-0.5v-7.5c0-0.3-0.3-0.6-0.6-0.6C67.1,36.2,67,36.2,66.9,36.3z"/>
<circle class="st5" cx="29.6" cy="32.3" r="0.8"/>
<circle class="st5" cx="31.2" cy="29.7" r="0.8"/>
<circle class="st5" cx="50.6" cy="32.3" r="0.8"/>
<circle class="st5" cx="49" cy="29.7" r="0.8"/>
<circle class="st5" cx="50.6" cy="46.7" r="0.8"/>
<circle class="st5" cx="49" cy="49" r="0.8"/>
<circle class="st5" cx="29.6" cy="46.7" r="0.8"/>
<circle class="st5" cx="31.2" cy="49" r="0.8"/>
</svg>
