<svg id="Layer_1" data-name="Layer 1" xmlns="http://www.w3.org/2000/svg" viewBox="0 0 16 16"><defs><style>.cls-1{fill:#2ba1b9;}</style></defs><title>icon-nodes-green-16h</title><path class="cls-1" d="M.22,5.69A1.27,1.27,0,0,0,0,6.4V9.6a1.21,1.21,0,0,0,.22.7H15.78A1.21,1.21,0,0,0,16,9.6V6.4a1.27,1.27,0,0,0-.22-.71ZM2.8,9.22a1.22,1.22,0,0,1,0-2.44,1.22,1.22,0,0,1,0,2.44ZM9.07,7.86a.27.27,0,1,1,.26-.27A.27.27,0,0,1,9.07,7.86Zm.53.82a.27.27,0,1,1,.27-.27A.27.27,0,0,1,9.6,8.68Zm.53-.82a.27.27,0,1,1,.27-.27A.27.27,0,0,1,10.13,7.86Zm.54.82a.27.27,0,1,1,.26-.27A.27.27,0,0,1,10.67,8.68Zm.53-.82a.27.27,0,1,1,.27-.27A.27.27,0,0,1,11.2,7.86Zm.53.82A.27.27,0,1,1,12,8.41.27.27,0,0,1,11.73,8.68Zm.54-.82a.27.27,0,1,1,.26-.27A.27.27,0,0,1,12.27,7.86Zm.53.82a.27.27,0,1,1,.27-.27A.27.27,0,0,1,12.8,8.68Zm.53-.82a.27.27,0,1,1,.27-.27A.27.27,0,0,1,13.33,7.86Zm.54.82a.27.27,0,1,1,.26-.27A.27.27,0,0,1,13.87,8.68ZM14.77,0H1.23A1.24,1.24,0,0,0,0,1.25v3.2a1.21,1.21,0,0,0,.22.7H15.78a1.21,1.21,0,0,0,.22-.7V1.25A1.24,1.24,0,0,0,14.77,0ZM2.8,4.07A1.22,1.22,0,1,1,4,2.85,1.21,1.21,0,0,1,2.8,4.07ZM9.07,2.71a.27.27,0,1,1,.26-.27A.27.27,0,0,1,9.07,2.71Zm.53.82a.28.28,0,0,1-.27-.28.27.27,0,0,1,.54,0A.28.28,0,0,1,9.6,3.53Zm.53-.82a.27.27,0,1,1,.27-.27A.27.27,0,0,1,10.13,2.71Zm.54.82a.28.28,0,0,1-.27-.28.27.27,0,1,1,.53,0A.28.28,0,0,1,10.67,3.53Zm.53-.82a.27.27,0,1,1,.27-.27A.27.27,0,0,1,11.2,2.71Zm.53.82a.28.28,0,0,1-.26-.28.27.27,0,1,1,.53,0A.28.28,0,0,1,11.73,3.53Zm.54-.82a.27.27,0,1,1,.26-.27A.27.27,0,0,1,12.27,2.71Zm.53.82a.28.28,0,0,1-.27-.28.27.27,0,0,1,.54,0A.28.28,0,0,1,12.8,3.53Zm.53-.82a.27.27,0,1,1,.27-.27A.27.27,0,0,1,13.33,2.71Zm.54.82a.28.28,0,0,1-.27-.28.27.27,0,1,1,.53,0A.28.28,0,0,1,13.87,3.53ZM.22,10.85a1.21,1.21,0,0,0-.22.7v3.2A1.24,1.24,0,0,0,1.23,16H14.77A1.24,1.24,0,0,0,16,14.75v-3.2a1.21,1.21,0,0,0-.22-.7ZM2.8,14.37A1.22,1.22,0,1,1,4,13.15,1.21,1.21,0,0,1,2.8,14.37ZM9.07,13a.27.27,0,0,1-.27-.27.27.27,0,1,1,.53,0A.27.27,0,0,1,9.07,13Zm.53.81a.27.27,0,1,1,.27-.27A.27.27,0,0,1,9.6,13.83Zm.53-.81a.27.27,0,0,1-.26-.27.27.27,0,1,1,.53,0A.27.27,0,0,1,10.13,13Zm.54.81a.27.27,0,1,1,.26-.27A.27.27,0,0,1,10.67,13.83ZM11.2,13a.27.27,0,0,1-.27-.27.27.27,0,1,1,.54,0A.27.27,0,0,1,11.2,13Zm.53.81a.27.27,0,1,1,.27-.27A.27.27,0,0,1,11.73,13.83Zm.54-.81a.27.27,0,0,1-.27-.27.27.27,0,1,1,.53,0A.27.27,0,0,1,12.27,13Zm.53.81a.27.27,0,1,1,.27-.27A.27.27,0,0,1,12.8,13.83Zm.53-.81a.27.27,0,0,1-.26-.27.27.27,0,1,1,.53,0A.27.27,0,0,1,13.33,13Zm.54.81a.27.27,0,1,1,.26-.27A.27.27,0,0,1,13.87,13.83Z"/></svg>