<svg id="Layer_1" data-name="Layer 1" xmlns="http://www.w3.org/2000/svg" viewBox="0 0 40 40"><defs><style>.cls-1{fill:#fff;}</style></defs><title>icon-account-white</title><path class="cls-1" d="M20.34,2A19.86,19.86,0,0,0,0,21.34,19.5,19.5,0,0,0,7.13,36.71a5.36,5.36,0,0,1,1-.66l6-3.2a2.4,2.4,0,0,0,1.27-2.11v-2.4a13,13,0,0,1-2.42-4.93A2,2,0,0,1,12,21.76V19.13a1.94,1.94,0,0,1,.67-1.46V13.86S11.85,7.94,20,7.94s7.36,5.92,7.36,5.92v3.81A1.94,1.94,0,0,1,28,19.13v2.63a2,2,0,0,1-1.43,1.88,14.24,14.24,0,0,1-2,3.93,8.65,8.65,0,0,1-.61.77V30.8A2.4,2.4,0,0,0,25.36,33l6.39,3.14a5.77,5.77,0,0,1,1,.69A19.51,19.51,0,0,0,40,22,19.83,19.83,0,0,0,20.34,2Z"/></svg>