<?xml version="1.0" encoding="utf-8"?>
<!-- Generator: Adobe Illustrator 24.1.0, SVG Export Plug-In . SVG Version: 6.00 Build 0)  -->
<svg version="1.1" id="Layer_1" xmlns="http://www.w3.org/2000/svg" xmlns:xlink="http://www.w3.org/1999/xlink" x="0px" y="0px"
	 viewBox="0 0 60 60" style="enable-background:new 0 0 60 60;" xml:space="preserve">
<style type="text/css">
	.st0{fill:#7D1416;}
</style>
<g>
	<path class="st0" d="M30,0C13.4,0,0,13.4,0,30s13.4,30,30,30s30-13.4,30-30S46.6,0,30,0z M30,58.1C14.5,58.1,1.9,45.5,1.9,30
		S14.5,1.9,30,1.9S58.1,14.5,58.1,30S45.5,58.1,30,58.1z"/>
</g>
<g>
	<path class="st0" d="M43.7,21.4c0.1-0.3,0.1-0.7,0.1-1v-1.1c0-2.2-1.7-4.2-4.7-5.7c-3.2-1.5-6.8-2.2-10.3-2.1
		c-3.6-0.1-7.1,0.6-10.3,2.1c-3,1.5-4.6,3.5-4.6,5.7v1.1c0,2.2,1.6,4.2,4.5,5.6c-0.1,0.3-0.1,0.7-0.1,1v0.2
		c-2.8,1.5-4.4,3.4-4.4,5.6v1.1c0.1,1.6,0.9,3.1,2.2,4.1c-0.2,0.5-0.3,1-0.3,1.6v1.1c0,2.2,1.7,4.2,4.7,5.7
		c3.2,1.5,6.8,2.2,10.3,2.1c3.5,0.1,7.1-0.6,10.3-2.1c3-1.5,4.7-3.5,4.7-5.7v-1.1c-0.1-1.6-0.9-3.1-2.2-4.1c0.2-0.5,0.3-1,0.3-1.6
		v-0.2c2.8-1.5,4.4-3.4,4.4-5.6V27C48.2,24.9,46.6,22.9,43.7,21.4z M15.9,18.4c0.7-1.4,1.9-2.4,3.4-3c3-1.3,6.2-2,9.5-1.9
		c3.3-0.1,6.5,0.6,9.5,1.9c1.4,0.6,2.6,1.6,3.4,3C40.2,21,34.8,23,28.8,23S17.5,21,15.9,18.4z M15.9,31.9c0.5-1.1,1.4-2,2.5-2.5
		c0.5,1.7,2,3.3,4.5,4.5c3.2,1.5,6.8,2.2,10.3,2.1h1.1c-1.8,0.4-3.7,0.6-5.5,0.6C22.8,36.5,17.5,34.5,15.9,31.9z M43.6,38.7
		c-1.6,2.7-6.9,4.6-12.9,4.6c-5.2,0-9.9-1.5-12.1-3.6c3.2,1.4,6.7,2.1,10.2,2c3.6,0.1,7.1-0.6,10.3-2.1c1.3-0.6,2.4-1.4,3.3-2.5
		C43,37.5,43.3,38.1,43.6,38.7z M33.2,30.7c-5.3,0-10-1.5-12.1-3.6c2.5,0.7,5.1,1.1,7.7,1.1c3.6,0.1,7.1-0.6,10.3-2.1
		c1.5-0.6,2.7-1.6,3.7-2.9c1.4,0.6,2.5,1.6,3.2,3C44.5,28.8,39.2,30.7,33.2,30.7z"/>
</g>
</svg>
