<svg id="Layer_1" data-name="Layer 1" xmlns="http://www.w3.org/2000/svg" viewBox="0 0 50 40"><defs><style>.cls-1{fill:#fff;}</style></defs><title>icon-transactions-white</title><path class="cls-1" d="M49.48,13.26,37,.53a1.77,1.77,0,0,0-2.53,0,1.87,1.87,0,0,0-.52,1.29V7.27H21.43a1.82,1.82,0,0,0,0,3.64H35.71A1.81,1.81,0,0,0,37.5,9.09V6.21l8.19,8.34L37.5,22.88V20a1.81,1.81,0,0,0-1.79-1.82H16.07V12.73A1.78,1.78,0,0,0,13,11.44L.52,24.17a1.85,1.85,0,0,0,0,2.57L13,39.47a1.77,1.77,0,0,0,2,.39,1.81,1.81,0,0,0,1.1-1.68V32.73h12.5a1.82,1.82,0,0,0,0-3.64H14.29a1.8,1.8,0,0,0-1.79,1.82v2.88L4.31,25.45l8.19-8.33V20a1.81,1.81,0,0,0,1.79,1.82H33.93v5.45a1.78,1.78,0,0,0,3,1.29l12.5-12.73A1.85,1.85,0,0,0,49.48,13.26Z"/></svg>