<svg id="Layer_1" data-name="Layer 1" xmlns="http://www.w3.org/2000/svg" viewBox="0 0 16 16"><defs><style>.cls-1{fill:#2ba1b9;fill-rule:evenodd;}</style></defs><title>icon-prx-xpx-green-16h</title><path class="cls-1" d="M8,0a8,8,0,1,0,8,8A8,8,0,0,0,8,0ZM8,15.5A7.5,7.5,0,1,1,15.5,8,7.5,7.5,0,0,1,8,15.5ZM8.22,4.41a3.67,3.67,0,0,0-.86-.65c.21,0,.42,0,.64,0a9.86,9.86,0,0,1,4.17.95,5.81,5.81,0,0,0-2.76.17,1.46,1.46,0,0,1-.52.1C8.68,4.92,8.37,4.56,8.22,4.41Zm4.14.7h.06A8.82,8.82,0,0,1,11,10c-.11-.48-.25-1-.4-1.42-.08-.24-.16-.48-.25-.72s-.17-.47-.26-.69c-.42-1-.38-1,.39-1.43A4.46,4.46,0,0,1,12.36,5.11Zm-2.49,4c.19.37.45.9.68,1.46a8.8,8.8,0,0,1-2.42,2.16L8,12.8l-.13-.08A8.89,8.89,0,0,1,4.52,9.08,15.29,15.29,0,0,1,6,8.06a16.31,16.31,0,0,1,1.67-.91,1.73,1.73,0,0,1,.58-.22.55.55,0,0,1,.19,0c.18.08.49.58.49.58h0c.06.08.11.16.16.24s.12.18.17.27.16.26.24.4S9.75,8.88,9.87,9.1ZM4.29,8.59A9,9,0,0,1,3.58,5V4.8l.14-.06a10,10,0,0,1,2.71-.88L6.56,4l.26.33a2.7,2.7,0,0,1,.27.39,7.36,7.36,0,0,1,.44.72.38.38,0,0,1,0,.19.31.31,0,0,1-.09.14l-.22.16c-.36.26-.7.54-1,.81s-.77.67-1.13,1S4.55,8.29,4.29,8.59Z"/></svg>