<svg id="Layer_1" data-name="Layer 1" xmlns="http://www.w3.org/2000/svg" viewBox="0 0 98 80"><defs><style>.cls-1{fill:#a8a8a8;}</style></defs><title>icon-meseenger-light-gray</title><path class="cls-1" d="M40.2,11.85C18.06,11.85.11,25.55.11,42.46c0,8.29,4.32,15.83,11.34,21.34-.4,5.62-1.77,12.5-5.71,16.2,7.85,0,15.88-4.89,21-8.71a51.36,51.36,0,0,0,13.5,1.79c22.14,0,40.09-13.7,40.09-30.62S62.34,11.85,40.2,11.85Z"/><path class="cls-1" d="M92.35,45.84a25.37,25.37,0,0,0,5.23-15.23C97.58,13.7,79.88,0,58,0A46.81,46.81,0,0,0,32.78,7.07a53.23,53.23,0,0,1,10.06-1c23.51,0,42.58,15.08,42.58,33.68a29,29,0,0,1-8,19.63c5,3.82,12.92,8.72,20.67,8.72C92.6,62.88,92.2,51.21,92.35,45.84Z"/></svg>