<svg id="Layer_1" data-name="Layer 1" xmlns="http://www.w3.org/2000/svg" viewBox="0 0 60 60"><defs><style>.cls-1{fill:#0098ea;}</style></defs><title>icon-private-key-green-16h-proximax-sirius-wallet copy</title><path class="cls-1" d="M30.51,3A29.8,29.8,0,0,0,0,32,29.22,29.22,0,0,0,10.7,55.07a8,8,0,0,1,1.42-1l9-4.8A3.6,3.6,0,0,0,23,46.12V42.51a19.42,19.42,0,0,1-3.63-7.39A3,3,0,0,1,18,32.64V28.69a2.92,2.92,0,0,1,1-2.19V20.79s-1.19-8.88,11-8.88,11,8.88,11,8.88V26.5a2.92,2.92,0,0,1,1,2.19v3.95a3,3,0,0,1-2.13,2.81,21.9,21.9,0,0,1-3,5.91A13.64,13.64,0,0,1,36,42.51v3.7a3.58,3.58,0,0,0,2,3.21l9.59,4.72a8.34,8.34,0,0,1,1.57,1A29.28,29.28,0,0,0,60,33,29.75,29.75,0,0,0,30.51,3Z"/></svg>