<svg id="Layer_1" data-name="Layer 1" xmlns="http://www.w3.org/2000/svg" viewBox="0 0 68 60"><defs><style>.cls-1{fill:#2ba1b9;}</style></defs><title>icon-storage-green-60h-proximax-sirius-wallet</title><path class="cls-1" d="M67.13,29.27l-7.18-9,7-8.45a1.92,1.92,0,0,0-.83-3L42.11.12a1.9,1.9,0,0,0-2.17.62l-6,7.73-6-7.73A1.9,1.9,0,0,0,25.7.12l-24,8.69a2,2,0,0,0-1.2,1.3,1.93,1.93,0,0,0,.38,1.73l7.18,8.71L.89,29.25a1.91,1.91,0,0,0,.82,3l6.64,2.41V49.33a1.94,1.94,0,0,0,1.27,1.81l23.84,8.74h0a.79.79,0,0,0,.22.06l.08,0a1.73,1.73,0,0,0,.32,0,1.66,1.66,0,0,0,.32,0l.08,0a.86.86,0,0,0,.23-.06h0l23.85-8.74a2,2,0,0,0,1.26-1.81V34.6l6.39-2.32a1.92,1.92,0,0,0,.85-3ZM41.92,41.07H42A1.87,1.87,0,0,0,42.3,41L56,36V48l-20,7.33V35.13l4.08,5.22h0a1.72,1.72,0,0,0,.27.27l.08.07a2.61,2.61,0,0,0,.28.17s0,0,.05,0a1.63,1.63,0,0,0,.37.13l.07,0a2.2,2.2,0,0,0,.36,0h0Zm-29.72-5,3.09,1.11L25.7,41h0l.27.07h.09l.23,0h.08l.31,0,.1,0a1.93,1.93,0,0,0,.34-.11l.09-.05a1.82,1.82,0,0,0,.23-.15l.1-.07a1.72,1.72,0,0,0,.27-.27l4.35-5.33V55.32L12.2,48ZM25.7,4.21l5,6.35L10.89,17.91,5.59,11.5ZM62.22,11.5l-5.3,6.41L37.15,10.56l5-6.35Zm-28.31,2,19.23,7.16-19,7-19.24-7Zm-3,17.06-5.19,6.37L5.59,29.59l5.3-6.42ZM42.3,36.88l-4.95-6.34,20-7.36,5.12,6.4Z"/></svg>