<?xml version="1.0" encoding="utf-8"?>
<!-- Generator: Adobe Illustrator 23.1.1, SVG Export Plug-In . SVG Version: 6.00 Build 0)  -->
<svg version="1.1" id="Layer_1" xmlns="http://www.w3.org/2000/svg" xmlns:xlink="http://www.w3.org/1999/xlink" x="0px" y="0px"
	 viewBox="0 0 60 60" style="enable-background:new 0 0 60 60;" xml:space="preserve">
<style type="text/css">
	.st0{fill:#306EB3;}
</style>
<title>icon-file-green-16h-proximax-sirius-wallet</title>
<g>
	<path class="st0" d="M30,0C13.4,0,0,13.4,0,30s13.4,30,30,30s30-13.4,30-30S46.6,0,30,0z M30,58.1C14.5,58.1,1.9,45.5,1.9,30
		S14.5,1.9,30,1.9c15.5,0,28.1,12.6,28.1,28.1C58.1,45.5,45.5,58.1,30,58.1z"/>
</g>
<g>
	<path class="st0" d="M36.5,21.3h-13v-2.2h13V21.3z M23.5,25.7h10.8v-2.2H23.5V25.7z M43,17c0-2.4-1.9-4.3-4.3-4.3c0,0,0,0,0,0H21.3
		c-2.4,0-4.3,1.9-4.3,4.3c0,0,0,0,0,0v8.7h2.2V17c0-1.2,1-2.2,2.2-2.2h17.3c1.2,0,2.2,1,2.2,2.2v0v8.7H43v-6.5c1.2,0,2.2,1,2.2,2.2
		V43c0,1.2-1,2.2-2.2,2.2H25.7c-1.2,0-2.2-1-2.2-2.2h15.2c1.5,0,3-0.8,3.7-2.2H17.6c0.8,1.3,2.2,2.2,3.7,2.2c0,2.4,1.9,4.3,4.3,4.3
		c0,0,0,0,0,0H43c2.4,0,4.3-1.9,4.3-4.3V21.3C47.3,18.9,45.4,17,43,17C43,17,43,17,43,17z M40.8,38.7h-26c-1.2,0-2.2-1-2.2-2.2V30
		c0-1.2,1-2.2,2.2-2.2h26c1.2,0,2.2,1,2.2,2.2v6.5C43,37.7,42,38.7,40.8,38.7C40.8,38.7,40.8,38.7,40.8,38.7z M24,30.4h-4v5.8h1.2
		v-2.4H24v-1.1h-2.8v-1.2H24V30.4z M26.2,30.4h-1.3v5.8h1.2L26.2,30.4z M31,35h-2.5v-4.7h-1.2v5.8H31V35z M36,30.4h-4.2v5.8h4.1V35
		H33v-1.3h2.8v-1.1H33v-1.2h2.9L36,30.4z"/>
</g>
</svg>
