<?xml version="1.0" encoding="utf-8"?>
<!-- Generator: Adobe Illustrator 24.1.0, SVG Export Plug-In . SVG Version: 6.00 Build 0)  -->
<svg version="1.1" id="Layer_1" xmlns="http://www.w3.org/2000/svg" xmlns:xlink="http://www.w3.org/1999/xlink" x="0px" y="0px"
	 viewBox="0 0 80 80" style="enable-background:new 0 0 80 80;" xml:space="preserve">
<style type="text/css">
	.st0{fill:#FFFFFF;}
	.st1{fill:#7D1416;}
	.st2{fill:#400000;}
	.st3{fill:#CBCBCB;}
	.st4{fill:#EAAA3B;}
</style>
<circle cx="40.4" cy="40.4" r="39.6"/>
<circle class="st0" cx="39.6" cy="39.6" r="39.6"/>
<path d="M76.1,38.9c0,20.5-16.6,37.2-37.2,37.2C18.4,76.1,1.8,59.5,1.8,39S18.4,1.8,39,1.8c0,0,0,0,0,0
	C59.5,1.8,76.1,18.4,76.1,38.9z"/>
<path class="st1" d="M76.8,39.6c0,20.5-16.7,37.2-37.2,37.2S2.4,60.1,2.4,39.6C2.4,19,19.1,2.4,39.6,2.4
	C60.1,2.4,76.8,19.1,76.8,39.6C76.8,39.6,76.8,39.6,76.8,39.6z"/>
<path class="st2" d="M69.9,22.5C60.4,5.8,39.3-0.1,22.5,9.3S-0.1,39.9,9.3,56.6c2.6,4.7,6.3,8.7,10.8,11.7
	C23.9,43.8,44.8,24.3,69.9,22.5z"/>
<path class="st0" d="M33.1,22.6h30.1l0,0v14.1c0,10.1-8.1,18.2-18.2,18.2H14.9l0,0V40.9C14.9,30.8,23,22.6,33.1,22.6L33.1,22.6z"/>
<polygon class="st3" points="24.2,58.5 14.8,58.5 14.8,55 27.4,55 "/>
<polygon class="st3" points="53.8,19.1 63.2,19.1 63.2,22.6 50.6,22.6 "/>
<circle cx="39.9" cy="55" r="8"/>
<circle class="st4" cx="39.3" cy="54.2" r="8"/>
<rect x="20" y="29.4" class="st1" width="30.4" height="2.9"/>
<rect x="20" y="34.3" class="st1" width="30.4" height="2.9"/>
<rect x="51.9" y="34.3" class="st1" width="6" height="2.9"/>
<rect x="20" y="39.1" class="st1" width="37.8" height="2.9"/>
<path d="M44.6,50.5c-0.3-0.3-0.8-0.4-1.2-0.1c-0.1,0.1-0.1,0.1-0.2,0.2l-5.1,7l-2.5-3c-0.3-0.4-0.8-0.4-1.1-0.2
	c-0.1,0.1-0.1,0.1-0.2,0.2c-0.4,0.5-0.4,1.1,0,1.6l3.2,3.9c0.2,0.2,0.4,0.3,0.7,0.3l0,0c0.3,0,0.5-0.2,0.7-0.4l5.7-7.9
	C45,51.7,45,51,44.6,50.5z"/>
<path class="st0" d="M44,49.8c-0.3-0.3-0.8-0.4-1.1-0.1c-0.1,0.1-0.1,0.1-0.2,0.2l-5.1,7l-2.5-3c-0.3-0.4-0.8-0.4-1.1-0.2
	c-0.1,0.1-0.1,0.1-0.2,0.2c-0.4,0.5-0.4,1.1,0,1.6l3.2,3.9c0.2,0.2,0.4,0.3,0.6,0.3l0,0c0.3,0,0.5-0.2,0.6-0.4l5.7-7.9
	C44.4,50.9,44.4,50.2,44,49.8z"/>
</svg>
