<svg id="Layer_1" data-name="Layer 1" xmlns="http://www.w3.org/2000/svg" viewBox="0 0 60 60"><defs><style>.cls-1{fill:#0098ea;}</style></defs><title>icon-download-green-16h-proximax-sirius-wallet</title><path class="cls-1" d="M30,0A30,30,0,1,0,60,30,30,30,0,0,0,30,0Zm0,58.12A28.12,28.12,0,1,1,58.13,30,28.15,28.15,0,0,1,30,58.12Z"/><path class="cls-1" d="M38.65,28a1.09,1.09,0,0,0-1-.64H33.28V13.09A1.09,1.09,0,0,0,32.19,12H27.81a1.09,1.09,0,0,0-1.09,1.09V27.31H22.34a1.09,1.09,0,0,0-1,.64,1.11,1.11,0,0,0,.17,1.18l7.66,8.75a1.09,1.09,0,0,0,1.64,0l7.66-8.75A1.11,1.11,0,0,0,38.65,28Z"/><path class="cls-1" d="M42,36.06v6.56H18V36.06H13.59v8.75A2.19,2.19,0,0,0,15.78,47H44.22a2.19,2.19,0,0,0,2.19-2.19V36.06Z"/></svg>