<svg id="Layer_1" data-name="Layer 1" xmlns="http://www.w3.org/2000/svg" xmlns:xlink="http://www.w3.org/1999/xlink" viewBox="0 0 70 80"><defs><style>.cls-1{fill:url(#linear-gradient);}</style><linearGradient id="linear-gradient" x1="66.5" y1="74.09" x2="-2.97" y2="4.62" gradientUnits="userSpaceOnUse"><stop offset="0" stop-color="#306eb5"/><stop offset="1" stop-color="#2ba1b9"/></linearGradient></defs><title>icon-supercontracts-gradient-80h-proximax-sirius-wallet</title><path class="cls-1" d="M9.12,8.25a.82.82,0,0,1,0,.44.83.83,0,0,1-.06.21A.72.72,0,0,1,9,9.09a.7.7,0,0,1-.13.17A1.13,1.13,0,0,1,8,9.59a1.1,1.1,0,0,1-.79-.33,1.11,1.11,0,0,1-.33-.79,1.14,1.14,0,0,1,.33-.8l.16-.13.19-.1a.61.61,0,0,1,.21-.06,1.14,1.14,0,0,1,1,.29A1,1,0,0,1,9,7.85.72.72,0,0,1,9.06,8,.83.83,0,0,1,9.12,8.25Zm8.06-.9A1.12,1.12,0,1,0,18.3,8.47,1.12,1.12,0,0,0,17.18,7.35ZM27.37,8a1.14,1.14,0,0,0-.1-.19.75.75,0,0,0-.14-.17L27,7.54l-.19-.1a.86.86,0,0,0-.21-.07,1.09,1.09,0,0,0-.44,0,.86.86,0,0,0-.21.07l-.2.1-.16.14a1.15,1.15,0,0,0-.14.17A1.18,1.18,0,0,0,25.3,8a1.66,1.66,0,0,0-.06.21,1.22,1.22,0,0,0,0,.44,1.66,1.66,0,0,0,.06.21,1.18,1.18,0,0,0,.11.19,1.15,1.15,0,0,0,.14.17,1.11,1.11,0,0,0,.79.33,1.13,1.13,0,0,0,.79-.33.75.75,0,0,0,.14-.17,1.14,1.14,0,0,0,.1-.19,1.72,1.72,0,0,0,.07-.21,1.22,1.22,0,0,0,0-.44A1.72,1.72,0,0,0,27.37,8ZM67,65.93v3.6c0,5.82-5.3,10.55-11.8,10.55H11.84c-.37,0-.75,0-1.11,0C4.68,79.53.11,75.08,0,69.65v-67A2.61,2.61,0,0,1,2.65.08H57.37A2.61,2.61,0,0,1,60,2.69V20.12a2.62,2.62,0,1,1-5.23,0V15.5H5.26v54c0,2.74,2.54,5,5.9,5.3.23,0,.45,0,.68,0,3.63,0,6.58-2.39,6.58-5.33v-3.6A2.61,2.61,0,0,1,21,63.32h43.4A2.61,2.61,0,0,1,67,65.93ZM5.26,10.27H54.75v-5H5.26ZM61.81,68.55H23.64v1c0,.32,0,.63-.05,1l0,.24a9.1,9.1,0,0,1-.16.91s0,.07,0,.11c-.07.27-.15.53-.23.79l-.09.25a7.76,7.76,0,0,1-.34.84l0,0a7.74,7.74,0,0,1-.44.8l-.1.18-.14.22H55.24c3.62,0,6.57-2.39,6.57-5.33ZM70,54.08v5.53a1.87,1.87,0,0,1-1.86,1.87H40.71a1.87,1.87,0,0,1-1.87-1.87V54.08a7.37,7.37,0,0,1,7.37-7.36H50V45.44a10.94,10.94,0,0,1-4.22-9c0-5.74,3.85-10.41,8.58-10.41S63,30.74,63,36.48a11,11,0,0,1-4.23,9v1.28H62.6A7.37,7.37,0,0,1,70,54.08ZM52.75,42.74a3.7,3.7,0,0,0,1.21.38h0a1.23,1.23,0,0,0,.27,0h.14l.26,0h.16l.28,0,.13,0,.31-.1.1,0a3,3,0,0,0,.41-.18c1.92-1,3.21-3.49,3.21-6.26,0-3.68-2.18-6.68-4.86-6.68s-4.85,3-4.85,6.68C49.55,39.25,50.84,41.76,52.75,42.74Zm1.7,4.14h-.09a5.83,5.83,0,0,1-.59,0v2a.64.64,0,0,0,0,.24l.06.08a.6.6,0,0,0,.09.13.47.47,0,0,0,.09.06l.12.07a.5.5,0,0,0,.13,0h.12l.11,0a.72.72,0,0,0,.49-.71v-1.9A5.63,5.63,0,0,1,54.45,46.88Zm11.78,7.2a3.64,3.64,0,0,0-3.63-3.63H58.46a4.39,4.39,0,0,1-3,2.63l-.09,0a4.86,4.86,0,0,1-.55.1h-.11l-.32,0h0A4.15,4.15,0,0,1,53,53h0l-.37-.14-.11-.06a2.1,2.1,0,0,1-.26-.13l-.17-.1-.18-.12-.2-.15-.14-.11-.1-.09a.76.76,0,0,1-.09-.09,1.06,1.06,0,0,1-.15-.15l-.16-.18c0-.06-.09-.12-.14-.17l-.14-.19c-.08-.12-.16-.25-.23-.38l-.06-.12c0-.1-.1-.21-.14-.31l0,0H46.21a3.64,3.64,0,0,0-3.64,3.63v3.67H66.23Z"/></svg>