<svg id="Layer_1" data-name="Layer 1" xmlns="http://www.w3.org/2000/svg" viewBox="0 0 16 16"><defs><style>.cls-1{fill:#2ba1b9;}</style></defs><title>icon-file-green-16h-proximax-sirius-wallet</title><path class="cls-1" d="M11,4H5V3h6ZM5,6h5V5H5Zm9-4a2,2,0,0,0-2-2H4A2,2,0,0,0,2,2V6H3V2A1,1,0,0,1,4,1h8a1,1,0,0,1,1,1V6h1V3a1,1,0,0,1,1,1V14a1,1,0,0,1-1,1H6a1,1,0,0,1-1-1h7a2,2,0,0,0,1.72-1H2.28A2,2,0,0,0,4,14a2,2,0,0,0,2,2h8a2,2,0,0,0,2-2V4A2,2,0,0,0,14,2ZM13,12H1a1,1,0,0,1-1-1V8A1,1,0,0,1,1,7H13a1,1,0,0,1,1,1v3A1,1,0,0,1,13,12ZM5.25,8.17H3.36v2.66h.57V9.73H5.22v-.5H3.93V8.67H5.25Zm1,0H5.65v2.66h.56Zm2.23,2.16H7.31V8.17H6.74v2.66h1.7Zm2.28-2.16H8.83v2.66h1.89v-.5H9.4v-.6h1.29v-.5H9.4V8.67h1.32Z"/></svg>