<svg id="Layer_1" data-name="Layer 1" xmlns="http://www.w3.org/2000/svg" viewBox="0 0 60 60"><defs><style>.cls-1{fill:#0098ea;}</style></defs><title>icon-namespaces-green-16h-proximax-sirius-wallet copy</title><path class="cls-1" d="M30,0A30,30,0,1,0,60,30,30,30,0,0,0,30,0Zm0,58.12A28.12,28.12,0,1,1,58.13,30,28.15,28.15,0,0,1,30,58.12Z"/><path class="cls-1" d="M45.93,20.36l-5.76-5.75a5.52,5.52,0,0,0-7.8,0L16,31a1.38,1.38,0,0,0,0,1.94l1.92,1.92-5.06,5a1.36,1.36,0,0,0,0,1.95l6,5.89a1.36,1.36,0,0,0,1,.4,1.33,1.33,0,0,0,1-.4l5-5,1.84,1.84a1.35,1.35,0,0,0,1,.4h0a1.37,1.37,0,0,0,1-.4L41,33A1.37,1.37,0,1,0,39.09,31L28.56,41.62,28,41.1l-7.35-7.35L18.9,32,34.31,16.55a2.78,2.78,0,0,1,3.92,0L44,22.3a2.72,2.72,0,0,1,0,3.86,1.37,1.37,0,1,0,1.94,1.94A5.49,5.49,0,0,0,45.93,20.36ZM19.85,36.79h0l3.95,4-4,4-4-4Zm16.89-15A2.2,2.2,0,1,1,34.55,24,2.19,2.19,0,0,1,36.74,21.77Z"/></svg>