<svg id="Layer_1" data-name="Layer 1" xmlns="http://www.w3.org/2000/svg" viewBox="0 0 75 60"><defs><style>.cls-1{fill:#2ba1b9;}</style></defs><title>icon-transactions-green-60h-proximax-sirius-wallet</title><path class="cls-1" d="M74.22,19.89,55.47.8a2.64,2.64,0,0,0-3.79,0,2.76,2.76,0,0,0-.79,1.93v8.18H32.14a2.73,2.73,0,0,0,0,5.45H53.57a2.7,2.7,0,0,0,2.68-2.72V9.31L68.53,21.82,56.25,34.33V30a2.7,2.7,0,0,0-2.68-2.73H24.11V19.09a2.67,2.67,0,0,0-4.58-1.93L.78,36.25a2.78,2.78,0,0,0,0,3.86L19.53,59.2a2.69,2.69,0,0,0,1.9.8,2.55,2.55,0,0,0,1-.21,2.73,2.73,0,0,0,1.66-2.52V49.09H42.86a2.73,2.73,0,0,0,0-5.45H21.43a2.7,2.7,0,0,0-2.68,2.72v4.33L6.47,38.18,18.75,25.67V30a2.7,2.7,0,0,0,2.68,2.73H50.89v8.18a2.67,2.67,0,0,0,4.58,1.93L74.22,23.75A2.78,2.78,0,0,0,74.22,19.89Z"/></svg>