<?xml version="1.0" encoding="utf-8"?>
<!-- Generator: Adobe Illustrator 24.1.0, SVG Export Plug-In . SVG Version: 6.00 Build 0)  -->
<svg version="1.1" id="Layer_1" xmlns="http://www.w3.org/2000/svg" xmlns:xlink="http://www.w3.org/1999/xlink" x="0px" y="0px"
	 viewBox="0 0 80 80" style="enable-background:new 0 0 80 80;" xml:space="preserve">
<style type="text/css">
	.st0{fill:#F3F3F3;}
	.st1{fill:#7D1416;}
	.st2{fill:#400000;}
	.st3{fill:#E8AA43;}
	.st4{fill:#FFFFFF;}
</style>
<circle cx="40.4" cy="40.4" r="39.6"/>
<circle class="st0" cx="39.6" cy="39.6" r="39.6"/>
<path d="M76.1,38.9c0,20.5-16.6,37.2-37.2,37.2C18.4,76.1,1.8,59.5,1.8,39S18.4,1.8,39,1.8c0,0,0,0,0,0
	C59.5,1.8,76.1,18.4,76.1,38.9z"/>
<path class="st1" d="M76.8,39.6c0,20.5-16.7,37.2-37.2,37.2S2.4,60.1,2.4,39.6C2.4,19,19.1,2.4,39.6,2.4
	C60.1,2.4,76.8,19.1,76.8,39.6C76.8,39.6,76.8,39.6,76.8,39.6z"/>
<path class="st2" d="M69.9,22.5C60.4,5.8,39.3-0.1,22.5,9.3S-0.1,39.9,9.3,56.6c2.6,4.7,6.3,8.7,10.8,11.7
	C23.9,43.8,44.8,24.3,69.9,22.5z"/>
<path d="M39.8,61.7c3.6,0,6.7-1.9,7.4-4.4H32.4C33.1,59.9,36.2,61.7,39.8,61.7z"/>
<path d="M60.3,50.3c0-0.1,0-0.3-0.1-0.4c-0.1-0.2-0.1-0.3-0.2-0.5c-0.1-0.1-0.1-0.2-0.2-0.4c-0.1-0.2-0.3-0.3-0.4-0.5
	c-0.1-0.1-0.1-0.2-0.2-0.2c-1.1-0.9-2.1-2-2.8-3.2c0-0.1-0.1-0.2-0.1-0.3c-0.2-0.3-0.3-0.6-0.5-0.9s-0.3-0.6-0.4-0.9
	c0-0.1-0.1-0.2-0.1-0.3c-0.2-0.4-0.3-0.8-0.4-1.2l0,0c-0.2-0.9-0.3-1.8-0.4-2.7l0,0c0-0.1,0-0.3,0-0.4V33
	c-0.1-7.6-6.3-13.7-13.9-13.7c0,0,0,0-0.1,0l0,0c-7.6-0.1-13.8,6-13.9,13.6c0,0,0,0,0,0v5.4c0,0.1,0,0.3,0,0.4l0,0
	c0,0.9-0.2,1.8-0.4,2.7l0,0c-0.1,0.4-0.2,0.8-0.4,1.2c0,0.1-0.1,0.2-0.1,0.3c-0.1,0.3-0.2,0.6-0.4,0.9s-0.3,0.6-0.5,0.9
	c0,0.1-0.1,0.2-0.1,0.3c-0.8,1.2-1.7,2.3-2.8,3.2c-0.1,0.1-0.2,0.2-0.2,0.2c-0.1,0.1-0.3,0.3-0.4,0.5c-0.1,0.1-0.1,0.2-0.2,0.4
	c-0.1,0.2-0.2,0.3-0.2,0.5c0,0.1,0,0.3-0.1,0.4c0,0.2-0.1,0.4-0.1,0.5c0,0.1,0,0.3,0,0.4c0,0.1,0,0.3,0,0.4c0,0,0,0.1,0,0.1
	s0,0.1,0,0.1c0,0.1,0.1,0.2,0.1,0.2l0.1,0.2c0.1,0.1,0.1,0.3,0.2,0.4c0,0,0,0.1,0.1,0.1c0.1,0.1,0.2,0.3,0.3,0.4l0,0
	c0.7,0.7,1.7,1.1,2.8,1.1h32.5c1,0,2-0.4,2.8-1.1l0,0c0.1-0.1,0.2-0.3,0.3-0.4c0,0,0-0.1,0.1-0.1c0.1-0.1,0.2-0.3,0.2-0.4l0.1-0.2
	l0.1-0.2c0,0,0-0.1,0-0.1c0,0,0-0.1,0-0.1c0-0.1,0-0.3,0-0.4c0-0.1,0-0.3,0-0.4C60.3,50.7,60.3,50.5,60.3,50.3z"/>
<path class="st3" d="M31.4,56.3h14.7c-0.7,2.5-3.7,4.4-7.4,4.4S32,58.8,31.4,56.3z"/>
<path class="st4" d="M59.3,49.8c0,0.1,0,0.3,0,0.4c0,0.1,0,0.3,0,0.4c0,0,0,0.1,0,0.1s0,0,0,0.1c0,0.1-0.1,0.2-0.1,0.2l-0.1,0.2
	c-0.1,0.1-0.1,0.3-0.2,0.4l-0.1,0.1c-0.1,0.1-0.2,0.3-0.3,0.4l0,0c-0.7,0.7-1.7,1.1-2.8,1.1H23.3c-1,0-2-0.4-2.8-1.1l0,0
	c-0.1-0.1-0.2-0.3-0.3-0.4c0,0,0-0.1-0.1-0.1c-0.1-0.1-0.1-0.2-0.2-0.4l-0.1-0.2c0-0.1-0.1-0.2-0.1-0.2c0,0,0,0,0-0.1
	c0,0,0-0.1,0-0.1c0-0.1,0-0.3,0-0.4c0-0.1,0-0.3,0-0.4c0-0.2,0-0.3,0.1-0.5c0-0.1,0-0.3,0.1-0.4c0-0.2,0.1-0.3,0.1-0.5
	c0.1-0.1,0.1-0.3,0.2-0.4c0.1-0.2,0.3-0.3,0.4-0.5c0.1-0.1,0.1-0.2,0.2-0.2c1.1-0.9,2.1-2,2.8-3.2c0-0.1,0.1-0.2,0.1-0.3
	c0.2-0.3,0.3-0.6,0.5-0.9c0.1-0.3,0.3-0.6,0.4-0.9l0.1-0.3c0.2-0.4,0.3-0.8,0.4-1.2l0,0c0.2-0.9,0.3-1.8,0.4-2.7l0,0
	c0-0.1,0-0.3,0-0.4v-5.5c0.1-7.6,6.3-13.7,13.9-13.6c0,0,0,0,0,0l0,0c7.6-0.1,13.8,6,13.9,13.6v5.4c0,0.1,0,0.3,0,0.4l0,0
	c0,0.9,0.2,1.8,0.4,2.7l0,0c0.1,0.4,0.2,0.8,0.4,1.2l0.1,0.3c0.1,0.3,0.2,0.6,0.4,0.9s0.3,0.6,0.5,0.9c0,0.1,0.1,0.2,0.2,0.3
	c0.8,1.2,1.7,2.3,2.8,3.2c0.1,0.1,0.1,0.2,0.2,0.2c0.1,0.1,0.3,0.3,0.4,0.5c0.1,0.1,0.1,0.2,0.2,0.4c0.1,0.2,0.2,0.3,0.2,0.5
	c0,0.1,0.1,0.3,0.1,0.4C59.3,49.4,59.3,49.6,59.3,49.8z"/>
<polygon class="st4" points="39.5,24.1 39.5,24.1 39.5,24.1 39.5,24.1 "/>
</svg>
