<svg id="Layer_1" data-name="Layer 1" xmlns="http://www.w3.org/2000/svg" viewBox="0 0 16 16"><defs><style>.cls-1{fill:#999;}</style></defs><title>icon-wallet-name-light-gray</title><path class="cls-1" d="M13.29,9.44a.68.68,0,0,1-.69.67.68.68,0,1,1,0-1.35A.68.68,0,0,1,13.29,9.44Zm2.71-2v3.92h-.78v3.09A1.54,1.54,0,0,1,13.67,16H1.55A1.55,1.55,0,0,1,0,14.46V3.92A1.55,1.55,0,0,1,1.55,2.39H6.16L10.28.12A.92.92,0,0,1,10.73,0a1,1,0,0,1,.82.47l1.07,1.92h1.05a1.54,1.54,0,0,1,1.55,1.53V7.45ZM13,3l.46.82h1.16A.92.92,0,0,0,13.67,3Zm-8.14.82h7.89L11,.77a.33.33,0,0,0-.43-.12Zm9.77,7.55H12.34a1.9,1.9,0,0,1-1.91-1.89V9.35a1.9,1.9,0,0,1,1.91-1.9H14.6v-3H1.74a.3.3,0,0,1-.31-.3.31.31,0,0,1,.31-.31H3.56L5,3H1.55a.93.93,0,0,0-.93.92V14.46a.93.93,0,0,0,.93.93H13.67a.93.93,0,0,0,.93-.93Zm.78-3.3h-3a1.28,1.28,0,0,0-1.29,1.27v.14a1.28,1.28,0,0,0,1.29,1.27h3Z"/></svg>