<svg id="Layer_1" data-name="Layer 1" xmlns="http://www.w3.org/2000/svg" viewBox="0 0 80 80"><defs><style>.cls-1{fill:#cbcbcb;}</style></defs><title>icon-cross-chain-swap-disabled-80h</title><path class="cls-1" d="M40.19,51.16l-3.4-3.58a.28.28,0,0,0-.28-.06.25.25,0,0,0-.16.23l0,1.29A7.49,7.49,0,0,1,32.16,41l1.07.72a.24.24,0,0,0,.28,0,.24.24,0,0,0,.11-.26l-.93-4.85a.25.25,0,0,0-.17-.19.23.23,0,0,0-.25.06l-3.58,3.4a.26.26,0,0,0-.06.28.25.25,0,0,0,.23.16l1.63.05a9.27,9.27,0,0,0,5.37,10.42L35,52.12a.24.24,0,0,0,0,.28.24.24,0,0,0,.26.11l4.85-.93a.24.24,0,0,0,.19-.17A.23.23,0,0,0,40.19,51.16Z"/><rect class="cls-1" x="56.89" y="55.58" width="0.44" height="0.55" transform="translate(-22.49 62.62) rotate(-49.22)"/><rect class="cls-1" x="56.31" y="56.25" width="0.44" height="0.55" transform="translate(-23.2 62.42) rotate(-49.22)"/><path class="cls-1" d="M67.46,53.6V49.32a.69.69,0,0,0-.27-.55v0h0L67,48.67,62.7,47.15a.73.73,0,0,0-.58-.06l-4.43,1.57a1,1,0,0,0-.18.1h0a.75.75,0,0,0-.24.41,1,1,0,0,0,0,.17v5.84a.67.67,0,0,0,.27.55h0a.59.59,0,0,0,.17.1l4.24,1.5h0l.19.07a.93.93,0,0,0,.23,0,.67.67,0,0,0,.34-.1h0l0,0v0L67,55.83a.65.65,0,0,0,.16-.09l0,0v0l.07-.06.19-.52V53.6Zm-5.81,2.19-1.73-.62,1.73-.61Zm0-2.69-3,1.08V50.33l3,1.08Zm.67-2.92-2.4-.85,2.41-.85,2.4.85ZM63,55.77v-1.2l1.7.6Zm3-1.58-3-1.08V51.39l3-1.08Z"/><rect class="cls-1" x="51.36" y="55.38" width="0.55" height="0.44" transform="translate(-22.7 40.39) rotate(-35.55)"/><rect class="cls-1" x="51.88" y="56.1" width="0.55" height="0.44" transform="translate(-23.02 40.81) rotate(-35.54)"/><rect class="cls-1" x="52.39" y="56.82" width="0.55" height="0.44" transform="translate(-23.35 41.26) rotate(-35.55)"/><rect class="cls-1" x="55.73" y="56.92" width="0.44" height="0.55" transform="translate(-23.91 62.21) rotate(-49.22)"/><rect class="cls-1" x="55.16" y="57.59" width="0.44" height="0.55" transform="translate(-24.61 62.01) rotate(-49.22)"/><path class="cls-1" d="M55.08,68.14l4-1.43a.8.8,0,0,0,.16-.08h0v0a.72.72,0,0,0,.19-.24l0-.08h0a.85.85,0,0,0,0-.22V60.21a.68.68,0,0,0-.28-.55v0h0a.36.36,0,0,0-.15-.08L54.82,58a.7.7,0,0,0-.58-.05l-4.43,1.56-.19.1h0v0a.65.65,0,0,0-.25.41.88.88,0,0,0,0,.16v5.84a.72.72,0,0,0,.28.56h0a.51.51,0,0,0,.18.09l3.74,1.33.56.2h0l.13.05a.59.59,0,0,0,.23,0h.07Zm.06-1.48V65.45l1.71.6Zm3-1.59-3-1.08V62.27l3-1.08Zm-4.42,1.6L52,66.06l1.74-.62Zm0-2.69-3,1.08V61.21l3,1.08Zm.67-2.91L52,60.21l2.42-.85,2.4.85Z"/><rect class="cls-1" x="52.91" y="57.55" width="0.55" height="0.44" transform="translate(-23.67 41.69) rotate(-35.55)"/><rect class="cls-1" x="22.99" y="25.05" width="0.46" height="0.57" transform="translate(-11.13 26.37) rotate(-49.22)"/><rect class="cls-1" x="23.59" y="24.35" width="0.46" height="0.57" transform="translate(-10.4 26.58) rotate(-49.22)"/><path class="cls-1" d="M12.48,27.68v4.43a.73.73,0,0,0,.29.58v0h0a.8.8,0,0,0,.16.08l4.46,1.58a.7.7,0,0,0,.6.06l4.59-1.63a.57.57,0,0,0,.19-.1h0v0a.68.68,0,0,0,.25-.42.57.57,0,0,0,0-.18V26a.7.7,0,0,0-.29-.57h0a.5.5,0,0,0-.19-.1L18.23,23.8h0l-.2-.07a.67.67,0,0,0-.24,0,.64.64,0,0,0-.35.1h-.08v0L13,25.37a.65.65,0,0,0-.16.09l0,0v0l-.07.06-.21.55v1.58Zm6-2.27,1.79.64-1.79.64Zm0,2.79,3.15-1.12v4L18.51,30Zm-.7,3,2.49.89L17.8,33l-2.49-.88Zm-.73-5.79v1.25l-1.77-.63Zm-3.16,1.64,3.16,1.12V30l-3.16,1.12Z"/><rect class="cls-1" x="28.6" y="25.38" width="0.57" height="0.46" transform="translate(-9.5 21.57) rotate(-35.55)"/><rect class="cls-1" x="28.07" y="24.63" width="0.57" height="0.46" transform="translate(-9.17 21.12) rotate(-35.54)"/><rect class="cls-1" x="27.53" y="23.88" width="0.57" height="0.46" transform="translate(-8.83 20.67) rotate(-35.55)"/><rect class="cls-1" x="24.18" y="23.66" width="0.46" height="0.57" transform="translate(-9.66 26.79) rotate(-49.22)"/><rect class="cls-1" x="24.78" y="22.96" width="0.46" height="0.57" transform="translate(-8.93 27.01) rotate(-49.22)"/><path class="cls-1" d="M25.33,12.6l-4.19,1.49a.8.8,0,0,0-.16.08h-.05v0a.88.88,0,0,0-.19.24.36.36,0,0,1,0,.09h0a.62.62,0,0,0,0,.23v6.06a.72.72,0,0,0,.28.57v0h0l.16.08,4.47,1.58a.7.7,0,0,0,.6.06l4.59-1.62a.72.72,0,0,0,.19-.11h0v0a.73.73,0,0,0,.25-.43.88.88,0,0,0,0-.17V14.74a.75.75,0,0,0-.28-.57h0a.77.77,0,0,0-.18-.1L26.92,12.7l-.58-.21h0l-.13,0a.67.67,0,0,0-.24,0H25.9Zm-.07,1.54v1.25l-1.77-.62Zm-3.17,1.65,3.17,1.12v1.78l-3.17,1.12Zm4.59-1.66,1.8.63-1.8.64Zm0,2.78,3.16-1.11v4l-3.16-1.12Zm-.69,3,2.49.88-2.5.89-2.49-.89Z"/><rect class="cls-1" x="27" y="23.13" width="0.57" height="0.46" transform="translate(-8.49 20.22) rotate(-35.55)"/><path class="cls-1" d="M34.68,34.3,34.22,33H30.55l-.46,1.34H27.37l3.5-9.3h3l3.51,9.3Zm-2.3-6.93-1.19,3.5h2.38Z"/><path class="cls-1" d="M41.74,55.68v-9.3H47a2.44,2.44,0,0,1,2.72,2.37,2.09,2.09,0,0,1-1.59,2.14,2.22,2.22,0,0,1,1.77,2.27,2.47,2.47,0,0,1-2.73,2.52Zm5.55-6.51a.76.76,0,0,0-.82-.77H44.14V50h2.33A.76.76,0,0,0,47.29,49.17Zm.18,3.65a.83.83,0,0,0-.92-.83H44.14v1.67h2.41A.82.82,0,0,0,47.47,52.82Z"/><path class="cls-1" d="M40,0A40,40,0,1,0,80,40,40,40,0,0,0,40,0Zm0,77.5A37.5,37.5,0,1,1,77.5,40,37.54,37.54,0,0,1,40,77.5Z"/></svg>