<svg id="Layer_1" data-name="Layer 1" xmlns="http://www.w3.org/2000/svg" viewBox="0 0 16 16"><defs><style>.cls-1{fill:#7bafb5;}</style></defs><title>icon-list-light-green copy</title><path class="cls-1" d="M8.19,10.66v.42a.47.47,0,0,1-.47.47H2.78a.47.47,0,0,1-.47-.47v-.42A1.49,1.49,0,0,1,3.79,9.17h.39a.36.36,0,0,0,.36-.36.28.28,0,0,0-.09-.2,2.42,2.42,0,0,1-.53-.81l-.08,0c-.21,0-.47-.48-.47-.8s0-.59.25-.59h.06c0-.89.17-2,1.57-2s1.56,1.11,1.58,2h.08c.21,0,.24.26.24.59s-.25.8-.46.8a.12.12,0,0,1-.09,0,2.68,2.68,0,0,1-.55.82.3.3,0,0,0-.08.2.36.36,0,0,0,.36.36h.38A1.49,1.49,0,0,1,8.19,10.66Zm4.72-5.58H8a3.19,3.19,0,0,1,.24,1,.53.53,0,0,1,.21.25h4.5A.35.35,0,0,0,13.25,6V5.43A.35.35,0,0,0,12.91,5.08Zm.34,3.18V7.71a.35.35,0,0,0-.34-.35H8.49a1.19,1.19,0,0,1-.67.87l0,0v.33H12.9A.35.35,0,0,0,13.25,8.26Zm-.34,1.38H9.29a2,2,0,0,1,.29,1v.23h3.33a.34.34,0,0,0,.34-.35V10A.35.35,0,0,0,12.91,9.64ZM16,3.74v8.52a2.11,2.11,0,0,1-2.08,2.14H2.08A2.11,2.11,0,0,1,0,12.26V3.74A2.11,2.11,0,0,1,2.08,1.6H13.92A2.11,2.11,0,0,1,16,3.74Zm-1,0a1.12,1.12,0,0,0-1.1-1.13H2.08A1.12,1.12,0,0,0,1,3.74v8.52a1.12,1.12,0,0,0,1.1,1.13H13.92A1.12,1.12,0,0,0,15,12.26Z"/></svg>