<?xml version="1.0" encoding="utf-8"?>
<!-- Generator: Adobe Illustrator 24.1.0, SVG Export Plug-In . SVG Version: 6.00 Build 0)  -->
<svg version="1.1" id="Layer_1" xmlns="http://www.w3.org/2000/svg" xmlns:xlink="http://www.w3.org/1999/xlink" x="0px" y="0px"
	 viewBox="0 0 80 80" style="enable-background:new 0 0 80 80;" xml:space="preserve">
<style type="text/css">
	.st0{fill:#FFFFFF;}
	.st1{fill:#7D1416;}
	.st2{fill:#400000;}
	.st3{fill:#CBCBCB;}
	.st4{fill:#EAAA3B;}
</style>
<circle cx="40.4" cy="40.4" r="39.6"/>
<circle class="st0" cx="39.6" cy="39.6" r="39.6"/>
<path d="M76.1,38.9c0,20.5-16.6,37.2-37.2,37.2C18.4,76.1,1.8,59.5,1.8,39S18.4,1.8,39,1.8c0,0,0,0,0,0
	C59.5,1.8,76.1,18.4,76.1,38.9z"/>
<path class="st1" d="M76.8,39.6c0,20.5-16.7,37.2-37.2,37.2S2.4,60.1,2.4,39.6C2.4,19,19.1,2.4,39.6,2.4
	C60.1,2.4,76.8,19.1,76.8,39.6C76.8,39.6,76.8,39.6,76.8,39.6z"/>
<path class="st2" d="M69.9,22.5C60.4,5.8,39.3-0.1,22.5,9.3S-0.1,39.9,9.3,56.6c2.6,4.7,6.3,8.7,10.8,11.7
	C23.9,43.8,44.8,24.3,69.9,22.5z"/>
<path d="M27,26.8h25.7c-0.2-2.7-2.4-4.8-5.1-4.8H17.9c-2.8,0-5.2,2.3-5.2,5.2v14.7c0,2.8,2.3,5.2,5.2,5.2h2V34
	C19.9,30.1,23.1,26.8,27,26.8z"/>
<path d="M64.7,34.8H35c-2.8,0-5.2,2.3-5.2,5.2c0,0,0,0,0,0v14.7c0,2.8,2.3,5.2,5.2,5.2h29.7c2.8,0,5.2-2.3,5.2-5.2V40
	C69.9,37.2,67.5,34.8,64.7,34.8C64.7,34.8,64.7,34.8,64.7,34.8z M49.5,38c2.9,0,5.7,0.7,8.3,1.9c-1.8-0.3-3.7-0.2-5.5,0.3
	c-0.3,0.1-0.7,0.2-1,0.2c-0.4-0.1-1-0.8-1.3-1.1c-0.5-0.5-1.1-1-1.8-1.3C48.6,38,49,38,49.5,38z M40.7,40.4v-0.3l0.3-0.1
	c1.7-0.8,3.5-1.4,5.4-1.7c0.1,0.1,0.2,0.2,0.3,0.3s0.3,0.4,0.5,0.7s0.4,0.5,0.5,0.8c0.2,0.4,0.7,1.1,0.9,1.5c0,0.1,0.1,0.3,0.1,0.4
	c0,0.1-0.1,0.2-0.2,0.3c-0.2,0.2-0.3,0.2-0.4,0.3c-0.7,0.5-1.4,1.1-2.1,1.6c-0.8,0.6-1.5,1.3-2.2,2c-0.5,0.5-1,1-1.5,1.6
	C41.1,45.4,40.6,42.9,40.7,40.4z M49.7,55.9L49.4,56l-0.2-0.2c-2.9-1.7-5.2-4.3-6.7-7.3c0.9-0.7,1.9-1.4,2.9-2
	c1.1-0.7,2.2-1.3,3.3-1.8c0.4-0.2,0.8-0.3,1.2-0.4c0.1,0,0.2,0,0.4,0c0.4,0.2,1,1.1,1,1.1l0,0c0.1,0.2,0.2,0.3,0.3,0.5
	s0.2,0.3,0.3,0.5l0.5,0.8c0.3,0.4,0.5,0.9,0.8,1.3c0.4,0.7,0.9,1.8,1.4,2.9C53.2,53.3,51.6,54.8,49.7,55.9L49.7,55.9z M55.3,50.4
	c-0.2-1-0.5-1.9-0.8-2.8c-0.2-0.5-0.3-1-0.5-1.4s-0.3-0.9-0.5-1.4c-0.8-2-0.7-2,0.8-2.8c1.2-0.7,2.5-1.1,3.8-1.2h0.1
	C58.2,44.2,57.2,47.5,55.3,50.4L55.3,50.4z"/>
<path d="M35,32.8h26.7c-0.5-2.3-2.6-4-5-4H27c-2.8,0-5.2,2.3-5.2,5.2c0,0,0,0,0,0v14.7c0,2.8,2.3,5.2,5.2,5.2h0.9V40
	C27.8,36,31,32.8,35,32.8C35,32.8,35,32.8,35,32.8z"/>
<path class="st3" d="M18.9,33c0-4,3.2-7.2,7.1-7.2c0,0,0,0,0,0h25.7c-0.2-2.7-2.4-4.8-5.1-4.8H16.9c-2.8,0-5.2,2.3-5.2,5.2v14.7
	c0,2.8,2.3,5.2,5.2,5.2h2L18.9,33z"/>
<path class="st4" d="M26.9,39c0-4,3.2-7.2,7.1-7.2c0,0,0,0,0,0h26.7c-0.5-2.3-2.6-4-5-4H26c-2.8,0-5.2,2.3-5.2,5.2c0,0,0,0,0,0v14.7
	c0,2.8,2.3,5.2,5.2,5.2h0.9V39z"/>
<path class="st0" d="M63.7,33.8H34c-2.8,0-5.2,2.3-5.2,5.2c0,0,0,0,0,0v14.7c0,2.8,2.3,5.2,5.2,5.2h29.7c2.8,0,5.2-2.3,5.1-5.2V39
	C68.9,36.2,66.5,33.8,63.7,33.8C63.7,33.8,63.7,33.8,63.7,33.8z M49.5,38c2.9,0,5.7,0.7,8.3,1.9c-1.8-0.3-3.7-0.2-5.5,0.3
	c-0.3,0.1-0.7,0.2-1,0.2c-0.4-0.1-1-0.8-1.3-1.1c-0.5-0.5-1.1-1-1.8-1.3C48.6,38,49,38,49.5,38z M40.7,40.4v-0.3l0.3-0.1
	c1.7-0.8,3.5-1.4,5.4-1.7c0.1,0.1,0.2,0.2,0.3,0.3s0.3,0.4,0.5,0.7s0.4,0.5,0.5,0.8c0.2,0.4,0.7,1.1,0.9,1.5c0,0.1,0.1,0.3,0.1,0.4
	c0,0.1-0.1,0.2-0.2,0.3c-0.2,0.2-0.3,0.2-0.4,0.3c-0.7,0.5-1.4,1.1-2.1,1.6c-0.8,0.6-1.5,1.3-2.2,2c-0.5,0.5-1,1-1.5,1.6
	C41.1,45.4,40.6,42.9,40.7,40.4z M49.7,55.9L49.4,56l-0.2-0.2c-2.9-1.7-5.2-4.3-6.7-7.3c0.9-0.7,1.9-1.4,2.9-2
	c1.1-0.7,2.2-1.3,3.3-1.8c0.4-0.2,0.8-0.3,1.2-0.4c0.1,0,0.2,0,0.4,0c0.4,0.2,1,1.1,1,1.1l0,0c0.1,0.2,0.2,0.3,0.3,0.5
	s0.2,0.3,0.3,0.5l0.5,0.8c0.3,0.4,0.5,0.9,0.8,1.3c0.4,0.7,0.9,1.8,1.4,2.9C53.2,53.3,51.6,54.8,49.7,55.9L49.7,55.9z M55.3,50.4
	c-0.2-1-0.5-1.9-0.8-2.8c-0.2-0.5-0.3-1-0.5-1.4s-0.3-0.9-0.5-1.4c-0.8-2-0.7-2,0.8-2.8c1.2-0.7,2.5-1.1,3.8-1.2h0.1
	C58.2,44.2,57.2,47.5,55.3,50.4L55.3,50.4z"/>
</svg>
