<svg id="Layer_1" data-name="Layer 1" xmlns="http://www.w3.org/2000/svg" viewBox="0 0 100 80"><defs><style>.cls-1{fill:#023c42;}</style></defs><title>icon-transactions-dark-green</title><path class="cls-1" d="M99,26.52,74,1.06a3.53,3.53,0,0,0-5,0,3.65,3.65,0,0,0-1,2.57v10.9h-25a3.64,3.64,0,0,0,0,7.28H71.43A3.61,3.61,0,0,0,75,18.18V12.41L91.38,29.09,75,45.77V40a3.61,3.61,0,0,0-3.57-3.64H32.14V25.45a3.6,3.6,0,0,0-3.57-3.63,3.53,3.53,0,0,0-2.52,1.06l-25,25.46a3.67,3.67,0,0,0,0,5.14l25,25.45A3.5,3.5,0,0,0,28.57,80a3.39,3.39,0,0,0,1.37-.28,3.64,3.64,0,0,0,2.2-3.36V65.45h25a3.64,3.64,0,0,0,0-7.27H28.57A3.61,3.61,0,0,0,25,61.82v5.77L8.62,50.91,25,34.23V40a3.61,3.61,0,0,0,3.57,3.64H67.86V54.55a3.6,3.6,0,0,0,3.57,3.63A3.53,3.53,0,0,0,74,57.12L99,31.66A3.67,3.67,0,0,0,99,26.52Z"/></svg>