<svg id="Layer_1" data-name="Layer 1" xmlns="http://www.w3.org/2000/svg" viewBox="0 0 80 80"><defs><style>.cls-1{fill:#023c42;}</style></defs><title>icon-voting-dark-green</title><path class="cls-1" d="M79,10.13,55.65.13A1.67,1.67,0,0,0,53.7.62L47,9a1.7,1.7,0,0,0-.33,1.4,1.66,1.66,0,0,0,.82,1.08L26.59,19.29a8.4,8.4,0,0,0-4.22,3.51L15.45,34.34a8.27,8.27,0,0,0-.3,8l.49,1H8.33A1.66,1.66,0,0,0,6.67,45V76.67h-5a1.67,1.67,0,1,0,0,3.33H58.33a1.67,1.67,0,1,0,0-3.33h-5v-17A1.67,1.67,0,0,0,51,58.13a25.36,25.36,0,0,1-3.81,1.48,1.59,1.59,0,0,0-.4.18L35.89,66.3A11.1,11.1,0,0,1,24.22,47.41l1.58-1,3.08-1.93a1.66,1.66,0,0,0,.72-1.9,12.38,12.38,0,0,0-1.74-3.45c2.55-1.09,6-3.08,7.7-5.1l0,0c.38.22.81.45,1.3.69l.07,0h0a18.7,18.7,0,0,0,4.63,1.55A31.17,31.17,0,0,0,37,43.71C35.57,44.33,32.7,46,26,50.22a7.77,7.77,0,0,0,8.17,13.22l11.45-6.87c1.8-.44,10.71-3.1,17.45-14A121.4,121.4,0,0,0,72.58,24l.18.09a5,5,0,0,0,5.72-.88A4.93,4.93,0,0,0,80,19.61V11.67A1.69,1.69,0,0,0,79,10.13Z"/></svg>