<svg id="Layer_1" data-name="Layer 1" xmlns="http://www.w3.org/2000/svg" viewBox="0 0 30 30"><defs><style>.cls-1{fill:#e8aa43;}</style></defs><title>icon-nodes-yellow-30h</title><path class="cls-1" d="M.42,10.68A2.3,2.3,0,0,0,0,12v6a2.3,2.3,0,0,0,.42,1.32H29.58A2.3,2.3,0,0,0,30,18V12a2.3,2.3,0,0,0-.42-1.32Zm4.83,6.61A2.29,2.29,0,1,1,7.5,15,2.27,2.27,0,0,1,5.25,17.29ZM17,14.75a.51.51,0,1,1,.5-.51A.5.5,0,0,1,17,14.75Zm1,1.52a.51.51,0,1,1,.5-.51A.5.5,0,0,1,18,16.27Zm1-1.52a.51.51,0,1,1,.5-.51A.5.5,0,0,1,19,14.75Zm1,1.52a.51.51,0,1,1,.5-.51A.5.5,0,0,1,20,16.27Zm1-1.52a.51.51,0,1,1,.5-.51A.5.5,0,0,1,21,14.75Zm1,1.52a.51.51,0,1,1,.5-.51A.5.5,0,0,1,22,16.27Zm1-1.52a.51.51,0,1,1,.5-.51A.5.5,0,0,1,23,14.75Zm1,1.52a.51.51,0,1,1,.5-.51A.5.5,0,0,1,24,16.27Zm1-1.52a.51.51,0,1,1,.5-.51A.5.5,0,0,1,25,14.75Zm1,1.52a.51.51,0,1,1,.5-.51A.5.5,0,0,1,26,16.27ZM27.7,0H2.3A2.32,2.32,0,0,0,0,2.34v6A2.34,2.34,0,0,0,.42,9.66H29.58A2.34,2.34,0,0,0,30,8.33v-6A2.32,2.32,0,0,0,27.7,0ZM5.25,7.63A2.29,2.29,0,1,1,7.5,5.34,2.27,2.27,0,0,1,5.25,7.63ZM17,5.08a.5.5,0,0,1-.5-.5.5.5,0,1,1,1,0A.5.5,0,0,1,17,5.08Zm1,1.53a.51.51,0,1,1,.5-.51A.5.5,0,0,1,18,6.61Zm1-1.53a.5.5,0,0,1-.5-.5.5.5,0,1,1,1,0A.5.5,0,0,1,19,5.08Zm1,1.53a.51.51,0,1,1,.5-.51A.5.5,0,0,1,20,6.61Zm1-1.53a.5.5,0,0,1-.5-.5.5.5,0,1,1,1,0A.5.5,0,0,1,21,5.08Zm1,1.53a.51.51,0,1,1,.5-.51A.5.5,0,0,1,22,6.61Zm1-1.53a.5.5,0,0,1-.5-.5.5.5,0,1,1,1,0A.5.5,0,0,1,23,5.08Zm1,1.53a.51.51,0,1,1,.5-.51A.5.5,0,0,1,24,6.61Zm1-1.53a.5.5,0,0,1-.5-.5.5.5,0,1,1,1,0A.5.5,0,0,1,25,5.08Zm1,1.53a.51.51,0,1,1,.5-.51A.5.5,0,0,1,26,6.61ZM.42,20.34A2.34,2.34,0,0,0,0,21.67v6A2.32,2.32,0,0,0,2.3,30H27.7A2.32,2.32,0,0,0,30,27.66v-6a2.34,2.34,0,0,0-.42-1.33ZM5.25,27A2.29,2.29,0,1,1,7.5,24.66,2.27,2.27,0,0,1,5.25,27ZM17,24.41a.51.51,0,1,1,.5-.51A.5.5,0,0,1,17,24.41Zm1,1.52a.5.5,0,0,1-.5-.51.5.5,0,0,1,1,0A.5.5,0,0,1,18,25.93Zm1-1.52a.51.51,0,1,1,.5-.51A.5.5,0,0,1,19,24.41Zm1,1.52a.5.5,0,0,1-.5-.51.5.5,0,0,1,1,0A.5.5,0,0,1,20,25.93Zm1-1.52a.51.51,0,1,1,.5-.51A.5.5,0,0,1,21,24.41Zm1,1.52a.5.5,0,0,1-.5-.51.5.5,0,0,1,1,0A.5.5,0,0,1,22,25.93Zm1-1.52a.51.51,0,1,1,.5-.51A.5.5,0,0,1,23,24.41Zm1,1.52a.5.5,0,0,1-.5-.51.5.5,0,0,1,1,0A.5.5,0,0,1,24,25.93Zm1-1.52a.51.51,0,1,1,.5-.51A.5.5,0,0,1,25,24.41Zm1,1.52a.5.5,0,0,1-.5-.51.5.5,0,0,1,1,0A.5.5,0,0,1,26,25.93Z"/></svg>