<svg id="Layer_1" data-name="Layer 1" xmlns="http://www.w3.org/2000/svg" viewBox="0 0 60 60"><defs><style>.cls-1{fill:#0098ea;}</style></defs><title>icon-block-height-blue</title><path class="cls-1" d="M30,0A30,30,0,1,0,60,30,30,30,0,0,0,30,0Zm0,58.12A28.12,28.12,0,1,1,58.13,30,28.15,28.15,0,0,1,30,58.12Zm5.15-36.67h0a3.41,3.41,0,0,1-3.41,3.41H19.39A3.41,3.41,0,0,1,16,21.45h0A3.42,3.42,0,0,1,19.39,18H31.74A3.42,3.42,0,0,1,35.15,21.45Zm-1.74,8.71h0A3.41,3.41,0,0,1,30,33.57H17.65a3.42,3.42,0,0,1-3.42-3.41h0a3.42,3.42,0,0,1,3.42-3.42H30A3.42,3.42,0,0,1,33.41,30.16Zm-1.74,8.71h0a3.42,3.42,0,0,1-3.42,3.41H15.91a3.42,3.42,0,0,1-3.42-3.41h0a3.42,3.42,0,0,1,3.42-3.42H28.25A3.42,3.42,0,0,1,31.67,38.87ZM44.15,24.42v1.85h0v9H47a.94.94,0,0,1,.86.55,1,1,0,0,1-.13,1L43,42.65a.93.93,0,0,1-1.45,0l-4.71-5.77a1,1,0,0,1-.21-.62,1.15,1.15,0,0,1,.08-.41.94.94,0,0,1,.86-.55h2.82V33.45h0v-9H37.56a1,1,0,0,1-.86-.55,1,1,0,0,1,.13-1l4.71-5.78a.94.94,0,0,1,1.45,0l4.71,5.78a1,1,0,0,1,.22.62,1.16,1.16,0,0,1-.09.41,1,1,0,0,1-.86.55Z"/></svg>