<svg id="Layer_1" data-name="Layer 1" xmlns="http://www.w3.org/2000/svg" viewBox="0 0 44 40"><defs><style>.cls-1{fill:#fff;}</style></defs><title>icon-namespaces-white</title><path class="cls-1" d="M29.33,25.45V12.73H15.58V0H0V40H44V25.45ZM13.75,38.18H1.83V27.27H13.75Zm0-12.73H1.83V14.55H13.75Zm0-12.72H1.83V1.82H13.75ZM27.5,38.18H15.58V27.27H27.5Zm0-12.73H15.58V14.55H27.5ZM42.17,38.18H29.33V27.27H42.17ZM2.75,10.91V3.64a.91.91,0,0,1,.92-.91h8.25a.91.91,0,1,1,0,1.82H4.58v6.36a.92.92,0,0,1-1.83,0Zm0,12.73V16.36a.92.92,0,0,1,.92-.91h8.25a.91.91,0,1,1,0,1.82H4.58v6.37a.92.92,0,0,1-1.83,0Zm0,12.72V29.09a.92.92,0,0,1,.92-.91h8.25a.91.91,0,0,1,0,1.82H4.58v6.36a.92.92,0,0,1-1.83,0ZM16.5,23.64V16.36a.92.92,0,0,1,.92-.91h8.25a.91.91,0,1,1,0,1.82H18.33v6.37a.92.92,0,0,1-1.83,0Zm0,12.72V29.09a.92.92,0,0,1,.92-.91h8.25a.91.91,0,1,1,0,1.82H18.33v6.36a.92.92,0,0,1-1.83,0Zm13.75,0V29.09a.92.92,0,0,1,.92-.91h9.16a.91.91,0,1,1,0,1.82H32.08v6.36a.92.92,0,0,1-1.83,0Z"/></svg>