<?xml version="1.0" encoding="utf-8"?>
<!-- Generator: Adobe Illustrator 24.1.0, SVG Export Plug-In . SVG Version: 6.00 Build 0)  -->
<svg version="1.1" id="Layer_1" xmlns="http://www.w3.org/2000/svg" xmlns:xlink="http://www.w3.org/1999/xlink" x="0px" y="0px"
	 viewBox="0 0 90 80" style="enable-background:new 0 0 90 80;" xml:space="preserve">
<style type="text/css">
	.st0{fill:#7D1416;}
</style>
<path class="st0" d="M89.2,39l-9.6-12l9.3-11.3c0.9-1.1,0.7-2.7-0.4-3.6c-0.2-0.2-0.5-0.3-0.7-0.4l-32-11.6c-1-0.4-2.2,0-2.9,0.9
	l-8,10.3L36.8,1c-0.7-0.9-1.8-1.2-2.9-0.9L2,11.8c-1.3,0.5-2,2-1.5,3.3c0.1,0.3,0.2,0.5,0.4,0.7l9.5,11.6L0.9,39
	c-0.9,1.1-0.7,2.7,0.4,3.6C1.5,42.8,1.7,42.9,2,43l8.9,3.2v19.6c0,1.1,0.7,2,1.7,2.4l31.7,11.7l0,0l0.3,0.1h0.1c0.1,0,0.3,0,0.4,0
	c0.1,0,0.3,0,0.4,0h0.1l0.3-0.1l0,0l31.9-11.7c1-0.4,1.7-1.3,1.7-2.4V46.1l8.5-3.1c1.3-0.5,2-2,1.5-3.3C89.5,39.4,89.3,39.2,89.2,39
	z M55.6,54.8L55.6,54.8c0.2,0,0.4-0.1,0.5-0.1L74.4,48v16l-26.7,9.8V46.8l5.4,7l0,0c0.1,0.1,0.2,0.3,0.4,0.4l0.1,0.1
	c0.1,0.1,0.2,0.2,0.4,0.2h0.1c0.2,0.1,0.3,0.1,0.5,0.2h0.1c0.2,0,0.3,0.1,0.5,0.1h0.1C55.3,54.8,55.4,54.8,55.6,54.8z M15.9,48.1
	l4.1,1.5l13.9,5l0,0l0.4,0.1h0.1h0.3h0.1c0.1,0,0.3,0,0.4,0h0.1c0.2,0,0.3-0.1,0.5-0.2l0.1-0.1c0.1-0.1,0.2-0.1,0.3-0.2l0.1-0.1
	c0.1-0.1,0.2-0.2,0.4-0.3l5.8-7.1v27L15.9,64V48.1z M33.9,5.6l6.6,8.5l-26.4,9.8l-7.1-8.6L33.9,5.6z M82.6,15.3l-7.1,8.6l-26.4-9.8
	l6.6-8.5L82.6,15.3z M44.9,18l25.6,9.5l-25.4,9.3l-25.6-9.5L44.9,18z M40.9,40.7L34,49.2L7.1,39.5l7.1-8.6L40.9,40.7z M56,49.2
	l-6.6-8.5L76.1,31l6.8,8.5L56,49.2z"/>
</svg>
