<?xml version="1.0" encoding="utf-8"?>
<!-- Generator: Adobe Illustrator 24.1.0, SVG Export Plug-In . SVG Version: 6.00 Build 0)  -->
<svg version="1.1" id="Layer_1" xmlns="http://www.w3.org/2000/svg" xmlns:xlink="http://www.w3.org/1999/xlink" x="0px" y="0px"
	 viewBox="0 0 80 80" style="enable-background:new 0 0 80 80;" xml:space="preserve">
<style type="text/css">
	.st0{fill:#FFFFFF;}
	.st1{fill:#7D1416;}
	.st2{fill:#400000;}
	.st3{opacity:0.5;fill:url(#SVGID_1_);enable-background:new    ;}
	.st4{fill:#EAAA3B;}
	.st5{fill:#CBCBCB;}
	.st6{fill:#E18F36;}
	.st7{fill-rule:evenodd;clip-rule:evenodd;}
	.st8{fill-rule:evenodd;clip-rule:evenodd;fill:#FFFFFF;}
</style>
<g>
	<g id="Layer_1_1_">
		<circle cx="40.4" cy="40.4" r="39.6"/>
		<circle class="st0" cx="39.6" cy="39.6" r="39.6"/>
		<path d="M76.1,38.9c0,20.5-16.6,37.2-37.2,37.2C18.4,76.1,1.8,59.5,1.8,39S18.4,1.8,39,1.8c0,0,0,0,0,0
			C59.5,1.8,76.1,18.4,76.1,38.9z"/>
		<path class="st1" d="M76.8,39.6c0,20.5-16.7,37.2-37.2,37.2S2.4,60.1,2.4,39.6C2.4,19,19.1,2.4,39.6,2.4
			C60.1,2.4,76.8,19.1,76.8,39.6C76.8,39.6,76.8,39.6,76.8,39.6z"/>
		<path class="st2" d="M69.9,22.5C60.4,5.8,39.3-0.1,22.5,9.3S-0.1,39.9,9.3,56.6c2.6,4.7,6.3,8.7,10.8,11.7
			C23.9,43.8,44.8,24.3,69.9,22.5z"/>
		<path d="M56,65.5c-0.2,0.7-1,1.1-1.7,0.9c-0.2-0.1-0.4-0.2-0.6-0.4c-0.9-0.7-2.2-0.7-3.1,0c-0.5,0.6-1.4,0.6-2,0.1
			c-0.2-0.2-0.3-0.4-0.4-0.6c-0.5-1-1.6-1.6-2.8-1.3c-0.7,0.3-1.5-0.1-1.8-0.8c-0.1-0.2-0.1-0.4-0.1-0.7c0-1.2-0.8-2.2-1.9-2.4
			c-0.8-0.1-1.4-0.8-1.3-1.6c0-0.2,0.1-0.4,0.2-0.6c0.5-1,0.2-2.3-0.7-3c-0.7-0.4-0.9-1.3-0.4-2c0.1-0.2,0.3-0.3,0.4-0.4
			c0.9-0.7,1.1-2,0.7-3c-0.4-0.7-0.2-1.6,0.4-2c0.2-0.1,0.4-0.2,0.6-0.2c1.1-0.3,1.9-1.3,1.9-2.5c-0.1-0.8,0.4-1.5,1.2-1.6
			c0.2,0,0.4,0,0.7,0.1c1.1,0.2,2.3-0.4,2.7-1.5c0.2-0.7,1-1.2,1.8-0.9c0.2,0.1,0.4,0.2,0.6,0.4c0.9,0.7,2.2,0.7,3.1,0
			c0.5-0.6,1.4-0.6,2-0.1c0.2,0.2,0.3,0.4,0.4,0.6c0.5,1,1.6,1.6,2.8,1.3c0.7-0.3,1.6,0.1,1.8,0.9c0.1,0.2,0.1,0.4,0.1,0.7
			c0,1.2,0.8,2.2,1.9,2.4c0.8,0.1,1.4,0.8,1.3,1.6c0,0.2-0.1,0.4-0.2,0.6c-0.5,1-0.2,2.3,0.7,3c0.7,0.4,0.9,1.3,0.4,2
			c-0.1,0.2-0.3,0.3-0.4,0.4c-0.9,0.7-1.1,2-0.7,3c0.4,0.7,0.2,1.6-0.4,2c-0.2,0.1-0.4,0.2-0.6,0.2c-1.1,0.3-1.9,1.3-1.9,2.5
			c0.1,0.8-0.4,1.5-1.2,1.6c-0.2,0-0.5,0-0.7-0.1C57.6,63.8,56.4,64.5,56,65.5z"/>
		
			<linearGradient id="SVGID_1_" gradientUnits="userSpaceOnUse" x1="44.223" y1="35.883" x2="57.683" y2="22.423" gradientTransform="matrix(1 0 0 -1 0 82)">
			<stop  offset="0" style="stop-color:#E6BC5C"/>
			<stop  offset="0.11" style="stop-color:#F1D681"/>
			<stop  offset="0.21" style="stop-color:#FBEBA0"/>
			<stop  offset="0.45" style="stop-color:#986634"/>
			<stop  offset="0.67" style="stop-color:#E2A55C"/>
			<stop  offset="1" style="stop-color:#E6BC5C"/>
		</linearGradient>
		<path class="st3" d="M51,43.3c5.2-0.1,9.6,4,9.7,9.3c0.1,5.2-4,9.6-9.3,9.7c-5.2,0.1-9.6-4-9.7-9.3c0-0.1,0-0.1,0-0.2
			C41.7,47.6,45.8,43.4,51,43.3 M51,43.2c-5.3-0.1-9.7,4.1-9.8,9.4c-0.1,5.3,4.1,9.7,9.4,9.8c5.3,0.1,9.7-4.1,9.8-9.4
			c0-0.1,0-0.1,0-0.2C60.5,47.5,56.3,43.2,51,43.2C51,43.2,51,43.2,51,43.2z"/>
		<path class="st4" d="M55,64.5c-0.2,0.7-1,1.1-1.7,0.9c-0.2-0.1-0.4-0.2-0.6-0.4c-0.9-0.7-2.2-0.7-3.1,0c-0.5,0.6-1.4,0.6-2,0.1
			c-0.2-0.2-0.3-0.4-0.4-0.6c-0.5-1-1.6-1.6-2.8-1.3c-0.7,0.3-1.5-0.1-1.8-0.8c-0.1-0.2-0.1-0.4-0.1-0.7c0-1.2-0.8-2.2-1.9-2.4
			c-0.8-0.1-1.4-0.8-1.3-1.6c0-0.2,0.1-0.4,0.2-0.6c0.5-1,0.2-2.3-0.7-3c-0.7-0.4-0.9-1.3-0.4-2c0.1-0.2,0.3-0.3,0.4-0.4
			c0.9-0.7,1.1-2,0.7-3c-0.4-0.7-0.2-1.6,0.4-2c0.2-0.1,0.4-0.2,0.6-0.2c1.1-0.3,1.9-1.3,1.9-2.5c-0.1-0.8,0.4-1.5,1.2-1.6
			c0.2,0,0.4,0,0.7,0.1c1.1,0.2,2.3-0.4,2.7-1.5c0.2-0.7,1-1.2,1.8-0.9c0.2,0.1,0.4,0.2,0.6,0.4c0.9,0.7,2.2,0.7,3.1,0
			c0.5-0.6,1.4-0.6,2-0.1c0.2,0.2,0.3,0.4,0.4,0.6c0.5,1,1.6,1.6,2.8,1.3c0.7-0.3,1.6,0.1,1.8,0.9c0.1,0.2,0.1,0.4,0.1,0.7
			c0,1.2,0.8,2.2,1.9,2.4c0.8,0.1,1.4,0.8,1.3,1.6c0,0.2-0.1,0.4-0.2,0.6c-0.5,1-0.2,2.3,0.7,3c0.7,0.4,0.9,1.3,0.4,2
			c-0.1,0.2-0.3,0.3-0.4,0.4c-0.9,0.7-1.1,2-0.7,3c0.4,0.7,0.2,1.6-0.4,2c-0.2,0.1-0.4,0.2-0.6,0.2c-1.1,0.3-1.9,1.3-1.9,2.5
			c0.1,0.8-0.4,1.5-1.2,1.6c-0.2,0-0.5,0-0.7-0.1C56.6,62.8,55.4,63.5,55,64.5z"/>
		<path d="M40.1,52.8c0.1-6,5.1-10.8,11.1-10.7s10.8,5.1,10.7,11.1c-0.1,5.9-5,10.7-10.9,10.7C44.9,63.9,40,58.9,40.1,52.8
			C40.1,52.8,40.1,52.8,40.1,52.8z"/>
		<path class="st5" d="M61,52.8c-0.1,5.5-4.7,9.9-10.2,9.8s-9.9-4.7-9.8-10.2c0.1-5.4,4.5-9.8,10-9.8C56.6,42.6,61,47.2,61,52.8
			C61,52.8,61,52.8,61,52.8z"/>
		<path class="st6" d="M60.4,52.8C60.3,58,56,62.1,50.8,62s-9.3-4.4-9.2-9.6c0.1-5.1,4.3-9.2,9.4-9.2C56.3,43.2,60.5,47.5,60.4,52.8
			C60.4,52.8,60.4,52.8,60.4,52.8z"/>
		<path class="st4" d="M59.2,48.1c-1.6-3-4.8-4.9-8.2-4.9c-5.3,0.1-9.5,4.4-9.4,9.6c0,3.2,1.5,6.2,4.1,8
			C46.7,53.9,52.3,48.7,59.2,48.1z"/>
		<path class="st7" d="M53.6,48.5c1.2-0.4,2.6-0.5,3.8-0.2c-1.8-0.9-3.8-1.3-5.8-1.3c-0.3,0-0.6,0-0.9,0c0.4,0.2,0.8,0.5,1.2,0.9
			c0.2,0.2,0.6,0.7,0.9,0.8C53.1,48.7,53.3,48.6,53.6,48.5"/>
		<path class="st7" d="M55.7,55.7c-0.2-0.7-0.4-1.3-0.6-2c-0.1-0.3-0.2-0.7-0.3-1s-0.2-0.6-0.4-1c-0.6-1.4-0.5-1.4,0.5-2
			c0.8-0.5,1.7-0.8,2.7-0.8h0.1C57.8,51.2,57.1,53.6,55.7,55.7"/>
		<path class="st7" d="M46.8,54.4c0.7-0.5,1.5-1.1,2-1.4c0.8-0.5,1.5-0.9,2.3-1.3c0.3-0.1,0.5-0.2,0.8-0.3c0.1,0,0.2,0,0.2,0
			c0.3,0.1,0.7,0.8,0.7,0.8l0,0l0.2,0.3l0.2,0.4c0.1,0.2,0.2,0.4,0.3,0.6s0.4,0.6,0.5,0.9c0.3,0.5,0.6,1.2,1,2
			c-0.9,1.2-2.1,2.2-3.4,3l-0.2,0.1l-0.2-0.1C49.4,58.2,47.8,56.5,46.8,54.4"/>
		<path class="st7" d="M49.4,47.2c0.1,0.1,0.1,0.1,0.2,0.2c0.1,0.1,0.2,0.3,0.4,0.5c0.1,0.2,0.3,0.3,0.4,0.5c0.2,0.3,0.4,0.7,0.6,1
			c0,0.1,0,0.2,0,0.3c0,0.1-0.1,0.1-0.1,0.2c-0.1,0.1-0.2,0.2-0.3,0.2c-0.5,0.4-1,0.8-1.5,1.1s-1.1,0.9-1.6,1.4
			c-0.3,0.3-0.7,0.7-1.1,1.2c-0.7-1.6-1-3.3-1-5.1v-0.2l0.2-0.1C46.8,47.8,48.1,47.4,49.4,47.2"/>
		<path class="st8" d="M52.8,48.5c1.2-0.4,2.6-0.5,3.8-0.2c-1.8-0.9-3.8-1.3-5.8-1.3c-0.3,0-0.6,0-0.9,0c0.4,0.2,0.9,0.5,1.2,0.9
			c0.2,0.2,0.6,0.7,0.9,0.8C52.4,48.7,52.6,48.6,52.8,48.5"/>
		<path class="st8" d="M55,55.7c-0.2-0.7-0.3-1.3-0.6-2c-0.1-0.3-0.2-0.7-0.3-1s-0.2-0.6-0.4-1c-0.6-1.4-0.5-1.4,0.5-2
			c0.8-0.5,1.7-0.8,2.7-0.8h0C57,51.2,56.3,53.6,55,55.7"/>
		<path class="st8" d="M46,54.4c0.6-0.5,1.3-1,2-1.4c0.8-0.5,1.5-0.9,2.3-1.3c0.3-0.1,0.5-0.2,0.8-0.3c0.1,0,0.2,0,0.3,0
			c0.2,0.1,0.7,0.8,0.7,0.8l0,0c0.1,0.1,0.1,0.2,0.2,0.3c0.1,0.1,0.2,0.2,0.2,0.4l0.3,0.6c0.2,0.3,0.4,0.6,0.5,0.9
			c0.3,0.5,0.6,1.2,1,2c-0.9,1.2-2.1,2.2-3.4,3l-0.2,0.1l-0.2-0.1C48.7,58.2,47.1,56.5,46,54.4"/>
		<path class="st8" d="M48.7,47.2c0.1,0.1,0.1,0.1,0.2,0.2c0.1,0.1,0.2,0.3,0.4,0.5c0.1,0.2,0.3,0.4,0.4,0.5c0.2,0.3,0.5,0.7,0.6,1
			c0,0.1,0,0.2,0,0.3c0,0.1-0.1,0.1-0.1,0.2c-0.1,0.1-0.2,0.2-0.3,0.2c-0.5,0.4-1,0.8-1.5,1.1c-0.5,0.4-1.1,0.9-1.6,1.4
			c-0.3,0.3-0.7,0.7-1.1,1.2c-0.7-1.6-1-3.3-1-5.1v-0.2l0.2-0.1C46,47.8,47.3,47.4,48.7,47.2"/>
		<path class="st7" d="M41.3,62.3c-0.2,0-0.5-0.1-0.7-0.2c0,0.7,0.3,1.3,0.7,1.9H26.5c-0.8,0-1.6-0.3-2.3-0.7c0.7,1.1,2,1.7,3.3,1.7
			h14.8c-0.5-0.7-0.7-1.5-0.7-2.3C41.6,62.6,41.5,62.4,41.3,62.3z"/>
		<path class="st7" d="M54.8,14.7c0.5,0.7,0.7,1.5,0.7,2.3v21.7c-0.6-0.4-1.3-0.7-2-0.7c-0.9,0-1.7,0.4-2.4,1
			c-0.1,0-0.1,0.1-0.2,0.1c-0.1,0-0.1,0-0.2-0.1c-0.6-0.6-1.5-0.9-2.3-0.9c-1.4,0-2.7,0.9-3.2,2.2c-0.1,0.1-0.2,0.2-0.4,0.2l0,0
			c-0.3-0.1-0.7-0.1-1-0.1c-0.9,0-1.8,0.3-2.4,1c-0.7,0.7-1.1,1.7-1,2.7c0,0.2-0.1,0.3-0.3,0.4c-1.9,0.3-3.1,2.1-2.8,4
			c0.1,0.4,0.2,0.8,0.4,1.1c0.1,0.2,0,0.4-0.1,0.5c-1.5,1.1-1.9,3.3-0.8,4.8c0.2,0.3,0.5,0.6,0.9,0.8c0.1,0.1,0.2,0.3,0.1,0.5
			c-0.5,1-0.6,2.2-0.1,3.2c0.3,0.5,0.8,1,1.3,1.3c-0.1-0.1-0.1-0.2-0.2-0.3c-0.5-1-0.5-2.2,0.1-3.2c0.1-0.2,0-0.4-0.1-0.5
			c-1.6-1.1-2-3.2-0.9-4.8c0.2-0.3,0.5-0.6,0.8-0.9c0.1-0.1,0.2-0.3,0.1-0.5c-1-1.6-0.4-3.7,1.2-4.7c0.4-0.2,0.7-0.3,1.1-0.4
			c0.2-0.1,0.3-0.2,0.3-0.4c-0.1-1,0.3-2,1-2.7c0.6-0.7,1.5-1,2.4-1c0.3,0,0.7,0,1,0.1l0,0c0.2,0,0.3-0.1,0.4-0.2
			c0.5-1.3,1.8-2.2,3.2-2.2c0.9,0,1.7,0.3,2.3,0.9c0.1,0,0.1,0.1,0.2,0.1c0.1,0,0.1,0,0.2-0.1c0.6-0.6,1.5-1,2.4-1
			c0.7,0,1.4,0.3,2,0.7V18C56.5,16.7,55.9,15.4,54.8,14.7z"/>
		<path class="st8" d="M51.5,13h-25c-2.2,0-4,1.8-4,4v43c0,2.2,1.8,4,4,4h14.8c-0.5-0.7-0.7-1.5-0.7-2.3c0-0.2-0.1-0.3-0.3-0.4
			c-1.1-0.2-2-0.9-2.6-1.8c-0.5-1-0.5-2.2,0.1-3.2c0.1-0.2,0-0.4-0.1-0.5c-1.6-1.1-2-3.2-0.9-4.8c0.2-0.3,0.5-0.6,0.8-0.9
			c0.1-0.1,0.2-0.3,0.1-0.5c-1-1.6-0.4-3.7,1.2-4.7c0.4-0.2,0.7-0.3,1.1-0.4c0.2-0.1,0.3-0.2,0.3-0.4c-0.1-1,0.3-2,1-2.7
			c0.6-0.7,1.5-1,2.4-1c0.3,0,0.7,0,1,0.1l0,0c0.2,0,0.3-0.1,0.4-0.2c0.5-1.3,1.8-2.2,3.2-2.2c0.9,0,1.7,0.3,2.3,0.9
			c0.1,0,0.1,0.1,0.2,0.1c0.1,0,0.1,0,0.2-0.1c0.6-0.6,1.5-1,2.4-1c0.7,0,1.4,0.3,2,0.7V17C55.5,14.8,53.7,13,51.5,13
			C51.5,13,51.5,13,51.5,13z M37,40h-9c-0.8,0-1.5-0.7-1.5-1.5S27.2,37,28,37h9c0.8,0,1.5,0.7,1.5,1.5S37.8,40,37,40z M51,34H28
			c-0.8,0-1.5-0.7-1.5-1.5S27.2,31,28,31h23c0.8,0,1.5,0.7,1.5,1.5S51.8,34,51,34z M51,28H28c-0.8,0-1.5-0.7-1.5-1.5S27.2,25,28,25
			h23c0.8,0,1.5,0.7,1.5,1.5S51.8,28,51,28z M51,22H28c-0.8,0-1.5-0.7-1.5-1.5S27.2,19,28,19h23c0.8,0,1.5,0.7,1.5,1.5
			S51.8,22,51,22z"/>
	</g>
</g>
</svg>
