<svg id="Layer_1" data-name="Layer 1" xmlns="http://www.w3.org/2000/svg" viewBox="0 0 16 16"><defs><style>.cls-1{fill:#666;}.cls-2{fill:#fff;}</style></defs><title>icon-doc-type-doc-16h-proximax-sirius-wallet</title><rect class="cls-1" x="5" y="3" width="6" height="1"/><rect class="cls-1" x="5" y="5" width="5" height="1"/><rect class="cls-1" y="7" width="14" height="5" rx="1"/><path class="cls-1" d="M14,2a2,2,0,0,0-2-2H4A2,2,0,0,0,2,2V6H3V2A1,1,0,0,1,4,1h8a1,1,0,0,1,1,1V6h1V3a1,1,0,0,1,1,1V14a1,1,0,0,1-1,1H6a1,1,0,0,1-1-1h7a2,2,0,0,0,1.72-1H2.28A2,2,0,0,0,4,14a2,2,0,0,0,2,2h8a2,2,0,0,0,2-2V4A2,2,0,0,0,14,2Z"/><path class="cls-2" d="M2.92,10.83V8.17H4a1.33,1.33,0,1,1,0,2.66ZM4.81,9.5A.78.78,0,0,0,4,8.67H3.49v1.66H4A.8.8,0,0,0,4.81,9.5Z"/><path class="cls-2" d="M5.67,9.5A1.34,1.34,0,0,1,7.06,8.12a1.38,1.38,0,1,1,0,2.76A1.34,1.34,0,0,1,5.67,9.5Zm2.2,0a.81.81,0,1,0-1.62,0,.81.81,0,1,0,1.62,0Z"/><path class="cls-2" d="M8.73,9.5a1.36,1.36,0,0,1,1.42-1.38,1.21,1.21,0,0,1,1.11.66L10.77,9a.72.72,0,0,0-.62-.38.88.88,0,0,0,0,1.75.71.71,0,0,0,.62-.39l.49.24a1.23,1.23,0,0,1-1.11.65A1.36,1.36,0,0,1,8.73,9.5Z"/></svg>