<svg id="Layer_1" data-name="Layer 1" xmlns="http://www.w3.org/2000/svg" viewBox="0 0 60 60"><defs><style>.cls-1{fill:#2ba1b9;}</style></defs><title>icon-invoice-green-60h</title><path class="cls-1" d="M32.54,27.28V23.63a.87.87,0,0,0-.87-.88H15.35a.88.88,0,0,0-.88.88v3.65a.88.88,0,0,0,.88.88H31.67A.87.87,0,0,0,32.54,27.28Zm-1.75-.88H16.23V24.51H30.79Zm2.52,24.5H44.65a.89.89,0,0,0,.88-.88V46.36a.89.89,0,0,0-.88-.88H33.31a.88.88,0,0,0-.88.88V50A.88.88,0,0,0,33.31,50.9Zm.88-3.66h9.58v1.9H34.19ZM45.53,18.3a.88.88,0,0,1-.88.88H15.35a.88.88,0,1,1,0-1.75h29.3A.88.88,0,0,1,45.53,18.3ZM25.1,32.89H15.35a.88.88,0,1,1,0-1.75H25.1a.88.88,0,1,1,0,1.75Zm-.71,3.56a.89.89,0,0,1-.88.88H15.35a.88.88,0,1,1,0-1.76h8.16A.88.88,0,0,1,24.39,36.45Zm0,4.43a.88.88,0,0,1-.88.88H15.35a.88.88,0,1,1,0-1.76h8.16A.89.89,0,0,1,24.39,40.88Zm21.14,0a.88.88,0,0,1-.88.88H40.57a.88.88,0,1,1,0-1.76h4.08A.89.89,0,0,1,45.53,40.88Zm0-4.43a.89.89,0,0,1-.88.88H40.57a.88.88,0,1,1,0-1.76h4.08A.88.88,0,0,1,45.53,36.45Zm0-4.43a.88.88,0,0,1-.88.87H40.57a.88.88,0,1,1,0-1.75h4.08A.88.88,0,0,1,45.53,32ZM47.31,19.8V2.2c-.88,1-1.52,3.07-3.67,3.07-2.79,0-3-3.51-4.55-3.51s-1.76,3.51-4.54,3.51-3-3.51-4.55-3.51-1.76,3.51-4.55,3.51-3-3.51-4.55-3.51-1.76,3.51-4.54,3.51c-2.15,0-2.79-2.1-3.67-3.07V57.8c.88-1,1.52-3.07,3.67-3.07,2.79,0,3,3.51,4.54,3.51s1.77-3.51,4.55-3.51,3,3.51,4.55,3.51,1.76-3.51,4.55-3.51,3,3.51,4.54,3.51,1.77-3.51,4.55-3.51c2.15,0,2.79,2.1,3.67,3.07V23.08a.88.88,0,0,1,1.76,0v36a.88.88,0,0,1-.88.88c-2.79,0-3-3.52-4.55-3.52S41.88,60,39.09,60s-3-3.52-4.54-3.52S32.78,60,30,60s-3-3.52-4.55-3.52S23.69,60,20.9,60s-3-3.52-4.54-3.52S14.6,60,11.81,60a.87.87,0,0,1-.88-.88V.88A.87.87,0,0,1,11.81,0c2.8,0,3,3.52,4.55,3.52S18.12,0,20.9,0s3,3.52,4.55,3.52S27.21,0,30,0s3,3.52,4.55,3.52S36.31,0,39.09,0s3,3.52,4.55,3.52S45.4,0,48.19,0a.88.88,0,0,1,.88.88V19.8a.88.88,0,0,1-1.76,0Zm-1.78-6.16a.89.89,0,0,1-.88.88H15.35a.89.89,0,0,1-.88-.88V10a.89.89,0,0,1,.88-.88h4.88a.88.88,0,1,1,0,1.76h-4v1.9H43.77v-1.9H23.51a.88.88,0,1,1,0-1.76H44.65a.89.89,0,0,1,.88.88Z"/></svg>