<svg id="Layer_1" data-name="Layer 1" xmlns="http://www.w3.org/2000/svg" viewBox="0 0 92 80"><defs><style>.cls-1{fill:#a8a8a8;}</style></defs><title>icon-live-stream-light-gray</title><path class="cls-1" d="M0,51.64V64.19a2.71,2.71,0,0,0,2.7,2.72H29.83v7.64H25.34a2.73,2.73,0,0,0,0,5.45H66.66a2.73,2.73,0,0,0,0-5.45H62.17V66.91H89.3A2.71,2.71,0,0,0,92,64.19V51.64Zm59.66,9.82H54.27V58.54a2.7,2.7,0,1,1,5.39,0Zm10.78,0H65.05V58.54a2.7,2.7,0,1,1,5.39,0Zm10.78,0H75.83V58.54a2.7,2.7,0,1,1,5.39,0ZM92,2.73a2.7,2.7,0,0,0-.33-1.3A2.57,2.57,0,0,0,91.38,1,1.54,1.54,0,0,0,91.21.8a2.06,2.06,0,0,0-.4-.33A2.48,2.48,0,0,0,90.1.12,2.82,2.82,0,0,0,89.58,0H2.7A2.77,2.77,0,0,0,1.65.21a2.28,2.28,0,0,0-.46.26A2.13,2.13,0,0,0,.79.8,2.71,2.71,0,0,0,0,2.73V46.19H92ZM28.64,33.84H19.55c-1,0-1.95-.47-1.95-1.4V14c0-1,1.12-1.37,2.24-1.37S22.08,13,22.08,14V29.88h6.56c.86,0,1.29,1,1.29,2S29.5,33.84,28.64,33.84Zm9-1.4c0,.93-1.12,1.4-2.24,1.4s-2.24-.47-2.24-1.4V14c0-1,1.12-1.37,2.24-1.37S37.66,13,37.66,14ZM57.41,14.76,52.07,32.5c-.32,1-1.61,1.51-2.94,1.51s-2.61-.49-2.93-1.51L40.83,14.76a1.37,1.37,0,0,1-.06-.32c0-1.07,1.64-1.86,2.87-1.86.72,0,1.3.24,1.47.85l4,14.91,4-14.91c.17-.61.75-.85,1.47-.85,1.23,0,2.87.79,2.87,1.86A1.37,1.37,0,0,1,57.41,14.76ZM72.77,33.84H62.53c-1,0-2-.47-2-1.4V14c0-.93,1-1.4,2-1.4H72.77c.94,0,1.35,1,1.35,1.95,0,1.08-.49,2-1.35,2H65.06v4.91h4.31c.87,0,1.36.85,1.36,1.78s-.41,1.71-1.36,1.71H65.06v4.94h7.71c.86,0,1.35.93,1.35,2S73.72,33.84,72.77,33.84Z"/></svg>