<svg id="Layer_1" data-name="Layer 1" xmlns="http://www.w3.org/2000/svg" viewBox="0 0 40 40"><defs><style>.cls-1{fill:#fff;}</style></defs><title>icon-upload-file-white</title><path class="cls-1" d="M38.26,21.36a7.88,7.88,0,0,0-4.45-2.82,5.27,5.27,0,0,0-.71-6.64,5.28,5.28,0,0,0-7.23-.27A10.35,10.35,0,0,0,22,6.81,10.43,10.43,0,0,0,16,5,10.25,10.25,0,0,0,8.46,8.13a10.24,10.24,0,0,0-3.13,7.54c0,.18,0,.48,0,.89A9.34,9.34,0,0,0,0,25a9,9,0,0,0,2.74,6.59,9,9,0,0,0,6.59,2.74H32a8,8,0,0,0,8-8A7.76,7.76,0,0,0,38.26,21.36ZM26.47,20.8A.65.65,0,0,1,26,21H21.33v7.33a.64.64,0,0,1-.19.47.67.67,0,0,1-.47.2h-4a.68.68,0,0,1-.67-.67V21H11.33a.63.63,0,0,1-.66-.67.84.84,0,0,1,.2-.5l7.32-7.31a.66.66,0,0,1,.48-.19.69.69,0,0,1,.48.19l7.33,7.33a.69.69,0,0,1,.19.48A.65.65,0,0,1,26.47,20.8Z"/></svg>