<svg id="Layer_1" data-name="Layer 1" xmlns="http://www.w3.org/2000/svg" viewBox="0 0 24 24"><defs><style>.cls-1{fill:#023c42;}</style></defs><title>icon-download-file-dark-green</title><path class="cls-1" d="M23.6,16.17a1.34,1.34,0,0,0-1-.4h-6.7l-2,2a2.78,2.78,0,0,1-3.92,0l-1.95-2H1.38a1.34,1.34,0,0,0-1,.4,1.34,1.34,0,0,0-.4,1v4.62a1.34,1.34,0,0,0,.4,1,1.34,1.34,0,0,0,1,.4H22.62A1.37,1.37,0,0,0,24,21.77V17.15A1.34,1.34,0,0,0,23.6,16.17ZM18.19,21a.88.88,0,0,1-.65.28.86.86,0,0,1-.65-.28.91.91,0,0,1,0-1.29.86.86,0,0,1,.65-.28.88.88,0,0,1,.65.28.91.91,0,0,1,0,1.29Zm3.69,0a.89.89,0,0,1-1.3,0,.91.91,0,0,1,0-1.29.89.89,0,0,1,1.3,0,.91.91,0,0,1,0,1.29Z"/><path class="cls-1" d="M11.35,16.42a.92.92,0,0,0,1.3,0L19.11,10a.82.82,0,0,0,.2-1,.85.85,0,0,0-.85-.57H14.77V1.92A.92.92,0,0,0,13.85,1h-3.7a.92.92,0,0,0-.92.92V8.38H5.54A.85.85,0,0,0,4.69,9a.82.82,0,0,0,.2,1Z"/></svg>