<svg id="Layer_1" data-name="Layer 1" xmlns="http://www.w3.org/2000/svg" viewBox="0 0 60 60"><defs><style>.cls-1{fill:#0098ea;}</style></defs><title>icon-messenger-green-16h-proximax-sirius-wallet</title><path class="cls-1" d="M26.32,17.44c-8.18,0-14.82,5.43-14.82,12.13A11.08,11.08,0,0,0,15.69,38c-.15,2.23-.65,4.95-2.11,6.42,2.91,0,5.87-1.94,7.75-3.45a17.65,17.65,0,0,0,5,.7c8.18,0,14.81-5.42,14.81-12.12S34.5,17.44,26.32,17.44Z"/><path class="cls-1" d="M45.59,30.91a10.55,10.55,0,0,0,1.93-6c0-6.7-6.54-12.13-14.61-12.13a16.47,16.47,0,0,0-9.34,2.8,18.92,18.92,0,0,1,3.72-.37C36,15.18,43,21.15,43,28.51a11.94,11.94,0,0,1-3,7.78c1.84,1.51,4.77,3.45,7.64,3.45C45.68,37.66,45.53,33,45.59,30.91Z"/><path class="cls-1" d="M30,0A30,30,0,1,0,60,30,30,30,0,0,0,30,0Zm0,58.12A28.12,28.12,0,1,1,58.12,30,28.15,28.15,0,0,1,30,58.12Z"/></svg>