<?xml version="1.0" encoding="utf-8"?>
<!-- Generator: Adobe Illustrator 24.1.0, SVG Export Plug-In . SVG Version: 6.00 Build 0)  -->
<svg version="1.1" id="Layer_1" xmlns="http://www.w3.org/2000/svg" xmlns:xlink="http://www.w3.org/1999/xlink" x="0px" y="0px"
	 viewBox="0 0 82 80" style="enable-background:new 0 0 82 80;" xml:space="preserve">
<style type="text/css">
	.st0{fill:#7D1416;}
</style>
<path class="st0" d="M54.8,59L54.8,59L54.8,59c-0.2-0.2-0.3-0.2-0.4-0.3L43.9,55c-0.3-0.2-0.6-0.2-0.9-0.2l0.7-0.3l-0.5-1.2l-1,0.4
	l0.5,1.2l-0.3,0.1l-0.7,0.3l-0.4-1.1l-0.2,0.1L40.9,54l-0.7,1.2l0.5,0.3l-9,3.2c-0.2,0.1-0.3,0.1-0.5,0.2l0,0l0,0
	c-0.3,0.3-0.5,0.6-0.6,1c0,0.1-0.1,0.3-0.1,0.4v14.2c0,0.5,0.2,1,0.7,1.3l0,0c0.1,0.1,0.3,0.2,0.4,0.2L42,79.7l0,0l0.5,0.2
	C42.6,80,42.8,80,43,80c0.3,0,0.6-0.1,0.8-0.2h0.1H44v-0.1l10.3-3.6c0.1,0,0.3-0.1,0.4-0.2h0.1v-0.1c0.2-0.2,0.3-0.3,0.5-0.6
	c0-0.1,0.1-0.1,0.1-0.2l0,0c0.1-0.2,0.1-0.4,0.1-0.5V60.3C55.4,59.8,55.2,59.3,54.8,59z M41.3,76l-4.2-1.5l4.2-1.5V76z M41.3,69.5
	L34,72.1v-9.3l7.4,2.6L41.3,69.5z M43,62.4l-5.8-2.1l5.8-2.1l5.8,2.1L43,62.4z M44.7,75.9V73l4.1,1.5L44.7,75.9z M52.1,72.1
	l-7.4-2.6v-4.2l7.4-2.6V72.1z M24.8,43.2l0.3-0.3l-0.3-0.2v-1.4l1,0.8l0.7-0.8l-1-0.9l-0.7,0.8V30.8c0-0.5-0.3-1-0.7-1.3v-0.1h-0.1
	c-0.1-0.1-0.2-0.1-0.4-0.2l-10.5-3.7c-0.4-0.3-0.9-0.3-1.4-0.1L1.1,29.2c-0.2,0.1-0.3,0.1-0.4,0.2l0,0l0,0c-0.3,0.3-0.5,0.6-0.6,1
	c0,0.1,0,0.3,0,0.4V45c0,0.5,0.2,1,0.7,1.3l0,0c0.1,0.1,0.3,0.2,0.4,0.2l10.3,3.6l0,0l0.5,0.2c0.2,0.1,0.4,0.1,0.6,0.1
	c0.3,0,0.6-0.1,0.8-0.2h0.1h0.1v-0.1l10.3-3.6c0.1-0.1,0.3-0.1,0.4-0.2h0.1v-0.1l0.2-0.2l0.4,0.2l0.7-1.2l-0.6-0.4L24.8,43.2z
	 M10.7,46.4l-4.2-1.5l4.2-1.5V46.4z M10.7,39.9l-7.4,2.6v-9.3l7.4,2.6V39.9z M12.3,32.8l-5.8-2.1l5.8-2.1l5.8,2.1L12.3,32.8z
	 M14.1,46.4v-2.9l4.1,1.5L14.1,46.4z M21.4,42.5l-7.4-2.6v-4.2l7.4-2.6V42.5z M81.3,32.4L81.3,32.4L81.3,32.4
	c-0.2-0.2-0.3-0.2-0.4-0.3l-10.4-3.7c-0.4-0.3-0.9-0.3-1.4-0.1l-10.7,3.8c-0.2,0.1-0.3,0.1-0.5,0.2l0,0l0,0c-0.3,0.3-0.5,0.6-0.6,1
	c0,0.1,0,0.3,0,0.4v11.7L56.5,46l0.6,0.9l0.1-0.1V48c0,0.5,0.2,1,0.7,1.3l0,0c0.1,0.1,0.3,0.2,0.4,0.2l10.3,3.6l0,0l0.5,0.2
	c0.2,0.1,0.4,0.1,0.6,0.1c0.3,0,0.6-0.1,0.8-0.2h0.1h0.1v-0.1l10.3-3.6c0.1-0.1,0.3-0.1,0.4-0.2h0.1v-0.1c0.2-0.2,0.3-0.3,0.5-0.6
	c0-0.1,0-0.1,0.1-0.2l0,0c0.1-0.2,0.1-0.4,0.1-0.5V33.7C82,33.2,81.8,32.7,81.3,32.4z M67.9,49.4l-4.2-1.5l4.2-1.5V49.4z M67.9,42.9
	l-7.4,2.6v-9.3l7.4,2.6V42.9z M69.5,35.8l-5.8-2.1l5.8-2.1l5.8,2.1L69.5,35.8z M71.2,49.4v-2.9l4.1,1.5L71.2,49.4z M78.6,45.5
	l-7.4-2.6v-4.2l7.4-2.6V45.5z M29.6,21L29.6,21c0.1,0.1,0.3,0.2,0.4,0.2l9.1,3.2l-0.4,0.4l1,0.9l0.7-0.8l0,0l0.3,0.1
	c0.2,0.1,0.4,0.1,0.5,0.1h0.2l0.5,0.7l1.1-0.8l-0.3-0.4l9.8-3.5c0.1-0.1,0.3-0.1,0.4-0.2h0.1V21c0.2-0.2,0.3-0.3,0.5-0.6
	c0-0.1,0.1-0.1,0.1-0.2l0,0c0.1-0.2,0.1-0.4,0.1-0.5V5.5c0-0.5-0.2-1-0.7-1.3V4.1H53c-0.1-0.1-0.2-0.1-0.4-0.2L42.2,0.2
	c-0.4-0.3-0.9-0.3-1.4-0.1L30.1,3.9c-0.2,0.1-0.3,0.1-0.5,0.3l0,0l0,0c-0.3,0.3-0.5,0.6-0.6,1c0,0.1,0,0.3,0,0.4v14.2
	C29,20.2,29.2,20.7,29.6,21z M39.6,21.2l-4.2-1.5l4.2-1.5V21.2z M43,21.2v-3l4.1,1.5L43,21.2z M50.4,17.3L43,14.7v-4.2l7.4-2.6
	L50.4,17.3z M41.3,3.5l5.8,2.1l-5.8,2.1l-5.8-2.1L41.3,3.5z M32.3,7.9l7.4,2.6v4.1l-7.4,2.6V7.9z M35.7,52.6l-0.9-0.5l0.7-1.2
	l0.9,0.5L35.7,52.6z M28.2,46.8l0.9,0.5l-0.7,1.2l-0.9-0.5L28.2,46.8z M33.9,51.6L33,51l0.7-1.2l0.9,0.5L33.9,51.6z M32,50.6
	L31.1,50l0.7-1.2l0.9,0.5L32,50.6z M30.9,48.3l-0.7,1.2L29.3,49l0.7-1.2L30.9,48.3z M26.3,45.7l0.9,0.5l-0.7,1.2l-0.9-0.5L26.3,45.7
	z M39.3,54.7l-0.9-0.5l0.6-1.2l0.9,0.5L39.3,54.7z M37.5,53.7l-0.9-0.5l0.6-1.2l0.9,0.5L37.5,53.7z M31.4,35.6l-1-0.9l0.7-0.8l1,0.9
	L31.4,35.6z M28.3,37.2l1,0.9l-0.7,0.8l-1-0.9L28.3,37.2z M29.7,35.5l1,0.9L30,37.2l-1-0.9L29.7,35.5z M34.9,31.5l-0.7,0.8l-1-0.9
	l0.7-0.8L34.9,31.5z M38.4,27.5l-1-0.9l0.7-0.8l1,0.9L38.4,27.5z M37,29l-1-0.9l0.7-0.8l1,0.9L37,29z M27.2,40.4l-1-0.9l0.7-0.8
	l1,0.9L27.2,40.4z M32.8,33.9l-1-0.9l0.7-0.8l1,0.9L32.8,33.9z M35.6,30.7l-1-0.9l0.7-0.8l1,0.9L35.6,30.7z M48.3,34.7l-0.6-0.9
	l1.1-0.8l0.6,0.9L48.3,34.7z M43.8,26l0.6,0.9l-1.1,0.8l-0.6-0.9L43.8,26z M48.2,32.1l-1.1,0.8L46.4,32l1.1-0.8L48.2,32.1z
	 M52.7,40.8l1.1-0.8l0.6,0.9l-1.1,0.8L52.7,40.8z M53.9,42.5l1.1-0.8l0.6,0.9l-1.1,0.8L53.9,42.5z M44.6,29.4l-0.6-0.9l1.1-0.8
	l0.6,0.9L44.6,29.4z M45.8,31.2l-0.6-0.9l1.1-0.8l0.6,0.9L45.8,31.2z M50.8,38.2l-0.6-0.9l1.1-0.8l0.6,0.9L50.8,38.2z M56.9,44.4
	l-1.1,0.8l-0.6-0.9l1.1-0.8L56.9,44.4z M52.1,39.9L51.4,39l1.1-0.8l0.6,0.9L52.1,39.9z M49.6,36.4l-0.6-0.9l1.1-0.8l0.6,0.9
	L49.6,36.4z M56.8,47.8l0.5,1.2l-1,0.4l-0.5-1.2L56.8,47.8z M48.6,52.6l-0.5-1.2l1-0.4l0.5,1.2L48.6,52.6z M53.9,49l1-0.4l0.5,1.2
	l-1,0.4L53.9,49z M52.5,51L52,49.8l1-0.4l0.5,1.2L52.5,51z M44.7,54.1l-0.5-1.2l1-0.4l0.5,1.2L44.7,54.1z M46.1,52.1l1-0.4l0.5,1.2
	l-1,0.4L46.1,52.1z M50.5,51.8L50,50.5l1-0.4l0.5,1.2L50.5,51.8z"/>
</svg>
