<svg id="Layer_1" data-name="Layer 1" xmlns="http://www.w3.org/2000/svg" viewBox="0 0 60 60"><defs><style>.cls-1{fill:#0098ea;}</style></defs><title>icon-namespaces-green-16h-proximax-sirius-wallet</title><path class="cls-1" d="M30,0A30,30,0,1,0,60,30,30,30,0,0,0,30,0Zm0,58.12A28.12,28.12,0,1,1,58.13,30,28.15,28.15,0,0,1,30,58.12Z"/><path class="cls-1" d="M35.84,34.35V24.21h-11V14.07H12.47V45.93H47.53V34.35ZM23.43,44.49h-9.5v-8.7h9.5Zm0-10.14h-9.5v-8.7h9.5Zm0-10.14h-9.5v-8.7h9.5Zm11,20.28H24.89v-8.7h9.49Zm0-10.14H24.89v-8.7h9.49ZM46.07,44.49H35.84v-8.7H46.07ZM14.66,22.76V17a.73.73,0,0,1,.73-.72H22a.73.73,0,0,1,.73.72.73.73,0,0,1-.73.73H16.13v5.07a.74.74,0,0,1-1.47,0Zm0,10.14V27.1a.73.73,0,0,1,.73-.72H22a.73.73,0,0,1,.73.72.73.73,0,0,1-.73.73H16.13V32.9a.74.74,0,0,1-1.47,0Zm0,10.14v-5.8a.73.73,0,0,1,.73-.72H22a.73.73,0,0,1,.73.72A.73.73,0,0,1,22,38H16.13V43a.74.74,0,0,1-1.47,0Zm11-10.14V27.1a.73.73,0,0,1,.73-.72h6.57a.73.73,0,0,1,.73.72.73.73,0,0,1-.73.73H27.08V32.9a.73.73,0,0,1-1.46,0Zm0,10.14v-5.8a.73.73,0,0,1,.73-.72h6.57a.73.73,0,0,1,.73.72.73.73,0,0,1-.73.73H27.08V43a.73.73,0,0,1-1.46,0Zm11,0v-5.8a.73.73,0,0,1,.73-.72h7.31a.73.73,0,0,1,.73.72.73.73,0,0,1-.73.73H38V43a.73.73,0,0,1-1.46,0Z"/></svg>