<?xml version="1.0" encoding="utf-8"?>
<!-- Generator: Adobe Illustrator 24.1.0, SVG Export Plug-In . SVG Version: 6.00 Build 0)  -->
<svg version="1.1" id="Layer_1" xmlns="http://www.w3.org/2000/svg" xmlns:xlink="http://www.w3.org/1999/xlink" x="0px" y="0px"
	 viewBox="0 0 16 16" style="enable-background:new 0 0 16 16;" xml:space="preserve">
<style type="text/css">
	.st0{fill:#7D1416;}
</style>
<path class="st0" d="M5.1,7.8C4.8,8,4.6,8.3,4.3,8.6C3.8,7.5,3.6,6.2,3.6,5V4.8l0.1-0.1C4.6,4.3,5.5,4,6.4,3.9L6.6,4l0.3,0.3
	c0,0.2,0.1,0.3,0.2,0.4C7.3,5,7.4,5.2,7.5,5.4c0,0.1,0,0.1,0,0.2s0,0.1-0.1,0.1L7.2,5.9c-0.4,0.3-0.7,0.5-1,0.8S5.4,7.4,5.1,7.8z
	 M9.5,8.4C9.4,8.3,9.3,8.2,9.2,8S9.1,7.9,9.1,7.8S9,7.6,8.9,7.5l0,0c0,0-0.3-0.5-0.5-0.5c0,0-0.1,0-0.2,0C8,7,7.8,7.1,7.7,7.2
	C7.1,7.5,6.5,7.7,6,8.1c-0.5,0.3-1,0.6-1.5,1c0.7,1.5,1.9,2.8,3.3,3.6L8,12.8l0.1-0.1c0.9-0.6,1.8-1.3,2.4-2.2
	C10.3,9.9,10,9.4,9.8,9C9.8,8.9,9.6,8.6,9.5,8.4z M8.9,5c0.2,0,0.4,0,0.5-0.1c0.9-0.3,1.8-0.3,2.8-0.2c-1.3-0.6-2.7-1-4.2-1
	c-0.2,0-0.4,0-0.6,0C7.7,3.9,8,4.1,8.2,4.4C8.4,4.6,8.7,4.9,8.9,5z M16,8c0,4.4-3.6,8-8,8s-8-3.6-8-8s3.6-8,8-8S16,3.6,16,8z
	 M15.5,8c0-4.1-3.4-7.5-7.5-7.5S0.5,3.9,0.5,8s3.4,7.5,7.5,7.5S15.5,12.1,15.5,8z M10.4,5.7C9.7,6.2,9.6,6.2,10,7.1
	c0.1,0.2,0.2,0.5,0.3,0.7s0.2,0.5,0.2,0.7c0.2,0.5,0.3,1,0.5,1.5c1-1.4,1.5-3.1,1.5-4.9h-0.1C11.7,5.2,11,5.4,10.4,5.7z"/>
</svg>
