<svg id="Layer_1" data-name="Layer 1" xmlns="http://www.w3.org/2000/svg" viewBox="0 0 60 60"><defs><style>.cls-1{fill:none;}.cls-2{fill:#666;fill-rule:evenodd;}</style></defs><title>icon-refresh-button</title><rect class="cls-1" x="-556" y="-347" width="1366" height="780"/><path class="cls-2" d="M10.65,25.9a4,4,0,0,0,3.68-2.45A17,17,0,0,1,30,13a16.74,16.74,0,0,1,10.3,3.54l-2.24.34a1.75,1.75,0,0,0-1.46,1.49,1.73,1.73,0,0,0,1,1.82l12.3,5.53a1.75,1.75,0,0,0,1.66-.12,1.73,1.73,0,0,0,.8-1.46l.06-13.54a1.74,1.74,0,0,0-3.19-1l-1.7,2.54a25,25,0,0,0-40.61,8.1,4,4,0,0,0,3.72,5.61Z"/><path class="cls-2" d="M52.72,35.94a4.07,4.07,0,0,0-3.37-1.8,4,4,0,0,0-3.69,2.44A17,17,0,0,1,30,47a16.76,16.76,0,0,1-10.31-3.53l2.24-.34a1.74,1.74,0,0,0,.45-3.31L10.05,34.29a1.75,1.75,0,0,0-1.66.13,1.72,1.72,0,0,0-.8,1.45L7.52,49.39a1.75,1.75,0,0,0,3.2,1l1.7-2.54a25.08,25.08,0,0,0,40.65-8.09A4,4,0,0,0,52.72,35.94Z"/></svg>