<svg id="Layer_1" data-name="Layer 1" xmlns="http://www.w3.org/2000/svg" viewBox="0 0 60 60"><defs><style>.cls-1{fill:#0098ea;}</style></defs><title>icon-file-green-16h-proximax-sirius-wallet copy</title><path class="cls-1" d="M30,0A30,30,0,1,0,60,30,30,30,0,0,0,30,0Zm0,58.12A28.12,28.12,0,1,1,58.13,30,28.15,28.15,0,0,1,30,58.12Z"/><path class="cls-1" d="M14.12,18.65a3.43,3.43,0,0,1,3.47-3.4H42.41a3.41,3.41,0,1,1,0,6.81H17.59A3.44,3.44,0,0,1,14.12,18.65Zm28.29,8H17.59a3.4,3.4,0,1,0,0,6.8H42.41a3.4,3.4,0,1,0,0-6.8Zm0,11.34H17.59a3.41,3.41,0,1,0,0,6.81H42.41a3.41,3.41,0,1,0,0-6.81Z"/></svg>