<svg id="Layer_1" data-name="Layer 1" xmlns="http://www.w3.org/2000/svg" viewBox="0 0 60 60"><defs><style>.cls-1{fill:#0098ea;}</style></defs><title>icon-duration-green-16h-proximax-sirius-wallet</title><path class="cls-1" d="M30,0A30,30,0,1,0,60,30,30,30,0,0,0,30,0Zm0,58.12A28.12,28.12,0,1,1,58.13,30,28.15,28.15,0,0,1,30,58.12Z"/><path class="cls-1" d="M52.93,26a.92.92,0,0,0-.83-.55H49.4C47.68,15.71,39.49,8.3,29.68,8.3c-11.06,0-20.06,9.4-20.06,21s9,21,20.06,21A20,20,0,0,0,47.05,39.73a1.94,1.94,0,0,0-.66-2.6,1.77,1.77,0,0,0-2.49.69,16.36,16.36,0,0,1-14.22,8.57c-9,0-16.41-7.69-16.41-17.14s7.36-17.14,16.41-17.14a16.61,16.61,0,0,1,16,13.33H43a.92.92,0,0,0-.83.55,1,1,0,0,0,.13,1l4.55,5.71a.9.9,0,0,0,1.41,0L52.8,27A1,1,0,0,0,52.93,26Z"/><path class="cls-1" d="M29.68,13.06A1.87,1.87,0,0,0,27.86,15V26.52a3.37,3.37,0,0,0-1.37,2.73,3.27,3.27,0,0,0,3.19,3.34A3.08,3.08,0,0,0,31,32.27l6.34,3.82a1.79,1.79,0,0,0,.91.25,1.81,1.81,0,0,0,1.58-1,2,2,0,0,0-.67-2.6L32.84,29a3.33,3.33,0,0,0-1.33-2.43V15A1.88,1.88,0,0,0,29.68,13.06Zm0,17.62a1.43,1.43,0,1,1,1.37-1.43A1.41,1.41,0,0,1,29.68,30.68Z"/></svg>