<svg id="Layer_1" data-name="Layer 1" xmlns="http://www.w3.org/2000/svg" viewBox="0 0 16 16"><defs><style>.cls-1{fill:#fff;}</style></defs><title>icon-mosaics-white-16h</title><path class="cls-1" d="M12.74,5.88a.31.31,0,0,0-.13,0L8.42,7.72A.29.29,0,0,0,8.23,8v4.61a.31.31,0,0,0,.31.31.31.31,0,0,0,.13,0l4.2-1.81a.32.32,0,0,0,.19-.29V6.2A.32.32,0,0,0,12.74,5.88Zm-4,6.5V8.11l3.88-1.67V10.7ZM7.77,8v4.61a.32.32,0,0,1-.44.29l-4.2-1.79a.32.32,0,0,1-.2-.29V6.22a.32.32,0,0,1,.44-.29L7.58,7.72A.31.31,0,0,1,7.77,8Zm4.75-3.24L8.1,2.83A.31.31,0,0,0,8,2.8a.28.28,0,0,0-.13,0l-4.42,2a.32.32,0,0,0,0,.58L7.85,7.31a.3.3,0,0,0,.26,0l4.41-2A.32.32,0,0,0,12.52,4.77ZM8,6.85l-4-1.77L8,3.29l4,1.77ZM8,0a8,8,0,1,0,8,8A8,8,0,0,0,8,0ZM8,15.5A7.5,7.5,0,1,1,15.5,8,7.5,7.5,0,0,1,8,15.5Z"/></svg>