<svg id="Layer_1" data-name="Layer 1" xmlns="http://www.w3.org/2000/svg" viewBox="0 0 60 60"><defs><style>.cls-1{fill:none;}.cls-2{fill:#2f98e3;}</style></defs><title>icon-private-key-blue</title><rect class="cls-1" x="-471" y="-347" width="1366" height="780"/><rect class="cls-1" x="-635" y="-347" width="1366" height="780"/><rect class="cls-1" x="-712" y="-347" width="1366" height="780"/><path class="cls-2" d="M30,0A30,30,0,1,0,60,30,30,30,0,0,0,30,0Zm0,58.12A28.12,28.12,0,1,1,58.12,30,28.15,28.15,0,0,1,30,58.12Zm9.87-43.56a5.36,5.36,0,0,0-7.56,0L16.44,30.43a1.35,1.35,0,0,0,0,1.88l1.86,1.86L13.4,39A1.3,1.3,0,0,0,13,40a1.34,1.34,0,0,0,.39.95l5.78,5.71a1.36,1.36,0,0,0,.94.38,1.33,1.33,0,0,0,.94-.39l4.84-4.85,1.79,1.79a1.33,1.33,0,0,0,.94.39h0a1.33,1.33,0,0,0,.94-.39L40.71,32.33a1.33,1.33,0,0,0-1.89-1.87L28.61,40.73l-1.88-1.89L29.63,36A2.22,2.22,0,0,0,30,36a2.33,2.33,0,1,0-2.32-2.33,2.22,2.22,0,0,0,0,.45L24.85,37l-2-2,5.82-5.77h6a1.35,1.35,0,0,0,1-.4l2.52-2.57a2.28,2.28,0,0,0,.45,0A2.32,2.32,0,1,0,36.25,24c0,.13,0,.25,0,.37l-2.18,2.22h-6a1.31,1.31,0,0,0-.93.39L21,33.11l-1.73-1.74L34.19,16.44a2.69,2.69,0,0,1,3.8,0L43.57,22a2.65,2.65,0,0,1,0,3.74,1.33,1.33,0,0,0,1.88,1.88,5.31,5.31,0,0,0,0-7.5ZM20.18,36.05h0L24,39.89,20.1,43.8,16.22,40Z"/><rect class="cls-1" x="-558" y="-347" width="1366" height="780"/><rect class="cls-1" x="-555" y="-347" width="1366" height="780"/></svg>