<?xml version="1.0" encoding="utf-8"?>
<!-- Generator: Adobe Illustrator 24.1.0, SVG Export Plug-In . SVG Version: 6.00 Build 0)  -->
<svg version="1.1" id="Layer_1" xmlns="http://www.w3.org/2000/svg" xmlns:xlink="http://www.w3.org/1999/xlink" x="0px" y="0px"
	 viewBox="0 0 80 80" style="enable-background:new 0 0 80 80;" xml:space="preserve">
<style type="text/css">
	.st0{fill:#FFFFFF;}
	.st1{fill:#7D1416;}
	.st2{fill:#400000;}
	.st3{fill:#EAAA3B;}
	.st4{fill:#E18F36;}
	.st5{fill:#CBCBCB;}
</style>
<circle cx="40.4" cy="40.4" r="39.6"/>
<circle class="st0" cx="39.6" cy="39.6" r="39.6"/>
<path d="M76.1,38.9c0,20.5-16.6,37.2-37.2,37.2C18.4,76.1,1.8,59.5,1.8,39S18.4,1.8,39,1.8c0,0,0,0,0,0
	C59.5,1.8,76.1,18.4,76.1,38.9z"/>
<path class="st1" d="M76.8,39.6c0,20.5-16.7,37.2-37.2,37.2S2.4,60.1,2.4,39.6C2.4,19,19.1,2.4,39.6,2.4
	C60.1,2.4,76.8,19.1,76.8,39.6C76.8,39.6,76.8,39.6,76.8,39.6z"/>
<path class="st2" d="M69.9,22.5C60.4,5.8,39.3-0.1,22.5,9.3S-0.1,39.9,9.3,56.6c2.6,4.7,6.3,8.7,10.8,11.7
	C23.9,43.8,44.8,24.3,69.9,22.5z"/>
<rect x="17.6" y="29.5" width="44" height="29"/>
<rect x="33.1" y="18.8" class="st3" width="12.9" height="4.3"/>
<rect x="33.1" y="18.8" class="st4" width="6.4" height="4.3"/>
<path class="st0" d="M17.5,25.2h44.2c1.2,0,2.2,1,2.2,2.2v0c0,1.2-1,2.2-2.2,2.2H17.5c-1.2,0-2.2-1-2.2-2.2v0
	C15.4,26.2,16.3,25.2,17.5,25.2z"/>
<path class="st5" d="M17.5,25.2h21.8l0,0v4.3l0,0H17.5c-1.2,0-2.2-1-2.2-2.2l0,0C15.4,26.2,16.3,25.2,17.5,25.2
	C17.5,25.2,17.5,25.2,17.5,25.2z"/>
<path class="st0" d="M17.5,32.5h44.2c1.2,0,2.2,1,2.2,2.2v0c0,1.2-1,2.2-2.2,2.2H17.5c-1.2,0-2.2-1-2.2-2.2v0
	C15.4,33.4,16.3,32.5,17.5,32.5z"/>
<path class="st5" d="M17.5,32.5h21.8l0,0v4.3l0,0H17.5c-1.2,0-2.2-1-2.2-2.2l0,0C15.4,33.5,16.3,32.5,17.5,32.5
	C17.5,32.5,17.5,32.5,17.5,32.5z"/>
<path class="st0" d="M17.5,39.6h44.2c1.2,0,2.2,1,2.2,2.2v0c0,1.2-1,2.2-2.2,2.2H17.5c-1.2,0-2.2-1-2.2-2.2v0
	C15.4,40.6,16.3,39.6,17.5,39.6z"/>
<path class="st5" d="M17.5,39.6h21.8l0,0v4.3l0,0H17.5c-1.2,0-2.2-1-2.2-2.2l0,0C15.4,40.6,16.3,39.6,17.5,39.6
	C17.5,39.6,17.5,39.6,17.5,39.6z"/>
<path class="st0" d="M17.5,46.9h44.2c1.2,0,2.2,1,2.2,2.2v0c0,1.2-1,2.2-2.2,2.2H17.5c-1.2,0-2.2-1-2.2-2.2v0
	C15.4,47.8,16.3,46.9,17.5,46.9z"/>
<path class="st5" d="M17.5,46.9h21.8l0,0v4.3l0,0H17.5c-1.2,0-2.2-1-2.2-2.1c0,0,0,0,0-0.1l0,0C15.4,47.8,16.3,46.9,17.5,46.9z"/>
<path class="st0" d="M17.5,54.1h44.2c1.2,0,2.2,1,2.2,2.2v0c0,1.2-1,2.2-2.2,2.2H17.5c-1.2,0-2.2-1-2.2-2.2v0
	C15.4,55.1,16.3,54.1,17.5,54.1z"/>
<path class="st5" d="M17.5,54.1h21.8l0,0v4.3l0,0H17.5c-1.2,0-2.2-1-2.2-2.2l0,0C15.4,55.1,16.3,54.1,17.5,54.1
	C17.5,54.1,17.5,54.1,17.5,54.1z"/>
</svg>
