<svg id="Layer_1" data-name="Layer 1" xmlns="http://www.w3.org/2000/svg" viewBox="0 0 16 16"><defs><style>.cls-1{fill:#666;}</style></defs><title>icon-trash-can-16h</title><path class="cls-1" d="M3.57,15.22a.79.79,0,0,0,.78.78h7.3a.79.79,0,0,0,.78-.78L13,3.81H3.05ZM9.65,6.64A.32.32,0,0,1,10,6.32h.51a.31.31,0,0,1,.31.32v6.53a.31.31,0,0,1-.31.32H10a.32.32,0,0,1-.32-.32Zm-2.22,0a.32.32,0,0,1,.32-.32h.5a.32.32,0,0,1,.32.32v6.53a.32.32,0,0,1-.32.32h-.5a.32.32,0,0,1-.32-.32Zm-2.22,0a.31.31,0,0,1,.31-.32H6a.32.32,0,0,1,.32.32v6.53a.32.32,0,0,1-.32.32H5.52a.31.31,0,0,1-.31-.32ZM13.9,1.39V3.05H2.1V1.39A.51.51,0,0,1,2.6.86H6V.18A.17.17,0,0,1,6.2,0H9.8A.17.17,0,0,1,10,.18V.86H13.4A.51.51,0,0,1,13.9,1.39Z"/></svg>