<svg id="Layer_1" data-name="Layer 1" xmlns="http://www.w3.org/2000/svg" viewBox="0 0 16 16"><defs><style>.cls-1{fill:#666;}.cls-2{fill:#fff;}</style></defs><title>icon-doc-type-zip-16h-proximax-sirius-wallet</title><path class="cls-1" d="M9,0,2,2v.8H2l0,3.2h1L3,3.17l5.48,2V6h1V5.16l5.5-2V7H1A1,1,0,0,0,0,8v5a1,1,0,0,0,1,1H4.45l4.62,2,4.62-2H15a1,1,0,0,0,1-1h0V2ZM9,4.26,4,2.48,9,1l5.05,1.44ZM7,14H8.5v.66Zm2.53.72V14h1.67Z"/><path class="cls-2" d="M4.49,12.17v-.58L6.06,9.45H4.49V8.83H7V9.4L5.42,11.54H7v.63Z"/><path class="cls-2" d="M7.57,12.17V8.83h.71v3.34Z"/><path class="cls-2" d="M8.94,12.17V8.83H10.5a1.08,1.08,0,1,1,0,2.15H9.65v1.19Zm2-2.26a.45.45,0,0,0-.49-.46H9.65v.91h.75A.45.45,0,0,0,10.89,9.91Z"/></svg>