<svg id="Layer_1" data-name="Layer 1" xmlns="http://www.w3.org/2000/svg" xmlns:xlink="http://www.w3.org/1999/xlink" viewBox="0 0 44 80">
  <defs>
    <style>.cls-1{fill:url(#linear-gradient);}</style>
    <linearGradient id="linear-gradient" x1="50.02" y1="68.33" x2="-6.64" y2="11.67" gradientUnits="userSpaceOnUse">
      <stop offset="0" stop-color="#306eb5" />
      <stop offset="1" stop-color="#306EB5" />
    </linearGradient>
  </defs>
  <title>icon-streaming-gradient-80h-proximax-sirius-wallet</title>
  <path class="cls-1" d="M40,61.38A2.63,2.63,0,0,0,37.34,64v1.21H6V15h31.3V37.34a2.63,2.63,0,1,0,5.25,0V7.24A7.24,7.24,0,0,0,35.36,0H8A7.24,7.24,0,0,0,.79,7.24V72.77A7.23,7.23,0,0,0,8,80H35.36a7.23,7.23,0,0,0,7.23-7.23V64A2.63,2.63,0,0,0,40,61.38ZM37.34,72.77a2,2,0,0,1-2,2H8a2,2,0,0,1-2-2v-2.3h31.3ZM6,7.24a2,2,0,0,1,2-2H35.36a2,2,0,0,1,2,2V9.77H6Zm19.68.27A1.13,1.13,0,0,1,24.6,8.64H18.78a1.13,1.13,0,1,1,0-2.25H24.6A1.12,1.12,0,0,1,25.72,7.51ZM23.24,36.1l20,11.54-20,11.53Z" />
</svg>
