<svg id="Layer_1" data-name="Layer 1" xmlns="http://www.w3.org/2000/svg" viewBox="0 0 66 60"><defs><style>.cls-1{fill:#2ba1b9;}</style></defs><title>icon-namespaces-green-60h-proximax-sirius-wallet</title><path class="cls-1" d="M44,38.18V19.09H23.38V0H0V60H66V38.18ZM20.63,57.28H2.75V40.91H20.63Zm0-19.1H2.75V21.82H20.63Zm0-19.09H2.75V2.73H20.63ZM41.25,57.28H23.38V40.91H41.25Zm0-19.1H23.38V21.82H41.25Zm22,19.1H44V40.91H63.25ZM4.12,16.36V5.45A1.37,1.37,0,0,1,5.5,4.09H17.87a1.37,1.37,0,1,1,0,2.73h-11v9.54a1.38,1.38,0,0,1-2.76,0Zm0,19.09V24.55A1.37,1.37,0,0,1,5.5,23.18H17.87a1.37,1.37,0,1,1,0,2.73h-11v9.54a1.38,1.38,0,0,1-2.76,0Zm0,19.1V43.64A1.37,1.37,0,0,1,5.5,42.27H17.87a1.37,1.37,0,1,1,0,2.73h-11v9.55a1.38,1.38,0,0,1-2.75,0Zm20.62-19.1V24.55a1.37,1.37,0,0,1,1.37-1.37H38.5a1.37,1.37,0,1,1,0,2.73h-11v9.54a1.38,1.38,0,0,1-2.75,0Zm0,19.1V43.64a1.37,1.37,0,0,1,1.37-1.37H38.5a1.37,1.37,0,1,1,0,2.73h-11v9.55a1.38,1.38,0,0,1-2.75,0Zm20.62,0V43.64a1.37,1.37,0,0,1,1.38-1.37H60.5a1.37,1.37,0,1,1,0,2.73H48.13v9.55a1.38,1.38,0,0,1-2.76,0Z"/></svg>