<svg id="Layer_1" data-name="Layer 1" xmlns="http://www.w3.org/2000/svg" viewBox="0 0 60 60"><defs><style>.cls-1{fill:none;}.cls-2,.cls-3{fill:#2f98e3;}.cls-2{fill-rule:evenodd;}</style></defs><title>icon-add-new-blue</title><rect class="cls-1" x="-394" y="-347" width="1366" height="780"/><rect class="cls-1" x="-558" y="-347" width="1366" height="780"/><path class="cls-2" d="M30,0A30,30,0,1,0,60,30,30,30,0,0,0,30,0Zm0,58.12A28.12,28.12,0,1,1,58.12,30,28.15,28.15,0,0,1,30,58.12Z"/><rect class="cls-1" x="-635" y="-347" width="1366" height="780"/><polygon class="cls-3" points="47 25.42 35.08 25.42 35.08 13.5 25.92 13.5 25.92 25.42 14 25.42 14 34.58 25.92 34.58 25.92 46.5 35.08 46.5 35.08 34.58 47 34.58 47 25.42"/><rect class="cls-1" x="-481" y="-347" width="1366" height="780"/><rect class="cls-1" x="-478" y="-347" width="1366" height="780"/></svg>