<svg id="Layer_1" data-name="Layer 1" xmlns="http://www.w3.org/2000/svg" viewBox="0 0 35 28"><defs><style>.cls-1{fill:#666;}</style></defs><title>icon-address-book-gray-28h-proximax-sirius-wallet</title><path class="cls-1" d="M17.92,19.83v.9a1,1,0,0,1-1,1H6.08a1,1,0,0,1-1-1v-.9A3.25,3.25,0,0,1,8.3,16.56h.84a.78.78,0,0,0,.78-.79.6.6,0,0,0-.18-.43,5.76,5.76,0,0,1-1.18-1.78.3.3,0,0,1-.16,0c-.47,0-1-1-1-1.76s.06-1.29.54-1.29l.12,0c0-1.93.39-4.34,3.45-4.34s3.41,2.42,3.45,4.35l.17,0c.47,0,.54.58.54,1.29s-.55,1.76-1,1.76a.3.3,0,0,1-.2-.08,5.93,5.93,0,0,1-1.19,1.81.58.58,0,0,0-.18.43.78.78,0,0,0,.78.79h.84A3.25,3.25,0,0,1,17.92,19.83ZM28.23,7.61H17.41a6.82,6.82,0,0,1,.53,2.19,1.33,1.33,0,0,1,.46.55h9.83A.76.76,0,0,0,29,9.59V8.37A.76.76,0,0,0,28.23,7.61Zm.76,7V13.36a.76.76,0,0,0-.76-.76H18.58a2.65,2.65,0,0,1-1.47,1.9l-.07.11v.73H28.23A.76.76,0,0,0,29,14.57Zm-.76,3H20.31A4.16,4.16,0,0,1,21,19.82v.51h7.27a.77.77,0,0,0,.76-.77V18.35A.76.76,0,0,0,28.23,17.59ZM35,4.69V23.31A4.62,4.62,0,0,1,30.45,28H4.55A4.62,4.62,0,0,1,0,23.31V4.69A4.62,4.62,0,0,1,4.55,0h25.9A4.62,4.62,0,0,1,35,4.69Zm-2.15,0a2.44,2.44,0,0,0-2.4-2.48H4.55a2.44,2.44,0,0,0-2.4,2.48V23.31a2.44,2.44,0,0,0,2.4,2.48h25.9a2.44,2.44,0,0,0,2.4-2.48Z"/></svg>