<svg id="Layer_1" data-name="Layer 1" xmlns="http://www.w3.org/2000/svg" viewBox="0 0 40 40"><defs><style>.cls-1{fill:#666;}.cls-2{fill:#fff;}</style></defs><title>icon-view-transaction-gray</title><circle class="cls-1" cx="20" cy="20" r="20"/><path class="cls-2" d="M34.78,19.17c-.28-.3-6.71-7.33-14.78-7.33s-14.5,7-14.78,7.33a.9.9,0,0,0,0,1.17c.28.3,6.71,7.32,14.78,7.32s14.5-7,14.78-7.32A.9.9,0,0,0,34.78,19.17ZM20,25.9a6.15,6.15,0,1,1,6.15-6.15h0A6.16,6.16,0,0,1,20,25.9Z"/><path class="cls-2" d="M20.88,18A2.64,2.64,0,0,1,22,15.85a4.49,4.49,0,0,0-2-.5,4.4,4.4,0,1,0,4.32,5.14A2.62,2.62,0,0,1,20.88,18Z"/></svg>