<?xml version="1.0" encoding="utf-8"?>
<!-- Generator: Adobe Illustrator 24.1.0, SVG Export Plug-In . SVG Version: 6.00 Build 0)  -->
<svg version="1.1" id="Layer_1" xmlns="http://www.w3.org/2000/svg" xmlns:xlink="http://www.w3.org/1999/xlink" x="0px" y="0px"
	 viewBox="0 0 60 60" style="enable-background:new 0 0 60 60;" xml:space="preserve">
<style type="text/css">
	.st0{fill:#7D1416;}
</style>
<g>
	<path class="st0" d="M32.5,27.3v-3.7c0-0.5-0.4-0.9-0.9-0.9l0,0H15.4c-0.5,0-0.9,0.4-0.9,0.9v3.6c0,0.5,0.4,0.9,0.9,0.9h16.3
		C32.2,28.2,32.5,27.8,32.5,27.3L32.5,27.3z M30.8,26.4H16.2v-1.9h14.6C30.8,24.5,30.8,26.4,30.8,26.4z M33.3,50.9h11.3
		c0.5,0,0.9-0.4,0.9-0.9v-3.7c0-0.5-0.4-0.9-0.9-0.9H33.3c-0.5,0-0.9,0.4-0.9,0.9l0,0V50C32.4,50.5,32.8,50.9,33.3,50.9L33.3,50.9z
		 M34.2,47.2h9.6v1.9h-9.6L34.2,47.2z M45.5,18.3c0,0.5-0.4,0.9-0.9,0.9l0,0H15.4c-0.5,0.1-0.9-0.3-1-0.8s0.3-0.9,0.8-1
		c0.1,0,0.1,0,0.2,0h29.3C45.1,17.4,45.5,17.8,45.5,18.3z M25.1,32.9h-9.8c-0.5,0.1-0.9-0.3-1-0.8s0.3-0.9,0.8-1c0.1,0,0.1,0,0.2,0
		h9.8c0.5-0.1,0.9,0.3,1,0.8s-0.3,0.9-0.8,1C25.2,32.9,25.2,32.9,25.1,32.9z M24.4,36.5c0,0.5-0.4,0.9-0.9,0.9h-8.2
		c-0.5,0-0.9-0.4-0.9-0.9s0.4-0.9,0.9-0.9l0,0h8.2C24,35.6,24.4,36,24.4,36.5z M24.4,40.9c0,0.5-0.4,0.9-0.9,0.9l0,0h-8.2
		c-0.5,0-0.9-0.4-0.9-0.9s0.4-0.9,0.9-0.9l0,0h8.2C24,40,24.4,40.4,24.4,40.9z M45.5,40.9c0,0.5-0.4,0.9-0.9,0.9l0,0h-4.1
		c-0.5,0-0.9-0.4-0.9-0.9S40,40,40.5,40l0,0h4.1C45.1,40,45.5,40.4,45.5,40.9z M45.5,36.5c0,0.5-0.4,0.9-0.9,0.9h-4.1
		c-0.5,0-0.9-0.4-0.9-0.9s0.4-0.9,0.9-0.9l0,0h4.1C45.1,35.6,45.5,36,45.5,36.5z M45.5,32c0,0.5-0.4,0.9-0.9,0.9h-4.1
		c-0.5,0.1-0.9-0.3-1-0.8s0.3-0.9,0.8-1c0.1,0,0.1,0,0.2,0h4.1C45.1,31.1,45.5,31.5,45.5,32L45.5,32z M47.3,19.8V2.2
		c-0.9,1-1.5,3.1-3.7,3.1c-2.8,0-3-3.5-4.5-3.5s-1.8,3.5-4.5,3.5s-3-3.5-4.5-3.5s-1.8,3.5-4.5,3.5s-3-3.5-4.5-3.5s-1.8,3.5-4.5,3.5
		c-2.1,0-2.8-2.1-3.7-3.1v55.6c0.9-1,1.5-3.1,3.7-3.1c2.8,0,3,3.5,4.5,3.5s1.8-3.5,4.5-3.5s3,3.5,4.5,3.5s1.8-3.5,4.5-3.5
		s3,3.5,4.5,3.5s1.8-3.5,4.5-3.5c2.2,0,2.8,2.1,3.7,3.1V23.1c0-0.5,0.4-0.9,0.9-0.9s0.9,0.4,0.9,0.9v36c0,0.5-0.4,0.9-0.9,0.9l0,0
		c-2.8,0-3-3.5-4.5-3.5S41.9,60,39.1,60s-3-3.5-4.5-3.5S32.8,60,30,60s-3-3.5-4.5-3.5S23.7,60,20.9,60s-3-3.5-4.5-3.5
		S14.6,60,11.8,60c-0.5,0-0.9-0.4-0.9-0.9l0,0V0.9c0-0.5,0.4-0.9,0.9-0.9l0,0c2.8,0,3,3.5,4.6,3.5S18.1,0,20.9,0s3,3.5,4.6,3.5
		S27.2,0,30,0s3,3.5,4.5,3.5S36.3,0,39.1,0s3,3.5,4.5,3.5S45.4,0,48.2,0c0.5,0,0.9,0.4,0.9,0.9l0,0v18.9c0,0.5-0.4,0.9-0.9,0.9
		C47.7,20.7,47.3,20.3,47.3,19.8z M45.5,13.6c0,0.5-0.4,0.9-0.9,0.9H15.4c-0.5,0-0.9-0.4-0.9-0.9V10c0-0.5,0.4-0.9,0.9-0.9h4.9
		c0.5,0,0.9,0.4,0.9,0.9s-0.4,0.9-0.9,0.9l0,0h-4v1.9h27.5v-1.9H23.5c-0.5,0-0.9-0.4-0.9-0.9s0.4-0.9,0.9-0.9h21.1
		c0.5,0,0.9,0.4,0.9,0.9V13.6z"/>
</g>
</svg>
