<svg id="Layer_1" data-name="Layer 1" xmlns="http://www.w3.org/2000/svg" viewBox="0 0 16 16"><defs><style>.cls-1{fill:#7bafb5;}</style></defs><title>icon-private-key-light-green</title><path class="cls-1" d="M15.27,3.36,12.64.73a2.51,2.51,0,0,0-3.55,0L1.62,8.2a.64.64,0,0,0,0,.89L2.5,10,.19,12.24a.62.62,0,0,0,0,.89L2.9,15.82a.64.64,0,0,0,.89,0l2.28-2.28.84.84a.63.63,0,0,0,.44.18h0a.63.63,0,0,0,.44-.18L13,9.1a.64.64,0,0,0,0-.89.63.63,0,0,0-.89,0l-4.8,4.83-.89-.89L7.82,10.8H8A1.09,1.09,0,1,0,6.91,9.72a.75.75,0,0,0,0,.21L5.58,11.28l-.93-.93L7.38,7.63h2.81a.6.6,0,0,0,.44-.19l1.19-1.21.21,0a1.1,1.1,0,1,0-1.09-1.09.91.91,0,0,0,0,.17l-1,1H7.13a.59.59,0,0,0-.44.18L3.76,9.46,3,8.65l7-7a1.27,1.27,0,0,1,1.79,0l2.63,2.62a1.26,1.26,0,0,1,0,1.76.62.62,0,1,0,.88.88A2.49,2.49,0,0,0,15.27,3.36ZM3.38,10.85h0l1.8,1.8L3.34,14.49l-1.83-1.8Z"/></svg>