<svg id="Layer_1" data-name="Layer 1" xmlns="http://www.w3.org/2000/svg" viewBox="0 0 16 16"><defs><style>.cls-1{fill:#2ba1b9;}</style></defs><title>icon-us-dollar-green-16h</title><path class="cls-1" d="M8,2A6,6,0,1,1,2,8,6,6,0,0,1,8,2M8,0a8,8,0,1,0,8,8A8,8,0,0,0,8,0Z"/><path class="cls-1" d="M7.56,12a4.18,4.18,0,0,1-2.72-1.19l.88-1.25a3.35,3.35,0,0,0,1.84,1V8.69C6.37,8.39,5.08,8,5.08,6.39A2.45,2.45,0,0,1,7.56,4.07V3H8.65V4.09a4.16,4.16,0,0,1,2.34,1l-.91,1.2a3.29,3.29,0,0,0-1.43-.75V7.19c1.19.3,2.51.76,2.51,2.33,0,1.28-.83,2.26-2.51,2.43V13H7.56Zm0-5.05V5.5c-.52.07-.81.36-.81.75S7.07,6.77,7.56,6.91ZM8.65,9v1.54c.57-.11.85-.45.85-.8S9.15,9.13,8.65,9Z"/></svg>