<?xml version="1.0" encoding="utf-8"?>
<!-- Generator: Adobe Illustrator 24.1.0, SVG Export Plug-In . SVG Version: 6.00 Build 0)  -->
<svg version="1.1" id="Layer_1" xmlns="http://www.w3.org/2000/svg" xmlns:xlink="http://www.w3.org/1999/xlink" x="0px" y="0px"
	 viewBox="0 0 60 60" style="enable-background:new 0 0 60 60;" xml:space="preserve">
<style type="text/css">
	.st0{fill:#7D1416;}
</style>
<g>
	<path class="st0" d="M30,0C13.4,0,0,13.4,0,30s13.4,30,30,30s30-13.4,30-30S46.6,0,30,0z M30,58.1C14.5,58.1,1.9,45.5,1.9,30
		S14.5,1.9,30,1.9S58.1,14.5,58.1,30S45.5,58.1,30,58.1z M40,12.6c-2.1-2.1-5.6-2.1-7.8,0l0,0L15.9,29c-0.5,0.5-0.5,1.4,0,1.9l0,0
		l1.9,1.9l-5.1,5c-0.5,0.5-0.6,1.4,0,1.9l0,0l5.9,5.9c0.3,0.3,0.6,0.4,1,0.4s0.7-0.1,1-0.4l5-5l1.8,1.8c0.3,0.3,0.6,0.4,1,0.4l0,0
		c0.4,0,0.7-0.1,1-0.4l11.3-11.6c0.5-0.5,0.5-1.4,0-1.9l0,0c-0.5-0.5-1.4-0.5-1.9,0L28.4,39.5l-1.9-2l3-3c0.1,0,0.3,0,0.4,0
		c1.3,0,2.4-1.1,2.4-2.4s-1.1-2.4-2.4-2.4s-2.4,1.1-2.4,2.4l0,0c0,0.2,0,0.3,0,0.5l-3,3l-2-2l6-6h6.1c0.4,0,0.7-0.1,1-0.4l2.6-2.6
		c1.3,0.3,2.6-0.6,2.8-1.9c0.3-1.3-0.6-2.6-1.9-2.8c-1.3-0.3-2.6,0.6-2.8,1.9c0,0.1,0,0.3,0,0.5c0,0.1,0,0.3,0,0.4L34.1,25H28
		c-0.4,0-0.7,0.1-1,0.4l-6.4,6.4L18.8,30l15.4-15.4c1.1-1.1,2.8-1.1,3.9,0l0,0l5.7,5.7c1.1,1.1,1.1,2.8,0,3.9
		c-0.5,0.6-0.5,1.4,0.1,1.9c0.5,0.5,1.3,0.5,1.8,0c2.1-2.1,2.1-5.6,0-7.7L40,12.6z M19.7,34.7L19.7,34.7l3.9,4l-4,4l-4-4L19.7,34.7z
		"/>
</g>
</svg>
