<svg id="Layer_1" data-name="Layer 1" xmlns="http://www.w3.org/2000/svg" viewBox="0 0 60 60"><defs><style>.cls-1{fill:#777;}</style></defs><title>icon-eye-hide-password</title><path class="cls-1" d="M19,35.54A12.17,12.17,0,0,1,17.7,30,12.32,12.32,0,0,1,30,17.7,12.17,12.17,0,0,1,35.54,19L39,15.58a30.91,30.91,0,0,0-9-1.4C13.87,14.18,1,28.23.45,28.83a1.75,1.75,0,0,0,0,2.34,53.74,53.74,0,0,0,12.94,10Z"/><path class="cls-1" d="M30,38.79a8.79,8.79,0,0,0,8.64-7.31,5.19,5.19,0,0,1-4.83-.82L26.44,38A8.81,8.81,0,0,0,30,38.79Z"/><path class="cls-1" d="M30,21.21a8.77,8.77,0,0,0-8.3,11.66L32.84,21.72A8.36,8.36,0,0,0,30,21.21Z"/><path class="cls-1" d="M59.55,28.83A53.62,53.62,0,0,0,46,18.49l-5.35,5.34a12.29,12.29,0,0,1-16.8,16.8l-3.55,3.56A31.05,31.05,0,0,0,30,45.82c16.13,0,29-14,29.55-14.65A1.75,1.75,0,0,0,59.55,28.83Z"/><rect class="cls-1" x="28.02" y="8" width="3" height="44" transform="translate(29.86 -12.08) rotate(45)"/></svg>