<svg id="Layer_1" data-name="Layer 1" xmlns="http://www.w3.org/2000/svg" viewBox="0 0 60 60"><defs><style>.cls-1{fill:#2f98e3;}</style></defs><title>icon-namespace-mosaic-duration-03</title><path class="cls-1" d="M58.88,25.8a1.22,1.22,0,0,0-1.1-.71H54.17A26.95,26.95,0,1,0,51,43.51a2.47,2.47,0,0,0-.89-3.36,2.42,2.42,0,0,0-3.33.9,22.13,22.13,0,1,1,2.37-16H45.6a1.23,1.23,0,0,0-.94,2l6.09,7.36a1.22,1.22,0,0,0,.94.44,1.2,1.2,0,0,0,.93-.44l6.1-7.36A1.23,1.23,0,0,0,58.88,25.8Z"/><path class="cls-1" d="M43.23,29a3.29,3.29,0,0,1-.43-3.42,3.24,3.24,0,0,1,2.93-1.91H46A19.5,19.5,0,0,0,32.35,11.33c0,.11,0,.2,0,.31V26.2A6.38,6.38,0,0,1,34,29.11l7.7,4.64a4.62,4.62,0,0,1,1.61,6.16,4.43,4.43,0,0,1-3.86,2.31,4.34,4.34,0,0,1-2.26-.64L29.54,37a5.77,5.77,0,0,1-1.6.22,6.36,6.36,0,0,1-6.26-6.45,6.57,6.57,0,0,1,1.83-4.55V11.65c0-.17,0-.32,0-.48a19.5,19.5,0,1,0,23.3,22.35Z"/><path class="cls-1" d="M27.94,9.1a2.49,2.49,0,0,0-2.43,2.55V27.09a4.5,4.5,0,0,0-1.83,3.65,4.36,4.36,0,0,0,4.26,4.45,4,4,0,0,0,1.8-.43l8.48,5.11a2.29,2.29,0,0,0,1.22.35,2.42,2.42,0,0,0,2.11-1.28,2.6,2.6,0,0,0-.89-3.47l-8.49-5.12a4.46,4.46,0,0,0-1.79-3.26V11.65A2.49,2.49,0,0,0,27.94,9.1Zm0,23.55a1.91,1.91,0,1,1,1.83-1.91A1.87,1.87,0,0,1,27.94,32.65Z"/></svg>