<svg id="Layer_1" data-name="Layer 1" xmlns="http://www.w3.org/2000/svg" viewBox="0 0 16 16"><defs><style>.cls-1{fill:#666;}.cls-2{fill:#fff;}</style></defs><title>icon-doc-type-jpg-16h-proximax-sirius-wallet</title><path class="cls-1" d="M14,1H4A2,2,0,0,0,2,3V6H3V3A1,1,0,0,1,4,2H14a1,1,0,0,1,1,1V13h0a1,1,0,0,1-1,1H4a1,1,0,0,1-1-1H2a2,2,0,0,0,2,2H14a2,2,0,0,0,2-2V3A2,2,0,0,0,14,1Z"/><rect class="cls-1" y="7" width="14" height="5" rx="1"/><path class="cls-2" d="M3.36,10.62l.25-.43a.62.62,0,0,0,.43.19A.39.39,0,0,0,4.45,10V8.17H5V10a.85.85,0,0,1-.94.92A1,1,0,0,1,3.36,10.62Z"/><path class="cls-2" d="M5.55,10.83V8.17H6.79a.83.83,0,0,1,.9.86.84.84,0,0,1-.9.86H6.12v.94ZM7.11,9a.35.35,0,0,0-.39-.36h-.6v.72h.6A.36.36,0,0,0,7.11,9Z"/><path class="cls-2" d="M7.92,9.5A1.35,1.35,0,0,1,9.33,8.12a1.25,1.25,0,0,1,1.11.6L10,9a.78.78,0,0,0-.64-.34.83.83,0,0,0-.83.87.83.83,0,0,0,.83.88.9.9,0,0,0,.57-.21V9.85H9.2V9.36h1.27v1a1.46,1.46,0,0,1-1.14.51A1.36,1.36,0,0,1,7.92,9.5Z"/><polygon class="cls-1" points="4 6 6 4 8 6 4 6"/><path class="cls-1" d="M11,3A3,3,0,0,0,8,6h6A3,3,0,0,0,11,3Z"/></svg>