<?xml version="1.0" encoding="utf-8"?>
<!-- Generator: Adobe Illustrator 24.1.0, SVG Export Plug-In . SVG Version: 6.00 Build 0)  -->
<svg version="1.1" id="Layer_1" xmlns="http://www.w3.org/2000/svg" xmlns:xlink="http://www.w3.org/1999/xlink" x="0px" y="0px"
	 viewBox="0 0 60 60" style="enable-background:new 0 0 60 60;" xml:space="preserve">
<style type="text/css">
	.st0{fill:#7D1416;}
</style>
<g>
	<path class="st0" d="M30,0C13.4,0,0,13.4,0,30s13.4,30,30,30s30-13.4,30-30S46.6,0,30,0z M30,58.1C14.5,58.1,1.9,45.5,1.9,30
		S14.5,1.9,30,1.9S58.1,14.5,58.1,30S45.5,58.1,30,58.1z"/>
</g>
<g>
	<path class="st0" d="M14.1,18.6c0-1.9,1.6-3.4,3.5-3.4l0,0h24.8c1.9-0.1,3.5,1.3,3.6,3.2s-1.3,3.5-3.2,3.6c-0.1,0-0.2,0-0.4,0H17.6
		C15.7,22.1,14.1,20.6,14.1,18.6C14.1,18.7,14.1,18.7,14.1,18.6z M42.4,26.6H17.6c-1.9,0-3.4,1.5-3.4,3.4s1.5,3.4,3.4,3.4l0,0h24.8
		c1.9,0,3.4-1.5,3.4-3.4C45.8,28.2,44.3,26.7,42.4,26.6C42.4,26.7,42.4,26.7,42.4,26.6z M42.4,38H17.6c-1.9-0.1-3.5,1.3-3.6,3.2
		s1.3,3.5,3.2,3.6c0.1,0,0.2,0,0.4,0h24.8c1.9,0.1,3.5-1.3,3.6-3.2s-1.3-3.5-3.2-3.6C42.7,38,42.5,38,42.4,38z"/>
</g>
</svg>
