<?xml version="1.0" encoding="utf-8"?>
<!-- Generator: Adobe Illustrator 24.1.0, SVG Export Plug-In . SVG Version: 6.00 Build 0)  -->
<svg version="1.1" id="Layer_1" xmlns="http://www.w3.org/2000/svg" xmlns:xlink="http://www.w3.org/1999/xlink" x="0px" y="0px"
	 viewBox="0 0 80 80" style="enable-background:new 0 0 80 80;" xml:space="preserve">
<style type="text/css">
	.st0{fill:#FFFFFF;}
	.st1{fill:#7D1416;}
	.st2{fill:#400000;}
	.st3{fill:#EAAA3B;}
</style>
<circle cx="40.4" cy="40.4" r="39.6"/>
<circle class="st0" cx="39.6" cy="39.6" r="39.6"/>
<path d="M76.1,38.9c0,20.5-16.6,37.2-37.2,37.2C18.4,76.1,1.8,59.5,1.8,39S18.4,1.8,39,1.8c0,0,0,0,0,0
	C59.5,1.8,76.1,18.4,76.1,38.9z"/>
<path class="st1" d="M76.8,39.6c0,20.5-16.7,37.2-37.2,37.2S2.4,60.1,2.4,39.6C2.4,19,19.1,2.4,39.6,2.4
	C60.1,2.4,76.8,19.1,76.8,39.6C76.8,39.6,76.8,39.6,76.8,39.6z"/>
<path class="st2" d="M69.9,22.5C60.4,5.8,39.3-0.1,22.5,9.3S-0.1,39.9,9.3,56.6c2.6,4.7,6.3,8.7,10.8,11.7
	C23.9,43.8,44.8,24.3,69.9,22.5z"/>
<path d="M27.8,63.7c0.2,0.1,0.5,0.1,0.7,0.1c2.5,0,2.8-2.5,4.2-2.5s1.6,2.5,4.2,2.5s2.8-2.5,4.2-2.5s1.6,2.5,4.2,2.5
	s2.8-2.5,4.2-2.5s1.6,2.5,4.2,2.5c0.2,0,0.4,0,0.6-0.1c0.8-0.6,1.3-1.5,1.3-2.5V20.2c-1.1-0.7-1.5-2-2.5-2c-1.3,0-1.5,2.4-3.9,2.4
	s-2.6-2.4-3.9-2.4s-1.5,2.4-3.9,2.4s-2.6-2.4-3.9-2.4s-1.5,2.4-3.9,2.4s-2.6-2.4-3.9-2.4c-1.1,0-1.5,1.7-3,2.2v40.8
	C26.5,62.2,27,63.2,27.8,63.7z"/>
<path class="st0" d="M26.8,62.7c0.2,0.1,0.5,0.1,0.7,0.1c2.5,0,2.8-2.5,4.2-2.5s1.6,2.5,4.2,2.5s2.8-2.5,4.2-2.5s1.6,2.5,4.2,2.5
	s2.8-2.5,4.2-2.5s1.6,2.5,4.2,2.5c0.2,0,0.4,0,0.6-0.1c0.8-0.6,1.3-1.5,1.3-2.5V19.2c-1.1-0.7-1.5-2-2.5-2c-1.3,0-1.5,2.4-3.9,2.4
	s-2.6-2.4-3.9-2.4s-1.5,2.4-3.9,2.4s-2.6-2.4-3.9-2.4s-1.5,2.4-3.9,2.4s-2.6-2.4-3.9-2.4c-1.1,0-1.5,1.7-3,2.2v40.8
	C25.5,61.2,26,62.2,26.8,62.7z"/>
<path class="st1" d="M39.8,52.2h10.5c0.5,0,0.9,0.4,0.9,0.9v1.6c0,0.5-0.4,0.9-0.9,0.9H39.8c-0.5,0-0.9-0.4-0.9-0.9v-1.6
	C38.9,52.6,39.3,52.2,39.8,52.2z"/>
<path class="st1" d="M50.3,47.1h-3.8c-0.5,0-0.9,0.4-0.9,0.9c0,0.5,0.4,0.9,0.9,0.9h3.8c0.5,0,0.9-0.4,0.9-0.9
	C51.1,47.5,50.8,47.1,50.3,47.1z"/>
<path class="st1" d="M50.3,43.7h-3.8c-0.5,0.1-0.9,0.5-0.8,1c0,0.4,0.4,0.8,0.8,0.8h3.8c0.5-0.1,0.9-0.5,0.8-1
	C51,44.1,50.7,43.8,50.3,43.7z"/>
<path class="st1" d="M50.3,39.3h-3.8c-0.5,0-0.9,0.4-0.9,0.9c0,0.5,0.4,0.9,0.9,0.9h3.8c0.5,0,0.9-0.4,0.9-0.9
	C51.1,39.7,50.8,39.3,50.3,39.3z"/>
<path class="st3" d="M29.7,23.2h20.5c0.5,0,0.9,0.4,0.9,0.9v1.6c0,0.5-0.4,0.9-0.9,0.9H29.7c-0.5,0-0.9-0.4-0.9-0.9v-1.6
	C28.9,23.6,29.2,23.2,29.7,23.2z"/>
<path class="st1" d="M50.3,29.2H29.7c-0.5,0.1-0.9,0.5-0.8,1c0,0.4,0.4,0.8,0.8,0.8h20.5c0.5-0.1,0.9-0.5,0.8-1
	C51,29.6,50.7,29.3,50.3,29.2z"/>
<path class="st1" d="M29.7,34.3h10.5c0.5,0,0.9,0.4,0.9,0.9v1.6c0,0.5-0.4,0.9-0.9,0.9H29.7c-0.5,0-0.9-0.4-0.9-0.9v-1.6
	C28.9,34.7,29.2,34.3,29.7,34.3z"/>
<path class="st1" d="M29.7,41H38c0.5,0,0.9-0.4,0.9-0.9c0-0.5-0.4-0.9-0.9-0.9h-8.3c-0.5,0-0.9,0.4-0.9,0.9
	C28.8,40.6,29.2,41,29.7,41C29.7,41,29.7,41,29.7,41z"/>
<path class="st1" d="M29.7,45.5H38c0.5-0.1,0.9-0.5,0.8-1c0-0.4-0.4-0.8-0.8-0.8h-8.3c-0.5,0.1-0.9,0.5-0.8,1
	C29,45.1,29.3,45.5,29.7,45.5z"/>
<path class="st1" d="M38,47.1h-8.3c-0.5,0-0.9,0.4-0.9,0.9c0,0.5,0.4,0.9,0.9,0.9c0,0,0,0,0,0H38c0.5,0,0.9-0.4,0.9-0.9
	C38.9,47.5,38.5,47.1,38,47.1z"/>
</svg>
