<svg id="Layer_1" data-name="Layer 1" xmlns="http://www.w3.org/2000/svg" viewBox="0 0 60 60"><defs><style>.cls-1{fill:#2ba1b9;}</style></defs><title>icon-voting-green-60h</title><path class="cls-1" d="M59.24,7.6,41.74.1a1.25,1.25,0,0,0-1.47.37l-5,6.25a1.27,1.27,0,0,0-.24,1,1.2,1.2,0,0,0,.61.81L20,14.47a6.26,6.26,0,0,0-3.17,2.63l-5.19,8.65a6.21,6.21,0,0,0-.23,6l.37.74H6.25A1.25,1.25,0,0,0,5,33.75V57.5H1.25a1.25,1.25,0,0,0,0,2.5h42.5a1.25,1.25,0,0,0,0-2.5H40V44.72a1.25,1.25,0,0,0-.58-1,1.27,1.27,0,0,0-1.21-.08,19.22,19.22,0,0,1-2.86,1.12,1.08,1.08,0,0,0-.29.13l-8.14,4.88a8.33,8.33,0,0,1-8.75-14.17l1.18-.74,2.31-1.45a1.24,1.24,0,0,0,.54-1.43,9.31,9.31,0,0,0-1.31-2.58,17.48,17.48,0,0,0,5.78-3.83l0,0c.28.16.6.33,1,.51l0,0h0a14.35,14.35,0,0,0,3.47,1.17,23.41,23.41,0,0,0-3.49,5.53,87.64,87.64,0,0,0-8.2,4.88,5.83,5.83,0,0,0-1.72,8.15,5.83,5.83,0,0,0,7.85,1.77l8.58-5.15c1.35-.33,8-2.33,13.09-10.52A90.16,90.16,0,0,0,54.43,18l.14.07a3.68,3.68,0,0,0,1.68.4,3.77,3.77,0,0,0,2.61-1.06A3.72,3.72,0,0,0,60,14.71v-6A1.27,1.27,0,0,0,59.24,7.6Z"/></svg>