<svg id="Layer_1" data-name="Layer 1" xmlns="http://www.w3.org/2000/svg" viewBox="0 0 16 16"><defs><style>.cls-1{fill:#666;}.cls-2{fill:#fff;}</style></defs><title>icon-doc-type-pdf-16h-proximax-sirius-wallet</title><rect class="cls-1" x="5" y="3" width="6" height="1"/><rect class="cls-1" x="5" y="5" width="5" height="1"/><rect class="cls-1" y="7" width="14" height="5" rx="1"/><path class="cls-1" d="M14,2a2,2,0,0,0-2-2H4A2,2,0,0,0,2,2V6H3V2A1,1,0,0,1,4,1h8a1,1,0,0,1,1,1V6h1V3a1,1,0,0,1,1,1V14a1,1,0,0,1-1,1H6a1,1,0,0,1-1-1h7a2,2,0,0,0,1.72-1H2.28A2,2,0,0,0,4,14a2,2,0,0,0,2,2h8a2,2,0,0,0,2-2V4A2,2,0,0,0,14,2Z"/><path class="cls-2" d="M3.44,10.83V8.17H4.68a.86.86,0,1,1,0,1.72H4v.94ZM5,9a.35.35,0,0,0-.39-.36H4v.72h.6A.36.36,0,0,0,5,9Z"/><path class="cls-2" d="M5.93,10.83V8.17H7a1.33,1.33,0,1,1,0,2.66ZM7.82,9.5A.78.78,0,0,0,7,8.67H6.5v1.66H7A.8.8,0,0,0,7.82,9.5Z"/><path class="cls-2" d="M8.81,10.83V8.17h1.88v.5H9.37v.56h1.3v.5H9.37v1.1Z"/></svg>