<svg id="Layer_1" data-name="Layer 1" xmlns="http://www.w3.org/2000/svg" viewBox="0 0 20 16"><defs><style>.cls-1{fill:#2ba1b9;}</style></defs><title>icon-transactions-green-16h-proximax-sirius-wallet</title><path class="cls-1" d="M19.79,5.3l-5-5.09a.71.71,0,0,0-1,0,.76.76,0,0,0-.21.52V2.91h-5a.73.73,0,0,0,0,1.45h5.72A.71.71,0,0,0,15,3.64V2.48l3.28,3.34L15,9.15V8a.72.72,0,0,0-.71-.73H6.43V5.09a.73.73,0,0,0-.72-.73.68.68,0,0,0-.5.22l-5,5.09a.74.74,0,0,0,0,1l5,5.09a.71.71,0,0,0,.5.21A.67.67,0,0,0,6,15.94a.73.73,0,0,0,.44-.67V13.09h5a.73.73,0,0,0,0-1.45H5.71a.71.71,0,0,0-.71.72v1.16L1.72,10.18,5,6.85V8a.72.72,0,0,0,.71.73h7.86v2.18a.73.73,0,0,0,.72.73.68.68,0,0,0,.5-.22l5-5.09A.74.74,0,0,0,19.79,5.3Z"/></svg>