<?xml version="1.0" encoding="utf-8"?>
<!-- Generator: Adobe Illustrator 24.1.0, SVG Export Plug-In . SVG Version: 6.00 Build 0)  -->
<svg version="1.1" id="Layer_1" xmlns="http://www.w3.org/2000/svg" xmlns:xlink="http://www.w3.org/1999/xlink" x="0px" y="0px"
	 viewBox="0 0 60 60" style="enable-background:new 0 0 60 60;" xml:space="preserve">
<style type="text/css">
	.st0{fill:#7D1416;}
</style>
<path class="st0" d="M30,0C13.4,0,0,13.4,0,30s13.4,30,30,30s30-13.4,30-30S46.6,0,30,0z M30,58.1C14.5,58.1,1.9,45.5,1.9,30
	S14.5,1.9,30,1.9S58.1,14.5,58.1,30S45.5,58.1,30,58.1z M37.6,36.8h7.1V42c0,1-0.8,1.9-1.9,1.9H15.2c-1,0-1.9-0.8-1.9-1.9V21.2
	c0-0.3,0-0.6,0.1-0.9c0.1-0.2,0.2-0.4,0.3-0.6c0.4-0.4,0.9-0.7,1.5-0.6h4.7l-3,1.7c-1.8,1.2-1,2.4-0.3,2.4h25.8
	c0.3,0,0.6-0.3,0.6-0.6c0-0.1,0-0.2,0-0.2l-1.3-3H43c1,0,1.9,0.8,1.9,1.9v5.1h-7.1c-0.1,0-0.3,0-0.4,0c-0.7,0.1-1.4,0.4-1.9,0.9
	c-0.6,0.6-0.9,1.4-0.9,2.2v4.2C34.4,35.4,35.8,36.8,37.6,36.8L37.6,36.8z M18.7,21l16.6-8.7c0.8-0.4,1.9-0.1,2.3,0.7
	c0,0,0,0.1,0.1,0.1l3.3,8.1c0.1,0.2,0,0.5-0.2,0.6c-0.1,0-0.1,0-0.2,0H19c-0.3,0-0.5-0.1-0.5-0.4C18.4,21.3,18.5,21.1,18.7,21z
	 M45.4,27.7c-0.2-0.1-0.4-0.1-0.6-0.1h-7.2c-1,0-1.9,0.8-1.9,1.9v4.2c0,1,0.8,1.9,1.9,1.9h7.2c0.2,0,0.4,0,0.6-0.1
	c0.2-0.1,0.5-0.2,0.7-0.4c0.4-0.4,0.6-0.9,0.6-1.4v-4.2c0-0.5-0.2-1-0.6-1.4C45.9,27.9,45.7,27.8,45.4,27.7L45.4,27.7z M41.6,32
	c0,0.5-0.4,0.9-0.9,0.9H40c-0.5,0-0.9-0.4-0.9-0.9v-0.6c0-0.3,0.1-0.6,0.4-0.7c0.2-0.1,0.4-0.2,0.6-0.2h0.6c0.5,0,0.9,0.4,0.9,0.9
	V32z"/>
</svg>
