<svg id="Layer_1" data-name="Layer 1" xmlns="http://www.w3.org/2000/svg" viewBox="0 0 68 80"><defs><style>.cls-1{fill:#023c42;}</style></defs><title>icon-storage-dark-green</title><path class="cls-1" d="M15.76,42.32H52.22V65.7H15.76ZM26.36,0H21.15V14.19h5.21ZM47,0H41.81V14.19H47ZM60.37,19H68V76.35c0,1.37-.58,3.65-3.24,3.65H3.11A3.71,3.71,0,0,1,0,76.35V10.73l10.06-9A7.12,7.12,0,0,1,13.74,0h2V16.38A2.75,2.75,0,0,0,18.67,19H28.73a3,3,0,0,0,2-.76,2.44,2.44,0,0,0,.84-1.82V0h4.87V16.38a2.41,2.41,0,0,0,.84,1.82,3,3,0,0,0,2,.76H49.42a3,3,0,0,0,2-.76,2.44,2.44,0,0,0,.84-1.82V0h5.19V16.38a2.44,2.44,0,0,0,.84,1.82A3,3,0,0,0,60.37,19Zm-2.88,22.5a4,4,0,0,0-4.21-3.77H14.82a4,4,0,0,0-4.22,3.77V66.78a4,4,0,0,0,4.22,3.77H53.28a4,4,0,0,0,4.21-3.77ZM62.79,0V14.19H68V0Z"/></svg>