<svg id="Layer_1" data-name="Layer 1" xmlns="http://www.w3.org/2000/svg" viewBox="0 0 60 60"><defs><style>.cls-1{fill:none;}.cls-2{fill:#2f98e3;}</style></defs><title>icon-wallet-import-blue</title><rect class="cls-1" x="-551" y="-347" width="1366" height="780"/><rect class="cls-1" x="-715" y="-347" width="1366" height="780"/><rect class="cls-1" x="-792" y="-347" width="1366" height="780"/><rect class="cls-1" x="-638" y="-347" width="1366" height="780"/><rect class="cls-1" x="-635" y="-347" width="1366" height="780"/><path class="cls-2" d="M30,0A30,30,0,1,0,60,30,30,30,0,0,0,30,0Zm0,58.12A28.12,28.12,0,1,1,58.12,30,28.15,28.15,0,0,1,30,58.12Zm7.64-21.28h7.13v5.23a1.87,1.87,0,0,1-1.87,1.87H29.51a2.76,2.76,0,0,0,1.62-1.47,2.83,2.83,0,0,0-.37-2.93l-5.23-6.42a2.75,2.75,0,0,0-4.28,0L16,39.54a2.81,2.81,0,0,0-.37,2.93,2.73,2.73,0,0,0,1.62,1.47H15.18a1.88,1.88,0,0,1-1.88-1.87V21.17a6.23,6.23,0,0,1,.07-.86,1.57,1.57,0,0,1,.34-.57,1.83,1.83,0,0,1,1.47-.63h4.66l-3,1.72c-1.79,1.18-1,2.39-.31,2.39H42.3a.63.63,0,0,0,.58-.87L41.62,19.3H42.9a1.87,1.87,0,0,1,1.87,1.87v5.12H37.64a2.34,2.34,0,0,0-.38,0,3.11,3.11,0,0,0-1.9.94,3.16,3.16,0,0,0-.9,2.22v4.17A3.18,3.18,0,0,0,37.64,36.84ZM18.73,21l16.65-8.72a1.72,1.72,0,0,1,2.37.85l3.35,8.12a.47.47,0,0,1-.44.66H19A.48.48,0,0,1,18.73,21Zm26.7,6.73a1.74,1.74,0,0,0-.61-.1H37.64a1.87,1.87,0,0,0-1.87,1.87v4.17a1.88,1.88,0,0,0,1.87,1.88h7.18a2,2,0,0,0,.61-.1,1.83,1.83,0,0,0,.66-.39,1.89,1.89,0,0,0,.61-1.39V29.47a1.87,1.87,0,0,0-.61-1.38A1.7,1.7,0,0,0,45.43,27.7Zm-3.87,4.23a.94.94,0,0,1-.94.94H40a.94.94,0,0,1-.94-.94v-.62a.93.93,0,0,1,.36-.74,1,1,0,0,1,.58-.2h.62a.94.94,0,0,1,.94.94Zm-12,9.83a1.06,1.06,0,0,1-.95.62H25.48v7.45a1.06,1.06,0,0,1-1.05,1.08H22.34a1.06,1.06,0,0,1-1.05-1.08V42.38H18.15a1,1,0,0,1-.95-.62,1.1,1.1,0,0,1,.15-1.14l5.23-6.42a1,1,0,0,1,.8-.39,1,1,0,0,1,.81.39l5.23,6.42a1.09,1.09,0,0,1,.24.69A1.17,1.17,0,0,1,29.57,41.76Z"/></svg>