<?xml version="1.0" encoding="utf-8"?>
<!-- Generator: Adobe Illustrator 24.1.0, SVG Export Plug-In . SVG Version: 6.00 Build 0)  -->
<svg version="1.1" id="Layer_1" xmlns="http://www.w3.org/2000/svg" xmlns:xlink="http://www.w3.org/1999/xlink" x="0px" y="0px"
	 viewBox="0 0 80 80" style="enable-background:new 0 0 80 80;" xml:space="preserve">
<style type="text/css">
	.st0{fill:#FFFFFF;}
	.st1{fill:#7D1416;}
	.st2{fill:#400000;}
	.st3{fill:#EAAA3B;}
	.st4{fill:#CBCBCB;}
</style>
<circle cx="40.4" cy="40.4" r="39.6"/>
<circle class="st0" cx="39.6" cy="39.6" r="39.6"/>
<path d="M76.1,38.9c0,20.5-16.6,37.2-37.2,37.2C18.4,76.1,1.8,59.5,1.8,39S18.4,1.8,39,1.8c0,0,0,0,0,0
	C59.5,1.8,76.1,18.4,76.1,38.9z"/>
<path class="st1" d="M76.8,39.6c0,20.5-16.7,37.2-37.2,37.2S2.4,60.1,2.4,39.6C2.4,19,19.1,2.4,39.6,2.4
	C60.1,2.4,76.8,19.1,76.8,39.6C76.8,39.6,76.8,39.6,76.8,39.6z"/>
<path class="st2" d="M69.9,22.5C60.4,5.8,39.3-0.1,22.5,9.3S-0.1,39.9,9.3,56.6c2.6,4.7,6.3,8.7,10.8,11.7
	C23.9,43.8,44.8,24.3,69.9,22.5z"/>
<path class="st0" d="M58.7,34.4H20.9c-0.4,0.5-0.5,1.1-0.5,1.7v7.8c0,0.6,0.2,1.2,0.5,1.7h37.8c0.4-0.5,0.5-1.1,0.5-1.7v-7.8
	C59.2,35.5,59.1,34.9,58.7,34.4z M42.4,39.7c-0.4,0-0.7-0.3-0.7-0.6c0-0.4,0.3-0.7,0.6-0.7c0.4,0,0.7,0.3,0.7,0.6c0,0,0,0,0,0
	C43.1,39.4,42.8,39.7,42.4,39.7C42.4,39.7,42.4,39.7,42.4,39.7z M43.7,41.7c-0.4,0-0.7-0.3-0.7-0.7c0-0.4,0.3-0.7,0.7-0.7
	c0.4,0,0.7,0.3,0.7,0.7C44.4,41.4,44.1,41.7,43.7,41.7z M45,39.7c-0.4,0-0.7-0.3-0.7-0.6c0-0.4,0.3-0.7,0.6-0.7
	c0.4,0,0.7,0.3,0.7,0.6c0,0,0,0,0,0C45.6,39.4,45.4,39.7,45,39.7C45,39.7,45,39.7,45,39.7L45,39.7z M46.3,41.7
	c-0.4,0-0.7-0.3-0.7-0.6c0-0.4,0.3-0.7,0.6-0.7c0.4,0,0.7,0.3,0.7,0.6c0,0,0,0,0,0C46.9,41.4,46.6,41.6,46.3,41.7L46.3,41.7z
	 M47.6,39.7c-0.4,0-0.7-0.3-0.7-0.7c0-0.4,0.3-0.7,0.7-0.7c0.4,0,0.7,0.3,0.7,0.7C48.2,39.4,47.9,39.7,47.6,39.7z M48.9,41.7
	c-0.4,0-0.7-0.3-0.7-0.6c0-0.4,0.3-0.7,0.6-0.7c0.4,0,0.7,0.3,0.7,0.6c0,0,0,0,0,0C49.5,41.4,49.2,41.6,48.9,41.7L48.9,41.7z
	 M50.2,39.7c-0.4,0-0.7-0.3-0.7-0.7c0-0.4,0.3-0.7,0.7-0.7c0.4,0,0.7,0.3,0.7,0.7C50.8,39.4,50.5,39.7,50.2,39.7z M51.5,41.7
	c-0.4,0-0.7-0.3-0.7-0.6c0-0.4,0.3-0.7,0.6-0.7c0.4,0,0.7,0.3,0.7,0.6c0,0,0,0,0,0C52.1,41.4,51.8,41.6,51.5,41.7L51.5,41.7z
	 M52.8,39.7c-0.4,0-0.7-0.3-0.7-0.6c0-0.4,0.3-0.7,0.6-0.7c0.4,0,0.7,0.3,0.7,0.6c0,0,0,0,0,0C53.4,39.4,53.1,39.7,52.8,39.7
	C52.8,39.7,52.8,39.7,52.8,39.7z M54.1,41.7c-0.4,0-0.7-0.3-0.7-0.6c0-0.4,0.3-0.7,0.6-0.7c0.4,0,0.7,0.3,0.7,0.6c0,0,0,0,0,0
	C54.7,41.4,54.4,41.6,54.1,41.7L54.1,41.7z"/>
<path d="M28.2,44c-1.7,0-3-1.3-3.1-2.9s1.3-3,2.9-3.1c1.7,0,3,1.3,3.1,2.9c0,0,0,0.1,0,0.1C31.1,42.6,29.8,44,28.2,44
	C28.2,44,28.2,44,28.2,44z"/>
<path class="st3" d="M56.3,20.6H23.4c-1.7,0-3,1.3-3,3v7.8c0,0.6,0.2,1.2,0.5,1.7h37.8c0.4-0.5,0.5-1.1,0.5-1.7v-7.7
	C59.3,21.9,57.9,20.6,56.3,20.6C56.3,20.6,56.3,20.6,56.3,20.6z M42.4,27.1c-0.4,0-0.7-0.3-0.7-0.7s0.3-0.7,0.7-0.7
	c0.4,0,0.7,0.3,0.7,0.7c0,0,0,0,0,0C43.1,26.9,42.8,27.1,42.4,27.1L42.4,27.1z M43.7,29.1c-0.4,0-0.7-0.3-0.7-0.6
	c0-0.4,0.3-0.7,0.6-0.7c0.4,0,0.7,0.3,0.7,0.6c0,0,0,0,0,0C44.3,28.8,44.1,29.1,43.7,29.1L43.7,29.1z M45,27.1
	c-0.4,0-0.7-0.3-0.7-0.7s0.3-0.7,0.7-0.7c0.4,0,0.7,0.3,0.7,0.7c0,0,0,0,0,0C45.6,26.9,45.4,27.1,45,27.1L45,27.1z M46.3,29.1
	c-0.4,0-0.7-0.3-0.7-0.6c0-0.4,0.3-0.7,0.6-0.7s0.7,0.3,0.7,0.6c0,0,0,0,0,0C46.9,28.8,46.6,29.1,46.3,29.1L46.3,29.1z M47.6,27.1
	c-0.4,0-0.7-0.3-0.7-0.7s0.3-0.7,0.7-0.7c0.4,0,0.7,0.3,0.7,0.7c0,0,0,0,0,0C48.2,26.9,47.9,27.1,47.6,27.1L47.6,27.1z M48.9,29.1
	c-0.4,0-0.7-0.3-0.7-0.6c0-0.4,0.3-0.7,0.6-0.7s0.7,0.3,0.7,0.6c0,0,0,0,0,0C49.5,28.8,49.2,29.1,48.9,29.1L48.9,29.1z M50.2,27.1
	c-0.4,0-0.7-0.3-0.7-0.7s0.3-0.7,0.7-0.7c0.4,0,0.7,0.3,0.7,0.7c0,0,0,0,0,0C50.8,26.9,50.5,27.1,50.2,27.1
	C50.2,27.1,50.2,27.1,50.2,27.1z M51.5,29.1c-0.4,0-0.7-0.3-0.7-0.6c0-0.4,0.3-0.7,0.6-0.7s0.7,0.3,0.7,0.6c0,0,0,0,0,0
	C52.1,28.8,51.8,29.1,51.5,29.1L51.5,29.1z M52.8,27.1c-0.4,0-0.7-0.3-0.7-0.6c0-0.4,0.3-0.7,0.6-0.7c0.4,0,0.7,0.3,0.7,0.6
	c0,0,0,0,0,0C53.4,26.9,53.1,27.1,52.8,27.1z M54.1,29.1c-0.4,0-0.7-0.3-0.7-0.6c0-0.4,0.3-0.7,0.6-0.7s0.7,0.3,0.7,0.6c0,0,0,0,0,0
	C54.7,28.8,54.4,29.1,54.1,29.1L54.1,29.1z"/>
<path d="M28.2,31.5c-1.7,0-3-1.3-3.1-2.9s1.3-3,2.9-3.1c1.7,0,3,1.3,3.1,2.9c0,0,0,0.1,0,0.1C31.1,30.1,29.8,31.4,28.2,31.5
	C28.2,31.4,28.2,31.4,28.2,31.5z"/>
<path class="st4" d="M58.7,46.9H20.9c-0.4,0.5-0.5,1.1-0.5,1.7v7.8c0,1.7,1.3,3,3,3h32.9c1.7,0,3-1.3,3-3v-7.8
	C59.3,48,59.1,47.4,58.7,46.9z M42.4,52.2c-0.4,0-0.7-0.3-0.7-0.6c0-0.4,0.3-0.7,0.6-0.7c0.4,0,0.7,0.3,0.7,0.6c0,0,0,0,0,0
	C43.1,51.9,42.8,52.2,42.4,52.2z M43.7,54.2c-0.4,0-0.7-0.3-0.7-0.6c0-0.4,0.3-0.7,0.6-0.7c0.4,0,0.7,0.3,0.7,0.6c0,0,0,0,0,0
	C44.3,53.9,44,54.2,43.7,54.2L43.7,54.2z M45,52.2c-0.4,0-0.7-0.3-0.7-0.6c0-0.4,0.3-0.7,0.6-0.7c0.4,0,0.7,0.3,0.7,0.6c0,0,0,0,0,0
	C45.6,51.9,45.4,52.2,45,52.2L45,52.2z M46.3,54.2c-0.4,0-0.7-0.3-0.7-0.6c0-0.4,0.3-0.7,0.6-0.7c0.4,0,0.7,0.3,0.7,0.6c0,0,0,0,0,0
	C46.9,53.9,46.6,54.2,46.3,54.2L46.3,54.2z M47.6,52.2c-0.4,0-0.7-0.3-0.7-0.6c0-0.4,0.3-0.7,0.6-0.7c0.4,0,0.7,0.3,0.7,0.6
	c0,0,0,0,0,0C48.2,51.9,47.9,52.2,47.6,52.2z M48.9,54.2c-0.4,0-0.7-0.3-0.7-0.6c0-0.4,0.3-0.7,0.6-0.7c0.4,0,0.7,0.3,0.7,0.6
	c0,0,0,0,0,0C49.5,53.9,49.2,54.2,48.9,54.2L48.9,54.2z M50.2,52.2c-0.4,0-0.7-0.3-0.7-0.6c0-0.4,0.3-0.7,0.6-0.7
	c0.4,0,0.7,0.3,0.7,0.6c0,0,0,0,0,0C50.8,51.9,50.5,52.2,50.2,52.2z M51.5,54.2c-0.4,0-0.7-0.3-0.7-0.6c0-0.4,0.3-0.7,0.6-0.7
	c0.4,0,0.7,0.3,0.7,0.6c0,0,0,0,0,0C52.1,53.9,51.8,54.2,51.5,54.2L51.5,54.2z M52.8,52.2c-0.4,0-0.7-0.3-0.7-0.7
	c0-0.4,0.3-0.7,0.7-0.7c0.4,0,0.7,0.3,0.7,0.7C53.4,51.9,53.1,52.2,52.8,52.2z M54.1,54.2c-0.4,0-0.7-0.3-0.7-0.6
	c0-0.4,0.3-0.7,0.6-0.7c0.4,0,0.7,0.3,0.7,0.6c0,0,0,0,0,0C54.7,53.9,54.4,54.2,54.1,54.2L54.1,54.2z"/>
<path d="M28.2,56.5c-1.7,0-3-1.3-3.1-2.9s1.3-3,2.9-3.1c1.7,0,3,1.3,3.1,2.9c0,0,0,0.1,0,0.1C31.1,55.1,29.8,56.4,28.2,56.5
	C28.2,56.5,28.2,56.5,28.2,56.5z"/>
<path class="st3" d="M27.2,43c-1.7,0-3-1.3-3.1-2.9s1.3-3,2.9-3.1c1.7,0,3,1.3,3.1,2.9c0,0,0,0.1,0,0.1C30.1,41.6,28.8,43,27.2,43
	C27.2,43,27.2,43,27.2,43z"/>
<path class="st0" d="M27.2,30.5c-1.7,0-3-1.3-3.1-2.9s1.3-3,2.9-3.1c1.7,0,3,1.3,3.1,2.9c0,0,0,0.1,0,0.1
	C30.1,29.1,28.8,30.4,27.2,30.5C27.2,30.4,27.2,30.4,27.2,30.5z"/>
<path class="st0" d="M27.2,55.5c-1.7,0-3-1.3-3.1-2.9s1.3-3,2.9-3.1c1.7,0,3,1.3,3.1,2.9c0,0,0,0.1,0,0.1
	C30.1,54.1,28.8,55.4,27.2,55.5C27.2,55.5,27.2,55.5,27.2,55.5z"/>
</svg>
