<svg id="Layer_1" data-name="Layer 1" xmlns="http://www.w3.org/2000/svg" viewBox="0 0 60 60"><defs><style>.cls-1{fill:#0098ea;}</style></defs><title>icon-encrypt-password-green-16h-proximax-sirius-wallet</title><path class="cls-1" d="M30,0A30,30,0,1,0,60,30,30,30,0,0,0,30,0Zm0,58.12A28.12,28.12,0,1,1,58.13,30,28.15,28.15,0,0,1,30,58.12Z"/><path class="cls-1" d="M25.47,35.83l-2.11,1.09L25.47,38l-.69,1.17-2-1.28.11,2.39H21.51l.11-2.39-2,1.28L18.92,38,21,36.92l-2.11-1.09.68-1.19,2,1.28-.11-2.39h1.37l-.11,2.39,2-1.28Zm6.94-1.19-2,1.28.11-2.39H29.15l.11,2.39-2-1.28-.67,1.19,2.11,1.09L26.56,38l.67,1.17,2-1.28-.11,2.39h1.37l-.11-2.39,2,1.28.7-1.17L31,36.92l2.12-1.09Zm7.64,0-2,1.28.1-2.39H36.78l.11,2.39-2-1.28-.67,1.19,2.1,1.09L34.2,38l.67,1.17,2-1.28-.11,2.39h1.37l-.1-2.39,2,1.28L40.74,38l-2.11-1.09,2.11-1.09Zm7.81-1.11v6.76a6.78,6.78,0,0,1-6.76,6.76H18.57a6.78,6.78,0,0,1-6.76-6.76V33.53a6.77,6.77,0,0,1,4.5-6.34V22.27c0-3.9,2.83-11.27,13.52-11.27s13.52,7.37,13.52,11.27v4.92A6.76,6.76,0,0,1,47.86,33.53Zm-27-6.76h18v-4.5c0-.68-.38-6.76-9-6.76-8.91,0-9,6.48-9,6.76Zm22.53,6.76a2.28,2.28,0,0,0-2.25-2.25H18.57a2.29,2.29,0,0,0-2.26,2.25v6.76a2.29,2.29,0,0,0,2.26,2.25H41.1a2.28,2.28,0,0,0,2.25-2.25Z"/></svg>