<svg id="Layer_1" data-name="Layer 1" xmlns="http://www.w3.org/2000/svg" viewBox="0 0 60 60"><defs><style>.cls-1{fill:#2ba1b9;}</style></defs><title>icon-aggregated-transactions-green-60h</title><path class="cls-1" d="M14,.39a9,9,0,1,0,9,9A9,9,0,0,0,14,.39Zm0,15.69a6.67,6.67,0,1,1,6.67-6.67A6.67,6.67,0,0,1,14,16.08Z"/><path class="cls-1" d="M27.29,7.85h19a1,1,0,0,0,1-1V5.39a0,0,0,0,1,0,0l4.35,4.42a0,0,0,0,1,0,.05L47.3,14.26a0,0,0,0,1,0,0V12.76a1,1,0,0,0-1-1H28.35a1,1,0,1,0,0,2H45.29a0,0,0,0,1,0,0v2.92a1,1,0,0,0,1,1,.94.94,0,0,0,.69-.29l6.72-6.85a1,1,0,0,0,0-1.43L47,2.29A1,1,0,0,0,45.94,2a1,1,0,0,0-.62.92V5.86a0,0,0,0,1,0,0h-18a1,1,0,0,0,0,2Z"/><circle class="cls-1" cx="14" cy="9.41" r="5"/><path class="cls-1" d="M14,21.37a9,9,0,1,0,9,9A9,9,0,0,0,14,21.37Zm0,15.69a6.67,6.67,0,1,1,6.67-6.67A6.67,6.67,0,0,1,14,37.06Z"/><path class="cls-1" d="M47,23.27A1,1,0,0,0,45.94,23a1,1,0,0,0-.62.92v2.92a0,0,0,0,1,0,0h-18a1,1,0,0,0,0,2h19a1,1,0,0,0,1-1V26.37a0,0,0,0,1,0,0l4.35,4.42a0,0,0,0,1,0,.05L47.3,35.25a0,0,0,0,1,0,0V33.74a1,1,0,0,0-1-1H28.35a1,1,0,1,0,0,2H45.29a0,0,0,0,1,0,0v2.92a1,1,0,0,0,1,1,.94.94,0,0,0,.69-.29l6.72-6.85a1,1,0,0,0,0-1.43Z"/><path class="cls-1" d="M14,41.57a9,9,0,1,0,9,9A9,9,0,0,0,14,41.57Zm0,15.69a6.67,6.67,0,1,1,6.67-6.67A6.67,6.67,0,0,1,14,57.26Z"/><path class="cls-1" d="M47,43.47a1,1,0,0,0-1.06-.27,1,1,0,0,0-.62.92V47a0,0,0,0,1,0,0h-18a1,1,0,0,0,0,2h19a1,1,0,0,0,1-1V46.57a0,0,0,0,1,0,0L51.65,51a0,0,0,0,1,0,.05L47.3,55.44a0,0,0,0,1,0,0V53.94a1,1,0,0,0-1-1H28.35a1,1,0,1,0,0,2H45.29a0,0,0,0,1,0,0v2.92a1,1,0,0,0,1,1,.94.94,0,0,0,.69-.29l6.72-6.85a1,1,0,0,0,0-1.43Z"/><polygon class="cls-1" points="15.32 46.39 12.78 46.39 12.78 49.37 9.8 49.37 9.8 51.92 12.78 51.92 12.78 54.89 15.32 54.89 15.32 51.92 18.3 51.92 18.3 49.37 15.32 49.37 15.32 46.39"/><polygon class="cls-1" points="15.32 26.39 12.78 26.39 12.78 29.37 9.8 29.37 9.8 31.92 12.78 31.92 12.78 34.89 15.32 34.89 15.32 31.92 18.3 31.92 18.3 29.37 15.32 29.37 15.32 26.39"/></svg>