<?xml version="1.0" encoding="utf-8"?>
<!-- Generator: Adobe Illustrator 23.1.1, SVG Export Plug-In . SVG Version: 6.00 Build 0)  -->
<svg version="1.1" id="Layer_1" xmlns="http://www.w3.org/2000/svg" xmlns:xlink="http://www.w3.org/1999/xlink" x="0px" y="0px"
	 viewBox="0 0 35 28" style="enable-background:new 0 0 35 28;" xml:space="preserve">
<style type="text/css">
	.st0{fill:#666666;}
</style>
<title>icon-address-book-gray-28h-proximax-sirius-wallet</title>
<g>
	<g>
		<path class="st0" d="M28.2,7.6H17.4C17.7,8.3,17.9,9,18,9.8c0.2,0.1,0.3,0.4,0.5,0.5h9.9c0.4,0,0.8-0.4,0.8-0.8V8.3
			C29,7.9,28.6,7.6,28.2,7.6C28.2,7.6,28.2,7.6,28.2,7.6z"/>
	</g>
	<g>
		<path class="st0" d="M29,14.6v-1.2c0-0.4-0.3-0.8-0.8-0.8l0,0h-9.6c-0.2,0.8-0.7,1.5-1.5,1.9c0,0.1-0.1,0.1-0.1,0.1v0.7h11.2
			C28.6,15.3,29,15,29,14.6z"/>
	</g>
	<g>
		<path class="st0" d="M28.2,17.6h-7.9c0.4,0.6,0.6,1.5,0.7,2.2v0.5h7.2c0.4,0,0.8-0.4,0.8-0.8l0,0v-1.2
			C29,17.9,28.6,17.6,28.2,17.6z"/>
	</g>
	<g>
		<path class="st0" d="M30.5,0H4.6C2,0.1,0,2.1,0,4.7v18.7c0,2.6,2,4.6,4.6,4.7h25.9c2.6-0.1,4.5-2.1,4.5-4.7V4.7
			C35,2.1,33,0.1,30.5,0z M32.8,23.3c0,1.3-1.1,2.5-2.4,2.5H4.6c-1.3,0-2.4-1.1-2.4-2.5V4.7c0-1.3,1-2.5,2.4-2.5h25.9
			c1.3,0,2.4,1.1,2.4,2.5V23.3z"/>
	</g>
	<g>
		<path class="st0" d="M13.8,18.1c-0.4-0.2-0.6-0.6-0.6-1v-1.2c0.1-0.1,0.2-0.2,0.3-0.4c0.4-0.6,0.7-1.2,0.9-1.8
			c0.4-0.1,0.6-0.5,0.6-0.9v-1.2c0-0.2-0.1-0.5-0.3-0.7V9.2c0,0,0.4-2.7-3.4-2.7S7.8,9.2,7.8,9.2V11c-0.2,0.2-0.3,0.4-0.3,0.7v1.2
			c0,0.3,0.2,0.6,0.4,0.8c0.2,0.8,0.6,1.6,1.1,2.3V17c0,0.4-0.2,0.8-0.6,1l-2.8,1.5c-0.2,0.1-0.3,0.2-0.4,0.3
			c3.6,2.6,8.3,2.6,11.8,0c-0.1-0.1-0.3-0.2-0.5-0.3L13.8,18.1z"/>
	</g>
</g>
</svg>
