<svg id="Layer_1" data-name="Layer 1" xmlns="http://www.w3.org/2000/svg" viewBox="0 0 20 16"><defs><style>.cls-1{fill:#2ba1b9;}</style></defs><title>icon-address-green-book-16h-proximax-sirius-wallet</title><path class="cls-1" d="M10.24,11.33v.52a.58.58,0,0,1-.59.58H3.48a.58.58,0,0,1-.59-.58v-.52A1.85,1.85,0,0,1,4.74,9.47h.48A.46.46,0,0,0,5.67,9a.35.35,0,0,0-.1-.24,3.2,3.2,0,0,1-.68-1,.14.14,0,0,1-.09,0c-.27,0-.58-.6-.58-1s0-.73.3-.73H4.6c0-1.11.22-2.48,2-2.48S8.52,5,8.54,6.05h.1c.26,0,.3.33.3.73s-.31,1-.58,1a.21.21,0,0,1-.12,0,3.13,3.13,0,0,1-.68,1,.35.35,0,0,0-.1.24.45.45,0,0,0,.45.45h.48A1.86,1.86,0,0,1,10.24,11.33Zm5.89-7H10a3.7,3.7,0,0,1,.3,1.25.8.8,0,0,1,.26.31h5.62a.43.43,0,0,0,.43-.43V4.79A.43.43,0,0,0,16.13,4.35Zm.43,4V7.64a.43.43,0,0,0-.43-.44H10.62a1.5,1.5,0,0,1-.84,1.08l0,.07v.41h6.39A.43.43,0,0,0,16.56,8.33Zm-.43,1.72H11.61A2.43,2.43,0,0,1,12,11.33v.28h4.15a.43.43,0,0,0,.43-.43v-.69A.44.44,0,0,0,16.13,10.05ZM20,2.68V13.32A2.64,2.64,0,0,1,17.4,16H2.6A2.64,2.64,0,0,1,0,13.32V2.68A2.64,2.64,0,0,1,2.6,0H17.4A2.64,2.64,0,0,1,20,2.68Zm-1.23,0A1.39,1.39,0,0,0,17.4,1.27H2.6A1.39,1.39,0,0,0,1.23,2.68V13.32A1.39,1.39,0,0,0,2.6,14.73H17.4a1.39,1.39,0,0,0,1.37-1.41Z"/></svg>