<svg id="Layer_1" data-name="Layer 1" xmlns="http://www.w3.org/2000/svg" viewBox="0 0 60 60"><defs><style>.cls-1{fill:#0098ea;}</style></defs><title>icon-address-green-book-16h-proximax-sirius-wallet</title><path class="cls-1" d="M48.41,19.05H29.86a11.71,11.71,0,0,1,.91,3.75,2.28,2.28,0,0,1,.78.94H48.41a1.31,1.31,0,0,0,1.3-1.31V20.36A1.3,1.3,0,0,0,48.41,19.05Z"/><path class="cls-1" d="M49.71,31V28.91a1.3,1.3,0,0,0-1.3-1.31H31.87a4.52,4.52,0,0,1-2.53,3.25c0,.07-.08.13-.11.2v1.24H48.41A1.3,1.3,0,0,0,49.71,31Z"/><path class="cls-1" d="M48.41,36.15H34.84A7.15,7.15,0,0,1,36,40v.86H48.41a1.3,1.3,0,0,0,1.3-1.31V37.46A1.31,1.31,0,0,0,48.41,36.15Z"/><path class="cls-1" d="M52.21,6H7.82A7.92,7.92,0,0,0,0,14V46a7.92,7.92,0,0,0,7.8,8H52.21A7.93,7.93,0,0,0,60,46V14A7.93,7.93,0,0,0,52.21,6Zm4.12,40a4.19,4.19,0,0,1-4.12,4.24H7.82A4.19,4.19,0,0,1,3.7,46V14A4.19,4.19,0,0,1,7.82,9.8H52.21A4.19,4.19,0,0,1,56.33,14Z"/><path class="cls-1" d="M23.57,37a1.9,1.9,0,0,1-1.07-1.71v-2c.14-.16.3-.36.48-.61a11.38,11.38,0,0,0,1.58-3.13,1.58,1.58,0,0,0,1.13-1.49V26a1.57,1.57,0,0,0-.53-1.16v-3s.63-4.71-5.85-4.71-5.86,4.71-5.86,4.71v3A1.57,1.57,0,0,0,12.92,26v2.1a1.59,1.59,0,0,0,.74,1.32,10.34,10.34,0,0,0,1.92,3.91v1.91a1.92,1.92,0,0,1-1,1.68L9.83,39.48a4.47,4.47,0,0,0-.71.49A17.29,17.29,0,0,0,29.43,40a4.51,4.51,0,0,0-.78-.5Z"/></svg>