<svg id="Layer_1" data-name="Layer 1" xmlns="http://www.w3.org/2000/svg" viewBox="0 0 60 60"><defs><style>.cls-1{fill:#0098ea;}</style></defs><title>icon-transactions-green-16h-proximax-sirius-wallet copy</title><path class="cls-1" d="M30,0A30,30,0,1,0,60,30,30,30,0,0,0,30,0Zm0,58.12A28.12,28.12,0,1,1,58.13,30,28.15,28.15,0,0,1,30,58.12Z"/><path class="cls-1" d="M35.72,38.87v2.45H13.05a.61.61,0,1,0,0,1.22H35.72V45a.63.63,0,0,0,.65.61h7.77a.63.63,0,0,0,.65-.61V42.54h1.94a.61.61,0,1,0,0-1.22H44.79V38.87a.63.63,0,0,0-.65-.61H36.37A.63.63,0,0,0,35.72,38.87Z"/><path class="cls-1" d="M25.36,27.24v2.45H13.05a.61.61,0,1,0,0,1.22H25.36v2.45A.62.62,0,0,0,26,34h7.78a.63.63,0,0,0,.64-.61V30.91H46.73a.61.61,0,1,0,0-1.22H34.42V27.24a.63.63,0,0,0-.64-.61H26A.62.62,0,0,0,25.36,27.24Z"/><path class="cls-1" d="M15,15.61v2.45H13.05a.61.61,0,1,0,0,1.22H15v2.45a.63.63,0,0,0,.65.61h7.77a.63.63,0,0,0,.65-.61V19.28H46.73a.61.61,0,1,0,0-1.22H24.06V15.61a.63.63,0,0,0-.65-.61H15.64A.63.63,0,0,0,15,15.61Z"/></svg>