<?xml version="1.0" encoding="utf-8"?>
<!-- Generator: Adobe Illustrator 24.1.0, SVG Export Plug-In . SVG Version: 6.00 Build 0)  -->
<svg version="1.1" id="Layer_1" xmlns="http://www.w3.org/2000/svg" xmlns:xlink="http://www.w3.org/1999/xlink" x="0px" y="0px"
	 viewBox="0 0 80 80" style="enable-background:new 0 0 80 80;" xml:space="preserve">
<style type="text/css">
	.st0{fill:#F3F3F3;}
	.st1{fill:#7D1416;}
	.st2{fill:#400000;}
	.st3{fill:#FFFFFF;}
	.st4{fill:#CBCBCB;}
	.st5{fill:#EAAA3B;}
	.st6{fill:#E18F36;}
</style>
<circle cx="40.4" cy="40.4" r="39.6"/>
<circle class="st0" cx="39.6" cy="39.6" r="39.6"/>
<path d="M76.1,38.9c0,20.5-16.6,37.2-37.2,37.2C18.4,76.1,1.8,59.5,1.8,39S18.4,1.8,39,1.8c0,0,0,0,0,0
	C59.5,1.8,76.1,18.4,76.1,38.9z"/>
<path class="st1" d="M76.8,39.6c0,20.5-16.7,37.2-37.2,37.2S2.4,60.1,2.4,39.6C2.4,19,19.1,2.4,39.6,2.4
	C60.1,2.4,76.8,19.1,76.8,39.6C76.8,39.6,76.8,39.6,76.8,39.6z"/>
<path class="st2" d="M69.9,22.5C60.4,5.8,39.3-0.1,22.5,9.3S-0.1,39.9,9.3,56.6c2.6,4.7,6.3,8.7,10.8,11.7
	C23.9,43.8,44.8,24.3,69.9,22.5z"/>
<path class="st3" d="M45.9,16.6l-6.2-2.4c-0.4-0.1-0.7-0.1-1.1,0l-6.2,2.4c-0.3,0.1-0.4,0.5-0.3,0.7c0.1,0.1,0.2,0.2,0.3,0.3l6.5,3
	c0.2,0.1,0.3,0.1,0.5,0l6.5-3c0.3-0.1,0.4-0.5,0.3-0.8C46.1,16.8,46,16.7,45.9,16.6z"/>
<path class="st3" d="M38.4,21.4l-6.1-2.8c-0.2-0.1-0.5,0-0.7,0.2c0,0.1-0.1,0.2-0.1,0.2v6.6c0,0.2,0.1,0.4,0.3,0.5l6.1,3.2
	c0.3,0.1,0.6,0,0.7-0.2c0-0.1,0.1-0.1,0.1-0.2v-7.1C38.7,21.6,38.6,21.5,38.4,21.4z"/>
<path class="st4" d="M45.9,18.6l-6.1,2.8c-0.2,0.1-0.3,0.3-0.3,0.5v7.1c0,0.3,0.2,0.5,0.5,0.5c0.1,0,0.2,0,0.2-0.1l6.1-3.2
	c0.2-0.1,0.3-0.3,0.3-0.5V19c0-0.3-0.2-0.5-0.5-0.5C46,18.5,46,18.5,45.9,18.6z"/>
<path class="st3" d="M28.8,32l-6.2-2.4c-0.4-0.1-0.7-0.1-1.1,0L15.4,32c-0.3,0.1-0.4,0.5-0.3,0.7c0.1,0.1,0.2,0.2,0.3,0.3l6.5,3
	c0.2,0.1,0.3,0.1,0.5,0l6.5-3c0.3-0.1,0.4-0.5,0.3-0.8C29.1,32.2,29,32,28.8,32z"/>
<path class="st3" d="M21.4,36.8L15.3,34c-0.2-0.1-0.5,0-0.7,0.2c0,0.1-0.1,0.2-0.1,0.2v6.7c0,0.2,0.1,0.4,0.3,0.5l6.1,3.2
	c0.3,0.1,0.6,0,0.7-0.2c0-0.1,0.1-0.1,0.1-0.2v-7.1C21.7,37.1,21.6,36.9,21.4,36.8z"/>
<path class="st4" d="M28.9,34l-6.1,2.8c-0.2,0.1-0.3,0.3-0.3,0.5v7.1c0,0.3,0.2,0.5,0.5,0.5c0.1,0,0.2,0,0.2-0.1l6.1-3.2
	c0.2-0.1,0.3-0.3,0.3-0.5v-6.6c0-0.3-0.2-0.5-0.5-0.5C29,33.9,28.9,34,28.9,34z"/>
<circle class="st5" cx="29.9" cy="30.5" r="0.7"/>
<circle class="st5" cx="31.3" cy="28.1" r="0.7"/>
<path class="st5" d="M48.6,53l-6.2-2.4c-0.4-0.1-0.7-0.1-1.1,0L35.1,53c-0.3,0.1-0.4,0.5-0.3,0.7c0.1,0.1,0.2,0.2,0.3,0.3l6.5,3
	c0.2,0.1,0.3,0.1,0.5,0l6.5-3c0.3-0.1,0.4-0.5,0.3-0.8C48.8,53.2,48.7,53.1,48.6,53z"/>
<path class="st5" d="M41.1,57.8L35,55c-0.2-0.1-0.5,0-0.7,0.2c0,0.1-0.1,0.2-0.1,0.2v6.7c0,0.2,0.1,0.4,0.3,0.5l6.1,3.2
	c0.3,0.1,0.6,0,0.7-0.2c0-0.1,0.1-0.1,0.1-0.2v-7.1C41.4,58.1,41.3,57.9,41.1,57.8z"/>
<path class="st6" d="M48.6,55l-6.1,2.8c-0.2,0.1-0.3,0.3-0.3,0.5v7.1c0,0.3,0.2,0.5,0.5,0.5c0.1,0,0.2,0,0.2-0.1l6-3.2
	c0.2-0.1,0.3-0.3,0.3-0.5v-6.6c0-0.3-0.2-0.5-0.5-0.5C48.7,55,48.6,55,48.6,55z"/>
<path class="st5" d="M65.9,38.3l-6.2-2.4c-0.3-0.1-0.7-0.1-1.1,0l-6.2,2.4c-0.3,0.1-0.4,0.5-0.3,0.7c0.1,0.1,0.2,0.2,0.3,0.3l6.5,3
	c0.2,0.1,0.3,0.1,0.5,0l6.5-3c0.3-0.1,0.4-0.5,0.3-0.8C66.1,38.4,66,38.3,65.9,38.3z"/>
<path class="st5" d="M58.4,43l-6.1-2.8c-0.2-0.1-0.5,0-0.7,0.2c0,0.1-0.1,0.2-0.1,0.2v6.7c0,0.2,0.1,0.4,0.3,0.4L58,51
	c0.2,0.1,0.6,0,0.7-0.2c0-0.1,0.1-0.2,0.1-0.2v-7.1C58.7,43.3,58.6,43.1,58.4,43z"/>
<path class="st6" d="M65.9,40.2L59.8,43c-0.2,0.1-0.3,0.3-0.3,0.5v7.1c0,0.3,0.2,0.5,0.5,0.5c0.1,0,0.2,0,0.2-0.1l6.1-3.2
	c0.2-0.1,0.3-0.3,0.3-0.4v-6.7c0-0.3-0.2-0.5-0.5-0.5C66,40.2,66,40.2,65.9,40.2z"/>
<circle class="st3" cx="51.3" cy="49.6" r="0.7"/>
<circle class="st3" cx="49.9" cy="51.6" r="0.7"/>
<path class="st3" d="M48.9,44.5l-4.7-2.4c-0.1-0.1-0.2-0.1-0.3,0c-0.1,0.1-0.1,0.2-0.1,0.3l0.4,1.3c-3.6-0.4-6.5-3.1-7.1-6.7
	l1.3,0.3c0.1,0,0.2,0,0.3-0.1c0.1-0.1,0.1-0.2,0-0.3l-2.7-4.6c-0.1-0.1-0.1-0.1-0.2-0.1c-0.1,0-0.2,0.1-0.2,0.2l-2.4,4.7
	c-0.1,0.1-0.1,0.2,0,0.3c0.1,0.1,0.2,0.1,0.3,0.1l0.4-0.1c0.7-0.2,1.3,0.2,1.5,0.8c0,0,0,0,0,0.1c1,3.7,3.9,6.5,7.6,7.2
	c0.7,0.1,1.1,0.7,1,1.4c0,0,0,0.1,0,0.1l-0.1,0.4c0,0.1,0,0.3,0.2,0.3c0.1,0,0.2,0,0.2,0l4.6-2.7c0.1-0.1,0.1-0.1,0.1-0.2
	C49,44.6,49,44.6,48.9,44.5z"/>
<path class="st3" d="M26.4,26.9L26,25.7h-3.3l-0.4,1.2h-2.4l3.1-8.3h2.7l3.1,8.3H26.4z M24.3,20.7l-1.1,3.1h2.1L24.3,20.7z"/>
<path class="st5" d="M52.3,61.2v-8.3H57c1.2-0.1,2.3,0.7,2.4,1.9c0,0.1,0,0.2,0,0.2c0,0.9-0.6,1.7-1.4,1.9c0.9,0.2,1.6,1,1.6,2
	c0,1.2-0.9,2.2-2.2,2.3c-0.1,0-0.2,0-0.3,0L52.3,61.2z M57.3,55.3c0-0.4-0.3-0.7-0.7-0.7c0,0,0,0-0.1,0h-2.1V56h2.1
	C56.9,56,57.3,55.8,57.3,55.3C57.3,55.4,57.3,55.3,57.3,55.3L57.3,55.3z M57.5,58.6c0-0.4-0.3-0.8-0.7-0.8c0,0,0,0-0.1,0h-2.2v1.5
	h2.2c0.4,0,0.8-0.2,0.8-0.6C57.5,58.7,57.5,58.6,57.5,58.6L57.5,58.6z"/>
</svg>
