<svg id="Layer_1" data-name="Layer 1" xmlns="http://www.w3.org/2000/svg" viewBox="0 0 60 60"><defs><style>.cls-1{fill:#0098ea;}</style></defs><title>icon-amount-green-16h-proximax-sirius-wallet</title><path class="cls-1" d="M30,0A30,30,0,1,0,60,30,30,30,0,0,0,30,0Zm0,58.12A28.12,28.12,0,1,1,58.13,30,28.15,28.15,0,0,1,30,58.12Z"/><path class="cls-1" d="M43.67,21.44a4.55,4.55,0,0,0,.12-1V19.3c0-2.21-1.65-4.23-4.65-5.69a24,24,0,0,0-10.33-2.1,24.06,24.06,0,0,0-10.34,2.1c-3,1.46-4.65,3.48-4.65,5.69v1.1c0,2.18,1.61,4.18,4.52,5.63a5.08,5.08,0,0,0-.13,1v.2c-2.83,1.45-4.39,3.42-4.39,5.56v1.11A5.43,5.43,0,0,0,16,38a4.45,4.45,0,0,0-.29,1.57v1.1c0,2.21,1.65,4.23,4.65,5.69a24,24,0,0,0,10.33,2.1A24.06,24.06,0,0,0,41,46.39c3-1.46,4.65-3.48,4.65-5.69V39.6a5.42,5.42,0,0,0-2.16-4.1,4.45,4.45,0,0,0,.29-1.57v-.2c2.83-1.45,4.39-3.42,4.39-5.56V27.06C48.18,24.88,46.58,22.89,43.67,21.44ZM15.91,18.36a6.61,6.61,0,0,1,3.39-3,22.26,22.26,0,0,1,9.51-1.9,22.24,22.24,0,0,1,9.5,1.9,6.61,6.61,0,0,1,3.39,3C40.16,21,34.84,23,28.81,23S17.45,21,15.91,18.36Zm0,13.53a5.67,5.67,0,0,1,2.46-2.53c.49,1.73,2,3.3,4.49,4.5A24.2,24.2,0,0,0,33.19,36l1.14,0a26.87,26.87,0,0,1-5.52.57C22.77,36.5,17.45,34.55,15.91,31.89Zm27.65,6.77C42,41.33,36.7,43.27,30.67,43.27c-5.23,0-9.94-1.47-12.09-3.6a24.29,24.29,0,0,0,10.23,2,24.2,24.2,0,0,0,10.33-2.1,10.18,10.18,0,0,0,3.35-2.45A4.2,4.2,0,0,1,43.56,38.66ZM33.19,30.74c-5.26,0-10-1.49-12.12-3.64a26.56,26.56,0,0,0,7.74,1.09,24.2,24.2,0,0,0,10.33-2.1,9.52,9.52,0,0,0,3.72-2.92,6.47,6.47,0,0,1,3.23,2.95C44.55,28.79,39.23,30.74,33.19,30.74Z"/></svg>