<svg id="Layer_1" data-name="Layer 1" xmlns="http://www.w3.org/2000/svg" viewBox="0 0 34 40"><defs><style>.cls-1{fill:#fff;}</style></defs><title>icon-storage-white</title><path class="cls-1" d="M7.88,21.16H26.11V32.85H7.88ZM13.18,0h-2.6V7.1h2.6ZM23.51,0h-2.6V7.1h2.6Zm6.68,9.48H34V38.17A1.63,1.63,0,0,1,32.38,40H1.55A1.86,1.86,0,0,1,0,38.17V5.37L5,.86A3.58,3.58,0,0,1,6.87,0h1V8.19A1.38,1.38,0,0,0,9.33,9.48h5a1.55,1.55,0,0,0,1-.38,1.22,1.22,0,0,0,.42-.91V0h2.43V8.19a1.22,1.22,0,0,0,.42.91,1.55,1.55,0,0,0,1,.38h5a1.55,1.55,0,0,0,1-.38,1.22,1.22,0,0,0,.42-.91V0h2.59V8.19a1.2,1.2,0,0,0,.43.91A1.53,1.53,0,0,0,30.19,9.48ZM28.74,20.73a2,2,0,0,0-2.1-1.89H7.41A2,2,0,0,0,5.3,20.73V33.39a2,2,0,0,0,2.11,1.88H26.64a2,2,0,0,0,2.1-1.88ZM31.4,0V7.1H34V0Z"/></svg>