<svg id="Layer_1" data-name="Layer 1" xmlns="http://www.w3.org/2000/svg" xmlns:xlink="http://www.w3.org/1999/xlink" viewBox="0 0 82 80"><defs><style>.cls-1{fill:url(#linear-gradient);}</style><linearGradient id="linear-gradient" x1="66.18" y1="64.51" x2="15.85" y2="14.18" gradientUnits="userSpaceOnUse"><stop offset="0" stop-color="#306eb5"/><stop offset="1" stop-color="#2ba1b9"/></linearGradient></defs><title>icon-blockchain-gradient-80h-proximax-sirius-wallet</title><path class="cls-1" d="M54.75,59v-.07l-.07,0a1.43,1.43,0,0,0-.37-.19L43.88,55.05a1.69,1.69,0,0,0-.87-.23l.72-.29-.5-1.24-1,.39.47,1.17-.26.06-.74.26-.44-1.1-.2.08L40.9,54l-.67,1.17.54.3-9,3.2a2,2,0,0,0-.45.24h0v0a1.64,1.64,0,0,0-.59,1,1.34,1.34,0,0,0-.06.4V74.53a1.68,1.68,0,0,0,.67,1.34h0a1.64,1.64,0,0,0,.43.24L42,79.74h0l.47.17A1.71,1.71,0,0,0,43,80a1.62,1.62,0,0,0,.83-.23l.09,0,.1,0v-.07l10.26-3.64a1.52,1.52,0,0,0,.38-.2l.11,0V75.8a1.74,1.74,0,0,0,.45-.56,1.8,1.8,0,0,0,.08-.21v0a1.62,1.62,0,0,0,.1-.54V60.31A1.65,1.65,0,0,0,54.75,59ZM41.34,76l-4.2-1.49L41.34,73Zm0-6.52L34,72.07V62.75l7.37,2.61ZM43,62.4l-5.82-2.07L43,58.27l5.82,2.06Zm1.71,13.54V73l4.13,1.46Zm7.4-3.84-7.4-2.62V65.33l7.4-2.62ZM24.81,43.18l.27-.32-.27-.23V41.21l1,.84.7-.81-1-.88-.66.76V30.76a1.68,1.68,0,0,0-.67-1.33v-.07l-.07,0a1.85,1.85,0,0,0-.37-.19L13.26,25.5a1.64,1.64,0,0,0-1.4-.14L1.13,29.16a2,2,0,0,0-.45.24h0v0a1.71,1.71,0,0,0-.6,1,1.92,1.92,0,0,0,0,.41V45a1.68,1.68,0,0,0,.67,1.34h0a1.64,1.64,0,0,0,.43.24l10.26,3.63h0l.46.17a1.71,1.71,0,0,0,.55.09,1.6,1.6,0,0,0,.83-.23l.1,0,.09,0v-.07l10.27-3.64a1.72,1.72,0,0,0,.38-.2l.1,0v-.11l.17-.15.44.25.67-1.17-.63-.36ZM10.73,46.43l-4.2-1.49,4.2-1.49Zm0-6.52L3.36,42.52V33.2l7.37,2.61Zm1.62-7.06L6.53,30.78l5.84-2.06,5.82,2.06Zm1.71,13.54V43.47l4.13,1.46Zm7.39-3.84-7.39-2.62V35.78l7.39-2.62ZM81.33,32.39v-.07l-.07,0a1.44,1.44,0,0,0-.37-.19l-10.44-3.7a1.64,1.64,0,0,0-1.4-.13L58.32,32.12a2,2,0,0,0-.45.25h0v0a1.71,1.71,0,0,0-.6,1,1.84,1.84,0,0,0-.05.41V45.52l-.75.53.63.87.12-.08V48a1.66,1.66,0,0,0,.67,1.33h0a1.37,1.37,0,0,0,.43.23l10.26,3.64h0l.46.16a1.72,1.72,0,0,0,.55.1,1.6,1.6,0,0,0,.83-.23l.1,0,.09,0v-.07l10.27-3.63a1.72,1.72,0,0,0,.38-.2l.1,0v-.11a1.67,1.67,0,0,0,.46-.56c0-.06,0-.13.08-.2v0a1.62,1.62,0,0,0,.1-.54V33.73A1.68,1.68,0,0,0,81.33,32.39Zm-13.41,17-4.2-1.49,4.2-1.48Zm0-6.51-7.37,2.61V36.16l7.37,2.61Zm1.62-7.07-5.82-2.06,5.84-2.07,5.82,2.06Zm1.71,13.55V46.43l4.13,1.47Zm7.39-3.84L71.25,42.9V38.74l7.39-2.62Zm-49-24.47h0a1.42,1.42,0,0,0,.44.23l9.05,3.21-.36.42,1,.87.7-.81h0l.32.11a1.68,1.68,0,0,0,.55.1l.17,0,.52.73,1.1-.78-.29-.4,9.78-3.46a1.79,1.79,0,0,0,.39-.2l.1,0V21a1.64,1.64,0,0,0,.45-.56.7.7,0,0,0,.08-.2l0,0a1.91,1.91,0,0,0,.1-.54V5.5a1.68,1.68,0,0,0-.67-1.34V4.09l-.08,0a1.24,1.24,0,0,0-.36-.19L42.23.23A1.64,1.64,0,0,0,40.83.1L30.1,3.89a1.63,1.63,0,0,0-.45.25l0,0v0a1.65,1.65,0,0,0-.59,1,1.84,1.84,0,0,0-.05.41V19.72A1.65,1.65,0,0,0,29.64,21.05Zm10,.11-4.2-1.49,4.2-1.48Zm3.34,0V18.2l4.13,1.47Zm7.39-3.85L43,14.67V10.51l7.39-2.62ZM41.34,3.45l5.82,2.06L41.31,7.58,35.49,5.52Zm-9,4.48,7.37,2.61v4.11l-7.37,2.61ZM35.69,52.6l-.91-.52.67-1.16.9.52Zm-7.52-5.85.91.52-.67,1.16-.91-.52Zm5.7,4.81L33,51l.67-1.17.91.53Zm-1.82-1L31.14,50l.67-1.17.91.52ZM30.9,48.31l-.67,1.17L29.32,49,30,47.79Zm-4.55-2.6.91.52-.67,1.16-.91-.52Zm13,9-.91-.52L39.08,53l.91.52Zm-1.82-1-.91-.53L37.26,52l.91.52Zm-6.12-18.1-1-.88.7-.81,1,.87Zm-3.12,1.56,1,.88-.7.81-1-.88Zm1.4-1.63,1,.88-.71.81-1-.87Zm5.22-4-.7.82-1-.88.7-.81Zm3.5-4.06-1-.88.7-.81,1,.88ZM37,29.05l-1-.88.7-.81,1,.87ZM27.18,40.42l-1-.87.7-.82,1,.88Zm5.61-6.5-1-.88.7-.81,1,.88Zm2.8-3.25-1-.88.7-.81,1,.88Zm12.72,4-.62-.87L48.78,33l.62.88ZM43.77,26l.63.87-1.09.78-.63-.87Zm4.38,6.13-1.09.78L46.43,32l1.1-.78Zm4.54,8.66L53.78,40l.63.88-1.09.78Zm1.25,1.75,1.1-.78.62.88-1.09.78ZM44.56,29.41l-.63-.88L45,27.75l.63.88Zm1.25,1.75-.63-.88,1.1-.78.62.88Zm5,7-.62-.88,1.09-.78.63.87Zm6.1,6.22-1.09.78-.63-.87,1.1-.78Zm-4.85-4.47L51.44,39l1.09-.78.63.88Zm-2.5-3.51-.62-.87L50,34.76l.63.87Zm7.27,11.41.5,1.24-1,.39-.5-1.24Zm-8.24,4.76-.5-1.25,1-.39.5,1.25ZM53.92,49l1-.39.5,1.24-1,.4Zm-1.44,2L52,49.77l1-.39.5,1.25ZM44.7,54.14l-.5-1.24,1-.39.5,1.24Zm1.44-2,1-.39.5,1.24-1,.39Zm4.39-.32L50,50.55l1-.39.5,1.25Z"/></svg>