<svg id="Layer_1" data-name="Layer 1" xmlns="http://www.w3.org/2000/svg" viewBox="0 0 60 60"><defs><style>.cls-1{fill:#2ba1b9;}</style></defs><title>icon-mosaics-green-60h-proximax-sirius-wallet</title><path class="cls-1" d="M56.78,11.67,30.57.16a1.89,1.89,0,0,0-1.52,0L2.9,11.8a1.86,1.86,0,0,0,0,3.41l26.2,11.52a2.07,2.07,0,0,0,.76.16,2,2,0,0,0,.76-.17L56.78,15.09A1.87,1.87,0,0,0,56.78,11.67ZM29.87,24,6,13.5,29.82,2.89l23.89,10.5Zm-1.22,6.86.07,27.27a1.87,1.87,0,0,1-2.61,1.72L1.2,49.24A1.89,1.89,0,0,1,.06,47.52L0,20.25a1.88,1.88,0,0,1,2.61-1.72L27.52,29.14A1.88,1.88,0,0,1,28.65,30.86ZM59.94,20.11a1.88,1.88,0,0,0-1.88-1.86,1.92,1.92,0,0,0-.74.15L32.46,29.13a1.89,1.89,0,0,0-1.13,1.72l.07,27.27A1.86,1.86,0,0,0,33.27,60a2,2,0,0,0,.75-.15L58.87,49.1A1.87,1.87,0,0,0,60,47.38ZM34.2,56.69l-.05-25.23,23-9.92.06,25.23Z"/></svg>