<svg id="Layer_1" data-name="Layer 1" xmlns="http://www.w3.org/2000/svg" viewBox="0 0 16 16"><defs><style>.cls-1{fill:#2ba1b9;}</style></defs><title>icon-encrypt-password-green-16h-proximax-sirius-wallet</title><path class="cls-1" d="M6.06,11l-.93.48.93.49-.3.52-.89-.57,0,1.06h-.6l.05-1.06-.9.57L3.16,12l.93-.49L3.16,11l.3-.53.9.57L4.31,10h.6l0,1.06.89-.57Zm3.08-.53-.88.57L8.3,10H7.69l0,1.06-.89-.57-.3.53.93.48L6.55,12l.3.52.89-.57,0,1.06H8.3l0-1.06.88.57L9.45,12l-.94-.49L9.45,11Zm3.39,0-.89.57,0-1.06h-.61l.05,1.06-.89-.57-.3.53.93.48L9.94,12l.3.52.89-.57L11.08,13h.61l0-1.06.89.57.31-.52-.94-.49.94-.48ZM16,10v3a3,3,0,0,1-3,3H3a3,3,0,0,1-3-3V10A3,3,0,0,1,2,7.19V5C2,3.27,3.25,0,8,0s6,3.27,6,5V7.19A3,3,0,0,1,16,10ZM4,7h8V5c0-.3-.17-3-4-3S4,4.88,4,5Zm10,3a1,1,0,0,0-1-1H3a1,1,0,0,0-1,1v3a1,1,0,0,0,1,1H13a1,1,0,0,0,1-1Z"/></svg>