<svg id="Layer_1" data-name="Layer 1" xmlns="http://www.w3.org/2000/svg" viewBox="0 0 16 16"><defs><style>.cls-1{fill:#7bafb5;}</style></defs><title>icon-wallet-name-light-green</title><path class="cls-1" d="M15.22,7.45V3.92a1.54,1.54,0,0,0-1.55-1.53H12.62L11.55.47A1,1,0,0,0,10.73,0a.92.92,0,0,0-.45.12L6.16,2.39H1.55A1.55,1.55,0,0,0,0,3.92V14.46A1.55,1.55,0,0,0,1.55,16H13.67a1.54,1.54,0,0,0,1.55-1.54V11.37H16V7.45ZM13.67,3a.92.92,0,0,1,.92.82H13.43L13,3ZM10.58.65A.33.33,0,0,1,11,.77l1.71,3.05H4.83Zm4,13.81a.93.93,0,0,1-.93.93H1.55a.93.93,0,0,1-.93-.93V3.92A.93.93,0,0,1,1.55,3H5l-1.48.82H1.74a.31.31,0,0,0-.31.31.3.3,0,0,0,.31.3H14.6v3H12.34a1.9,1.9,0,0,0-1.91,1.9v.13a1.9,1.9,0,0,0,1.91,1.89H14.6Zm.78-3.71h-3a1.28,1.28,0,0,1-1.29-1.27V9.34a1.28,1.28,0,0,1,1.29-1.27h3ZM13.29,9.44a.68.68,0,0,1-.69.67.68.68,0,1,1,0-1.35A.68.68,0,0,1,13.29,9.44Z"/></svg>