<svg id="Layer_1" data-name="Layer 1" xmlns="http://www.w3.org/2000/svg" viewBox="0 0 60 60"><defs><style>.cls-1{fill:#0098ea;}</style></defs><title>icon-storage-green-16h-proximax-sirius-wallet</title><path class="cls-1" d="M30,0A30,30,0,1,0,60,30,30,30,0,0,0,30,0Zm0,58.16A28.17,28.17,0,1,1,58.17,30,28.17,28.17,0,0,1,30,58.16Z"/><rect class="cls-1" x="30" y="14.2" width="4.9" height="3.28"/><path class="cls-1" d="M47.48,35.51H30v3.28H47.48a.83.83,0,0,0,.89-.73V36.25A.83.83,0,0,0,47.48,35.51Z"/><path class="cls-1" d="M47.48,41H30V44.3H47.48a.83.83,0,0,0,.89-.73V41.76A.83.83,0,0,0,47.48,41Z"/><path class="cls-1" d="M47.48,19.1H30v3.28H47.48a.83.83,0,0,0,.89-.73V19.84A.83.83,0,0,0,47.48,19.1Z"/><path class="cls-1" d="M47.48,30H30v3.28H47.48a.83.83,0,0,0,.89-.74V30.73A.83.83,0,0,0,47.48,30Z"/><path class="cls-1" d="M47.48,24.61H30v3.28H47.48a.83.83,0,0,0,.89-.73V25.35A.83.83,0,0,0,47.48,24.61Z"/><path class="cls-1" d="M29.51,14.69V17H25.59v-2.3h3.92M30,14.2H25.1v3.28H30V14.2Z"/><path class="cls-1" d="M29.51,25.1v2.3H12.39a.26.26,0,0,1-.27-.24V25.35a.26.26,0,0,1,.27-.25H29.51m.49-.49H12.39a.75.75,0,0,0-.76.74h0v1.81h0a.75.75,0,0,0,.76.73H30V24.61Z"/><path class="cls-1" d="M29.51,30.49v2.3H12.39a.26.26,0,0,1-.27-.25V30.73a.26.26,0,0,1,.27-.24H29.51M30,30H12.39a.75.75,0,0,0-.76.73h0v1.8h0a.75.75,0,0,0,.76.73H30V30Z"/><path class="cls-1" d="M29.51,19.59v2.3H12.39a.26.26,0,0,1-.27-.25V19.83a.26.26,0,0,1,.27-.24H29.51M30,19.1H12.39a.75.75,0,0,0-.76.73h0v1.8h0a.75.75,0,0,0,.76.73H30V19.1Z"/><path class="cls-1" d="M29.51,36v2.3H12.39a.26.26,0,0,1-.27-.25V36.24a.26.26,0,0,1,.27-.24H29.51m.49-.49H12.39a.75.75,0,0,0-.76.73h0v1.8h0a.75.75,0,0,0,.76.73H30V35.51Z"/><path class="cls-1" d="M29.51,41.51v2.3H12.39a.26.26,0,0,1-.27-.25V41.75a.26.26,0,0,1,.27-.24H29.51M30,41H12.39a.75.75,0,0,0-.76.73h0v1.8h0a.75.75,0,0,0,.76.73H30V41Z"/></svg>