<?xml version="1.0" encoding="utf-8"?>
<!-- Generator: Adobe Illustrator 23.1.1, SVG Export Plug-In . SVG Version: 6.00 Build 0)  -->
<svg version="1.1" id="Layer_1" xmlns="http://www.w3.org/2000/svg" xmlns:xlink="http://www.w3.org/1999/xlink" x="0px" y="0px"
	 viewBox="0 0 50 50" style="enable-background:new 0 0 50 50;" xml:space="preserve">
<style type="text/css">
	.st0{fill-rule:evenodd;clip-rule:evenodd;fill:#FFFFFF;}
	.st1{fill:#FFFFFF;}
</style>
<title>icon-wallet-create-white-proximax-sirius-wallet</title>
<g>
	<path class="st0" d="M25,0C11.2,0,0,11.2,0,25s11.2,25,25,25c13.8,0,25-11.2,25-25S38.8,0,25,0z M25,48.4
		C12.1,48.4,1.6,37.9,1.6,25C1.6,12.1,12.1,1.6,25,1.6S48.4,12.1,48.4,25C48.4,37.9,37.9,48.4,25,48.4z"/>
</g>
<g>
	<polygon class="st1" points="39.2,21.2 29.2,21.2 29.2,11.2 21.6,11.2 21.6,21.2 11.7,21.2 11.7,28.8 21.6,28.8 21.6,38.8 
		29.2,38.8 29.2,28.8 39.2,28.8 	"/>
</g>
</svg>
