<svg id="Layer_1" data-name="Layer 1" xmlns="http://www.w3.org/2000/svg" viewBox="0 0 16 16"><defs><style>.cls-1{fill:#666;}.cls-2{fill:#fff;}</style></defs><title>icon-doc-type-doc-16h-proximax-sirius-wallet</title><path class="cls-1" d="M11,4H5V3h6ZM5,6h5V5H5ZM16,4V14a2,2,0,0,1-2,2H6a2,2,0,0,1-2-2H1a1,1,0,0,1-1-1V8A1,1,0,0,1,1,7H15V4a1,1,0,0,0-1-1V6H13V2a1,1,0,0,0-1-1H4A1,1,0,0,0,3,2V6H2V2A2,2,0,0,1,4,0h8a2,2,0,0,1,2,2A2,2,0,0,1,16,4ZM15,14H5a1,1,0,0,0,1,1h8A1,1,0,0,0,15,14Z"/><path class="cls-2" d="M2.91,12.17V8.83H4.22a1.67,1.67,0,1,1,0,3.34ZM5.27,10.5a1,1,0,0,0-1-1.05h-.6v2.09h.6A1,1,0,0,0,5.27,10.5Z"/><path class="cls-2" d="M6.33,10.5A1.68,1.68,0,0,1,8.08,8.77,1.67,1.67,0,0,1,9.82,10.5a1.67,1.67,0,0,1-1.74,1.73A1.68,1.68,0,0,1,6.33,10.5Zm2.76,0a1,1,0,1,0-2,0,1,1,0,1,0,2,0Z"/><path class="cls-2" d="M10.16,10.5a1.7,1.7,0,0,1,1.78-1.73,1.51,1.51,0,0,1,1.39.82l-.61.3a.91.91,0,0,0-.78-.49,1,1,0,0,0-1,1.1,1,1,0,0,0,1,1.1.89.89,0,0,0,.78-.49l.61.3a1.54,1.54,0,0,1-1.39.82A1.7,1.7,0,0,1,10.16,10.5Z"/></svg>