<svg id="Layer_1" data-name="Layer 1" xmlns="http://www.w3.org/2000/svg" viewBox="0 0 16 16"><defs><style>.cls-1{fill:#666;}.cls-2{fill:#fff;}</style></defs><title>icon-doc-type-ods-16h-proximax-sirius-wallet</title><path class="cls-1" d="M5.62,6V4l-.45.45-.32-.34.84-.84h.49V6Zm3-1.86a.9.9,0,0,0-1-.85,1.36,1.36,0,0,0-1,.43l.32.38a.94.94,0,0,1,.71-.31c.22,0,.44.12.44.35s-.32.6-1.42,1.41V6h2v-.5H7.55C8.25,4.94,8.62,4.55,8.62,4.09ZM10,5.49a1.09,1.09,0,0,1-.74-.3l-.29.38A1.32,1.32,0,0,0,10,6c.64,0,1-.32,1-.78a.67.67,0,0,0-.62-.64A.65.65,0,0,0,11,4c0-.44-.38-.72-1-.72a1.34,1.34,0,0,0-1,.42L9.25,4a1,1,0,0,1,.67-.28c.28,0,.5.11.5.32s-.2.28-.49.28H9.6v.51h.33c.37,0,.53.1.53.31S10.28,5.49,10,5.49ZM16,4V14a2,2,0,0,1-2,2H6a2,2,0,0,1-2-2H1a1,1,0,0,1-1-1V8A1,1,0,0,1,1,7H15V4a1,1,0,0,0-1-1V6H13V2a1,1,0,0,0-1-1H4A1,1,0,0,0,3,2V6H2V2A2,2,0,0,1,4,0h8a2,2,0,0,1,2,2A2,2,0,0,1,16,4ZM15,14H5a1,1,0,0,0,1,1h8A1,1,0,0,0,15,14Z"/><path class="cls-2" d="M3,10.5A1.68,1.68,0,0,1,4.71,8.77,1.67,1.67,0,0,1,6.45,10.5a1.67,1.67,0,0,1-1.74,1.73A1.68,1.68,0,0,1,3,10.5Zm2.76,0a1,1,0,1,0-2,0,1,1,0,1,0,2,0Z"/><path class="cls-2" d="M7,12.17V8.83H8.26a1.67,1.67,0,1,1,0,3.34ZM9.31,10.5A1,1,0,0,0,8.26,9.45h-.6v2.09h.6A1,1,0,0,0,9.31,10.5Z"/><path class="cls-2" d="M10.31,11.7l.39-.54a1.47,1.47,0,0,0,1.06.45c.39,0,.58-.18.58-.37,0-.59-1.92-.19-1.92-1.45,0-.55.48-1,1.26-1A1.9,1.9,0,0,1,13,9.24l-.4.52a1.43,1.43,0,0,0-1-.36c-.31,0-.48.13-.48.33,0,.53,1.92.18,1.92,1.43,0,.61-.44,1.07-1.34,1.07A1.92,1.92,0,0,1,10.31,11.7Z"/></svg>