<svg id="Layer_1" data-name="Layer 1" xmlns="http://www.w3.org/2000/svg" viewBox="0 0 80 80"><defs><style>.cls-1{fill:#cbcbcb;}</style></defs><title>icon-aggregate-transactions-disabled-80h</title><path class="cls-1" d="M28,15.22a7.55,7.55,0,1,0,7.55,7.55A7.55,7.55,0,0,0,28,15.22Zm0,13.13a5.58,5.58,0,1,1,5.58-5.58A5.59,5.59,0,0,1,28,28.35Z"/><path class="cls-1" d="M39.13,21.47H55a.82.82,0,0,0,.81-.82V19.4a0,0,0,0,1,0,0l3.64,3.7a0,0,0,0,1,0,0l-3.64,3.7a0,0,0,0,1,0,0V25.57a.82.82,0,0,0-.81-.82H40a.83.83,0,0,0,0,1.65H54.19a0,0,0,0,1,0,0v2.44a.82.82,0,0,0,.81.82.76.76,0,0,0,.57-.24l5.63-5.73a.85.85,0,0,0,0-1.2l-5.6-5.7a.81.81,0,0,0-1.41.55V19.8a0,0,0,0,1,0,0H39.13a.83.83,0,0,0,0,1.65Z"/><circle class="cls-1" cx="28.01" cy="22.77" r="4.18"/><path class="cls-1" d="M28,32.78a7.55,7.55,0,1,0,7.55,7.55A7.55,7.55,0,0,0,28,32.78ZM28,45.9a5.58,5.58,0,1,1,5.58-5.57A5.59,5.59,0,0,1,28,45.9Z"/><path class="cls-1" d="M55.62,34.37a.82.82,0,0,0-.88-.22.83.83,0,0,0-.53.77v2.43s0,0,0,0H39.13a.82.82,0,0,0,0,1.64H55a.81.81,0,0,0,.81-.82V37a0,0,0,0,1,0,0l3.64,3.71a0,0,0,0,1,0,0l-3.64,3.71s0,0,0,0V43.13a.82.82,0,0,0-.81-.82H40A.82.82,0,0,0,40,44H54.19s0,0,0,0v2.44a.82.82,0,0,0,.81.82.8.8,0,0,0,.57-.24l5.63-5.74a.84.84,0,0,0,0-1.19Z"/><path class="cls-1" d="M28,49.68a7.55,7.55,0,1,0,7.55,7.55A7.55,7.55,0,0,0,28,49.68Zm0,13.13a5.58,5.58,0,1,1,5.58-5.58A5.6,5.6,0,0,1,28,62.81Z"/><path class="cls-1" d="M55.62,51.27a.82.82,0,0,0-.88-.22.83.83,0,0,0-.53.77v2.44a0,0,0,0,1,0,0H39.13a.82.82,0,0,0,0,1.64H55a.81.81,0,0,0,.81-.82V53.86a0,0,0,0,1,0,0l3.64,3.71s0,0,0,0l-3.64,3.71s0,0,0,0V60a.82.82,0,0,0-.81-.82H40a.82.82,0,1,0,0,1.64H54.19s0,0,0,0v2.44a.82.82,0,0,0,.81.82.8.8,0,0,0,.57-.24l5.63-5.73a.85.85,0,0,0,0-1.2Z"/><polygon class="cls-1" points="29.12 53.72 26.98 53.72 26.98 56.2 24.49 56.2 24.49 58.34 26.98 58.34 26.98 60.83 29.12 60.83 29.12 58.34 31.61 58.34 31.61 56.2 29.12 56.2 29.12 53.72"/><polygon class="cls-1" points="29.12 36.98 26.98 36.98 26.98 39.47 24.49 39.47 24.49 41.6 26.98 41.6 26.98 44.09 29.12 44.09 29.12 41.6 31.61 41.6 31.61 39.47 29.12 39.47 29.12 36.98"/><path class="cls-1" d="M40,0A40,40,0,1,0,80,40,40,40,0,0,0,40,0Zm0,77.5A37.5,37.5,0,1,1,77.5,40,37.54,37.54,0,0,1,40,77.5Z"/></svg>