<svg id="Layer_1" data-name="Layer 1" xmlns="http://www.w3.org/2000/svg" viewBox="0 0 60 60"><defs><style>.cls-1{fill:#0098ea;}</style></defs><title>icon-block-height-blue copy</title><path class="cls-1" d="M30,0A30,30,0,1,0,60,30,30,30,0,0,0,30,0Zm0,58.12A28.12,28.12,0,1,1,58.13,30,28.15,28.15,0,0,1,30,58.12Z"/><path class="cls-1" d="M42.52,24.58H40.31V21.64a10.31,10.31,0,0,0-20.62,0v2.94H17.48a.74.74,0,0,0-.73.74V43.73a2.94,2.94,0,0,0,2.94,2.94H40.31a2.94,2.94,0,0,0,2.94-2.94V25.32A.74.74,0,0,0,42.52,24.58ZM32.2,40a.73.73,0,0,1-.18.58.76.76,0,0,1-.55.24H28.53a.76.76,0,0,1-.55-.24A.73.73,0,0,1,27.8,40l.46-4.17a3,3,0,1,1,3.48,0Zm3.69-15.38H24.11V21.64a5.89,5.89,0,0,1,11.78,0Z"/></svg>