<?xml version="1.0" encoding="utf-8"?>
<!-- Generator: Adobe Illustrator 24.1.0, SVG Export Plug-In . SVG Version: 6.00 Build 0)  -->
<svg version="1.1" id="Layer_1" xmlns="http://www.w3.org/2000/svg" xmlns:xlink="http://www.w3.org/1999/xlink" x="0px" y="0px"
	 viewBox="0 0 70 80" style="enable-background:new 0 0 70 80;" xml:space="preserve">
<style type="text/css">
	.st0{fill:#7D1416;}
</style>
<path class="st0" d="M9.1,8.2c0,0.1,0,0.3,0,0.4c0,0.1,0,0.1-0.1,0.2C9,9,9,9,9,9.1c0,0.1-0.1,0.1-0.1,0.2C8.6,9.5,8.3,9.6,8,9.6
	c-0.3,0-0.6-0.1-0.8-0.3C7,9.1,6.9,8.8,6.9,8.5c0-0.3,0.1-0.6,0.3-0.8l0.2-0.1l0.2-0.1c0.1,0,0.1-0.1,0.2-0.1c0.4-0.1,0.7,0,1,0.3
	c0.1,0,0.2,0.1,0.2,0.2c0,0,0,0.1,0.1,0.2C9.1,8.1,9.1,8.2,9.1,8.2z M17.2,7.3c-0.6,0-1.1,0.5-1.1,1.1c0,0.6,0.5,1.1,1.1,1.1
	c0.6,0,1.1-0.5,1.1-1.1v0C18.3,7.9,17.8,7.4,17.2,7.3z M27.4,8c0-0.1-0.1-0.1-0.1-0.2c0-0.1-0.1-0.1-0.1-0.2L27,7.5l-0.2-0.1
	c-0.1,0-0.1-0.1-0.2-0.1c-0.1,0-0.3,0-0.4,0c-0.1,0-0.1,0-0.2,0.1l-0.2,0.1l-0.2,0.1c-0.1,0.1-0.1,0.1-0.1,0.2
	c-0.1,0-0.1,0.1-0.2,0.2c0,0.1,0,0.1-0.1,0.2c0,0.1,0,0.3,0,0.4c0,0.1,0,0.1,0.1,0.2c0,0.1,0.1,0.1,0.1,0.2c0,0.1,0.1,0.1,0.1,0.2
	c0.2,0.2,0.5,0.3,0.8,0.3c0.3,0,0.6-0.1,0.8-0.3c0.1,0,0.1-0.1,0.1-0.2c0-0.1,0.1-0.1,0.1-0.2c0-0.1,0.1-0.1,0.1-0.2
	c0-0.1,0-0.3,0-0.4C27.4,8.1,27.4,8.1,27.4,8z M67,65.9v3.6c0,5.8-5.3,10.6-11.8,10.6H11.8c-0.4,0-0.8,0-1.1,0
	C4.7,79.5,0.1,75.1,0,69.7v-67c0-1.4,1.2-2.6,2.6-2.6c0,0,0,0,0,0h54.7c1.4,0,2.6,1.1,2.6,2.6c0,0,0,0,0,0v17.4
	c0.1,1.4-1,2.7-2.5,2.8c-1.4,0.1-2.7-1-2.8-2.5c0-0.1,0-0.2,0-0.3v-4.6H5.3v54c0,2.7,2.5,5,5.9,5.3c0.2,0,0.4,0,0.7,0
	c3.6,0,6.6-2.4,6.6-5.3v-3.6c0-1.4,1.2-2.5,2.6-2.6h43.4C65.8,63.3,67,64.5,67,65.9z M5.3,10.3h49.5v-5H5.3V10.3z M61.8,68.6H23.6v1
	c0,0.3,0,0.6,0,1v0.2c0,0.3-0.1,0.6-0.2,0.9c0,0,0,0.1,0,0.1c-0.1,0.3-0.1,0.5-0.2,0.8l-0.1,0.2c-0.1,0.3-0.2,0.6-0.3,0.8l0,0
	c-0.1,0.3-0.3,0.5-0.4,0.8l-0.1,0.2l-0.1,0.2h33.2c3.6,0,6.6-2.4,6.6-5.3V68.6z M70,54.1v5.5c0,1-0.8,1.9-1.9,1.9H40.7
	c-1,0-1.9-0.8-1.9-1.9v-5.5c0-4.1,3.3-7.4,7.4-7.4H50v-1.3c-2.8-2.2-4.3-5.5-4.2-9c0-5.7,3.8-10.4,8.6-10.4S63,30.7,63,36.5
	c0.1,3.5-1.5,6.8-4.2,9v1.3h3.8C66.7,46.7,70,50,70,54.1z M52.8,42.7c0.4,0.2,0.8,0.3,1.2,0.4l0,0c0.1,0,0.2,0,0.3,0h0.1h0.3h0.2
	h0.3h0.1l0.3-0.1h0.1c0.1,0,0.3-0.1,0.4-0.2c1.9-1,3.2-3.5,3.2-6.3c0-3.7-2.2-6.7-4.9-6.7s-4.8,3-4.8,6.7
	C49.5,39.2,50.8,41.8,52.8,42.7z M54.5,46.9L54.5,46.9c-0.3,0-0.5,0-0.7,0v2c0,0.1,0,0.2,0,0.2l0.1,0.1c0,0,0.1,0.1,0.1,0.1
	c0,0,0.1,0,0.1,0.1l0.1,0.1c0,0,0.1,0,0.1,0h0.1h0.1c0.3-0.1,0.5-0.4,0.5-0.7v-1.9C54.8,46.9,54.6,46.9,54.5,46.9z M66.2,54.1
	c0-2-1.6-3.6-3.6-3.6h-4.1c-0.5,1.3-1.6,2.3-3,2.6h-0.1c-0.2,0-0.4,0.1-0.5,0.1h-0.1h-0.3l0,0c-0.5,0-0.9,0-1.4-0.2l0,0l-0.4-0.1
	l-0.1-0.1c-0.1,0-0.2-0.1-0.3-0.1l-0.2-0.1l-0.2-0.1l-0.2-0.2l-0.1-0.1l-0.1-0.1c0,0-0.1-0.1-0.1-0.1c-0.1,0-0.1-0.1-0.2-0.2
	l-0.2-0.2c0-0.1-0.1-0.1-0.1-0.2l-0.1-0.2c-0.1-0.1-0.2-0.2-0.2-0.4l-0.1-0.1c0-0.1-0.1-0.2-0.1-0.3l0,0h-4.2c-2,0-3.6,1.6-3.6,3.6
	v3.7h23.7V54.1z"/>
</svg>
