<?xml version="1.0" encoding="utf-8"?>
<!-- Generator: Adobe Illustrator 24.1.0, SVG Export Plug-In . SVG Version: 6.00 Build 0)  -->
<svg version="1.1" id="Layer_1" xmlns="http://www.w3.org/2000/svg" xmlns:xlink="http://www.w3.org/1999/xlink" x="0px" y="0px"
	 viewBox="0 0 60 60" style="enable-background:new 0 0 60 60;" xml:space="preserve">
<style type="text/css">
	.st0{fill:#7D1416;}
</style>
<g>
	<path class="st0" d="M30,0C13.4,0,0,13.4,0,30s13.4,30,30,30s30-13.4,30-30S46.6,0,30,0z M30,58.1C14.5,58.1,1.9,45.5,1.9,30
		S14.5,1.9,30,1.9S58.1,14.5,58.1,30S45.5,58.1,30,58.1z"/>
</g>
<g>
	<path class="st0" d="M42.5,24.6h-2.2v-2.9c0-5.7-4.6-10.3-10.3-10.3S19.7,16,19.7,21.7v2.9h-2.2c-0.4,0-0.7,0.3-0.7,0.7v18.4
		c0,1.6,1.3,2.9,2.9,2.9h20.6c1.6,0,2.9-1.3,2.9-2.9V25.3C43.3,24.9,42.9,24.6,42.5,24.6z M32.2,40c0,0.2,0,0.4-0.2,0.6
		c-0.1,0.2-0.3,0.2-0.5,0.2h-2.9c-0.2,0-0.4-0.1-0.5-0.2c-0.1-0.2-0.2-0.4-0.2-0.6l0.5-4.2c-1.3-1-1.7-2.8-0.7-4.2s2.8-1.7,4.2-0.7
		c1.4,1,1.7,2.8,0.7,4.2c-0.2,0.3-0.4,0.5-0.7,0.7L32.2,40z M35.9,24.6H24.1v-3c0-3.3,2.6-5.9,5.9-5.9s5.9,2.6,5.9,5.9V24.6z"/>
</g>
</svg>
