<svg id="Layer_1" data-name="Layer 1" xmlns="http://www.w3.org/2000/svg" viewBox="0 0 60 60"><defs><style>.cls-1{fill:#2ba1b9;}</style></defs><title>icon-nodes-green-60h</title><path class="cls-1" d="M.82,21.36A4.64,4.64,0,0,0,0,24V36a4.64,4.64,0,0,0,.84,2.65H59.15A4.63,4.63,0,0,0,60,36V24a4.63,4.63,0,0,0-.83-2.65Zm9.66,13.22A4.58,4.58,0,1,1,15,30,4.55,4.55,0,0,1,10.48,34.58ZM34,29.49a1,1,0,1,1,1-1A1,1,0,0,1,34,29.49Zm2,3.05a1,1,0,1,1,1-1A1,1,0,0,1,36,32.54Zm2-3.05a1,1,0,1,1,1-1A1,1,0,0,1,38,29.49Zm2,3.05a1,1,0,1,1,1-1A1,1,0,0,1,40,32.54Zm2-3.05a1,1,0,1,1,1-1A1,1,0,0,1,42,29.49Zm2,3.05a1,1,0,1,1,1-1A1,1,0,0,1,44,32.54Zm2-3.05a1,1,0,1,1,1-1A1,1,0,0,1,46,29.49Zm2,3.05a1,1,0,1,1,1-1A1,1,0,0,1,48,32.54Zm2-3.05a1,1,0,1,1,1-1A1,1,0,0,1,50,29.49Zm2,3.05a1,1,0,1,1,1-1A1,1,0,0,1,52,32.54ZM55.38,0H4.59A4.65,4.65,0,0,0,0,4.69v12a4.64,4.64,0,0,0,.84,2.65H59.15A4.63,4.63,0,0,0,60,16.67v-12A4.65,4.65,0,0,0,55.38,0ZM10.48,15.25A4.58,4.58,0,1,1,15,10.68,4.54,4.54,0,0,1,10.48,15.25ZM34,10.17a1,1,0,0,1,0-2,1,1,0,0,1,0,2Zm2,3.05a1,1,0,0,1,0-2,1,1,0,0,1,0,2Zm2-3.05a1,1,0,0,1,0-2,1,1,0,0,1,0,2Zm2,3.05a1,1,0,0,1,0-2,1,1,0,0,1,0,2Zm2-3.05a1,1,0,0,1,0-2,1,1,0,0,1,0,2Zm2,3.05a1,1,0,0,1,0-2,1,1,0,0,1,0,2Zm2-3.05a1,1,0,0,1,0-2,1,1,0,0,1,0,2Zm2,3.05a1,1,0,0,1,0-2,1,1,0,0,1,0,2Zm2-3.05a1,1,0,0,1,0-2,1,1,0,0,1,0,2Zm2,3.05a1,1,0,0,1,0-2,1,1,0,0,1,0,2ZM.82,40.68A4.64,4.64,0,0,0,0,43.33v12A4.65,4.65,0,0,0,4.59,60H55.38A4.65,4.65,0,0,0,60,55.31v-12a4.63,4.63,0,0,0-.83-2.65ZM10.48,53.9A4.58,4.58,0,1,1,15,49.32,4.55,4.55,0,0,1,10.48,53.9ZM34,48.81a1,1,0,1,1,1-1A1,1,0,0,1,34,48.81Zm2,3a1,1,0,1,1,1-1A1,1,0,0,1,36,51.86Zm2-3a1,1,0,1,1,1-1A1,1,0,0,1,38,48.81Zm2,3a1,1,0,1,1,1-1A1,1,0,0,1,40,51.86Zm2-3a1,1,0,1,1,1-1A1,1,0,0,1,42,48.81Zm2,3a1,1,0,1,1,1-1A1,1,0,0,1,44,51.86Zm2-3a1,1,0,1,1,1-1A1,1,0,0,1,46,48.81Zm2,3a1,1,0,1,1,1-1A1,1,0,0,1,48,51.86Zm2-3a1,1,0,1,1,1-1A1,1,0,0,1,50,48.81Zm2,3a1,1,0,1,1,1-1A1,1,0,0,1,52,51.86Z"/></svg>