<svg id="Layer_1" data-name="Layer 1" xmlns="http://www.w3.org/2000/svg" viewBox="0 0 16 16"><defs><style>.cls-1{fill:#2ba1b9;}</style></defs><title>icon-messenger-green-16h-proximax-sirius-wallet</title><path class="cls-1" d="M6.55,3.07C2.93,3.07,0,5.47,0,8.43a4.93,4.93,0,0,0,1.85,3.74A4.64,4.64,0,0,1,.92,15a6,6,0,0,0,3.42-1.52,7.92,7.92,0,0,0,2.21.31c3.61,0,6.54-2.4,6.54-5.36S10.16,3.07,6.55,3.07Z"/><path class="cls-1" d="M15.06,9a4.65,4.65,0,0,0,.85-2.66C15.91,3.4,13,1,9.46,1A7.23,7.23,0,0,0,5.33,2.24,8.1,8.1,0,0,1,7,2.07c3.84,0,7,2.64,7,5.89a5.24,5.24,0,0,1-1.31,3.44A5.91,5.91,0,0,0,16,12.93C15.1,12,15,10,15.06,9Z"/></svg>