<svg id="Layer_1" data-name="Layer 1" xmlns="http://www.w3.org/2000/svg" viewBox="0 0 16 16"><defs><style>.cls-1{fill:#666;}.cls-2{fill:#fff;}</style></defs><title>icon-doc-type-png-16h-proximax-sirius-wallet</title><path class="cls-1" d="M14,1H4A2,2,0,0,0,2,3V6H3V3A1,1,0,0,1,4,2H14a1,1,0,0,1,1,1V7H1A1,1,0,0,0,0,8v5a1,1,0,0,0,1,1H2a2,2,0,0,0,2,2H14a2,2,0,0,0,2-2V3A2,2,0,0,0,14,1Zm0,14H4a1,1,0,0,1-1-1H15A1,1,0,0,1,14,15ZM6,4,8,6H4Zm8,2H8a3,3,0,0,1,6,0Z"/><path class="cls-2" d="M3.15,12.17V8.83H4.71a1.08,1.08,0,1,1,0,2.15H3.86v1.19ZM5.1,9.91a.45.45,0,0,0-.49-.46H3.86v.91h.75A.45.45,0,0,0,5.1,9.91Z"/><path class="cls-2" d="M8.57,12.17,7,10v2.18H6.27V8.83H7l1.54,2.1V8.83h.72v3.34Z"/><path class="cls-2" d="M9.75,10.5a1.69,1.69,0,0,1,1.78-1.73,1.56,1.56,0,0,1,1.38.75l-.59.32a.94.94,0,0,0-.79-.44,1,1,0,0,0-1,1.1,1,1,0,0,0,1,1.1,1.12,1.12,0,0,0,.71-.26v-.4h-.88v-.62H13V11.6a1.86,1.86,0,0,1-1.42.63A1.7,1.7,0,0,1,9.75,10.5Z"/></svg>