<svg id="Layer_1" data-name="Layer 1" xmlns="http://www.w3.org/2000/svg" viewBox="0 0 16 16"><defs><style>.cls-1{fill:#2ba1b9;fill-rule:evenodd;}</style></defs><title>icon-prx-xpx-green-16h-proximax-sirius-wallet</title><path class="cls-1" d="M10.48,2a10.34,10.34,0,0,1,4.89-.29A17.27,17.27,0,0,0,8,0c-.38,0-.76,0-1.14,0A6.53,6.53,0,0,1,8.39,1.19c.27.27.81.9,1.18,1A2.38,2.38,0,0,0,10.48,2"/><path class="cls-1" d="M13.23,11c-.19-.86-.45-1.7-.71-2.52-.14-.42-.29-.84-.44-1.26s-.3-.82-.47-1.23c-.74-1.73-.66-1.74.69-2.52a8.08,8.08,0,0,1,3.39-1.08h.11A15.7,15.7,0,0,1,13.23,11"/><path class="cls-1" d="M1.85,9.43c.88-.69,1.87-1.35,2.58-1.8A31.94,31.94,0,0,1,7.38,6a4,4,0,0,1,1-.38.63.63,0,0,1,.32,0c.33.14.87,1,.87,1h0c.09.14.18.29.28.43s.21.31.31.47l.42.7c.22.38.47.78.67,1.18.34.65.81,1.58,1.21,2.57a15.51,15.51,0,0,1-4.28,3.81L8,16l-.22-.14A15.68,15.68,0,0,1,1.85,9.43"/><path class="cls-1" d="M5.24.23l.22.26c.16.19.31.38.45.58a5.31,5.31,0,0,1,.49.68c.21.38.65.94.78,1.28a.65.65,0,0,1,0,.34.48.48,0,0,1-.16.24l-.39.28c-.63.46-1.23,1-1.85,1.44s-1.36,1.18-2,1.79c-.43.42-.92.93-1.37,1.46A15.73,15.73,0,0,1,.2,2.15V1.89l.24-.12A17.71,17.71,0,0,1,5.24.23"/></svg>