<svg id="Layer_1" data-name="Layer 1" xmlns="http://www.w3.org/2000/svg" viewBox="0 0 75 60"><defs><style>.cls-1{fill:#2ba1b9;}</style></defs><title>icon-streaming-green-60h</title><path class="cls-1" d="M20.55,6.18a1,1,0,0,1,0,.17.86.86,0,0,1,0,.16,1,1,0,0,1-.05.16s-.05.1-.08.14a.64.64,0,0,1-.1.13.85.85,0,0,1-.59.25.84.84,0,0,1-.6-.25.85.85,0,0,1-.24-.59.89.89,0,0,1,.24-.6l.13-.1.14-.08a.47.47,0,0,1,.16,0,.85.85,0,0,1,.76.22.64.64,0,0,1,.1.13s0,.09.08.14A1.42,1.42,0,0,1,20.55,6.18Zm6-.67a.84.84,0,1,0,.84.83A.84.84,0,0,0,26.59,5.51ZM34.22,6a.64.64,0,0,0-.08-.14.4.4,0,0,0-.1-.12.69.69,0,0,0-.13-.11l-.14-.08-.16-.05a.92.92,0,0,0-.33,0l-.16.05L33,5.65a.43.43,0,0,0-.12.11.43.43,0,0,0-.11.12.64.64,0,0,0-.08.14,1.24,1.24,0,0,0,0,.16.5.5,0,0,0,0,.17.44.44,0,0,0,0,.16.94.94,0,0,0,0,.16.64.64,0,0,0,.08.14.69.69,0,0,0,.11.13.8.8,0,0,0,.59.25A.83.83,0,0,0,34,6.94a1.19,1.19,0,0,0,.18-.27,1,1,0,0,0,.05-.16.88.88,0,0,0,0-.16,1,1,0,0,0,0-.17A1.42,1.42,0,0,0,34.22,6ZM63.94,49.4v2.69c0,4.36-4,7.91-8.84,7.91H22.58a7.56,7.56,0,0,1-.83,0c-4.53-.37-7.95-3.71-8-7.77V2a2,2,0,0,1,2-2h41a2,2,0,0,1,2,2V15.08a2,2,0,1,1-3.91,0V11.61H17.65V52.09c0,2.06,1.9,3.76,4.43,4a4.07,4.07,0,0,0,.5,0c2.72,0,4.93-1.8,4.93-4V49.4a2,2,0,0,1,2-2H62A2,2,0,0,1,63.94,49.4ZM17.65,7.7H54.74V4H17.65ZM60,51.36H31.42v.73a5.79,5.79,0,0,1,0,.72,1.1,1.1,0,0,1,0,.18c0,.23-.06.45-.11.68a.24.24,0,0,0,0,.08c-.05.2-.11.4-.17.59a1.46,1.46,0,0,0-.07.19c-.08.21-.16.43-.26.63v0c-.1.21-.21.4-.33.6l-.08.13-.1.17H55.1c2.71,0,4.92-1.8,4.92-4Zm6.11-10.84v4.15a1.4,1.4,0,0,1-1.4,1.39H44.21a1.4,1.4,0,0,1-1.4-1.39V40.52A5.53,5.53,0,0,1,48.33,35H51.2v-1A8.23,8.23,0,0,1,48,27.33c0-4.3,2.88-7.8,6.43-7.8s6.43,3.5,6.43,7.8a8.23,8.23,0,0,1-3.16,6.72v1h2.87A5.52,5.52,0,0,1,66.13,40.52ZM53.24,32a2.78,2.78,0,0,0,.9.29h.64l.21,0,.1,0,.23-.07.08,0,.31-.14a5.24,5.24,0,0,0,2.4-4.69c0-2.76-1.63-5-3.64-5s-3.63,2.24-3.63,5A5.22,5.22,0,0,0,53.24,32Zm1.27,3.1h-.07a3.24,3.24,0,0,1-.44,0v1.5a.41.41,0,0,0,0,.19l0,.06a.31.31,0,0,0,.07.09.18.18,0,0,0,.07.05l.08,0,.1,0h.17a.55.55,0,0,0,.37-.54V35.1A3.1,3.1,0,0,1,54.51,35.12Zm8.82,5.4a2.72,2.72,0,0,0-2.72-2.72h-3.1a3.26,3.26,0,0,1-2.24,2l-.07,0-.41.07h-.36a3.19,3.19,0,0,1-1-.16h0l-.27-.11-.09,0-.19-.1-.13-.08-.14-.09-.15-.11-.1-.08L52.27,39,52.21,39l-.11-.12L52,38.71l-.1-.14-.1-.14a2.68,2.68,0,0,1-.18-.28.36.36,0,0,0,0-.09l-.11-.23v0h-3.1a2.72,2.72,0,0,0-2.72,2.72v2.75H63.33Z"/></svg>