<svg xmlns="http://www.w3.org/2000/svg" xmlns:xlink="http://www.w3.org/1999/xlink" viewBox="0 0 512 512"><defs><linearGradient id="a" x1="301.89" y1="337.53" x2="364.97" y2="280.54" gradientUnits="userSpaceOnUse"><stop offset="0" stop-color="#165a2e"/><stop offset="0.51" stop-color="#4c9343"/><stop offset="1" stop-color="#b5d890"/></linearGradient><linearGradient id="b" x1="294.9" y1="247.06" x2="424.27" y2="247.06" gradientUnits="userSpaceOnUse"><stop offset="0" stop-color="#1d4e25"/><stop offset="0.52" stop-color="#448b41"/><stop offset="1" stop-color="#acd489"/></linearGradient><linearGradient id="c" x1="372.47" y1="346.56" x2="414.89" y2="268.4" gradientUnits="userSpaceOnUse"><stop offset="0" stop-color="#1d4e25"/><stop offset="1" stop-color="#9cbe71"/></linearGradient><linearGradient id="d" x1="96.59" y1="280.78" x2="187.63" y2="198.54" gradientUnits="userSpaceOnUse"><stop offset="0" stop-color="#690e0d"/><stop offset="0.51" stop-color="#9f1d21"/><stop offset="1" stop-color="#c52127"/></linearGradient><linearGradient id="e" x1="87.73" y1="145.85" x2="267.69" y2="145.85" gradientUnits="userSpaceOnUse"><stop offset="0" stop-color="#93251e"/><stop offset="0.52" stop-color="#d52627"/><stop offset="1" stop-color="#ee412a"/></linearGradient><linearGradient id="f" x1="198.84" y1="290.43" x2="259.42" y2="178.82" gradientUnits="userSpaceOnUse"><stop offset="0" stop-color="#af2625"/><stop offset="0.49" stop-color="#dc2426"/><stop offset="1" stop-color="#aa684d"/></linearGradient><linearGradient id="g" x1="230.03" y1="149.69" x2="298.11" y2="88.19" gradientUnits="userSpaceOnUse"><stop offset="0" stop-color="#ec3f24"/><stop offset="0.51" stop-color="#ef7822"/><stop offset="1" stop-color="#fbb667"/></linearGradient><linearGradient id="h" x1="221.82" y1="51.31" x2="361.42" y2="51.31" gradientUnits="userSpaceOnUse"><stop offset="0" stop-color="#cb4b27"/><stop offset="0.52" stop-color="#f48121"/><stop offset="1" stop-color="#e8b068"/></linearGradient><linearGradient id="i" x1="309.86" y1="155.82" x2="353.96" y2="74.58" gradientUnits="userSpaceOnUse"><stop offset="0" stop-color="#cd5430"/><stop offset="0.49" stop-color="#f26f25"/><stop offset="1" stop-color="#eeba53"/></linearGradient></defs><rect width="512" height="512" rx="30" style="fill:#231f20"/><path d="M97.41,417.65h5.35v15.5h8.54v4.63h-8.54v37.14H97.41V437.78H90.06v-4.63h7.35Z" style="fill:#fff"/><path d="M113.73,433.15h5.52L132,463.49l13.34-30.34h1l13.42,30.34,13.05-30.34h5.59l-18.15,41.77h-1L145.91,445l-13.35,29.91h-1Z" style="fill:#fff"/><path d="M204.48,432.08a20.57,20.57,0,0,1,16,7,22.41,22.41,0,0,1-.33,30.38,22.06,22.06,0,0,1-31.37,0,22.37,22.37,0,0,1-.32-30.36A20.65,20.65,0,0,1,204.48,432.08Zm0,5.26a15.4,15.4,0,0,0-11.5,5,16.5,16.5,0,0,0-4.82,12,16.87,16.87,0,0,0,2.2,8.45,15.43,15.43,0,0,0,5.94,6,16.83,16.83,0,0,0,16.39,0,15.46,15.46,0,0,0,6-6,17,17,0,0,0,2.19-8.45,16.43,16.43,0,0,0-4.84-12A15.49,15.49,0,0,0,204.45,437.34Z" style="fill:#fff"/><path d="M263.7,417h1.14v39.41h6.83v5.38h-6.83v13.12h-5.61V461.8h-27Zm-4.47,39.41V432.68l-16.72,23.74Z" style="fill:#b22025"/><path d="M299.55,432.08a20.55,20.55,0,0,1,16,7,22.38,22.38,0,0,1-.33,30.38,22,22,0,0,1-31.36,0,22.36,22.36,0,0,1-.33-30.36A20.66,20.66,0,0,1,299.55,432.08Zm0,5.26a15.42,15.42,0,0,0-11.51,5,16.54,16.54,0,0,0-4.82,12,17,17,0,0,0,2.2,8.45,15.43,15.43,0,0,0,5.94,6,16.85,16.85,0,0,0,16.4,0,15.43,15.43,0,0,0,5.94-6,17,17,0,0,0,2.2-8.45,16.47,16.47,0,0,0-4.84-12A15.5,15.5,0,0,0,299.53,437.34Z" style="fill:#fff"/><path d="M331.27,433.15h5.38v7.49a22.38,22.38,0,0,1,7.15-6.44,17.51,17.51,0,0,1,8.52-2.12,14.71,14.71,0,0,1,8.3,2.38,14.11,14.11,0,0,1,5.36,6.41c1.17,2.69,1.73,6.88,1.73,12.56v21.49h-5.38V455a49.17,49.17,0,0,0-.59-9.64,9.76,9.76,0,0,0-10.5-8.33,13.22,13.22,0,0,0-8.72,3.23,15,15,0,0,0-5.1,8q-.78,3.12-.77,11.36v15.32h-5.38Z" style="fill:#fff"/><path d="M414.39,461.05l4.54,2.39a24.75,24.75,0,0,1-5.15,7.06,20.62,20.62,0,0,1-6.57,4.1,23,23,0,0,1-8.28,1.4c-6.8,0-12.14-2.25-16-6.71a22.84,22.84,0,0,1-.89-29.31,19.94,19.94,0,0,1,16.56-7.9,20.61,20.61,0,0,1,17.07,8.09q4.53,5.71,4.61,14.29H382.72a16.9,16.9,0,0,0,4.66,11.93A14.77,14.77,0,0,0,398.49,471a18,18,0,0,0,6.19-1.1,17,17,0,0,0,5.15-2.94A25.19,25.19,0,0,0,414.39,461.05Zm0-11.25a17.94,17.94,0,0,0-3.13-6.87,14.78,14.78,0,0,0-5.43-4.14,16.71,16.71,0,0,0-7.11-1.57,15.29,15.29,0,0,0-10.59,3.95c-2.16,1.92-3.77,4.8-4.87,8.63Z" style="fill:#fff"/><polygon points="294.9 250.3 294.9 345.82 374.37 365.6 379.92 261.25 294.9 250.3" style="fill:url(#a)"/><polygon points="342.95 232.86 294.9 250.3 379.92 261.25 424.27 242.93 342.95 232.86" style="fill:url(#b)"/><polygon points="374.37 365.6 418.73 332.93 424.27 242.93 379.92 261.25 374.37 365.6" style="fill:url(#c)"/><polygon points="87.73 150.72 87.73 294.09 205.99 320.02 205.99 167.15 87.73 150.72" style="fill:url(#d)"/><polygon points="154.57 124.56 87.73 150.72 205.99 167.15 267.69 139.66 154.57 124.56" style="fill:url(#e)"/><polygon points="205.99 320.02 267.69 273.69 267.69 139.66 205.99 167.15 205.99 320.02" style="fill:url(#f)"/><polygon points="221.82 54.81 221.82 157.89 313.55 176.53 313.55 66.63 221.82 54.81" style="fill:url(#g)"/><polygon points="273.67 36 221.82 54.81 313.55 66.63 361.42 46.86 273.67 36" style="fill:url(#h)"/><polygon points="313.55 176.53 361.42 143.22 361.42 46.86 313.55 66.63 313.55 176.53" style="fill:url(#i)"/></svg>