<svg id="Layer_1" data-name="Layer 1" xmlns="http://www.w3.org/2000/svg" viewBox="0 0 328 64"><defs><style>.cls-1{fill:#14b6ac;}.cls-2{fill:#fbc426;}.cls-3,.cls-4{fill:#e0dfdf;}.cls-4,.cls-5,.cls-6,.cls-7,.cls-8{fill-rule:evenodd;}.cls-15,.cls-5{fill:#ee6723;}.cls-18,.cls-6{fill:#7ab4e2;}.cls-17,.cls-7{fill:#1bb2a9;}.cls-16,.cls-8{fill:#f1a81f;}.cls-9{fill:#d6a922;}.cls-10{fill:#f17934;}.cls-11{fill:#cd682d;}.cls-12{fill:#6bd0fc;}.cls-13{fill:#5ab2d7;}.cls-14{fill:#fff;}.cls-19{fill:#cd4f28;}.cls-20{fill:#c4852b;}.cls-21{fill:#009f8f;}.cls-22{fill:#478dbe;}</style></defs><title>logo-proximax-sirius-wallet</title><path class="cls-1" d="M1.22,22.3H54.54l.13,0h0a4.56,4.56,0,0,1,3.14,1.88v-2.8a2.15,2.15,0,0,0-2.15-2.15H2.14a2.12,2.12,0,0,0-2.13,2S.6,22.3,1.22,22.3Z"/><path class="cls-2" d="M44,22.3l2.66-2.7a2.6,2.6,0,0,0,0-3.68L31.26.75a2.6,2.6,0,0,0-3.68,0L6.37,22.3Z"/><path class="cls-3" d="M48.7,51.24a8.5,8.5,0,0,1-8.48-8.48h0a8.5,8.5,0,0,1,8.48-8.48h10V26.87a4.58,4.58,0,0,0-4.57-4.57H1.22C.6,22.3,0,21.23,0,21.23V58.78a4.57,4.57,0,0,0,4.57,4.57H54.12a4.58,4.58,0,0,0,4.57-4.57V51.24Z"/><path class="cls-4" d="M58.62,35.94H48.91a6.83,6.83,0,0,0-6.81,6.82h0a6.83,6.83,0,0,0,6.81,6.82h9.71A3.57,3.57,0,0,0,62.18,46V39.5A3.57,3.57,0,0,0,58.62,35.94ZM49,45.59a2.83,2.83,0,1,1,2.83-2.83A2.83,2.83,0,0,1,49,45.59Z"/><path class="cls-5" d="M25.14,34a14.86,14.86,0,0,1,7-.41,24.85,24.85,0,0,0-10.58-2.41c-.55,0-1.09,0-1.63.05a10.07,10.07,0,0,1,2.19,1.65c.38.39,1.16,1.29,1.69,1.39A3.4,3.4,0,0,0,25.14,34"/><path class="cls-6" d="M29.09,47c-.28-1.23-.64-2.45-1-3.62-.2-.61-.41-1.21-.63-1.82s-.44-1.17-.68-1.75c-1.06-2.49-1-2.51,1-3.63,1.32-.67,3.4-1.62,4.88-1.54h.15A22.55,22.55,0,0,1,29.09,47"/><path class="cls-7" d="M12.75,44.72c1.26-1,2.67-1.94,3.7-2.59a45,45,0,0,1,4.23-2.3,5.41,5.41,0,0,1,1.49-.55,1.06,1.06,0,0,1,.46,0c.47.2,1.25,1.46,1.25,1.46h0c.14.2.26.42.41.62s.29.45.43.67l.61,1c.32.55.67,1.12,1,1.69.48.94,1.16,2.27,1.74,3.69A22.6,22.6,0,0,1,21.9,54l-.32.2-.32-.2a22.58,22.58,0,0,1-8.51-9.24"/><path class="cls-8" d="M17.61,31.51l.32.37c.23.27.44.55.65.83a11,11,0,0,1,.7,1,18.84,18.84,0,0,1,1.11,1.85.93.93,0,0,1,.07.48.66.66,0,0,1-.23.33c-.24.2-.36.27-.56.42-.91.66-1.78,1.37-2.65,2.06a36.78,36.78,0,0,0-2.86,2.58c-.62.6-1.32,1.32-2,2.09a22.73,22.73,0,0,1-1.81-9.23v-.39l.34-.16a25.55,25.55,0,0,1,6.89-2.21"/><circle class="cls-3" cx="49" cy="42.76" r="1.82"/><polygon class="cls-9" points="19.9 22.3 36.27 5.69 32 1.48 11.49 22.3 19.9 22.3"/><path class="cls-10" d="M52.65,22.3,43.89,6a2.61,2.61,0,0,0-3.52-1.07L7.91,22.3Z"/><polygon class="cls-11" points="28.3 22.3 47.21 12.16 44.38 6.88 15.63 22.3 28.3 22.3"/><path class="cls-12" d="M53.51,22.3l-2-7.59a2.6,2.6,0,0,0-3.17-1.86L11.83,22.3Z"/><polygon class="cls-13" points="50.33 22.3 53.31 21.53 51.81 15.73 26.4 22.3 50.33 22.3"/><path class="cls-14" d="M73.62.24H89.87c7.61,0,12.75,5.59,12.75,13.47S97.48,27.28,89.87,27.28H83.19v12.1H73.62ZM87.9,19.07c3.34,0,5-2.24,5-5.36s-1.64-5.26-4.81-5.26H83.19V19.07Z"/><path class="cls-14" d="M106.94,10.8h9v6.42c1.19-3.78,4.69-6.91,8.85-6.91a7,7,0,0,1,1.08.11V19.6a8.52,8.52,0,0,0-1.89-.17c-5.18,0-7.67,3.3-7.67,8.37V38.6h-9.33Z"/><path class="cls-14" d="M144.76,10.15c8.8,0,15.82,5.88,15.82,14.63s-7,14.47-15.76,14.47-15.76-5.78-15.76-14.47,7-14.63,15.7-14.63m.06,21.32c3.4,0,6.32-2.53,6.32-6.69s-2.92-6.86-6.32-6.86-6.32,2.65-6.32,6.86,2.92,6.69,6.32,6.69"/><path class="cls-14" d="M274.84,21.27h.81v-.49c0-2.32-1.89-3.07-3.94-3.07A14.56,14.56,0,0,0,264,20.35l-3.24-6.58a21.42,21.42,0,0,1,11.77-3.62c7.67,0,12.42,4.26,12.42,11.34V38.6h-8.53V35.2a10.22,10.22,0,0,1-8.26,4c-5.35,0-9.07-3.67-9.07-8.48,0-7.45,8.85-9.5,15.71-9.5m-3.83,11a5.09,5.09,0,0,0,4.75-4.91v-.76h-.87c-2.86,0-6.53.76-6.53,3.3A2.38,2.38,0,0,0,271,32.28"/><polygon class="cls-15" points="327.38 0.24 324.87 0.24 313.72 17.29 314.96 19.22 326.47 1.64 327.38 0.24"/><polygon class="cls-16" points="322 0.24 312.29 15.08 313.38 16.77 324.2 0.24 322 0.24"/><polygon class="cls-17" points="319.2 0.24 310.9 12.93 311.98 14.6 321.38 0.24 319.2 0.24"/><polygon class="cls-18" points="315.97 0.24 311.81 6.59 309.3 10.45 310.55 12.39 318.5 0.24 315.97 0.24"/><polygon class="cls-19" points="313.72 17.29 314.96 19.22 317.67 15.08 316.42 13.15 313.72 17.29"/><polygon class="cls-20" points="313.38 16.77 316.08 12.64 314.99 10.95 312.29 15.08 313.38 16.77"/><polygon class="cls-21" points="311.98 14.6 314.68 10.47 313.6 8.79 310.9 12.93 311.98 14.6"/><polygon class="cls-22" points="309.3 10.45 310.55 12.39 313.25 8.26 311.99 6.31 310.53 8.54 309.3 10.45"/><polygon class="cls-14" points="302.73 0.3 290.92 0.3 303.35 19.52 290.39 39.38 301.94 39.38 309.08 28.38 316.19 39.38 328 39.38 315 19.27 309.28 10.43 302.73 0.3"/><rect class="cls-14" x="195.97" y="10.8" width="9.34" height="27.8"/><rect class="cls-14" x="196.07" width="9.13" height="7.29"/><path class="cls-14" d="M211.79,11.09h9.37v3.65a9.78,9.78,0,0,1,7.93-4.24,8.19,8.19,0,0,1,7.69,4.33,11.2,11.2,0,0,1,8.92-4.33c5.67,0,9.12,3.55,9.12,9.76V38.89h-9.37V23.26c0-2.9-1.43-4.43-3.64-4.43S238,20.36,238,23.26V38.89H228.6V23.26c0-2.9-1.43-4.43-3.65-4.43s-3.79,1.53-3.79,4.43V38.89h-9.37Z"/><polygon class="cls-14" points="190.81 38.58 181.28 24.47 190.6 10.81 180.28 10.81 176.16 16.87 172.07 10.81 161.54 10.81 170.89 24.62 161.39 38.58 171.66 38.58 176.01 32.2 180.33 38.58 190.81 38.58"/><path class="cls-14" d="M72.74,56.37H78v.19a2.89,2.89,0,0,0,1.53,2.64,8.69,8.69,0,0,0,4.43.91,7.38,7.38,0,0,0,3.46-.66,2,2,0,0,0,1.22-1.86,1.61,1.61,0,0,0-.8-1.49,9,9,0,0,0-3.22-.73L81,55A12,12,0,0,1,75.1,53.2a4.64,4.64,0,0,1-1.88-4,5.75,5.75,0,0,1,2.71-4.91,12.18,12.18,0,0,1,7.16-1.9,13.42,13.42,0,0,1,7.5,1.79,5.56,5.56,0,0,1,2.71,4.88v.17H88.2A2.94,2.94,0,0,0,86.77,47a7,7,0,0,0-3.59-.76,7.41,7.41,0,0,0-3.35.62,1.9,1.9,0,0,0-1.2,1.73,1.44,1.44,0,0,0,.7,1.32,10.79,10.79,0,0,0,3.45.72l3.8.4a11.39,11.39,0,0,1,5.78,1.89A4.94,4.94,0,0,1,94.21,57a5.8,5.8,0,0,1-2.77,5.2Q88.67,64,83.32,64q-5.1,0-7.84-1.87a6.06,6.06,0,0,1-2.74-5.33Z"/><path class="cls-14" d="M102.61,46.65H97.9V43h4.71ZM97.9,63.46V48.17h4.71V63.46Z"/><path class="cls-14" d="M111.51,63.46h-4.74V48.17h4.74v2a8.08,8.08,0,0,1,2.22-1.93,4.89,4.89,0,0,1,2.4-.63,9.22,9.22,0,0,1,1,.09l.37,0v4l-.54,0h-1A4.19,4.19,0,0,0,112.7,53a5.16,5.16,0,0,0-1.19,3.6Z"/><path class="cls-14" d="M124.39,46.65h-4.71V43h4.71Zm-4.71,16.81V48.17h4.71V63.46Z"/><path class="cls-14" d="M145.77,48.17V63.46H141v-2.3a8.21,8.21,0,0,1-2.7,2,7.9,7.9,0,0,1-3.25.66,8.59,8.59,0,0,1-3.39-.61,5,5,0,0,1-2.22-1.8,4.89,4.89,0,0,1-.71-1.73,17.45,17.45,0,0,1-.2-3.1V48.17h4.73v7.41a6,6,0,0,0,.74,3.5,3.12,3.12,0,0,0,2.59,1,4.48,4.48,0,0,0,3.24-1.15A4.2,4.2,0,0,0,141,55.72V48.17Z"/><path class="cls-14" d="M149,58.45h5a2,2,0,0,0,1.11,1.66,7.39,7.39,0,0,0,3.17.51,5.8,5.8,0,0,0,2.37-.41q.9-.42.9-1.08a.89.89,0,0,0-.51-.86,6.41,6.41,0,0,0-2.14-.39l-4.28-.37A6.15,6.15,0,0,1,150.88,56a4.16,4.16,0,0,1-1.39-3.21A4.28,4.28,0,0,1,151.63,49a11.75,11.75,0,0,1,6.17-1.34,11.63,11.63,0,0,1,6,1.32A4.09,4.09,0,0,1,166,52.6v.14h-4.74a2,2,0,0,0-1.08-1.5,5.62,5.62,0,0,0-2.63-.49,5.48,5.48,0,0,0-2.25.37,1.15,1.15,0,0,0-.81,1c0,.41.27.73.81,1a9.91,9.91,0,0,0,2.74.49l3.31.26a6.18,6.18,0,0,1,3.78,1.36,4.06,4.06,0,0,1,1.33,3.2,4.67,4.67,0,0,1-2.18,4.16A11.77,11.77,0,0,1,157.89,64a12.34,12.34,0,0,1-6.49-1.4A4.93,4.93,0,0,1,149,58.45Z"/><path class="cls-14" d="M184.24,63.46,177.72,43h5.33l4.08,13.79L192,43H197l4.65,13.79L205.85,43h5.34l-6.64,20.48h-5.22l-4.9-14.91-5.14,14.91Z"/><path class="cls-14" d="M228.34,61a4.36,4.36,0,0,0,.17,1.37,1.39,1.39,0,0,0,.55.74v.35h-5.22l-.23-1.68a7.84,7.84,0,0,1-2.79,1.68,10.87,10.87,0,0,1-3.58.54,8.06,8.06,0,0,1-5-1.37,4.4,4.4,0,0,1-1.82-3.71,3.63,3.63,0,0,1,1.64-3.25,12.71,12.71,0,0,1,5.6-1.4l1.47-.1c3.05-.21,4.57-.81,4.57-1.77a1.39,1.39,0,0,0-.88-1.31,6.32,6.32,0,0,0-2.64-.43,4.38,4.38,0,0,0-2.6.62,2.33,2.33,0,0,0-.86,1.93l-4.94,0v-.06A4.59,4.59,0,0,1,214,49.05a12.12,12.12,0,0,1,6.45-1.42,15.05,15.05,0,0,1,3.68.41,7.7,7.7,0,0,1,2.68,1.21A3.37,3.37,0,0,1,228,50.82a9,9,0,0,1,.34,2.88Zm-4.62-4.91a10,10,0,0,1-3.39.74l-.46.05a10.94,10.94,0,0,0-3.38.68,1.34,1.34,0,0,0-.71,1.25,1.72,1.72,0,0,0,.7,1.42,3,3,0,0,0,1.86.53,6.27,6.27,0,0,0,3.92-1.15,3.6,3.6,0,0,0,1.5-3,2.83,2.83,0,0,0,0-.33A.6.6,0,0,0,223.72,56.09Z"/><path class="cls-14" d="M232.55,63.46V43h4.71V63.46Z"/><path class="cls-14" d="M241.75,63.46V43h4.71V63.46Z"/><path class="cls-14" d="M267.73,58.5a7.69,7.69,0,0,1-3.27,4.07A10.66,10.66,0,0,1,258.79,64a9.73,9.73,0,0,1-6.71-2.21,7.65,7.65,0,0,1-2.47-6,7.56,7.56,0,0,1,2.47-6,9.69,9.69,0,0,1,6.71-2.2q4.43,0,6.81,2.28A8.55,8.55,0,0,1,268,56.4v.65H254.94A3.61,3.61,0,0,0,256,59.71a3.86,3.86,0,0,0,2.76,1,4.51,4.51,0,0,0,2.32-.57,3.34,3.34,0,0,0,1.4-1.63Zm-12.65-4.64,7.65,0a3.14,3.14,0,0,0-1.15-2.25,4.21,4.21,0,0,0-2.68-.81,4.14,4.14,0,0,0-2.66.82A3.09,3.09,0,0,0,255.08,53.86Z"/><path class="cls-14" d="M272.06,44.14h4.74v4h3.54v3.6H276.8v6.47a3.34,3.34,0,0,0,.27,1.8,2,2,0,0,0,1.29.28h2V64h-3.2a6.69,6.69,0,0,1-3.9-.87,3.23,3.23,0,0,1-1.18-2.81V51.77h-2.23v-3.6h2.23Z"/></svg>