<svg xmlns="http://www.w3.org/2000/svg" xmlns:xlink="http://www.w3.org/1999/xlink" viewBox="0 0 40 50"><defs><linearGradient id="a" x1="24.15" y1="32.69" x2="30.01" y2="27.39" gradientUnits="userSpaceOnUse"><stop offset="0" stop-color="#165a2e"/><stop offset="0.51" stop-color="#4c9343"/><stop offset="1" stop-color="#b5d890"/></linearGradient><linearGradient id="b" x1="23.5" y1="24.28" x2="35.53" y2="24.28" gradientUnits="userSpaceOnUse"><stop offset="0" stop-color="#1d4e25"/><stop offset="0.52" stop-color="#448b41"/><stop offset="1" stop-color="#acd489"/></linearGradient><linearGradient id="c" x1="30.71" y1="33.53" x2="34.66" y2="26.26" gradientUnits="userSpaceOnUse"><stop offset="0" stop-color="#1d4e25"/><stop offset="1" stop-color="#9cbe71"/></linearGradient><linearGradient id="d" x1="5.06" y1="27.41" x2="13.52" y2="19.76" gradientUnits="userSpaceOnUse"><stop offset="0" stop-color="#690e0d"/><stop offset="0.51" stop-color="#9f1d21"/><stop offset="1" stop-color="#c52127"/></linearGradient><linearGradient id="e" x1="4.23" y1="14.87" x2="20.97" y2="14.87" gradientUnits="userSpaceOnUse"><stop offset="0" stop-color="#93251e"/><stop offset="0.52" stop-color="#d52627"/><stop offset="1" stop-color="#ee412a"/></linearGradient><linearGradient id="f" x1="14.57" y1="28.31" x2="20.2" y2="17.93" gradientUnits="userSpaceOnUse"><stop offset="0" stop-color="#af2625"/><stop offset="0.49" stop-color="#dc2426"/><stop offset="1" stop-color="#aa684d"/></linearGradient><linearGradient id="g" x1="17.47" y1="15.22" x2="23.8" y2="9.5" gradientUnits="userSpaceOnUse"><stop offset="0" stop-color="#ec3f24"/><stop offset="0.51" stop-color="#ef7822"/><stop offset="1" stop-color="#fbb667"/></linearGradient><linearGradient id="h" x1="16.7" y1="6.07" x2="29.68" y2="6.07" gradientUnits="userSpaceOnUse"><stop offset="0" stop-color="#cb4b27"/><stop offset="0.52" stop-color="#f48121"/><stop offset="1" stop-color="#e8b068"/></linearGradient><linearGradient id="i" x1="24.89" y1="15.79" x2="28.99" y2="8.24" gradientUnits="userSpaceOnUse"><stop offset="0" stop-color="#cd5430"/><stop offset="0.49" stop-color="#f26f25"/><stop offset="1" stop-color="#eeba53"/></linearGradient></defs><rect width="40" height="50" rx="3" style="fill:#231f20"/><path d="M5.13,40.14h.5v1.44h.79V42H5.63v3.45h-.5V42H4.45v-.43h.68Z" style="fill:#fff"/><path d="M6.65,41.58h.51L8.35,44.4l1.24-2.82h.09l1.25,2.82,1.22-2.82h.52L11,45.46h-.09L9.64,42.68,8.4,45.46H8.31Z" style="fill:#fff"/><path d="M15.09,41.48a1.93,1.93,0,0,1,1.49.65,2,2,0,0,1,.53,1.4A2,2,0,0,1,16.55,45a2.08,2.08,0,0,1-2.92,0,2.08,2.08,0,0,1,0-2.83A1.93,1.93,0,0,1,15.09,41.48Zm0,.49a1.42,1.42,0,0,0-1.07.46,1.54,1.54,0,0,0-.45,1.11,1.66,1.66,0,0,0,.2.79,1.44,1.44,0,0,0,.56.56,1.54,1.54,0,0,0,1.52,0,1.41,1.41,0,0,0,.55-.56,1.56,1.56,0,0,0,.21-.79,1.54,1.54,0,0,0-.45-1.11A1.44,1.44,0,0,0,15.09,42Z" style="fill:#fff"/><path d="M20.6,40.08h.1v3.66h.64v.5H20.7v1.22h-.52V44.24H17.67Zm-.42,3.66v-2.2l-1.55,2.2Z" style="fill:#b22025"/><path d="M23.93,41.48a1.93,1.93,0,0,1,1.49.65,2,2,0,0,1,.54,1.4A2,2,0,0,1,25.39,45a2.08,2.08,0,0,1-2.92,0,2.08,2.08,0,0,1,0-2.83A1.93,1.93,0,0,1,23.93,41.48Zm0,.49a1.42,1.42,0,0,0-1.07.46,1.54,1.54,0,0,0-.45,1.11,1.66,1.66,0,0,0,.2.79,1.44,1.44,0,0,0,.56.56,1.54,1.54,0,0,0,1.52,0,1.41,1.41,0,0,0,.55-.56,1.56,1.56,0,0,0,.21-.79A1.54,1.54,0,0,0,25,42.43,1.44,1.44,0,0,0,23.93,42Z" style="fill:#fff"/><path d="M26.88,41.58h.5v.7a2,2,0,0,1,.67-.6,1.63,1.63,0,0,1,.79-.2,1.34,1.34,0,0,1,1.27.82,3.1,3.1,0,0,1,.16,1.17v2h-.5V43.61a4.15,4.15,0,0,0-.06-.89,1.07,1.07,0,0,0-.33-.59,1,1,0,0,0-.64-.19,1.21,1.21,0,0,0-.81.3,1.45,1.45,0,0,0-.48.74A5.11,5.11,0,0,0,27.38,44v1.42h-.5Z" style="fill:#fff"/><path d="M34.61,44.17l.42.23a2.24,2.24,0,0,1-.48.65,1.69,1.69,0,0,1-.61.38,2,2,0,0,1-.77.13,1.84,1.84,0,0,1-1.48-.62,2.08,2.08,0,0,1-.54-1.41,2,2,0,0,1,.46-1.31,1.85,1.85,0,0,1,1.54-.74,1.9,1.9,0,0,1,1.58.75,2.1,2.1,0,0,1,.43,1.33h-3.5a1.64,1.64,0,0,0,.44,1.11,1.37,1.37,0,0,0,1,.43,1.65,1.65,0,0,0,.58-.1,1.71,1.71,0,0,0,.48-.27A2.37,2.37,0,0,0,34.61,44.17Zm0-1a1.65,1.65,0,0,0-.29-.64,1.44,1.44,0,0,0-.51-.39,1.66,1.66,0,0,0-.66-.14,1.39,1.39,0,0,0-1,.37,1.66,1.66,0,0,0-.46.8Z" style="fill:#fff"/><polygon points="23.5 24.58 23.5 33.46 30.89 35.3 31.4 25.6 23.5 24.58" style="fill:url(#a)"/><polygon points="27.97 22.96 23.5 24.58 31.4 25.6 35.53 23.89 27.97 22.96" style="fill:url(#b)"/><polygon points="30.89 35.3 35.01 32.26 35.53 23.89 31.4 25.6 30.89 35.3" style="fill:url(#c)"/><polygon points="4.23 15.32 4.23 28.65 15.23 31.06 15.23 16.85 4.23 15.32" style="fill:url(#d)"/><polygon points="10.45 12.88 4.23 15.32 15.23 16.85 20.97 14.29 10.45 12.88" style="fill:url(#e)"/><polygon points="15.23 31.06 20.97 26.75 20.97 14.29 15.23 16.85 15.23 31.06" style="fill:url(#f)"/><polygon points="16.7 6.4 16.7 15.98 25.23 17.72 25.23 7.5 16.7 6.4" style="fill:url(#g)"/><polygon points="21.52 4.65 16.7 6.4 25.23 7.5 29.68 5.66 21.52 4.65" style="fill:url(#h)"/><polygon points="25.23 17.72 29.68 14.62 29.68 5.66 25.23 7.5 25.23 17.72" style="fill:url(#i)"/></svg>