<svg id="Layer_1" data-name="Layer 1" xmlns="http://www.w3.org/2000/svg" viewBox="0 0 234 64"><defs><style>.cls-1{fill:#fff;}.cls-2,.cls-6{fill:#f06622;}.cls-2,.cls-3,.cls-4,.cls-5{fill-rule:evenodd;}.cls-3,.cls-9{fill:#79b5e2;}.cls-4,.cls-8{fill:#1cb4ab;}.cls-5,.cls-7{fill:#f2a91d;}.cls-10{fill:#cd4f27;}.cls-11{fill:#c6862b;}.cls-12{fill:#009f90;}.cls-13{fill:#488ebe;}</style></defs><title>Artboard 1</title><path class="cls-1" d="M111.2,49.24a1,1,0,0,1-.23.27.49.49,0,0,1-.31.09.84.84,0,0,1-.48-.21c-.18-.13-.41-.28-.68-.45a6,6,0,0,0-1-.45,4.29,4.29,0,0,0-1.42-.21,4.13,4.13,0,0,0-1.39.22,2.92,2.92,0,0,0-1,.57,2.37,2.37,0,0,0-.61.85,2.49,2.49,0,0,0-.21,1,1.91,1.91,0,0,0,.36,1.2,2.94,2.94,0,0,0,.94.81,7.18,7.18,0,0,0,1.33.59L108,54c.52.18,1,.38,1.52.6a5.15,5.15,0,0,1,1.33.84,3.68,3.68,0,0,1,.94,1.24,4.13,4.13,0,0,1,.35,1.8,5.73,5.73,0,0,1-.38,2.13,4.85,4.85,0,0,1-1.13,1.73,5.29,5.29,0,0,1-1.82,1.16,6.79,6.79,0,0,1-2.45.42,7.34,7.34,0,0,1-3.06-.61A7,7,0,0,1,101,61.75l.67-1.11a1,1,0,0,1,.24-.23.53.53,0,0,1,.3-.09.91.91,0,0,1,.58.28c.22.18.49.37.82.59a6.55,6.55,0,0,0,1.18.6,4.61,4.61,0,0,0,1.69.27,4.4,4.4,0,0,0,1.48-.23,3.16,3.16,0,0,0,1.11-.64,2.76,2.76,0,0,0,.69-1A3.18,3.18,0,0,0,110,58.9a2.17,2.17,0,0,0-.36-1.28,3,3,0,0,0-.93-.84,6.42,6.42,0,0,0-1.32-.57l-1.52-.48c-.52-.17-1-.36-1.52-.58a4.93,4.93,0,0,1-1.32-.84,4.13,4.13,0,0,1-.93-1.3,4.91,4.91,0,0,1,0-3.69,4.67,4.67,0,0,1,1-1.52,5.05,5.05,0,0,1,1.67-1.06,6.12,6.12,0,0,1,2.28-.4,7.41,7.41,0,0,1,2.64.46,6.21,6.21,0,0,1,2.09,1.33Z"/><path class="cls-1" d="M117.66,47.77a1.29,1.29,0,0,1-.13.58,1.58,1.58,0,0,1-.33.48,1.63,1.63,0,0,1-.49.33,1.51,1.51,0,0,1-1.18,0,1.6,1.6,0,0,1-.81-.81,1.43,1.43,0,0,1-.12-.58,1.53,1.53,0,0,1,.12-.6,1.64,1.64,0,0,1,.81-.83,1.51,1.51,0,0,1,1.18,0,1.66,1.66,0,0,1,.49.34,1.63,1.63,0,0,1,.33.49A1.38,1.38,0,0,1,117.66,47.77Zm-.48,3.83V63.81H115V51.6Z"/><path class="cls-1" d="M121,63.81V51.6h1.23a.72.72,0,0,1,.49.13,1,1,0,0,1,.18.46l.14,1.9a5.63,5.63,0,0,1,1.55-2,3.39,3.39,0,0,1,2.16-.72,3.57,3.57,0,0,1,.92.12,3,3,0,0,1,.76.32l-.28,1.6a.36.36,0,0,1-.37.3,1.86,1.86,0,0,1-.52-.11,3.34,3.34,0,0,0-1-.12,2.77,2.77,0,0,0-1.87.65A5.12,5.12,0,0,0,123.11,56v7.78Z"/><path class="cls-1" d="M133.55,47.77a1.44,1.44,0,0,1-.13.58,1.82,1.82,0,0,1-.34.48,1.63,1.63,0,0,1-.49.33,1.52,1.52,0,0,1-.59.12,1.43,1.43,0,0,1-.58-.12,1.58,1.58,0,0,1-.48-.33,1.82,1.82,0,0,1-.34-.48,1.43,1.43,0,0,1-.12-.58,1.53,1.53,0,0,1,.12-.6,1.66,1.66,0,0,1,.34-.49,1.61,1.61,0,0,1,.48-.34,1.43,1.43,0,0,1,.58-.12,1.52,1.52,0,0,1,.59.12,1.68,1.68,0,0,1,.83.83A1.54,1.54,0,0,1,133.55,47.77Zm-.49,3.83V63.81h-2.14V51.6Z"/><path class="cls-1" d="M138.7,51.6v7.78a3.25,3.25,0,0,0,.64,2.15,2.34,2.34,0,0,0,1.93.76,3.64,3.64,0,0,0,1.77-.45,5.22,5.22,0,0,0,1.53-1.24v-9h2.15V63.81h-1.28a.55.55,0,0,1-.58-.45l-.17-1.31a6.56,6.56,0,0,1-1.78,1.41,4.61,4.61,0,0,1-2.27.54,4.44,4.44,0,0,1-1.76-.33,3.41,3.41,0,0,1-1.28-.94,3.86,3.86,0,0,1-.78-1.45,6.46,6.46,0,0,1-.26-1.9V51.6Z"/><path class="cls-1" d="M157.24,53.61a.47.47,0,0,1-.45.27.84.84,0,0,1-.41-.14l-.56-.29a5.36,5.36,0,0,0-.79-.3,3.57,3.57,0,0,0-1-.15,3.36,3.36,0,0,0-1,.14,2.26,2.26,0,0,0-.74.38,1.59,1.59,0,0,0-.47.56,1.49,1.49,0,0,0-.16.69,1.18,1.18,0,0,0,.27.78,2.42,2.42,0,0,0,.72.55,7.19,7.19,0,0,0,1,.4l1.16.37c.4.14.79.28,1.17.44a3.94,3.94,0,0,1,1,.61,2.66,2.66,0,0,1,.72.88,2.73,2.73,0,0,1,.27,1.26,4,4,0,0,1-.3,1.56,3.36,3.36,0,0,1-.9,1.24,4.24,4.24,0,0,1-1.44.83,6.68,6.68,0,0,1-4.31-.12,5.74,5.74,0,0,1-1.76-1.06l.5-.82a.66.66,0,0,1,.23-.24.73.73,0,0,1,.35-.09.83.83,0,0,1,.46.17l.58.38a5.23,5.23,0,0,0,.84.37,3.87,3.87,0,0,0,1.22.17,3.16,3.16,0,0,0,1.1-.17,2.16,2.16,0,0,0,.78-.44,1.68,1.68,0,0,0,.46-.63,2.08,2.08,0,0,0,.15-.78,1.26,1.26,0,0,0-.27-.83,2.45,2.45,0,0,0-.71-.57,6.18,6.18,0,0,0-1-.41l-1.17-.37a9.68,9.68,0,0,1-1.17-.44,4.29,4.29,0,0,1-1-.62,2.71,2.71,0,0,1-.72-.92,3,3,0,0,1-.27-1.33,3.26,3.26,0,0,1,.29-1.34,3.51,3.51,0,0,1,.85-1.14,4.38,4.38,0,0,1,1.36-.78,6.26,6.26,0,0,1,4,.1,5,5,0,0,1,1.66,1Z"/><path class="cls-1" d="M163.77,46.54h1.94a.88.88,0,0,1,.52.15.81.81,0,0,1,.28.4l3.56,12c.07.23.13.46.18.7s.1.51.15.79c.06-.28.11-.54.17-.79a5.56,5.56,0,0,1,.19-.7l4.06-12a.9.9,0,0,1,.29-.38.87.87,0,0,1,.51-.17h.67a.88.88,0,0,1,.52.15.94.94,0,0,1,.28.4l4,12a11.73,11.73,0,0,1,.38,1.44c.05-.27.09-.52.13-.76a5.17,5.17,0,0,1,.16-.68l3.58-12a.81.81,0,0,1,.78-.55H188l-5.4,17.27h-2.1l-4.38-13.18c-.08-.24-.16-.53-.24-.86a1.82,1.82,0,0,1-.11.46c0,.15-.08.28-.12.4l-4.39,13.18h-2.1Z"/><path class="cls-1" d="M197.83,63.81h-1a1.11,1.11,0,0,1-.51-.1.51.51,0,0,1-.25-.41l-.24-1.13c-.32.29-.64.55-.94.78a6.15,6.15,0,0,1-1,.57,5,5,0,0,1-1.07.36,6.85,6.85,0,0,1-1.28.12,4.61,4.61,0,0,1-1.33-.2,2.94,2.94,0,0,1-1.08-.6,3,3,0,0,1-.73-1,3.58,3.58,0,0,1-.27-1.44,2.77,2.77,0,0,1,.4-1.4,3.48,3.48,0,0,1,1.28-1.19,8.4,8.4,0,0,1,2.32-.85,15.31,15.31,0,0,1,3.51-.34V56a3.3,3.3,0,0,0-.61-2.17,2.19,2.19,0,0,0-1.8-.73,3.68,3.68,0,0,0-1.32.2,4.65,4.65,0,0,0-.93.44l-.67.45a1,1,0,0,1-.56.2.64.64,0,0,1-.38-.12.77.77,0,0,1-.26-.28l-.39-.69A7.17,7.17,0,0,1,191,51.86a6.81,6.81,0,0,1,2.6-.48,4.56,4.56,0,0,1,1.82.34,3.67,3.67,0,0,1,1.33.94,3.78,3.78,0,0,1,.82,1.46,6,6,0,0,1,.28,1.88Zm-5.57-1.32a3.87,3.87,0,0,0,1.92-.44,4.51,4.51,0,0,0,.8-.51,6.87,6.87,0,0,0,.74-.69V58.34a15.18,15.18,0,0,0-2.52.18,7,7,0,0,0-1.68.49,2.41,2.41,0,0,0-1,.72,1.53,1.53,0,0,0-.3.92,2.2,2.2,0,0,0,.16.84,1.69,1.69,0,0,0,.42.57,1.81,1.81,0,0,0,.63.33A2.9,2.9,0,0,0,192.26,62.49Z"/><path class="cls-1" d="M203.47,46.05V63.81h-2.14V46.05Z"/><path class="cls-1" d="M209.64,46.05V63.81H207.5V46.05Z"/><path class="cls-1" d="M218.26,51.41a5.7,5.7,0,0,1,2,.36,4.51,4.51,0,0,1,2.66,2.78,6.76,6.76,0,0,1,.38,2.32,1.4,1.4,0,0,1-.11.67.46.46,0,0,1-.41.17h-8.12a6.48,6.48,0,0,0,.31,2,4.12,4.12,0,0,0,.8,1.43A3.3,3.3,0,0,0,217,62a4.4,4.4,0,0,0,1.57.28A4.32,4.32,0,0,0,220,62.1a7.19,7.19,0,0,0,1-.4,7.1,7.1,0,0,0,.7-.41,1,1,0,0,1,.49-.18.47.47,0,0,1,.41.2l.6.79a3.76,3.76,0,0,1-.95.83,5.74,5.74,0,0,1-1.19.59,7.31,7.31,0,0,1-1.3.34,7.5,7.5,0,0,1-1.34.12,6.17,6.17,0,0,1-2.33-.43,5.21,5.21,0,0,1-1.85-1.26,5.71,5.71,0,0,1-1.21-2,8.26,8.26,0,0,1-.43-2.79,7,7,0,0,1,.39-2.39,5.57,5.57,0,0,1,1.13-1.92,5.16,5.16,0,0,1,1.79-1.28A5.77,5.77,0,0,1,218.26,51.41Zm.05,1.57a3.27,3.27,0,0,0-2.45.9,4.3,4.3,0,0,0-1.11,2.49h6.64a4.54,4.54,0,0,0-.2-1.37,3.17,3.17,0,0,0-.61-1.07,2.59,2.59,0,0,0-1-.7,3.25,3.25,0,0,0-1.27-.23Z"/><path class="cls-1" d="M229.76,64a3,3,0,0,1-2.23-.81,3.17,3.17,0,0,1-.78-2.32V53.39h-1.47a.42.42,0,0,1-.32-.11.44.44,0,0,1-.13-.36v-.85l2-.25.49-3.78a.43.43,0,0,1,.16-.29.52.52,0,0,1,.34-.12h1.08v4.21h3.49v1.55H228.9v7.33a1.55,1.55,0,0,0,.37,1.15,1.29,1.29,0,0,0,1,.37,1.9,1.9,0,0,0,.58-.09,2.39,2.39,0,0,0,.43-.2l.31-.2a.43.43,0,0,1,.22-.09.37.37,0,0,1,.3.21l.63,1a3.91,3.91,0,0,1-1.34.81A4.39,4.39,0,0,1,229.76,64Z"/><path class="cls-2" d="M34.56,6.47c7.28-2.08,10.38-1.54,16.06-1A57,57,0,0,0,26.4,0a36,36,0,0,0-3.74.13,22.23,22.23,0,0,1,5,3.78c.86.88,2.64,3,3.86,3.16a8.11,8.11,0,0,0,3-.6"/><path class="cls-3" d="M43.59,36.26c-.63-2.81-1.46-5.6-2.33-8.27-.45-1.4-.95-2.78-1.43-4.17s-1-2.69-1.56-4c-2.43-5.7-2.18-5.73,2.27-8.3C43.56,10,48.3,7.79,51.7,8h.35a51.82,51.82,0,0,1-8.46,28.27"/><path class="cls-4" d="M6.19,31c2.89-2.27,6.12-4.44,8.47-5.93a101.91,101.91,0,0,1,9.69-5.27,11.81,11.81,0,0,1,3.4-1.26,2.38,2.38,0,0,1,1.06.12c1.07.45,2.85,3.33,2.85,3.33h0a15.85,15.85,0,0,0,1,1.41,11,11,0,0,1,1,1.54c.47.77.93,1.54,1.39,2.32.74,1.25,1.55,2.56,2.21,3.85,1.11,2.15,2.66,5.2,4,8.45a51.83,51.83,0,0,1-14.12,12.6l-.74.44-.74-.44A51.73,51.73,0,0,1,6.19,31"/><path class="cls-5" d="M17.31.76c.27.29.52.58.75.86.51.61,1,1.25,1.48,1.89a23.62,23.62,0,0,1,1.61,2.25A49.41,49.41,0,0,1,23.69,10a2.19,2.19,0,0,1,.16,1.1,1.44,1.44,0,0,1-.53.77c-.56.46-.83.6-1.3.94-2,1.5-4,3.12-6,4.72-2.25,1.78-4.48,3.89-6.54,5.89-1.43,1.38-3,3-4.52,4.78A51.48,51.48,0,0,1,.76,7.07V6.2l.79-.38A57.83,57.83,0,0,1,17.31.76"/><path class="cls-1" d="M62.49,13.11H73.4c5.11,0,8.56,3.75,8.56,9s-3.45,9.11-8.56,9.11H68.92v8.13H62.49Zm9.59,12.64c2.24,0,3.34-1.5,3.34-3.6s-1.1-3.52-3.23-3.52H68.92v7.12Z"/><path class="cls-1" d="M84.86,20.2h6v4.31a6.46,6.46,0,0,1,5.94-4.64,3.55,3.55,0,0,1,.73.08v6.16A5.33,5.33,0,0,0,96.27,26c-3.48,0-5.15,2.21-5.15,5.61v7.25H84.86Z"/><path class="cls-1" d="M110.25,19.76c5.91,0,10.62,3.95,10.62,9.82s-4.71,9.72-10.58,9.72S99.7,35.42,99.7,29.58s4.72-9.82,10.55-9.82m0,14.32a4.22,4.22,0,0,0,4.25-4.19c0-.1,0-.21,0-.31A4.25,4.25,0,1,0,106,29a5.61,5.61,0,0,0,0,.58,4.22,4.22,0,0,0,3.93,4.49h.31"/><path class="cls-1" d="M197.57,27.23h.54V26.9c0-1.56-1.27-2.06-2.65-2.06a9.69,9.69,0,0,0-5.14,1.77l-2.18-4.42a14.44,14.44,0,0,1,7.9-2.43c5.15,0,8.34,2.87,8.34,7.61V38.86h-5.73V36.58a6.82,6.82,0,0,1-5.54,2.72c-3.59,0-6.09-2.47-6.09-5.69,0-5,5.94-6.38,10.55-6.38M195,34.62a3.4,3.4,0,0,0,3.19-3.3v-.5h-.58c-1.92,0-4.38.5-4.38,2.21a1.59,1.59,0,0,0,1.58,1.6H195"/><polygon class="cls-6" points="232.83 13.12 231.15 13.12 223.66 24.56 224.5 25.85 232.22 14.05 232.83 13.12"/><polygon class="cls-7" points="229.22 13.12 222.71 23.08 223.44 24.21 230.7 13.12 229.22 13.12"/><polygon class="cls-8" points="227.34 13.12 221.77 21.63 222.5 22.75 228.81 13.12 227.34 13.12"/><polygon class="cls-9" points="225.18 13.12 222.39 17.38 220.7 19.97 221.54 21.27 226.87 13.12 225.18 13.12"/><polygon class="cls-10" points="223.66 24.56 224.5 25.85 226.31 23.07 225.48 21.78 223.66 24.56"/><polygon class="cls-11" points="223.44 24.21 225.25 21.43 224.52 20.3 222.71 23.08 223.44 24.21"/><polygon class="cls-12" points="222.5 22.75 224.31 19.98 223.59 18.85 221.77 21.63 222.5 22.75"/><polygon class="cls-13" points="220.7 19.97 221.54 21.27 223.35 18.49 222.51 17.19 221.53 18.68 220.7 19.97"/><polygon class="cls-1" points="216.29 13.15 208.36 13.15 216.7 26.06 208 39.38 215.75 39.38 220.55 32 225.32 39.38 233.25 39.38 224.52 25.89 220.69 19.95 216.29 13.15"/><rect class="cls-1" x="144.62" y="20.2" width="6.27" height="18.66"/><rect class="cls-1" x="144.69" y="12.95" width="6.13" height="4.89"/><path class="cls-1" d="M155.24,20.39h6.29v2.45A6.57,6.57,0,0,1,166.86,20,5.49,5.49,0,0,1,172,22.91,7.53,7.53,0,0,1,178,20c3.81,0,6.12,2.38,6.12,6.55V39.06h-6.28V28.57c0-2-1-3-2.45-3s-2.58,1-2.58,3V39.06h-6.28V28.57c0-2-1-3-2.45-3s-2.55,1-2.55,3V39.06h-6.29Z"/><polygon class="cls-1" points="141.16 38.85 134.76 29.38 141.02 20.21 134.09 20.21 131.32 24.28 128.58 20.21 121.51 20.21 127.78 29.48 121.41 38.85 128.3 38.85 131.23 34.56 134.13 38.85 141.16 38.85"/></svg>