<svg id="Layer_1" data-name="Layer 1" xmlns="http://www.w3.org/2000/svg" viewBox="0 0 234 64"><defs><style>.cls-1{fill:#2f6eb5;}.cls-2,.cls-7{fill:#f06622;}.cls-2,.cls-3,.cls-4,.cls-5{fill-rule:evenodd;}.cls-10,.cls-3{fill:#79b5e2;}.cls-4,.cls-9{fill:#1cb4ab;}.cls-5,.cls-8{fill:#f2a91d;}.cls-6{fill:#121212;}.cls-11{fill:#cd4f27;}.cls-12{fill:#c6862b;}.cls-13{fill:#009f90;}.cls-14{fill:#488ebe;}</style></defs><title>logo-proximax-sirius-Artboard 1</title><path class="cls-1" d="M111.2,49.24a.9.9,0,0,1-.23.27.5.5,0,0,1-.31.09.82.82,0,0,1-.48-.21c-.18-.13-.41-.28-.68-.45a6.31,6.31,0,0,0-1-.45,4.25,4.25,0,0,0-1.42-.21,4,4,0,0,0-1.39.22,2.94,2.94,0,0,0-1,.57,2.34,2.34,0,0,0-.61.85,2.59,2.59,0,0,0-.21,1,1.94,1.94,0,0,0,.36,1.2,3,3,0,0,0,.94.81,7.1,7.1,0,0,0,1.33.59l1.51.51c.52.18,1,.38,1.52.6a5.18,5.18,0,0,1,1.33.84,3.77,3.77,0,0,1,.94,1.24,4.07,4.07,0,0,1,.35,1.8,5.75,5.75,0,0,1-.38,2.13,4.9,4.9,0,0,1-1.13,1.73,5.22,5.22,0,0,1-1.82,1.16,6.69,6.69,0,0,1-2.45.42,7.43,7.43,0,0,1-3.06-.61A7,7,0,0,1,101,61.75l.67-1.11a1,1,0,0,1,.24-.23.53.53,0,0,1,.3-.09.91.91,0,0,1,.58.28c.22.18.49.37.82.59a5.89,5.89,0,0,0,1.18.6,4.64,4.64,0,0,0,1.69.27,4.47,4.47,0,0,0,1.48-.23,3.18,3.18,0,0,0,1.11-.64,2.8,2.8,0,0,0,.69-1A3.3,3.3,0,0,0,110,58.9a2.13,2.13,0,0,0-.36-1.28,2.92,2.92,0,0,0-.93-.84,6.72,6.72,0,0,0-1.32-.57l-1.52-.48c-.52-.17-1-.36-1.52-.58a4.78,4.78,0,0,1-1.32-.84,4,4,0,0,1-.93-1.3,4.9,4.9,0,0,1,0-3.69,4.6,4.6,0,0,1,1-1.52,5.14,5.14,0,0,1,1.67-1.06,6.19,6.19,0,0,1,2.28-.4,7.38,7.38,0,0,1,2.64.46,6.17,6.17,0,0,1,2.09,1.33Z"/><path class="cls-1" d="M117.66,47.77a1.27,1.27,0,0,1-.13.58,1.58,1.58,0,0,1-.33.48,1.63,1.63,0,0,1-.49.33,1.51,1.51,0,0,1-1.18,0,1.6,1.6,0,0,1-.81-.81,1.4,1.4,0,0,1-.12-.58,1.53,1.53,0,0,1,.12-.6,1.51,1.51,0,0,1,.33-.49,1.61,1.61,0,0,1,.48-.34,1.51,1.51,0,0,1,1.18,0,1.66,1.66,0,0,1,.49.34,1.51,1.51,0,0,1,.33.49A1.38,1.38,0,0,1,117.66,47.77Zm-.48,3.83V63.81H115V51.6Z"/><path class="cls-1" d="M121,63.81V51.6h1.23a.69.69,0,0,1,.49.13,1,1,0,0,1,.18.46l.14,1.9a5.57,5.57,0,0,1,1.55-2,3.39,3.39,0,0,1,2.16-.72,3.26,3.26,0,0,1,.92.12,3,3,0,0,1,.76.32l-.28,1.6a.36.36,0,0,1-.37.3,2,2,0,0,1-.52-.11,3.13,3.13,0,0,0-1-.12,2.78,2.78,0,0,0-1.87.65A5,5,0,0,0,123.11,56v7.78Z"/><path class="cls-1" d="M133.55,47.77a1.41,1.41,0,0,1-.13.58,1.82,1.82,0,0,1-.34.48,1.51,1.51,0,0,1-.49.33,1.45,1.45,0,0,1-.59.12,1.4,1.4,0,0,1-.58-.12,1.58,1.58,0,0,1-.48-.33,1.82,1.82,0,0,1-.34-.48,1.4,1.4,0,0,1-.12-.58,1.53,1.53,0,0,1,.12-.6,1.72,1.72,0,0,1,.34-.49,1.61,1.61,0,0,1,.48-.34,1.4,1.4,0,0,1,.58-.12,1.45,1.45,0,0,1,.59.12,1.54,1.54,0,0,1,.49.34,1.72,1.72,0,0,1,.34.49A1.54,1.54,0,0,1,133.55,47.77Zm-.49,3.83V63.81h-2.14V51.6Z"/><path class="cls-1" d="M138.7,51.6v7.78a3.28,3.28,0,0,0,.64,2.15,2.38,2.38,0,0,0,1.93.76,3.64,3.64,0,0,0,1.77-.45,5.23,5.23,0,0,0,1.53-1.24v-9h2.15V63.81h-1.28a.55.55,0,0,1-.58-.45l-.17-1.31a6.63,6.63,0,0,1-1.78,1.41,4.65,4.65,0,0,1-2.27.54,4.42,4.42,0,0,1-1.76-.33,3.36,3.36,0,0,1-1.28-.94,3.82,3.82,0,0,1-.78-1.45,6.61,6.61,0,0,1-.26-1.9V51.6Z"/><path class="cls-1" d="M157.24,53.61a.48.48,0,0,1-.45.27.87.87,0,0,1-.41-.14l-.56-.29a4.69,4.69,0,0,0-.79-.3A3.78,3.78,0,0,0,154,53a3.31,3.31,0,0,0-1,.14,2.35,2.35,0,0,0-.74.38,1.68,1.68,0,0,0-.47.56,1.46,1.46,0,0,0-.16.69,1.16,1.16,0,0,0,.27.78,2.44,2.44,0,0,0,.72.55,6.86,6.86,0,0,0,1,.4l1.16.37c.4.14.79.28,1.17.44a4.12,4.12,0,0,1,1,.61,2.68,2.68,0,0,1,.72.88,2.73,2.73,0,0,1,.27,1.26,4,4,0,0,1-.3,1.56,3.44,3.44,0,0,1-.9,1.24,4.22,4.22,0,0,1-1.44.83,6,6,0,0,1-2,.3,6.09,6.09,0,0,1-2.31-.42,5.77,5.77,0,0,1-1.76-1.06l.5-.82a.67.67,0,0,1,.23-.24.63.63,0,0,1,.35-.09.82.82,0,0,1,.46.17l.58.38a4.78,4.78,0,0,0,.84.37,3.81,3.81,0,0,0,1.22.17,3.34,3.34,0,0,0,1.1-.17,2.12,2.12,0,0,0,.78-.44,1.66,1.66,0,0,0,.46-.63,2,2,0,0,0,.15-.78,1.27,1.27,0,0,0-.27-.83,2.41,2.41,0,0,0-.71-.57,6,6,0,0,0-1-.41l-1.17-.37a9.68,9.68,0,0,1-1.17-.44,4,4,0,0,1-1-.62,2.73,2.73,0,0,1-.72-.92,3,3,0,0,1-.27-1.33,3.26,3.26,0,0,1,.29-1.34,3.47,3.47,0,0,1,.85-1.14,4.37,4.37,0,0,1,1.36-.78,5.51,5.51,0,0,1,1.84-.28,5.62,5.62,0,0,1,2.16.38,5,5,0,0,1,1.66,1Z"/><path class="cls-1" d="M163.77,46.54h1.94a.86.86,0,0,1,.52.15.8.8,0,0,1,.28.4l3.56,12a6.49,6.49,0,0,1,.18.7c.05.25.1.51.15.79.06-.28.11-.54.17-.79a5.41,5.41,0,0,1,.19-.7l4.06-12a.92.92,0,0,1,.29-.38.8.8,0,0,1,.51-.17h.67a.86.86,0,0,1,.52.15.94.94,0,0,1,.28.4l4,12a12.37,12.37,0,0,1,.38,1.44c.05-.27.09-.52.13-.76a6.18,6.18,0,0,1,.16-.68l3.58-12a.81.81,0,0,1,.78-.55H188L182.6,63.81h-2.1l-4.38-13.18c-.08-.24-.16-.53-.24-.86,0,.16-.07.31-.11.46s-.08.28-.12.4l-4.39,13.18h-2.1Z"/><path class="cls-1" d="M197.83,63.81h-1a1.08,1.08,0,0,1-.51-.1.52.52,0,0,1-.25-.41l-.24-1.13c-.32.29-.64.55-.94.78a5.6,5.6,0,0,1-1,.57,4.65,4.65,0,0,1-1.07.36,6.33,6.33,0,0,1-1.28.12,4.46,4.46,0,0,1-1.33-.2,3,3,0,0,1-1.08-.6,2.83,2.83,0,0,1-.73-1,3.56,3.56,0,0,1-.27-1.44,2.76,2.76,0,0,1,.4-1.4,3.53,3.53,0,0,1,1.28-1.19,8.26,8.26,0,0,1,2.32-.85,15.33,15.33,0,0,1,3.51-.34V56a3.3,3.3,0,0,0-.61-2.17,2.18,2.18,0,0,0-1.8-.73,3.67,3.67,0,0,0-1.32.2,5,5,0,0,0-.93.44l-.67.45a1,1,0,0,1-.56.2.62.62,0,0,1-.38-.12.77.77,0,0,1-.26-.28l-.39-.69A7.32,7.32,0,0,1,191,51.86a6.8,6.8,0,0,1,2.6-.48,4.54,4.54,0,0,1,1.82.34,3.65,3.65,0,0,1,1.33.94,3.8,3.8,0,0,1,.82,1.46,5.89,5.89,0,0,1,.28,1.88Zm-5.57-1.32a3.93,3.93,0,0,0,1.92-.44,4.51,4.51,0,0,0,.8-.51,6.74,6.74,0,0,0,.74-.69V58.34a15,15,0,0,0-2.52.18,7.25,7.25,0,0,0-1.68.49,2.38,2.38,0,0,0-1,.72,1.51,1.51,0,0,0-.3.92,2.17,2.17,0,0,0,.16.84,1.63,1.63,0,0,0,.42.57,1.73,1.73,0,0,0,.63.33A2.78,2.78,0,0,0,192.26,62.49Z"/><path class="cls-1" d="M203.47,46.05V63.81h-2.14V46.05Z"/><path class="cls-1" d="M209.64,46.05V63.81H207.5V46.05Z"/><path class="cls-1" d="M218.26,51.41a5.54,5.54,0,0,1,2,.36,4.66,4.66,0,0,1,1.61,1.06,4.88,4.88,0,0,1,1.05,1.72,6.64,6.64,0,0,1,.38,2.32,1.41,1.41,0,0,1-.11.67.46.46,0,0,1-.41.17h-8.12a6.63,6.63,0,0,0,.31,2,4,4,0,0,0,.8,1.43A3.2,3.2,0,0,0,217,62a4.35,4.35,0,0,0,1.57.28A4.41,4.41,0,0,0,220,62.1a6.64,6.64,0,0,0,1-.4,7.73,7.73,0,0,0,.7-.41,1,1,0,0,1,.49-.18.48.48,0,0,1,.41.2l.6.79a3.81,3.81,0,0,1-.95.83,5.5,5.5,0,0,1-1.19.59,7.1,7.1,0,0,1-1.3.34,7.67,7.67,0,0,1-1.34.12,6.31,6.31,0,0,1-2.33-.43,5.12,5.12,0,0,1-1.85-1.26,5.73,5.73,0,0,1-1.21-2,8.26,8.26,0,0,1-.43-2.79,7.13,7.13,0,0,1,.39-2.39,5.58,5.58,0,0,1,1.13-1.92,5.18,5.18,0,0,1,1.79-1.28A5.89,5.89,0,0,1,218.26,51.41Zm.05,1.57a3.28,3.28,0,0,0-2.45.9,4.3,4.3,0,0,0-1.11,2.49h6.64a4.58,4.58,0,0,0-.2-1.37,3.05,3.05,0,0,0-.61-1.07,2.66,2.66,0,0,0-1-.7A3.31,3.31,0,0,0,218.31,53Z"/><path class="cls-1" d="M229.76,64a3,3,0,0,1-2.23-.81,3.21,3.21,0,0,1-.78-2.32V53.39h-1.47a.46.46,0,0,1-.32-.11.44.44,0,0,1-.13-.36v-.85l2-.25.49-3.78a.44.44,0,0,1,.16-.29.49.49,0,0,1,.34-.12h1.08v4.21h3.49v1.55H228.9v7.33a1.56,1.56,0,0,0,.37,1.15,1.3,1.3,0,0,0,1,.37,1.68,1.68,0,0,0,.58-.09,2.48,2.48,0,0,0,.43-.2l.31-.2a.4.4,0,0,1,.22-.09.37.37,0,0,1,.3.21l.63,1a3.85,3.85,0,0,1-1.34.81A4.46,4.46,0,0,1,229.76,64Z"/><path class="cls-2" d="M34.56,6.47c7.28-2.08,10.38-1.54,16.06-1A56.88,56.88,0,0,0,26.4,0c-1.25,0-2.49,0-3.74.13a22.38,22.38,0,0,1,5,3.78c.86.88,2.64,3,3.86,3.16a8,8,0,0,0,3-.6"/><path class="cls-3" d="M43.59,36.26c-.63-2.81-1.46-5.6-2.33-8.27-.45-1.4-.95-2.78-1.43-4.17s-1-2.69-1.56-4c-2.43-5.7-2.18-5.73,2.27-8.3C43.56,10,48.3,7.79,51.7,8l.35,0a51.75,51.75,0,0,1-8.46,28.27"/><path class="cls-4" d="M6.19,31c2.89-2.27,6.12-4.44,8.47-5.93a101.13,101.13,0,0,1,9.69-5.27,11.88,11.88,0,0,1,3.4-1.26,2.44,2.44,0,0,1,1.06.12c1.07.45,2.85,3.33,2.85,3.33l0,0c.32.47.61.95,1,1.41s.68,1,1,1.54c.47.77.93,1.54,1.39,2.32.74,1.25,1.55,2.56,2.21,3.85,1.11,2.15,2.66,5.2,4,8.45A51.86,51.86,0,0,1,27.14,52.16l-.74.44-.74-.44A51.78,51.78,0,0,1,6.19,31"/><path class="cls-5" d="M17.31.76c.27.29.52.58.75.86.51.61,1,1.25,1.48,1.89a22,22,0,0,1,1.61,2.25C21.82,7,23.26,8.84,23.69,10a2.21,2.21,0,0,1,.16,1.1,1.48,1.48,0,0,1-.53.77c-.56.46-.83.6-1.3.94C20,14.31,18,15.93,16,17.53c-2.25,1.78-4.48,3.89-6.54,5.89-1.43,1.38-3,3-4.52,4.78A51.42,51.42,0,0,1,.76,7.07V6.2l.79-.38A57.75,57.75,0,0,1,17.31.76"/><path class="cls-6" d="M62.49,13.11H73.4c5.11,0,8.56,3.75,8.56,9s-3.45,9.11-8.56,9.11H68.92v8.13H62.49Zm9.59,12.64c2.24,0,3.34-1.5,3.34-3.6s-1.1-3.52-3.23-3.52H68.92v7.12Z"/><path class="cls-6" d="M84.86,20.2h6v4.31a6.47,6.47,0,0,1,5.94-4.64,4.08,4.08,0,0,1,.73.08v6.16A5.42,5.42,0,0,0,96.27,26c-3.48,0-5.15,2.21-5.15,5.61v7.25H84.86Z"/><path class="cls-6" d="M110.25,19.76c5.91,0,10.62,3.95,10.62,9.82s-4.71,9.72-10.58,9.72S99.7,35.42,99.7,29.58s4.72-9.82,10.55-9.82m0,14.32a4.22,4.22,0,0,0,4.24-4.5,4.25,4.25,0,1,0-8.48,0,4.22,4.22,0,0,0,4.24,4.5"/><path class="cls-6" d="M197.57,27.23h.54V26.9c0-1.56-1.27-2.06-2.65-2.06a9.72,9.72,0,0,0-5.14,1.77l-2.18-4.42a14.43,14.43,0,0,1,7.9-2.43c5.15,0,8.34,2.87,8.34,7.61V38.86h-5.73V36.58a6.84,6.84,0,0,1-5.54,2.72c-3.59,0-6.09-2.47-6.09-5.69,0-5,5.94-6.38,10.55-6.38M195,34.62a3.41,3.41,0,0,0,3.19-3.3v-.5h-.58c-1.92,0-4.38.5-4.38,2.21A1.59,1.59,0,0,0,195,34.62"/><polygon class="cls-7" points="232.83 13.12 231.15 13.12 223.66 24.56 224.5 25.85 232.22 14.05 232.83 13.12"/><polygon class="cls-8" points="229.22 13.12 222.71 23.08 223.44 24.21 230.7 13.12 229.22 13.12"/><polygon class="cls-9" points="227.34 13.12 221.77 21.63 222.5 22.75 228.81 13.12 227.34 13.12"/><polygon class="cls-10" points="225.18 13.12 222.39 17.38 220.7 19.97 221.54 21.27 226.87 13.12 225.18 13.12"/><polygon class="cls-11" points="223.66 24.56 224.5 25.85 226.31 23.07 225.48 21.78 223.66 24.56"/><polygon class="cls-12" points="223.44 24.21 225.25 21.43 224.52 20.3 222.71 23.08 223.44 24.21"/><polygon class="cls-13" points="222.5 22.75 224.31 19.98 223.59 18.85 221.77 21.63 222.5 22.75"/><polygon class="cls-14" points="220.7 19.97 221.54 21.27 223.35 18.49 222.51 17.19 221.53 18.68 220.7 19.97"/><polygon class="cls-6" points="216.29 13.15 208.36 13.15 216.7 26.06 208 39.38 215.75 39.38 220.55 32 225.32 39.38 233.25 39.38 224.52 25.89 220.69 19.95 216.29 13.15"/><rect class="cls-6" x="144.62" y="20.2" width="6.27" height="18.66"/><rect class="cls-6" x="144.69" y="12.95" width="6.13" height="4.89"/><path class="cls-6" d="M155.24,20.39h6.29v2.45A6.57,6.57,0,0,1,166.86,20,5.49,5.49,0,0,1,172,22.91,7.5,7.5,0,0,1,178,20c3.81,0,6.12,2.38,6.12,6.55V39.06h-6.28V28.57c0-2-1-3-2.45-3s-2.58,1-2.58,3V39.06h-6.28V28.57c0-2-1-3-2.45-3s-2.55,1-2.55,3V39.06h-6.29Z"/><polygon class="cls-6" points="141.16 38.85 134.76 29.38 141.02 20.21 134.09 20.21 131.32 24.28 128.58 20.21 121.51 20.21 127.78 29.48 121.41 38.85 128.3 38.85 131.23 34.56 134.13 38.85 141.16 38.85"/></svg>