<svg id="Layer_1" data-name="Layer 1" xmlns="http://www.w3.org/2000/svg" viewBox="0 0 40 40"><defs><style>.cls-1{fill:#666;}</style></defs><title>icon-multisign-gray</title><path class="cls-1" d="M24,9.49a6.9,6.9,0,0,1,3.21,5.13A5.57,5.57,0,1,0,24,9.49ZM20.35,20.9a5.58,5.58,0,1,0-5.58-5.57A5.58,5.58,0,0,0,20.35,20.9Zm2.36.38H18a7.15,7.15,0,0,0-7.14,7.14V34.2l0,.09.4.12A32.23,32.23,0,0,0,21,36a20,20,0,0,0,8.47-1.59l.37-.19h0V28.42A7.14,7.14,0,0,0,22.71,21.28Zm9.22-5.75H27.24a6.87,6.87,0,0,1-2.12,4.78,8.48,8.48,0,0,1,6.05,8.11v1.79a19.32,19.32,0,0,0,7.48-1.57l.38-.19h0V22.66A7.16,7.16,0,0,0,31.93,15.53Zm-21.36-.38a5.54,5.54,0,0,0,3-.86,6.88,6.88,0,0,1,2.59-4.4c0-.11,0-.21,0-.32a5.58,5.58,0,1,0-5.57,5.58Zm5,5.16a6.89,6.89,0,0,1-2.12-4.76l-.52,0H8.2a7.14,7.14,0,0,0-7.13,7.13v5.87l.4.13a33.63,33.63,0,0,0,8,1.51V28.42A8.47,8.47,0,0,1,15.57,20.31Z"/></svg>