<svg id="Layer_1" data-name="Layer 1" xmlns="http://www.w3.org/2000/svg" viewBox="0 0 40 40"><defs><style>.cls-1{fill:#666;}.cls-2{fill:#fff;}</style></defs><title>icon-extend-duration-gray</title><circle class="cls-1" cx="20" cy="20" r="20"/><path class="cls-2" d="M31.93,18.14l-2.39,3a.45.45,0,0,1-.37.18.44.44,0,0,1-.36-.18l-2.4-3a.51.51,0,0,1-.06-.53.46.46,0,0,1,.43-.29h1.41a8.72,8.72,0,0,0-8.4-7,8.82,8.82,0,0,0-8.61,9,8.82,8.82,0,0,0,8.61,9,8.59,8.59,0,0,0,7.47-4.5.92.92,0,0,1,1.3-.36,1,1,0,0,1,.35,1.36,10.49,10.49,0,0,1-9.12,5.5,10.78,10.78,0,0,1-10.53-11,10.79,10.79,0,0,1,10.53-11,10.69,10.69,0,0,1,10.36,9h1.42a.48.48,0,0,1,.43.29A.51.51,0,0,1,31.93,18.14ZM20.75,11.82v6.07a1.73,1.73,0,0,1,.7,1.28l3.34,2a1,1,0,0,1,.35,1.37.92.92,0,0,1-1.31.36l-3.33-2a1.55,1.55,0,0,1-.71.17,1.71,1.71,0,0,1-1.67-1.75,1.76,1.76,0,0,1,.72-1.43V11.82a1,1,0,1,1,1.91,0Zm-.24,7.5a.72.72,0,1,0-.72.75A.74.74,0,0,0,20.51,19.32Z"/></svg>