<svg id="Layer_1" data-name="Layer 1" xmlns="http://www.w3.org/2000/svg" viewBox="0 0 16 16"><defs><style>.cls-1{fill:#666;}.cls-2{fill:#fff;}</style></defs><title>icon-doc-type-xlsx-16h-proximax-sirius-wallet</title><path class="cls-1" d="M5.62,6V4l-.45.45-.32-.34.84-.84h.49V6Zm3-1.86a.9.9,0,0,0-1-.85,1.36,1.36,0,0,0-1,.43l.32.38a.94.94,0,0,1,.71-.31c.22,0,.44.12.44.35s-.32.6-1.42,1.41V6h2v-.5H7.55C8.25,4.94,8.62,4.55,8.62,4.09ZM10,5.49a1.09,1.09,0,0,1-.74-.3l-.29.38A1.32,1.32,0,0,0,10,6c.64,0,1-.32,1-.78a.67.67,0,0,0-.62-.64A.65.65,0,0,0,11,4c0-.44-.38-.72-1-.72a1.34,1.34,0,0,0-1,.42L9.25,4a1,1,0,0,1,.67-.28c.28,0,.5.11.5.32s-.2.28-.49.28H9.6v.51h.33c.37,0,.53.1.53.31S10.28,5.49,10,5.49ZM16,4V14a2,2,0,0,1-2,2H6a2,2,0,0,1-2-2H1a1,1,0,0,1-1-1V8A1,1,0,0,1,1,7H15V4a1,1,0,0,0-1-1V6H13V2a1,1,0,0,0-1-1H4A1,1,0,0,0,3,2V6H2V2A2,2,0,0,1,4,0h8a2,2,0,0,1,2,2A2,2,0,0,1,16,4ZM15,14H5a1,1,0,0,0,1,1h8A1,1,0,0,0,15,14Z"/><path class="cls-2" d="M4.36,12.17,3.52,11l-.84,1.22H1.84l1.21-1.71L1.91,8.83h.85L3.52,10l.76-1.14h.86L4,10.45l1.21,1.72Z"/><path class="cls-2" d="M5.52,12.17V8.83h.71v2.71H7.64v.63Z"/><path class="cls-2" d="M7.91,11.7l.39-.54a1.47,1.47,0,0,0,1.06.45c.39,0,.58-.18.58-.37,0-.59-1.92-.19-1.92-1.45,0-.55.48-1,1.26-1a1.88,1.88,0,0,1,1.3.46l-.39.52a1.43,1.43,0,0,0-1-.36c-.31,0-.48.13-.48.33,0,.53,1.92.18,1.92,1.43,0,.61-.44,1.07-1.34,1.07A1.92,1.92,0,0,1,7.91,11.7Z"/><path class="cls-2" d="M13.32,12.17,12.48,11l-.84,1.22h-.85L12,10.46,10.87,8.83h.84L12.48,10l.76-1.14h.85L13,10.45l1.21,1.72Z"/></svg>