<svg id="Layer_1" data-name="Layer 1" xmlns="http://www.w3.org/2000/svg" viewBox="0 0 60 60"><defs><style>.cls-1{fill:#2f98e3;fill-rule:evenodd;}.cls-2{fill:none;}</style></defs><title>icon-prx-xpx-blue</title><path class="cls-1" d="M30,0A30,30,0,1,0,60,30,30,30,0,0,0,30,0Zm0,58.12A28.12,28.12,0,1,1,58.12,30,28.15,28.15,0,0,1,30,58.12Zm.84-41.59a14.67,14.67,0,0,0-3.25-2.45C28.39,14,29.19,14,30,14a36.68,36.68,0,0,1,15.65,3.57c-3.67-.39-5.67-.73-10.38.61a5.16,5.16,0,0,1-1.94.39C32.55,18.43,31.4,17.1,30.84,16.53Zm15.51,2.62h.23a33.38,33.38,0,0,1-5.47,18.27c-.4-1.81-1-3.61-1.5-5.34-.3-.9-.62-1.8-.93-2.69s-.65-1.74-1-2.6c-1.58-3.69-1.41-3.71,1.46-5.36C41.09,20.44,44.16,19,46.35,19.15ZM37,34.14c.71,1.38,1.71,3.35,2.57,5.46a33.37,33.37,0,0,1-9.09,8.11L30,48l-.48-.29A33.42,33.42,0,0,1,16.94,34c1.87-1.47,3.95-2.87,5.47-3.83a65.9,65.9,0,0,1,6.27-3.41A7.71,7.71,0,0,1,30.87,26a1.46,1.46,0,0,1,.69.08c.69.29,1.84,2.15,1.84,2.15l0,0c.2.3.39.62.6.91s.44.67.65,1c.3.49.6,1,.89,1.49C36,32.45,36.56,33.3,37,34.14ZM16.1,32.23a33.4,33.4,0,0,1-2.67-13.66V18l.51-.25a37.44,37.44,0,0,1,10.19-3.27l.48.56c.33.39.65.81,1,1.22a14.74,14.74,0,0,1,1,1.45c.43.8,1.36,2,1.64,2.73a1.45,1.45,0,0,1,.1.71,1,1,0,0,1-.34.5c-.36.29-.53.39-.84.61-1.34,1-2.62,2-3.92,3.06S20.36,27.84,19,29.14C18.1,30,17.07,31.1,16.1,32.23Z"/><rect class="cls-2" x="-245" y="-347" width="1366" height="780"/></svg>