<svg id="Layer_1" data-name="Layer 1" xmlns="http://www.w3.org/2000/svg" viewBox="0 0 60 60"><defs><style>.cls-1{fill:#2f98e3;}.cls-2{fill:none;}</style></defs><title>icon-usd-blue</title><path class="cls-1" d="M32.44,27V20.89a12.16,12.16,0,0,1,5.36,2.8l3.41-4.49a15.18,15.18,0,0,0-8.77-3.84V11.25h-4.1v4c-5.83.6-9.29,4.32-9.29,8.68,0,5.88,4.84,7.52,9.29,8.64v6.83a12.44,12.44,0,0,1-6.87-3.72l-3.33,4.67a15.7,15.7,0,0,0,10.2,4.49v3.89h4.1V44.82c6.31-.65,9.42-4.32,9.42-9.12C41.86,29.83,36.89,28.1,32.44,27Zm-4.1-1.08c-1.82-.51-3-1.21-3-2.46,0-1.46,1.08-2.54,3-2.81Zm4.1,13.53V33.63c1.86.61,3.2,1.34,3.2,2.77S34.56,39,32.44,39.42ZM30,0A30,30,0,1,0,60,30,30,30,0,0,0,30,0Zm0,58.12A28.12,28.12,0,1,1,58.12,30,28.15,28.15,0,0,1,30,58.12Z"/><rect class="cls-2" x="-245" y="-484" width="1366" height="780"/></svg>