<svg id="Layer_1" data-name="Layer 1" xmlns="http://www.w3.org/2000/svg" viewBox="0 0 16 16"><defs><style>.cls-1{fill:#666;}.cls-2{fill:#fff;}</style></defs><title>icon-doc-type-ppt-16h-proximax-sirius-wallet</title><rect class="cls-1" x="4" y="3" width="3" height="1"/><rect class="cls-1" x="4" y="5" width="3" height="1"/><rect class="cls-1" y="7" width="14" height="5" rx="1"/><path class="cls-1" d="M14,2a2,2,0,0,0-2-2H4A2,2,0,0,0,2,2V6H3V2A1,1,0,0,1,4,1h8a1,1,0,0,1,1,1V6h1V3a1,1,0,0,1,1,1V14a1,1,0,0,1-1,1H6a1,1,0,0,1-1-1h7a2,2,0,0,0,1.72-1H2.28A2,2,0,0,0,4,14a2,2,0,0,0,2,2h8a2,2,0,0,0,2-2V4A2,2,0,0,0,14,2Z"/><path class="cls-2" d="M3.6,10.83V8.17H4.85a.86.86,0,1,1,0,1.72H4.17v.94ZM5.17,9a.35.35,0,0,0-.39-.36H4.17v.72h.61A.36.36,0,0,0,5.17,9Z"/><path class="cls-2" d="M6.1,10.83V8.17H7.35A.83.83,0,0,1,8.24,9a.84.84,0,0,1-.89.86H6.67v.94ZM7.66,9a.35.35,0,0,0-.39-.36h-.6v.72h.6A.36.36,0,0,0,7.66,9Z"/><path class="cls-2" d="M9.21,10.83V8.67H8.43v-.5h2.13v.5H9.78v2.16Z"/><path class="cls-1" d="M11.72,6A2,2,0,1,0,8.28,6Z"/></svg>