<svg id="Layer_1" data-name="Layer 1" xmlns="http://www.w3.org/2000/svg" viewBox="0 0 16 16"><defs><style>.cls-1{fill:#666;}.cls-2{fill:#fff;}</style></defs><title>icon-doc-type-tar-16h-proximax-sirius-wallet</title><path class="cls-1" d="M9,0,2,2v.8H2l0,3.2h1L3,3.17l5.48,2V6h1V5.16l5.5-2v9.18L9.5,14.72V13h-1v1.66L4.66,13H2.14l6.93,3L16,13V2ZM9,4.26,4,2.48,9,1l5.05,1.44Z"/><rect class="cls-1" y="7" width="14" height="5" rx="1"/><path class="cls-2" d="M4.19,10.83V8.67H3.41v-.5H5.54v.5H4.76v2.16Z"/><path class="cls-2" d="M7.49,10.83l-.17-.45H6.18L6,10.83H5.36l1-2.66h.72l1,2.66ZM6.75,8.74,6.33,9.88h.84Z"/><path class="cls-2" d="M9.89,10.83l-.52-.94H9v.94H8.38V8.17H9.63a.83.83,0,0,1,.9.86.77.77,0,0,1-.59.79l.6,1ZM10,9a.36.36,0,0,0-.4-.36H9v.72h.6A.37.37,0,0,0,10,9Z"/></svg>