<svg id="Layer_1" data-name="Layer 1" xmlns="http://www.w3.org/2000/svg" viewBox="0 0 16 16"><defs><style>.cls-1{fill:#666;}.cls-2{fill:#fff;}</style></defs><title>icon-doc-type-png-16h-proximax-sirius-wallet</title><rect class="cls-1" y="7" width="14" height="5" rx="1"/><path class="cls-2" d="M3.12,10.83V8.17H4.37A.83.83,0,0,1,5.26,9a.84.84,0,0,1-.89.86H3.69v.94ZM4.68,9a.35.35,0,0,0-.39-.36h-.6v.72h.6A.36.36,0,0,0,4.68,9Z"/><path class="cls-2" d="M7.45,10.83,6.18,9.09v1.74H5.61V8.17H6.2L7.43,9.84V8.17H8v2.66Z"/><path class="cls-2" d="M8.4,9.5A1.36,1.36,0,0,1,9.82,8.12a1.22,1.22,0,0,1,1.1.6L10.45,9a.76.76,0,0,0-.63-.34A.83.83,0,0,0,9,9.5a.83.83,0,0,0,.83.88.9.9,0,0,0,.57-.21V9.85h-.7V9.36H11v1a1.46,1.46,0,0,1-1.14.51A1.36,1.36,0,0,1,8.4,9.5Z"/><path class="cls-1" d="M14,1H4A2,2,0,0,0,2,3V6H3V3A1,1,0,0,1,4,2H14a1,1,0,0,1,1,1V13h0a1,1,0,0,1-1,1H4a1,1,0,0,1-1-1H2a2,2,0,0,0,2,2H14a2,2,0,0,0,2-2V3A2,2,0,0,0,14,1Z"/><polygon class="cls-1" points="4 6 6 4 8 6 4 6"/><path class="cls-1" d="M11,3A3,3,0,0,0,8,6h6A3,3,0,0,0,11,3Z"/></svg>