<svg id="Layer_1" data-name="Layer 1" xmlns="http://www.w3.org/2000/svg" viewBox="0 0 16 16"><defs><style>.cls-1{fill:#666;}.cls-2{fill:#fff;}</style></defs><title>icon-doc-type-gif-16h-proximax-sirius-wallet</title><rect class="cls-1" y="7" width="14" height="5" rx="1"/><path class="cls-2" d="M4,9.5A1.35,1.35,0,0,1,5.42,8.12a1.25,1.25,0,0,1,1.11.6L6.06,9a.78.78,0,0,0-.64-.34.83.83,0,0,0-.83.87.83.83,0,0,0,.83.88A.9.9,0,0,0,6,10.17V9.85h-.7V9.36H6.56v1a1.46,1.46,0,0,1-1.14.51A1.36,1.36,0,0,1,4,9.5Z"/><path class="cls-2" d="M7,10.83V8.17h.57v2.66Z"/><path class="cls-2" d="M8.11,10.83V8.17H10v.5H8.68v.56H10v.5H8.68v1.1Z"/><path class="cls-1" d="M14,1H4A2,2,0,0,0,2,3V6H3V3A1,1,0,0,1,4,2H14a1,1,0,0,1,1,1V13h0a1,1,0,0,1-1,1H4a1,1,0,0,1-1-1H2a2,2,0,0,0,2,2H14a2,2,0,0,0,2-2V3A2,2,0,0,0,14,1Z"/><polygon class="cls-1" points="4 6 6 4 8 6 4 6"/><path class="cls-1" d="M11,3A3,3,0,0,0,8,6h6A3,3,0,0,0,11,3Z"/></svg>