<svg id="Layer_1" data-name="Layer 1" xmlns="http://www.w3.org/2000/svg" viewBox="0 0 16 16"><defs><style>.cls-1{fill:#666;}.cls-2{fill:#fff;}</style></defs><title>icon-doc-type-pptx-16h-proximax-sirius-wallet</title><rect class="cls-1" x="4" y="3" width="3" height="1"/><rect class="cls-1" x="4" y="5" width="3" height="1"/><rect class="cls-1" y="7" width="14" height="5" rx="1"/><path class="cls-1" d="M14,2a2,2,0,0,0-2-2H4A2,2,0,0,0,2,2V6H3V2A1,1,0,0,1,4,1h8a1,1,0,0,1,1,1V6h1V3a1,1,0,0,1,1,1V14a1,1,0,0,1-1,1H6a1,1,0,0,1-1-1h7a2,2,0,0,0,1.72-1H2.28A2,2,0,0,0,4,14a2,2,0,0,0,2,2h8a2,2,0,0,0,2-2V4A2,2,0,0,0,14,2Z"/><path class="cls-2" d="M2.27,10.83V8.17H3.51a.86.86,0,1,1,0,1.72H2.84v.94ZM3.83,9a.35.35,0,0,0-.39-.36h-.6v.72h.6A.36.36,0,0,0,3.83,9Z"/><path class="cls-2" d="M4.76,10.83V8.17H6A.86.86,0,1,1,6,9.89H5.33v.94ZM6.33,9a.35.35,0,0,0-.39-.36H5.33v.72h.61A.36.36,0,0,0,6.33,9Z"/><path class="cls-2" d="M7.88,10.83V8.67H7.1v-.5H9.22v.5H8.45v2.16Z"/><path class="cls-2" d="M11.33,10.83l-.67-1-.67,1H9.31l1-1.36-.91-1.3h.68l.61.91.6-.91H12L11,9.46l1,1.37Z"/><path class="cls-1" d="M11.72,6A2,2,0,1,0,8.28,6Z"/></svg>