<svg id="Layer_1" data-name="Layer 1" xmlns="http://www.w3.org/2000/svg" viewBox="0 0 16 16"><defs><style>.cls-1{fill:#666;}.cls-2{fill:#fff;}</style></defs><title>icon-doc-type-docx-16h-proximax-sirius-wallet</title><rect class="cls-1" x="5" y="3" width="6" height="1"/><rect class="cls-1" x="5" y="5" width="5" height="1"/><rect class="cls-1" y="7" width="14" height="5" rx="1"/><path class="cls-1" d="M14,2a2,2,0,0,0-2-2H4A2,2,0,0,0,2,2V6H3V2A1,1,0,0,1,4,1h8a1,1,0,0,1,1,1V6h1V3a1,1,0,0,1,1,1V14a1,1,0,0,1-1,1H6a1,1,0,0,1-1-1h7a2,2,0,0,0,1.72-1H2.28A2,2,0,0,0,4,14a2,2,0,0,0,2,2h8a2,2,0,0,0,2-2V4A2,2,0,0,0,14,2Z"/><path class="cls-2" d="M1.59,10.83V8.17H2.64a1.33,1.33,0,1,1,0,2.66ZM3.47,9.5a.77.77,0,0,0-.83-.83H2.16v1.66h.48A.79.79,0,0,0,3.47,9.5Z"/><path class="cls-2" d="M4.33,9.5A1.34,1.34,0,0,1,5.72,8.12a1.38,1.38,0,1,1,0,2.76A1.34,1.34,0,0,1,4.33,9.5Zm2.21,0a.81.81,0,0,0-.82-.87.8.8,0,0,0-.8.87.81.81,0,0,0,.8.88A.82.82,0,0,0,6.54,9.5Z"/><path class="cls-2" d="M7.39,9.5A1.36,1.36,0,0,1,8.81,8.12a1.22,1.22,0,0,1,1.12.66L9.44,9a.72.72,0,0,0-.63-.38A.83.83,0,0,0,8,9.5a.83.83,0,0,0,.83.88A.71.71,0,0,0,9.44,10l.49.24a1.24,1.24,0,0,1-1.12.65A1.36,1.36,0,0,1,7.39,9.5Z"/><path class="cls-2" d="M12,10.83l-.67-1-.67,1H10l1-1.36-.91-1.3h.68l.61.91.6-.91h.69l-.91,1.29,1,1.37Z"/></svg>