<svg id="Layer_1" data-name="Layer 1" xmlns="http://www.w3.org/2000/svg" viewBox="0 0 16 16"><defs><style>.cls-1{fill:#666;}.cls-2{fill:#fff;}</style></defs><title>icon-doc-type-xlsx-16h-proximax-sirius-wallet</title><rect class="cls-1" y="7" width="14" height="5" rx="1"/><path class="cls-1" d="M14,2a2,2,0,0,0-2-2H4A2,2,0,0,0,2,2V6H3V2A1,1,0,0,1,4,1h8a1,1,0,0,1,1,1V6h1V3a1,1,0,0,1,1,1V14a1,1,0,0,1-1,1H6a1,1,0,0,1-1-1h7a2,2,0,0,0,1.72-1H2.28A2,2,0,0,0,4,14a2,2,0,0,0,2,2h8a2,2,0,0,0,2-2V4A2,2,0,0,0,14,2Z"/><path class="cls-2" d="M4.08,10.83l-.66-1-.67,1H2.07L3,9.47l-.91-1.3h.68l.61.91L4,8.17h.69L3.8,9.46l1,1.37Z"/><path class="cls-2" d="M5,10.83V8.17h.57v2.16H6.71v.5Z"/><path class="cls-2" d="M6.93,10.46,7.24,10a1.19,1.19,0,0,0,.84.36c.32,0,.47-.15.47-.3C8.55,9.62,7,9.94,7,8.94c0-.44.39-.81,1-.81a1.48,1.48,0,0,1,1,.37l-.31.42A1.11,1.11,0,0,0,8,8.62c-.24,0-.38.11-.38.27,0,.42,1.53.14,1.53,1.14,0,.48-.34.85-1.06.85A1.52,1.52,0,0,1,6.93,10.46Z"/><path class="cls-2" d="M11.25,10.83l-.67-1-.67,1H9.23l1-1.36-.91-1.3H10l.61.91.6-.91h.69L11,9.46l1,1.37Z"/><path class="cls-1" d="M5.62,6V4l-.45.45-.32-.34.84-.84h.49V6Z"/><path class="cls-1" d="M6.63,6V5.5c1.1-.81,1.42-1.08,1.42-1.41s-.22-.35-.44-.35a.94.94,0,0,0-.71.31l-.32-.38a1.36,1.36,0,0,1,1-.43.9.9,0,0,1,1,.85c0,.46-.37.85-1.07,1.36H8.64V6Z"/><path class="cls-1" d="M8.93,5.57l.29-.38a1.09,1.09,0,0,0,.74.3c.32,0,.5-.14.5-.34s-.16-.31-.53-.31H9.6V4.34h.33c.29,0,.49-.09.49-.28s-.22-.32-.5-.32A1,1,0,0,0,9.25,4L9,3.66a1.34,1.34,0,0,1,1-.42c.63,0,1,.28,1,.72a.65.65,0,0,1-.58.61.67.67,0,0,1,.62.64c0,.46-.41.78-1,.78A1.32,1.32,0,0,1,8.93,5.57Z"/></svg>